<svg width="21" height="20" viewBox="0 0 21 20" fill="none" xmlns="http://www.w3.org/2000/svg">
<path d="M7.31568 4.10912C7.26521 4.00174 7.18522 3.91096 7.08506 3.84736C6.98489 3.78377 6.8687 3.75 6.75006 3.75C6.63141 3.75 6.51522 3.78377 6.41506 3.84736C6.3149 3.91096 6.2349 4.00174 6.18443 4.10912L1.18443 14.7341C1.1495 14.8084 1.12954 14.8888 1.12569 14.9708C1.12184 15.0528 1.13418 15.1348 1.162 15.212C1.21819 15.368 1.33403 15.4952 1.48404 15.5658C1.63405 15.6363 1.80595 15.6444 1.96191 15.5882C2.11788 15.532 2.24513 15.4162 2.31568 15.2661L3.61724 12.5005H9.88287L11.1844 15.2661C11.2194 15.3404 11.2686 15.4071 11.3293 15.4624C11.39 15.5176 11.461 15.5604 11.5382 15.5882C11.6154 15.616 11.6974 15.6284 11.7794 15.6245C11.8614 15.6207 11.9418 15.6007 12.0161 15.5658C12.0904 15.5308 12.157 15.4816 12.2123 15.4209C12.2675 15.3602 12.3103 15.2892 12.3381 15.212C12.3659 15.1348 12.3783 15.0528 12.3744 14.9708C12.3706 14.8888 12.3506 14.8084 12.3157 14.7341L7.31568 4.10912ZM4.20553 11.2505L6.75006 5.84349L9.29459 11.2505H4.20553ZM16.1251 7.50052C15.1282 7.50052 14.3493 7.77162 13.8102 8.30677C13.6974 8.42443 13.6349 8.58152 13.6363 8.74455C13.6376 8.90757 13.7026 9.06362 13.8174 9.17941C13.9321 9.2952 14.0876 9.36156 14.2506 9.36434C14.4136 9.36711 14.5713 9.30609 14.6899 9.19427C14.9868 8.89974 15.4712 8.75052 16.1251 8.75052C17.1587 8.75052 18.0001 9.45365 18.0001 10.313V10.5646C17.4454 10.1935 16.7924 9.99705 16.1251 10.0005C14.4016 10.0005 13.0001 11.2622 13.0001 12.813C13.0001 14.3638 14.4016 15.6255 16.1251 15.6255C16.7926 15.6284 17.4458 15.4312 18.0001 15.0591C18.0078 15.2249 18.0811 15.3808 18.2038 15.4925C18.3265 15.6042 18.4886 15.6626 18.6544 15.6548C18.8201 15.6471 18.976 15.5738 19.0877 15.451C19.1994 15.3283 19.2578 15.1663 19.2501 15.0005V10.313C19.2501 8.76224 17.8485 7.50052 16.1251 7.50052ZM16.1251 14.3755C15.0915 14.3755 14.2501 13.6724 14.2501 12.813C14.2501 11.9536 15.0915 11.2505 16.1251 11.2505C17.1587 11.2505 18.0001 11.9536 18.0001 12.813C18.0001 13.6724 17.1587 14.3755 16.1251 14.3755Z" fill="#1D3354"/>
</svg>
