<svg width="119" height="103" viewBox="0 0 119 103" fill="none" xmlns="http://www.w3.org/2000/svg">
<rect x="0.5" y="0.5" width="118" height="102" rx="7.5" fill="#2286FE" fill-opacity="0.05"/>
<rect x="0.5" y="0.5" width="118" height="102" rx="7.5" stroke="#2286FE" stroke-dasharray="2 2"/>
<path d="M59.25 41.25V36.75H60.75V41.25H65.25V42.75H60.75V47.25H59.25V42.75H54.75V41.25H59.25Z" fill="#2286FE"/>
<path d="M27.0611 66H26.2301L28.6335 59.4545H29.4517L31.8551 66H31.0241L29.0682 60.4901H29.017L27.0611 66ZM27.3679 63.4432H30.7173V64.1463H27.3679V63.4432ZM34.6261 66.1023C34.217 66.1023 33.8558 65.9989 33.5426 65.7923C33.2294 65.5835 32.9844 65.2894 32.8075 64.9102C32.6307 64.5288 32.5423 64.0781 32.5423 63.5582C32.5423 63.0426 32.6307 62.5952 32.8075 62.2159C32.9844 61.8366 33.2305 61.5437 33.5458 61.337C33.8612 61.1303 34.2255 61.027 34.6388 61.027C34.9585 61.027 35.2109 61.0803 35.3963 61.1868C35.5838 61.2912 35.7266 61.4105 35.8246 61.5447C35.9247 61.6768 36.0025 61.7855 36.0579 61.8707H36.1218V59.4545H36.8761V66H36.1474V65.2457H36.0579C36.0025 65.3352 35.9237 65.4482 35.8214 65.5845C35.7191 65.7187 35.5732 65.8391 35.3835 65.9457C35.1939 66.0501 34.9414 66.1023 34.6261 66.1023ZM34.7283 65.4247C35.0309 65.4247 35.2866 65.3459 35.4954 65.1882C35.7042 65.0284 35.8629 64.8079 35.9716 64.5266C36.0803 64.2433 36.1346 63.9162 36.1346 63.5455C36.1346 63.179 36.0813 62.8583 35.9748 62.5835C35.8683 62.3065 35.7106 62.0913 35.5018 61.9379C35.293 61.7823 35.0352 61.7045 34.7283 61.7045C34.4087 61.7045 34.1424 61.7866 33.9293 61.9506C33.7184 62.1126 33.5597 62.3331 33.4531 62.6122C33.3487 62.8892 33.2965 63.2003 33.2965 63.5455C33.2965 63.8949 33.3498 64.2124 33.4563 64.4979C33.565 64.7812 33.7248 65.0071 33.9357 65.1754C34.1488 65.3416 34.413 65.4247 34.7283 65.4247ZM40.2159 66.1023C39.8068 66.1023 39.4457 65.9989 39.1325 65.7923C38.8192 65.5835 38.5742 65.2894 38.3974 64.9102C38.2205 64.5288 38.1321 64.0781 38.1321 63.5582C38.1321 63.0426 38.2205 62.5952 38.3974 62.2159C38.5742 61.8366 38.8203 61.5437 39.1357 61.337C39.451 61.1303 39.8153 61.027 40.2287 61.027C40.5483 61.027 40.8008 61.0803 40.9862 61.1868C41.1737 61.2912 41.3164 61.4105 41.4144 61.5447C41.5146 61.6768 41.5923 61.7855 41.6477 61.8707H41.7116V59.4545H42.4659V66H41.7372V65.2457H41.6477C41.5923 65.3352 41.5135 65.4482 41.4112 65.5845C41.3089 65.7187 41.163 65.8391 40.9734 65.9457C40.7837 66.0501 40.5313 66.1023 40.2159 66.1023ZM40.3182 65.4247C40.6207 65.4247 40.8764 65.3459 41.0852 65.1882C41.294 65.0284 41.4528 64.8079 41.5614 64.5266C41.6701 64.2433 41.7244 63.9162 41.7244 63.5455C41.7244 63.179 41.6712 62.8583 41.5646 62.5835C41.4581 62.3065 41.3004 62.0913 41.0916 61.9379C40.8828 61.7823 40.625 61.7045 40.3182 61.7045C39.9986 61.7045 39.7322 61.7866 39.5192 61.9506C39.3082 62.1126 39.1495 62.3331 39.043 62.6122C38.9386 62.8892 38.8864 63.2003 38.8864 63.5455C38.8864 63.8949 38.9396 64.2124 39.0462 64.4979C39.1548 64.7812 39.3146 65.0071 39.5256 65.1754C39.7386 65.3416 40.0028 65.4247 40.3182 65.4247ZM51.7759 59.4545V66H51.0089L47.4421 60.8608H47.3782V66H46.5856V59.4545H47.3526L50.9322 64.6065H50.9961V59.4545H51.7759ZM55.3179 66.1023C54.8449 66.1023 54.4369 65.9979 54.0938 65.7891C53.7529 65.5781 53.4898 65.2841 53.3044 64.907C53.1212 64.5277 53.0296 64.0866 53.0296 63.5838C53.0296 63.081 53.1212 62.6378 53.3044 62.2543C53.4898 61.8686 53.7476 61.5682 54.0779 61.353C54.4102 61.1357 54.798 61.027 55.2412 61.027C55.4969 61.027 55.7494 61.0696 55.9987 61.1548C56.248 61.2401 56.4749 61.3786 56.6794 61.5703C56.884 61.7599 57.047 62.0114 57.1684 62.3246C57.2899 62.6378 57.3506 63.0234 57.3506 63.4815V63.8011H53.5665V63.1491H56.5835C56.5835 62.8722 56.5281 62.625 56.4173 62.4077C56.3087 62.1903 56.1531 62.0188 55.9507 61.8931C55.7504 61.7674 55.5139 61.7045 55.2412 61.7045C54.9408 61.7045 54.6808 61.7791 54.4614 61.9283C54.2441 62.0753 54.0768 62.267 53.9596 62.5036C53.8424 62.7401 53.7838 62.9936 53.7838 63.2642V63.6989C53.7838 64.0696 53.8477 64.3839 53.9756 64.6417C54.1056 64.8974 54.2856 65.0923 54.5157 65.2266C54.7458 65.3587 55.0132 65.4247 55.3179 65.4247C55.5161 65.4247 55.695 65.397 55.8548 65.3416C56.0168 65.2841 56.1563 65.1989 56.2735 65.0859C56.3907 64.9709 56.4813 64.8281 56.5452 64.6577L57.2739 64.8622C57.1972 65.1094 57.0683 65.3267 56.8872 65.5142C56.7061 65.6996 56.4823 65.8445 56.216 65.9489C55.9497 66.0511 55.6503 66.1023 55.3179 66.1023ZM59.6102 66L58.1144 61.0909H58.907L59.9681 64.8494H60.0193L61.0676 61.0909H61.873L62.9085 64.8366H62.9596L64.0207 61.0909H64.8133L63.3176 66H62.5761L61.5022 62.2287H61.4255L60.3517 66H59.6102ZM69.2366 59.4545V66H68.444V59.4545H69.2366ZM70.7235 66V61.0909H71.4522V61.858H71.5162C71.6184 61.5959 71.7836 61.3924 72.0115 61.2475C72.2395 61.1005 72.5133 61.027 72.8329 61.027C73.1568 61.027 73.4263 61.1005 73.6415 61.2475C73.8588 61.3924 74.0282 61.5959 74.1497 61.858H74.2008C74.3265 61.6044 74.5151 61.4031 74.7665 61.2539C75.0179 61.1026 75.3194 61.027 75.671 61.027C76.1099 61.027 76.4689 61.1644 76.748 61.4393C77.0272 61.712 77.1667 62.1371 77.1667 62.7145V66H76.4125V62.7145C76.4125 62.3523 76.3134 62.0934 76.1152 61.9379C75.9171 61.7823 75.6838 61.7045 75.4153 61.7045C75.0701 61.7045 74.8027 61.8089 74.6131 62.0178C74.4235 62.2244 74.3287 62.4865 74.3287 62.804V66H73.5616V62.6378C73.5616 62.3587 73.4711 62.1339 73.29 61.9634C73.1088 61.7908 72.8755 61.7045 72.59 61.7045C72.394 61.7045 72.2108 61.7567 72.0403 61.8612C71.872 61.9656 71.7356 62.1104 71.6312 62.2958C71.5289 62.479 71.4778 62.6911 71.4778 62.9318V66H70.7235ZM79.9904 66.1151C79.6793 66.1151 79.397 66.0565 79.1435 65.9393C78.8899 65.82 78.6886 65.6484 78.5394 65.4247C78.3903 65.1989 78.3157 64.9261 78.3157 64.6065C78.3157 64.3253 78.3711 64.0973 78.4819 63.9226C78.5927 63.7457 78.7408 63.6072 78.9261 63.5071C79.1115 63.407 79.3161 63.3324 79.5398 63.2834C79.7656 63.2322 79.9925 63.1918 80.2205 63.1619C80.5188 63.1236 80.7607 63.0948 80.946 63.0756C81.1335 63.0543 81.2699 63.0192 81.3551 62.9702C81.4425 62.9212 81.4862 62.8359 81.4862 62.7145V62.6889C81.4862 62.3736 81.3999 62.1286 81.2273 61.9538C81.0568 61.7791 80.7979 61.6918 80.4506 61.6918C80.0906 61.6918 79.8082 61.7706 79.6037 61.9283C79.3991 62.0859 79.2553 62.2543 79.1722 62.4332L78.4563 62.1776C78.5842 61.8793 78.7546 61.647 78.9677 61.4808C79.1829 61.3125 79.4173 61.1953 79.6708 61.1293C79.9265 61.0611 80.1779 61.027 80.4251 61.027C80.5827 61.027 80.7638 61.0462 80.9684 61.0845C81.1751 61.1207 81.3743 61.1964 81.5661 61.3114C81.7599 61.4265 81.9208 61.6001 82.0487 61.8324C82.1765 62.0646 82.2404 62.3757 82.2404 62.7656V66H81.4862V65.3352H81.4478C81.3967 65.4418 81.3114 65.5558 81.1921 65.6772C81.0728 65.7987 80.9141 65.902 80.7159 65.9872C80.5178 66.0724 80.2759 66.1151 79.9904 66.1151ZM80.1055 65.4375C80.4038 65.4375 80.6552 65.3789 80.8597 65.2617C81.0664 65.1445 81.2219 64.9933 81.3263 64.8079C81.4329 64.6225 81.4862 64.4276 81.4862 64.223V63.5327C81.4542 63.571 81.3839 63.6062 81.2752 63.6381C81.1687 63.668 81.0451 63.6946 80.9045 63.718C80.766 63.7393 80.6307 63.7585 80.4986 63.7756C80.3686 63.7905 80.2631 63.8033 80.1822 63.8139C79.9862 63.8395 79.8029 63.881 79.6325 63.9386C79.4641 63.994 79.3278 64.0781 79.2234 64.1911C79.1211 64.3018 79.07 64.4531 79.07 64.6449C79.07 64.907 79.1669 65.1051 79.3608 65.2393C79.5568 65.3714 79.805 65.4375 80.1055 65.4375ZM85.5986 67.9432C85.2343 67.9432 84.9211 67.8963 84.659 67.8026C84.3969 67.7109 84.1785 67.5895 84.0038 67.4382C83.8312 67.2891 83.6938 67.1293 83.5915 66.9588L84.1924 66.5369C84.2606 66.6264 84.3469 66.7287 84.4513 66.8438C84.5557 66.9609 84.6984 67.0621 84.8795 67.1474C85.0628 67.2347 85.3025 67.2784 85.5986 67.2784C85.9949 67.2784 86.322 67.1825 86.5798 66.9908C86.8376 66.799 86.9665 66.4986 86.9665 66.0895V65.0923H86.9026C86.8472 65.1818 86.7684 65.2926 86.6661 65.4247C86.566 65.5547 86.4211 65.6708 86.2314 65.7731C86.0439 65.8732 85.7904 65.9233 85.4708 65.9233C85.0745 65.9233 84.7187 65.8295 84.4033 65.642C84.0901 65.4545 83.8419 65.1818 83.6586 64.8239C83.4775 64.4659 83.387 64.0312 83.387 63.5199C83.387 63.017 83.4754 62.5792 83.6523 62.2063C83.8291 61.8313 84.0752 61.5415 84.3905 61.337C84.7059 61.1303 85.0702 61.027 85.4836 61.027C85.8032 61.027 86.0567 61.0803 86.2442 61.1868C86.4339 61.2912 86.5787 61.4105 86.6789 61.5447C86.7812 61.6768 86.86 61.7855 86.9154 61.8707H86.9921V61.0909H87.7208V66.1406C87.7208 66.5625 87.6249 66.9055 87.4332 67.1697C87.2435 67.4361 86.9878 67.631 86.6661 67.7546C86.3465 67.8803 85.9907 67.9432 85.5986 67.9432ZM85.5731 65.2457C85.8756 65.2457 86.1313 65.1765 86.3401 65.038C86.5489 64.8995 86.7077 64.7003 86.8163 64.4403C86.925 64.1804 86.9793 63.8693 86.9793 63.5071C86.9793 63.1534 86.926 62.8413 86.8195 62.5707C86.713 62.3001 86.5553 62.0881 86.3465 61.9347C86.1377 61.7812 85.8799 61.7045 85.5731 61.7045C85.2535 61.7045 84.9871 61.7855 84.7741 61.9474C84.5631 62.1094 84.4044 62.3267 84.2979 62.5994C84.1934 62.8722 84.1412 63.1747 84.1412 63.5071C84.1412 63.848 84.1945 64.1495 84.301 64.4116C84.4097 64.6715 84.5695 64.8761 84.7805 65.0252C84.9935 65.1722 85.2577 65.2457 85.5731 65.2457ZM91.1597 66.1023C90.6867 66.1023 90.2787 65.9979 89.9356 65.7891C89.5947 65.5781 89.3316 65.2841 89.1462 64.907C88.963 64.5277 88.8714 64.0866 88.8714 63.5838C88.8714 63.081 88.963 62.6378 89.1462 62.2543C89.3316 61.8686 89.5894 61.5682 89.9197 61.353C90.252 61.1357 90.6398 61.027 91.083 61.027C91.3387 61.027 91.5912 61.0696 91.8405 61.1548C92.0898 61.2401 92.3167 61.3786 92.5212 61.5703C92.7258 61.7599 92.8888 62.0114 93.0102 62.3246C93.1317 62.6378 93.1924 63.0234 93.1924 63.4815V63.8011H89.4083V63.1491H92.4253C92.4253 62.8722 92.3699 62.625 92.2591 62.4077C92.1505 62.1903 91.9949 62.0188 91.7925 61.8931C91.5922 61.7674 91.3557 61.7045 91.083 61.7045C90.7826 61.7045 90.5226 61.7791 90.3032 61.9283C90.0858 62.0753 89.9186 62.267 89.8014 62.5036C89.6842 62.7401 89.6256 62.9936 89.6256 63.2642V63.6989C89.6256 64.0696 89.6895 64.3839 89.8174 64.6417C89.9474 64.8974 90.1274 65.0923 90.3575 65.2266C90.5876 65.3587 90.855 65.4247 91.1597 65.4247C91.3579 65.4247 91.5368 65.397 91.6966 65.3416C91.8586 65.2841 91.9981 65.1989 92.1153 65.0859C92.2325 64.9709 92.3231 64.8281 92.387 64.6577L93.1157 64.8622C93.039 65.1094 92.9101 65.3267 92.729 65.5142C92.5479 65.6996 92.3241 65.8445 92.0578 65.9489C91.7915 66.0511 91.4921 66.1023 91.1597 66.1023Z" fill="#5E6D85"/>
</svg>
