<svg width="41" height="41" viewBox="0 0 41 41" fill="none" xmlns="http://www.w3.org/2000/svg">
<rect width="41" height="41" rx="20.5" fill="#B50000"/>
<path d="M18.34 24.84C17.652 24.78 16.954 24.75 16.25 24.75H15.5C14.3065 24.75 13.1619 24.2759 12.318 23.432C11.4741 22.5881 11 21.4435 11 20.25C11 19.0565 11.4741 17.9119 12.318 17.068C13.1619 16.2241 14.3065 15.75 15.5 15.75H16.25C16.954 15.75 17.652 15.72 18.34 15.66M18.34 24.84C18.593 25.802 18.924 26.732 19.325 27.623C19.572 28.173 19.385 28.833 18.862 29.134L18.205 29.514C17.654 29.832 16.945 29.631 16.678 29.053C16.0443 27.682 15.5615 26.2463 15.238 24.771M18.34 24.84C17.947 23.3417 17.7487 21.799 17.75 20.25C17.75 18.664 17.955 17.126 18.34 15.66M18.34 24.84C21.4215 25.1041 24.4222 25.9651 27.175 27.375M18.34 15.66C21.4215 15.3959 24.4223 14.5349 27.175 13.125M27.175 27.375C27.057 27.755 26.93 28.129 26.795 28.5M27.175 27.375C27.719 25.6216 28.0592 23.8113 28.189 21.98M27.175 13.125C27.0577 12.7469 26.931 12.3718 26.795 12M27.175 13.125C27.719 14.8784 28.0592 16.6887 28.189 18.52M28.189 18.52C28.684 18.933 29 19.555 29 20.25C29 20.945 28.684 21.567 28.189 21.98M28.189 18.52C28.2711 19.6719 28.2711 20.8281 28.189 21.98" stroke="white" stroke-width="1.5" stroke-linecap="round" stroke-linejoin="round"/>
</svg>
