<svg width="61" height="47" viewBox="0 0 61 47" fill="none" xmlns="http://www.w3.org/2000/svg">
<path d="M47.0147 36.5227C50.4898 36.5227 53.3068 34.8933 53.3068 32.8834C53.3068 30.8735 50.4898 29.2441 47.0147 29.2441C43.5397 29.2441 40.7227 30.8735 40.7227 32.8834C40.7227 34.8933 43.5397 36.5227 47.0147 36.5227Z" fill="#E0E0E0"/>
<path d="M12.9776 45.7512C16.4527 45.7512 19.2697 44.1218 19.2697 42.1119C19.2697 40.102 16.4527 38.4727 12.9776 38.4727C9.50261 38.4727 6.68555 40.102 6.68555 42.1119C6.68555 44.1218 9.50261 45.7512 12.9776 45.7512Z" fill="#E0E0E0"/>
<path d="M56.4685 31.6107L55.5593 31.0905C55.5593 31.0905 55.1235 28.6836 55.4486 26.616C55.9073 23.7079 57.8837 22.7038 58.6028 22.993C59.3218 23.2822 59.4891 24.1444 58.198 25.8309C57.4277 26.816 56.4496 28.9107 56.4685 31.6107Z" fill="#2286FE"/>
<g opacity="0.1">
<path d="M56.4685 31.6107L55.5593 31.0905C55.5593 31.0905 55.1235 28.6836 55.4486 26.616C55.9073 23.7079 57.8837 22.7038 58.6028 22.993C59.3218 23.2822 59.4891 24.1444 58.198 25.8309C57.4277 26.816 56.4496 28.9107 56.4685 31.6107Z" fill="black"/>
</g>
<path d="M56.0404 30.4271H56.0498C56.0584 30.4262 56.0666 30.4237 56.0742 30.4196C56.0817 30.4156 56.0884 30.41 56.0938 30.4034C56.0992 30.3967 56.1032 30.3891 56.1056 30.3808C56.108 30.3726 56.1088 30.364 56.1079 30.3554C55.8111 27.623 56.9901 24.6797 58.2529 23.508C58.2656 23.4962 58.2731 23.4798 58.2737 23.4624C58.2743 23.4451 58.2681 23.4282 58.2563 23.4154C58.2445 23.4027 58.2281 23.3952 58.2108 23.3946C58.1934 23.3939 58.1766 23.4002 58.1638 23.4121C56.8795 24.5999 55.6775 27.6013 55.9783 30.3703C55.9805 30.3855 55.9879 30.3995 55.9992 30.4098C56.0105 30.4202 56.0251 30.4263 56.0404 30.4271Z" fill="white"/>
<path d="M58.9918 33.0687C59.1348 33.1512 59.4302 32.9714 59.5435 32.8944C59.738 32.7624 59.8951 32.5822 59.9995 32.3714C60.1166 32.1318 60.1566 31.8618 60.1142 31.5984C60.0904 31.4614 60.0579 31.326 60.0171 31.193C59.9779 31.0579 59.9402 30.9228 59.9024 30.7944C59.8555 30.6646 59.8358 30.5267 59.8444 30.389C59.8781 30.1187 60.1142 29.9254 60.3395 29.7606C60.5823 29.5781 60.8359 29.3376 60.8346 29.0092C60.8163 28.7544 60.7148 28.5127 60.5459 28.3214C60.3894 28.1227 60.2032 27.947 60.0616 27.7376C59.9494 27.5915 59.8913 27.4109 59.897 27.2267C59.9115 27.1144 59.9492 27.0062 60.0076 26.9092C60.1406 26.7058 60.257 26.4921 60.3557 26.27C60.4353 26.0402 60.4245 25.7537 60.2451 25.5943C60.1647 25.5353 60.0735 25.493 59.9767 25.4698C59.8799 25.4466 59.7794 25.443 59.6811 25.4591C59.495 25.4818 59.316 25.5445 59.1563 25.6429C58.6356 25.9335 58.3388 26.551 57.787 26.774C57.5698 26.8381 57.3491 26.8895 57.126 26.9281C57.0126 26.9487 56.9049 26.9931 56.8098 27.0583C56.7147 27.1235 56.6344 27.2081 56.5742 27.3065C56.3719 27.7119 56.7483 28.2119 56.6052 28.6416C56.4784 29.0227 56.1088 29.1687 55.9024 29.5119C55.8175 29.6634 55.7835 29.8382 55.8052 30.0106C55.8229 30.3021 55.8938 30.5879 56.0144 30.8538C56.1497 31.1181 56.3044 31.3719 56.4771 31.6133C56.4784 31.6187 58.9688 33.0566 58.9918 33.0687Z" fill="#2286FE"/>
<path d="M57.5164 32.2822C57.5251 32.282 57.5335 32.2801 57.5414 32.2766C57.5493 32.2731 57.5564 32.268 57.5623 32.2617C57.5682 32.2554 57.5728 32.248 57.5758 32.2399C57.5788 32.2318 57.5802 32.2232 57.5798 32.2146C57.4733 29.6375 58.6847 26.7929 59.567 25.9658C59.5732 25.96 59.5782 25.9529 59.5817 25.9452C59.5852 25.9374 59.5871 25.929 59.5874 25.9204C59.5876 25.9119 59.5862 25.9034 59.5832 25.8954C59.5801 25.8874 59.5756 25.8801 59.5697 25.8739C59.5639 25.8677 59.5569 25.8627 59.5491 25.8592C59.5413 25.8557 59.5329 25.8538 59.5244 25.8535C59.5159 25.8533 59.5074 25.8547 59.4994 25.8578C59.4915 25.8608 59.4842 25.8654 59.478 25.8712C58.5781 26.7145 57.3424 29.6064 57.4544 32.2227C57.4557 32.2385 57.4627 32.2533 57.4741 32.2642C57.4856 32.2752 57.5006 32.2816 57.5164 32.2822Z" fill="white"/>
<path d="M57.9028 29.238H57.9217C58.5311 29.0692 59.1573 28.9681 59.7888 28.9366C59.8059 28.9356 59.8218 28.9279 59.8334 28.9153C59.845 28.9028 59.8512 28.8862 59.8509 28.869C59.8509 28.8604 59.8491 28.8519 59.8457 28.8439C59.8422 28.836 59.8372 28.8289 59.8308 28.8231C59.8245 28.8172 59.817 28.8127 59.8088 28.81C59.8006 28.8072 59.792 28.8061 59.7834 28.8069C59.1409 28.8393 58.504 28.9422 57.8839 29.1136C57.8757 29.1161 57.8682 29.1202 57.8616 29.1256C57.855 29.131 57.8495 29.1377 57.8455 29.1452C57.8415 29.1527 57.839 29.161 57.8382 29.1695C57.8374 29.178 57.8382 29.1866 57.8407 29.1947C57.8451 29.2076 57.8534 29.2188 57.8646 29.2266C57.8758 29.2344 57.8892 29.2384 57.9028 29.238Z" fill="white"/>
<path d="M4.16582 34.5389L5.0697 34.0159C5.0697 34.0159 5.50815 31.6091 5.18167 29.5415C4.72434 26.6333 2.75334 25.6306 2.02888 25.9184C1.30443 26.2063 1.14254 27.0698 2.43361 28.7563C3.20393 29.7415 4.1901 31.8402 4.16582 34.5389Z" fill="#2286FE"/>
<g opacity="0.1">
<path d="M4.16777 34.5389L5.07165 34.0159C5.07165 34.0159 5.5101 31.6091 5.18363 29.5415C4.72629 26.6333 2.75529 25.6306 2.03084 25.9184C1.30638 26.2063 1.14449 27.0698 2.43556 28.7563C3.20588 29.7415 4.19206 31.8402 4.16777 34.5389Z" fill="black"/>
</g>
<path d="M4.64786 34.3999C4.63021 34.3989 4.61367 34.3909 4.60181 34.3778C4.58995 34.3646 4.58372 34.3474 4.58446 34.3297C4.79761 30.2755 4.2283 27.9687 2.67956 26.5998C2.66712 26.5869 2.66016 26.5697 2.66016 26.5518C2.66016 26.5339 2.66712 26.5167 2.67956 26.5038C2.6924 26.4913 2.70957 26.4844 2.72745 26.4844C2.74533 26.4844 2.76251 26.4913 2.77535 26.5038C4.35781 27.9025 4.94196 30.2471 4.72611 34.3418C4.72497 34.3509 4.72201 34.3596 4.71741 34.3674C4.71281 34.3753 4.70667 34.3822 4.69936 34.3876C4.69205 34.393 4.68372 34.3969 4.67487 34.399C4.66602 34.4011 4.65683 34.4015 4.64786 34.3999Z" fill="white"/>
<path d="M4.44084 34.3779C4.45973 33.5076 3.95383 30.6251 2.25129 29.5764C0.548759 28.5278 -0.278224 29.8345 0.411154 30.6264C0.917057 31.2062 1.85871 31.6251 2.74506 32.8238C3.35349 33.6481 3.70425 34.8063 3.70425 34.8063L4.44084 34.3779Z" fill="#2286FE"/>
<path d="M4.13584 34.7169C4.11863 34.7169 4.10206 34.7104 4.08952 34.6986C4.07698 34.6868 4.06942 34.6706 4.06838 34.6534C3.90515 32.456 2.65995 30.4844 1.03971 29.86C1.03138 29.8569 1.02376 29.852 1.01729 29.8459C1.01082 29.8398 1.00562 29.8324 1.00199 29.8242C0.998352 29.8161 0.996359 29.8073 0.996118 29.7984C0.995878 29.7894 0.997396 29.7805 1.00058 29.7722C1.00377 29.7639 1.00857 29.7562 1.0147 29.7498C1.02084 29.7433 1.02818 29.7381 1.03633 29.7344C1.04447 29.7308 1.05325 29.7288 1.06216 29.7285C1.07107 29.7283 1.07995 29.7298 1.08827 29.733C2.75978 30.3776 4.03601 32.3966 4.20329 34.6439C4.20403 34.6529 4.20296 34.662 4.20015 34.6705C4.19734 34.6791 4.19285 34.687 4.18694 34.6938C4.18104 34.7006 4.17383 34.7062 4.16575 34.7101C4.15766 34.7141 4.14887 34.7164 4.13989 34.7169H4.13584Z" fill="white"/>
<path d="M38.4344 8.74754C38.6395 8.91646 38.8742 9.0043 39.144 9.26647C39.3146 9.46089 39.5299 9.61072 39.7713 9.70297C40.083 9.82729 40.3757 9.79081 41.2405 9.65161C42.2968 9.48269 42.7514 9.30431 43.2074 8.91511C43.7403 8.4597 44.9329 7.08535 45.509 6.54614C46.1187 5.97586 46.9565 6.19614 46.9565 6.19614C46.6972 7.04141 46.3115 7.84242 45.8125 8.57186C45.3511 9.22998 44.4891 9.86108 44.0992 10.1854C43.4745 10.7057 43.1427 10.9111 41.772 11.0152C40.7373 11.0935 40.5997 11.1179 39.7484 11.0935C39.4422 11.0841 39.2519 11.0814 38.7501 11.0395C38.5322 11.0252 38.3165 10.9876 38.1066 10.9273C37.8692 10.8726 37.6416 10.7814 37.432 10.657C37.1585 10.4791 36.9376 10.2308 36.7926 9.93811C36.7133 9.77719 36.6727 9.59996 36.6739 9.42053C36.676 9.23969 36.742 9.06545 36.86 8.92863C36.8832 8.90069 36.9128 8.87888 36.9464 8.86511C37.0118 8.85394 37.0789 8.86847 37.1339 8.90565C37.4577 9.07187 37.7841 9.30161 38.1241 9.43269C38.4101 9.54215 38.6287 9.58134 38.6071 9.52323C38.5855 9.46512 38.4128 9.41242 38.2347 9.21106C38.0567 9.00971 38.0121 8.72997 38.1268 8.64213C38.2415 8.55429 38.2347 8.57727 38.4344 8.74754Z" fill="#CE7A63"/>
<path d="M47.2037 6.19188C46.8776 6.03488 46.5077 5.99435 46.1555 6.07701C45.6226 6.23107 45.1949 6.57972 44.6863 7.12703C44.1777 7.67434 43.3184 8.55814 43.3184 8.55814C43.3184 8.55814 43.742 9.62979 44.6917 10.0109L46.683 8.16624L47.2037 6.19188Z" fill="#E0E0E0"/>
<path d="M50.1293 30.6777H48.9219V32.748H50.1293V30.6777Z" fill="#CE7A63"/>
<path d="M46.7902 31.2004L45.5841 31.2422L45.5234 29.0517L46.7902 29.0098V31.2004Z" fill="#CE7A63"/>
<path d="M50.6487 15.2224C50.6487 16.3765 50.445 23.0929 50.445 23.0929C50.472 23.4253 50.7917 24.0159 50.8173 25.2132C50.8524 26.9484 50.186 31.7133 50.186 31.7133C49.9769 31.8168 49.7476 31.8729 49.5144 31.8775C49.2813 31.8822 49.0499 31.8354 48.8369 31.7404C48.8369 31.7404 48.2892 25.2808 48.072 23.5632C47.8831 22.0631 47.5634 17.9901 47.5634 17.9901L46.9954 22.8848C47.1338 23.5153 47.1828 24.1622 47.1411 24.8064C47.0844 25.601 46.8605 30.5214 46.8605 30.5214C46.6503 30.6406 46.4164 30.7119 46.1756 30.7303C45.9347 30.7488 45.6928 30.7139 45.4669 30.6282C45.4669 30.6282 44.6156 23.6132 44.6021 22.8848C44.5859 22.0537 44.9165 13.5684 44.9165 13.5684L50.6487 15.2224Z" fill="#37474F"/>
<path d="M49.8529 6.72657C50.1187 6.84455 50.3276 7.06248 50.4344 7.33334C50.5582 7.66734 50.6182 8.02173 50.6111 8.37796V10.7469L50.6462 15.2213C48.9126 16.1362 46.7109 16.197 44.8613 14.8443C44.8613 14.8443 44.9652 9.08608 44.9652 8.14417C44.9652 8.10227 44.9652 8.05903 44.9652 8.00903C45.0327 6.65765 46.3548 5.74006 47.6634 6.07521L48.7615 6.3644L49.8597 6.72657H49.8529Z" fill="#F0F0F0"/>
<path d="M47.1332 3.94156C48.0251 3.73069 48.5775 2.83545 48.367 1.94199C48.1565 1.04853 47.2628 0.495193 46.3708 0.706068C45.4789 0.916943 44.9265 1.81218 45.137 2.70564C45.3475 3.5991 46.2413 4.15244 47.1332 3.94156Z" fill="#2286FE"/>
<path opacity="0.5" d="M47.1332 3.94156C48.0251 3.73069 48.5775 2.83545 48.367 1.94199C48.1565 1.04853 47.2628 0.495193 46.3708 0.706068C45.4789 0.916943 44.9265 1.81218 45.137 2.70564C45.3475 3.5991 46.2413 4.15244 47.1332 3.94156Z" fill="black"/>
<path d="M49.621 3.50195C49.621 3.50195 49.3512 4.7682 49.2446 4.97496C49.1732 5.10429 49.0548 5.20109 48.9141 5.24523L48.9329 4.35467L49.621 3.50195Z" fill="#2286FE"/>
<path opacity="0.5" d="M49.621 3.50195C49.621 3.50195 49.3512 4.7682 49.2446 4.97496C49.1732 5.10429 49.0548 5.20109 48.9141 5.24523L48.9329 4.35467L49.621 3.50195Z" fill="black"/>
<path d="M49.2839 1.68975C49.378 1.67873 49.4733 1.68945 49.5627 1.72107C49.652 1.75269 49.7329 1.80439 49.7992 1.87218C50.0205 2.09786 49.8963 2.80734 49.6211 3.50195L49.1152 3.56141L49.2839 1.68975Z" fill="#2286FE"/>
<path opacity="0.5" d="M49.2839 1.68975C49.378 1.67873 49.4733 1.68945 49.5627 1.72107C49.652 1.75269 49.7329 1.80439 49.7992 1.87218C50.0205 2.09786 49.8963 2.80734 49.6211 3.50195L49.1152 3.56141L49.2839 1.68975Z" fill="black"/>
<path d="M48.9618 3.56082C49.063 3.62163 49.2087 3.42568 49.3328 3.29054C49.4569 3.15541 49.8724 2.97973 50.0707 3.41082C50.269 3.84191 49.8913 4.4284 49.5689 4.52976C49.0144 4.70409 48.9321 4.34732 48.9321 4.34732L48.8957 6.41763C48.2063 7.30279 46.2933 7.22846 47.0906 6.30277V5.6933C46.8435 5.73247 46.593 5.74515 46.3432 5.73113C45.9385 5.66762 45.6781 5.34599 45.554 4.90409C45.3557 4.19326 45.2842 3.62028 45.4488 2.22295C45.6336 0.691842 47.4117 0.675625 48.3722 1.27699C49.3328 1.87835 48.9618 3.56082 48.9618 3.56082Z" fill="#CE7A63"/>
<path d="M48.964 3.73156C49.0153 3.73156 49.2096 3.40993 49.335 3.29507C49.5104 3.13561 49.2851 1.68963 49.2851 1.68963C49.3312 1.56457 49.3398 1.42873 49.3099 1.29884C49.2799 1.16895 49.2127 1.05066 49.1165 0.958533C48.8764 0.688257 48.4757 0.665284 47.7903 0.553119C47.4315 0.496361 46.8865 0.396359 46.5276 0.32879C46.1 0.249059 45.7451 0.165273 45.4483 0.428792C45.3295 0.531359 45.2454 0.668376 45.2077 0.820896C45.17 0.973416 45.1806 1.1339 45.2379 1.28016C45.3224 1.46235 45.4736 1.60505 45.6602 1.67882C45.6602 1.67882 45.8463 1.84504 46.4966 1.92477C47.0963 1.96926 47.6988 1.95749 48.2962 1.88963C48.4851 1.86396 48.5256 2.04774 48.6268 2.5464C48.7185 2.9856 48.7927 3.72886 48.964 3.73156Z" fill="#2286FE"/>
<path opacity="0.5" d="M48.964 3.73156C49.0153 3.73156 49.2096 3.40993 49.335 3.29507C49.5104 3.13561 49.2851 1.68963 49.2851 1.68963C49.3312 1.56457 49.3398 1.42873 49.3099 1.29884C49.2799 1.16895 49.2127 1.05066 49.1165 0.958533C48.8764 0.688257 48.4757 0.665284 47.7903 0.553119C47.4315 0.496361 46.8865 0.396359 46.5276 0.32879C46.1 0.249059 45.7451 0.165273 45.4483 0.428792C45.3295 0.531359 45.2454 0.668376 45.2077 0.820896C45.17 0.973416 45.1806 1.1339 45.2379 1.28016C45.3224 1.46235 45.4736 1.60505 45.6602 1.67882C45.6602 1.67882 45.8463 1.84504 46.4966 1.92477C47.0963 1.96926 47.6988 1.95749 48.2962 1.88963C48.4851 1.86396 48.5256 2.04774 48.6268 2.5464C48.7185 2.9856 48.7927 3.72886 48.964 3.73156Z" fill="black"/>
<path d="M49.2813 1.80271L49.8952 1.47298C49.8755 1.4322 49.8479 1.39577 49.814 1.36585C49.78 1.33592 49.7405 1.31311 49.6976 1.29875C49.6547 1.28439 49.6094 1.27878 49.5643 1.28224C49.5192 1.28571 49.4753 1.29818 49.4351 1.31892C49.3523 1.36426 49.2901 1.43984 49.2614 1.52994C49.2328 1.62005 49.2399 1.71774 49.2813 1.80271Z" fill="#2286FE"/>
<path opacity="0.5" d="M49.2813 1.80271L49.8952 1.47298C49.8755 1.4322 49.8479 1.39577 49.814 1.36585C49.78 1.33592 49.7405 1.31311 49.6976 1.29875C49.6547 1.28439 49.6094 1.27878 49.5643 1.28224C49.5192 1.28571 49.4753 1.29818 49.4351 1.31892C49.3523 1.36426 49.2901 1.43984 49.2614 1.52994C49.2328 1.62005 49.2399 1.71774 49.2813 1.80271Z" fill="black"/>
<path d="M47.0879 5.69425C47.0879 5.69425 47.9985 5.51046 48.3169 5.34019C48.5063 5.24296 48.6616 5.09023 48.7621 4.90234C48.7142 5.08859 48.6293 5.26325 48.5125 5.41587C48.2791 5.71452 47.0933 5.93345 47.0933 5.93345L47.0879 5.69425Z" fill="#CE7A63"/>
<path d="M47.1328 3.33237C47.1339 3.36821 47.1455 3.40293 47.1661 3.43221C47.1867 3.4615 47.2155 3.48404 47.2489 3.49702C47.2823 3.51 47.3187 3.51285 47.3537 3.50522C47.3886 3.49758 47.4206 3.47979 47.4455 3.45407C47.4704 3.42836 47.4873 3.39585 47.4939 3.36062C47.5005 3.32538 47.4966 3.28898 47.4826 3.25596C47.4687 3.22294 47.4454 3.19476 47.4155 3.17494C47.3857 3.15512 47.3507 3.14455 47.3149 3.14453C47.266 3.1456 47.2195 3.1659 47.1854 3.20105C47.1514 3.2362 47.1325 3.28337 47.1328 3.33237Z" fill="#263238"/>
<path d="M47.3242 2.64298L47.7155 2.8592C47.7429 2.8055 47.7487 2.74328 47.7316 2.68543C47.7145 2.62758 47.6759 2.57852 47.6237 2.54839C47.598 2.53423 47.5697 2.52543 47.5405 2.52254C47.5113 2.51965 47.4818 2.52271 47.4538 2.53156C47.4258 2.5404 47.3999 2.55483 47.3776 2.57398C47.3553 2.59313 47.3372 2.6166 47.3242 2.64298Z" fill="#263238"/>
<path d="M47.1669 4.5957L46.75 4.75246C46.7594 4.78024 46.7742 4.80585 46.7936 4.82777C46.8131 4.84969 46.8367 4.86748 46.8631 4.88009C46.8895 4.89269 46.9182 4.89985 46.9474 4.90114C46.9767 4.90243 47.0059 4.89783 47.0333 4.8876C47.0888 4.8655 47.1336 4.82283 47.1585 4.76847C47.1834 4.7141 47.1864 4.65223 47.1669 4.5957Z" fill="#CE7A63"/>
<path d="M45.5589 2.79443L45.915 2.52416C45.8991 2.49938 45.8782 2.47815 45.8537 2.46181C45.8292 2.44546 45.8016 2.43434 45.7726 2.42914C45.7436 2.42395 45.7139 2.42478 45.6852 2.4316C45.6566 2.43841 45.6296 2.45106 45.6061 2.46875C45.5572 2.50606 45.5249 2.56105 45.5161 2.62194C45.5073 2.68283 45.5226 2.74475 45.5589 2.79443Z" fill="#263238"/>
<path d="M45.6661 3.28039C45.6674 3.31642 45.6793 3.35127 45.7002 3.38059C45.7212 3.40991 45.7502 3.43241 45.7839 3.44529C45.8175 3.45817 45.8542 3.46086 45.8893 3.45303C45.9244 3.44519 45.9565 3.42717 45.9815 3.40122C46.0065 3.37527 46.0233 3.34253 46.0298 3.30707C46.0364 3.27162 46.0324 3.23502 46.0183 3.20183C46.0042 3.16864 45.9807 3.14032 45.9507 3.12041C45.9207 3.1005 45.8855 3.08987 45.8495 3.08984C45.825 3.09019 45.8007 3.09541 45.7782 3.1052C45.7556 3.11498 45.7352 3.12914 45.7182 3.14685C45.7011 3.16456 45.6877 3.18548 45.6788 3.2084C45.6699 3.23132 45.6655 3.25579 45.6661 3.28039Z" fill="#263238"/>
<path d="M46.5937 3.10742L46.5343 4.20744L45.9609 4.01149L46.5937 3.10742Z" fill="#CE7A63"/>
<path d="M48.9248 32.1507V31.9777C48.8088 32.0291 48.5403 33.0588 48.0614 33.4912C47.681 33.8399 47.1616 34.2413 47.0294 34.6291C46.8972 35.017 47.7525 35.2548 48.1086 35.1926C48.5215 35.1183 49.2378 34.8278 49.4186 34.5575C49.5994 34.2872 49.6817 33.8886 49.8233 33.6899C49.965 33.4912 50.3063 33.271 50.3845 33.0412C50.4277 32.9156 50.3764 32.6358 50.3157 32.4074C50.255 32.1791 50.1997 31.9588 50.1269 31.9777C50.1269 32.0047 50.1269 32.1128 50.1269 32.1128C49.9546 32.248 49.7413 32.32 49.5225 32.3169C49.3511 32.321 48.9235 32.2858 48.9248 32.1507Z" fill="#263238"/>
<path d="M45.5719 30.8682C45.5085 30.8682 45.4572 30.9588 45.3196 31.1088C45.1132 31.3179 44.8733 31.491 44.61 31.621C44.158 31.8466 43.2784 32.1953 42.8805 32.375C42.6322 32.4872 42.6444 32.7886 42.9007 32.9588C43.157 33.1291 43.7776 33.2534 44.5196 33.0872C44.9243 32.9953 45.4531 32.621 45.7877 32.6413C46.1223 32.6615 46.7469 32.6561 46.9938 32.4858C47.2407 32.3156 47.1422 31.9521 47.072 31.6385C46.9965 31.298 46.9007 30.7655 46.7887 30.7899V30.9074C46.643 31.1277 45.8943 31.2169 45.5746 31.0547L45.5719 30.8682Z" fill="#263238"/>
<path d="M47.5657 17.9903C46.9417 17.7957 46.3678 17.4664 45.8848 17.0254C45.8848 17.0254 46.2085 17.6335 47.1731 18.1997L47.0382 22.4742L47.5657 17.9903Z" fill="#263238"/>
<path d="M11.7566 10.2188H12.187C12.8278 10.2188 13.4424 10.4737 13.8955 10.9276C14.3486 11.3815 14.6032 11.9972 14.6032 12.6391V17.7743H9.3418V12.6391C9.3418 11.9972 9.59636 11.3815 10.0495 10.9276C10.5026 10.4737 11.1172 10.2188 11.758 10.2188H11.7566Z" fill="#263238"/>
<path d="M11.585 43.0211L11.2464 42.7197C10.9186 42.4197 10.669 41.9089 10.5247 41.5657C10.4432 41.3676 10.401 41.1555 10.4005 40.9413V40.2656H9.21875V41.3643V41.39C9.27541 41.6359 9.81909 42.2913 10.1267 42.7184C10.3344 43.0049 10.727 43.3684 11.1965 43.4319C11.6457 43.4995 11.8737 43.3589 11.585 43.0211Z" fill="#CE7A63"/>
<path d="M15.0013 41.2184C15.0344 41.1992 15.0633 41.1735 15.0863 41.1428C15.178 41.0157 15.1052 40.9468 15.0377 40.8454C14.9567 40.7048 14.889 40.5568 14.8353 40.4035C14.78 40.2684 14.7085 40.0279 14.7085 40.0279C14.7085 40.0279 14.7085 39.8508 14.7085 39.7792V39.1035H13.5254V40.2319C13.5861 40.5022 13.8262 40.7495 13.9827 40.959C14.1041 41.1211 14.4171 41.2036 14.606 41.2441C14.6888 41.2654 14.7747 41.2713 14.8596 41.2617C14.9092 41.2566 14.9573 41.2419 15.0013 41.2184Z" fill="#CE7A63"/>
<path d="M9.45377 22.9917C8.5364 24.9985 9.4875 32.0662 9.4875 32.0662C9.45917 32.3919 9.08278 33.0325 8.94787 34.4649C8.78463 36.1582 9.20419 40.411 9.20419 40.411C9.38477 40.5158 9.58814 40.5748 9.79666 40.5831C10.0052 40.5913 10.2126 40.5485 10.4008 40.4583C10.4008 40.4583 11.5273 34.0555 11.7391 32.3716C11.9239 30.9027 12.2787 27.6729 12.2787 27.6729L12.9843 32.3703C12.8377 32.8442 12.7316 33.3297 12.6673 33.8217C12.5715 34.8109 13.5293 39.4218 13.5293 39.4218C13.5293 39.4218 13.9341 39.5718 14.7125 39.4569C14.7125 39.4569 15.0511 33.3392 15.1401 32.146C15.2899 30.1432 15.0619 23.8863 14.6949 22.7012L9.45377 22.9917Z" fill="#37474F"/>
<path d="M12.2832 27.6714L12.58 25.8078C12.58 25.8078 13.84 25.5457 14.4107 25.0078C14.4107 25.0078 13.8117 25.7551 12.9267 25.9997L12.5921 27.4335L12.8916 31.6904L12.2832 27.6714Z" fill="#263238"/>
<path d="M10.4049 41.1872V41.0156C10.5182 41.0656 10.7826 42.0738 11.2534 42.5021C11.6271 42.844 12.1384 43.2386 12.2679 43.6197C12.3974 44.0008 11.557 44.2346 11.2076 44.1738C10.8028 44.1008 10.0986 43.8143 9.92189 43.5495C9.74517 43.2846 9.66152 42.8927 9.51717 42.6981C9.37282 42.5035 9.0423 42.2873 8.96135 42.0656C8.91818 41.9427 8.96945 41.671 9.02881 41.4427C9.08816 41.2143 9.14348 41.0021 9.21498 41.021V41.1562C9.38383 41.2887 9.59271 41.3597 9.80722 41.3575C9.9853 41.3548 10.4062 41.3197 10.4049 41.1872Z" fill="#263238"/>
<path d="M14.7095 40.0274C14.7702 40.0274 14.8444 40.122 14.9793 40.2693C15.1823 40.4746 15.418 40.6446 15.6768 40.772C16.1207 40.995 16.9841 41.3369 17.3753 41.514C17.6195 41.6234 17.6073 41.9194 17.3551 42.0869C17.1028 42.2545 16.4944 42.3761 15.7632 42.2126C15.3584 42.1234 14.8458 41.7545 14.5166 41.7748C14.1874 41.795 13.5723 41.7896 13.3321 41.6221C13.092 41.4545 13.1864 41.0977 13.2552 40.791C13.3308 40.4558 13.4239 39.9328 13.5345 39.9558V40.072C13.6775 40.2882 14.4127 40.3761 14.7257 40.2166L14.7095 40.0274Z" fill="#263238"/>
<path d="M13.0331 15.9675C13.3207 15.9421 13.6101 15.9909 13.8736 16.1092C14.1371 16.2274 14.3661 16.4113 14.5387 16.6431C15.0122 17.2621 16.2587 19.7973 16.2587 19.7973C16.2587 19.7973 18.996 19.6135 19.1269 19.4554C19.2577 19.2973 19.1849 18.9756 19.1485 18.7986C19.112 18.6216 19.0527 18.2297 19.0135 18.1229C18.9447 17.9297 19.2294 17.9878 19.3967 18.1621C19.564 18.3364 19.6382 18.6932 19.7218 18.754C19.8055 18.8148 20.4409 18.0783 20.7485 17.7283C21.0561 17.3783 21.2018 17.1283 21.4082 17.2742C21.5579 17.3796 21.4621 17.5891 21.2409 17.8918C21.1375 18.0211 21.042 18.1565 20.9549 18.2972C20.9292 18.3526 21.0102 18.3959 21.0426 18.4243C21.1033 18.4783 21.2085 18.5662 21.2166 18.6499C21.2153 18.6951 21.218 18.7404 21.2247 18.7851C21.253 18.8864 21.3785 18.9337 21.4136 19.0324C21.4392 19.104 21.4136 19.1837 21.4244 19.2581C21.4338 19.3054 21.4608 19.3486 21.4689 19.3932C21.4721 19.441 21.465 19.4889 21.448 19.5337C21.431 19.5785 21.4045 19.6191 21.3704 19.6527C21.1532 19.9108 20.8577 20.0094 20.5731 20.1675C20.337 20.3027 20.0942 20.3554 19.8216 20.477C19.5491 20.5986 16.2223 21.4608 15.7245 21.1838C15.2267 20.9067 13.3178 17.904 13.3178 17.904C12.5731 16.6675 13.0331 15.9675 13.0331 15.9675Z" fill="#CE7A63"/>
<path d="M11.071 16.0213C9.89598 16.1024 9.81369 16.6713 9.51959 17.2929C9.2943 17.7673 9.36849 18.3321 9.53983 18.8267L10.2832 21.1849C10.2832 21.1849 9.89868 22.1146 9.45349 22.9917C11.5095 24.1417 14.0768 23.5322 14.6946 22.6984C14.7216 22.5201 14.5597 21.1295 14.4653 20.22C14.8269 19.3105 14.9226 18.7335 14.7702 18.1321C14.4855 17.0159 13.3847 15.928 12.8977 15.9699L11.071 16.0213Z" fill="#2286FE"/>
<path d="M9.21444 11.3066L9.5706 11.8796C9.53424 11.9049 9.49315 11.9225 9.4498 11.9314C9.40646 11.9404 9.36176 11.9404 9.31839 11.9316C9.27503 11.9227 9.2339 11.9052 9.19749 11.88C9.16108 11.8548 9.13013 11.8225 9.10652 11.785C9.06004 11.7066 9.04533 11.6133 9.0654 11.5243C9.08548 11.4353 9.13881 11.3574 9.21444 11.3066Z" fill="#263238"/>
<path d="M13.7417 11.2852C14.0196 11.4487 14.3623 12.1487 14.3286 13.6176C14.3002 14.8609 13.8969 15.169 13.6959 15.2569C13.4948 15.3447 13.1036 15.292 12.7245 15.2285V15.9758C12.7245 15.9758 13.248 16.5853 13.2156 16.9218C13.1832 17.2583 12.4587 17.3447 11.969 17.011C11.6494 16.782 11.3749 16.4956 11.1596 16.1663V14.3622C11.1596 14.3622 10.9046 14.7041 10.485 14.4258C10.0655 14.1474 10.0506 13.4582 10.2935 13.2095C10.5363 12.9609 11.0611 13.0406 11.1582 13.3825C11.1582 13.3825 11.7626 13.4041 12.568 12.9622C12.8813 12.7945 13.1508 12.5553 13.3547 12.264C13.5586 11.9726 13.6911 11.6373 13.7417 11.2852Z" fill="#CE7A63"/>
<path d="M12.8012 13.3026C12.8017 13.3333 12.7932 13.3636 12.7766 13.3895C12.7601 13.4154 12.7363 13.4359 12.7082 13.4484C12.6802 13.4608 12.6491 13.4648 12.6188 13.4597C12.5885 13.4545 12.5604 13.4406 12.5379 13.4196C12.5155 13.3986 12.4997 13.3715 12.4926 13.3415C12.4854 13.3116 12.4872 13.2803 12.4978 13.2514C12.5083 13.2225 12.5271 13.1973 12.5518 13.179C12.5765 13.1607 12.606 13.1501 12.6367 13.1485C12.6576 13.1478 12.6784 13.1512 12.698 13.1586C12.7176 13.1659 12.7355 13.1771 12.7508 13.1914C12.7661 13.2057 12.7784 13.2229 12.7871 13.242C12.7957 13.261 12.8006 13.2816 12.8012 13.3026Z" fill="#263238"/>
<path d="M12.9824 14.3613L13.3453 14.4775C13.3392 14.5023 13.3282 14.5255 13.3129 14.5459C13.2976 14.5662 13.2783 14.5832 13.2562 14.5959C13.2341 14.6085 13.2097 14.6165 13.1844 14.6194C13.1591 14.6223 13.1335 14.62 13.1092 14.6127C13.0592 14.596 13.0179 14.5602 12.9941 14.5132C12.9704 14.4661 12.9661 14.4115 12.9824 14.3613Z" fill="#CE7A63"/>
<path d="M14.0887 12.824L13.7676 12.6051C13.7808 12.5837 13.7983 12.5653 13.8189 12.5509C13.8395 12.5365 13.8629 12.5264 13.8875 12.5214C13.9121 12.5163 13.9375 12.5163 13.9621 12.5214C13.9867 12.5265 14.0101 12.5366 14.0306 12.5511C14.0737 12.5802 14.1037 12.625 14.1145 12.6759C14.1253 12.7267 14.1161 12.7798 14.0887 12.824Z" fill="#263238"/>
<path d="M14.0092 13.1919C14.0108 13.2127 14.0083 13.2336 14.0018 13.2534C13.9952 13.2732 13.9848 13.2916 13.9711 13.3073C13.9574 13.323 13.9407 13.3359 13.922 13.3451C13.9033 13.3542 13.8829 13.3596 13.8621 13.3608C13.8299 13.3637 13.7976 13.3569 13.7693 13.3413C13.741 13.3256 13.718 13.3019 13.7033 13.273C13.6886 13.2442 13.6828 13.2116 13.6868 13.1795C13.6907 13.1473 13.7042 13.1171 13.7254 13.0927C13.7467 13.0683 13.7747 13.0508 13.806 13.0425C13.8372 13.0342 13.8702 13.0355 13.9008 13.0462C13.9313 13.0568 13.9579 13.0764 13.9772 13.1024C13.9966 13.1283 14.0077 13.1595 14.0092 13.1919Z" fill="#263238"/>
<path d="M13.248 13.1016L13.2723 14.0435L13.7674 13.8908L13.248 13.1016Z" fill="#CE7A63"/>
<path d="M12.7241 15.2282C12.3194 15.1755 11.5099 14.939 11.375 14.6133C11.4256 14.7784 11.526 14.9238 11.6624 15.0295C11.9079 15.2403 12.7241 15.4768 12.7241 15.4768V15.2282Z" fill="#CE7A63"/>
<path opacity="0.1" d="M11.5982 23.2139C11.0384 23.0787 10.4704 22.4679 10.7267 21.8693C10.7998 21.7012 10.9252 21.5613 11.0842 21.4706C11.1429 21.4372 11.2105 21.4231 11.2776 21.4304C11.3447 21.4377 11.4078 21.4659 11.4579 21.5111C11.1881 21.3341 10.7254 20.4733 10.6633 20.1598L10.3463 19.1003C10.3168 18.8579 10.3384 18.6121 10.4097 18.3787L9.5827 17.4219L9.43025 17.5273C9.29535 17.9422 9.39788 18.4111 9.54088 18.826L10.2842 21.1841C10.2842 21.1841 9.89973 22.1139 9.45454 22.9909C10.1235 23.3508 10.8618 23.5628 11.6195 23.6127C12.3773 23.6626 13.1369 23.5492 13.8471 23.2801C13.1 23.4002 12.337 23.3777 11.5982 23.2139Z" fill="black"/>
<path d="M21.3111 46.7247L18.6372 45.1787C18.3593 45.0138 18.2042 44.6003 18.2042 44.0679L18.1934 32.3203L20.8915 33.8785L20.8807 45.6638C20.8767 46.1828 21.044 46.553 21.3111 46.7247Z" fill="#2286FE"/>
<path opacity="0.2" d="M21.3111 46.7247L18.6372 45.1787C18.3593 45.0138 18.2042 44.6003 18.2042 44.0679L18.1934 32.3203L20.8915 33.8785L20.8807 45.6638C20.8767 46.1828 21.044 46.553 21.3111 46.7247Z" fill="black"/>
<path d="M21.3281 46.7359L21.3093 46.7251C21.0394 46.5535 20.8749 46.1845 20.8749 45.6643L20.8857 33.8789L18.1875 32.3207L20.5174 30.9599L20.5389 30.9477L20.8695 30.7559L21.2418 30.4964L21.2566 30.4869L21.2715 30.4761C21.2917 30.4626 21.3079 30.4477 21.3255 30.4342L21.347 30.4194L21.4118 30.3707L21.4739 30.3221C21.4909 30.3058 21.5085 30.291 21.5265 30.2775L21.5467 30.2612L21.5656 30.245C21.6007 30.218 21.6344 30.1883 21.6668 30.1599L21.718 30.1126L21.7369 30.0923C21.8003 30.0342 21.8637 29.9707 21.9217 29.9072L21.9433 29.8869C21.9676 29.8608 21.9905 29.8351 22.0121 29.8099C22.0236 29.7978 22.034 29.7847 22.0432 29.7707C22.0541 29.7604 22.064 29.7491 22.0728 29.7369V29.7274L22.0809 29.7153L22.0958 29.6991L22.1673 29.6085C22.1862 29.5815 22.2064 29.5531 22.2239 29.5247L22.2388 29.5072V29.4991C22.2644 29.4626 22.2873 29.4261 22.3103 29.3896C22.3332 29.3531 22.3494 29.3261 22.3683 29.2937L22.375 29.2815C22.3899 29.2518 22.4061 29.2247 22.4209 29.195L22.4438 29.1531C22.4627 29.1166 22.4803 29.0801 22.4965 29.0423L22.5261 28.9734C22.538 28.9508 22.5479 28.9273 22.5558 28.9031C22.5657 28.8841 22.5739 28.8642 22.5801 28.8436C22.5868 28.8247 22.5963 28.8031 22.603 28.7842C22.6206 28.7369 22.6354 28.6882 22.6516 28.6382C22.6637 28.599 22.6772 28.5572 22.688 28.5153C22.688 28.5153 22.688 28.5044 22.688 28.4977C22.7015 28.4531 22.711 28.4072 22.7204 28.3626V28.3477C22.7204 28.3126 22.7366 28.2761 22.7433 28.2382C22.7528 28.1869 22.7636 28.1274 22.7703 28.072V28.0436C22.7703 28.0315 22.7703 28.0193 22.7703 28.0058C22.7711 28.0009 22.7711 27.9959 22.7703 27.9909C22.7697 27.9783 22.7697 27.9657 22.7703 27.9531C22.7771 27.8869 22.7825 27.818 22.7878 27.7585V27.7288V27.6544C22.7878 27.5571 22.7905 27.4585 22.7959 27.3585V27.3342C22.7959 27.3058 22.7959 27.2801 22.7959 27.2504V27.1774C22.7959 27.145 22.7959 27.1098 22.7959 27.0787C22.7967 27.0702 22.7967 27.0616 22.7959 27.0531C22.7966 27.0445 22.7966 27.0359 22.7959 27.0274V26.9909C22.7959 26.9409 22.7892 26.8923 22.7852 26.8477V26.8396C22.7852 26.7963 22.7757 26.7558 22.7717 26.7166C22.7473 26.5339 22.7099 26.3533 22.6597 26.176C22.6287 26.0679 22.5949 25.9693 22.5653 25.876C22.4865 25.6643 22.4313 25.4445 22.4007 25.2206C22.4007 25.176 22.3899 25.1301 22.3858 25.0855C22.3818 25.0409 22.3858 24.9814 22.3764 24.926V24.9017C22.3751 24.8886 22.3751 24.8755 22.3764 24.8625C22.3738 24.8342 22.3738 24.8057 22.3764 24.7773C22.3764 24.1544 22.7541 23.426 23.2223 23.1557C23.2687 23.1283 23.3186 23.1074 23.3707 23.0935C23.4041 23.0844 23.4385 23.079 23.4732 23.0773C23.5063 23.0732 23.5399 23.0732 23.573 23.0773C23.589 23.0795 23.6048 23.0831 23.6202 23.0881C23.6673 23.1021 23.7126 23.1216 23.7551 23.1462L26.5005 24.7125C26.5164 24.7214 26.5317 24.7314 26.5464 24.7422C26.7056 24.8638 26.7946 25.0949 26.7946 25.3949C26.7946 25.4355 26.7946 25.4774 26.7865 25.5422V25.5598C26.7679 25.9498 26.7055 26.3365 26.6003 26.7125C26.5774 26.8085 26.5545 26.9044 26.5329 27.0058C26.5234 27.0396 26.5167 27.0747 26.51 27.1085C26.4857 27.2112 26.4641 27.3179 26.4465 27.4328C26.4398 27.4693 26.4344 27.5085 26.429 27.5463L28.3177 26.4747L31.0159 28.0328V31.1329C31.0159 32.0032 30.9498 32.5843 30.8149 32.9086C30.7204 33.1329 30.5761 33.2735 30.2428 33.4654C29.9812 33.6271 29.6814 33.7162 29.374 33.7235C29.2769 33.7235 29.1852 33.741 29.0921 33.7532L28.9828 33.7721C28.9477 33.7789 28.914 33.7856 28.8776 33.7951C28.8128 33.81 28.7427 33.8316 28.6779 33.8532L28.624 33.8735C28.5222 33.913 28.4226 33.9581 28.3258 34.0086C28.3134 34.0136 28.3017 34.0199 28.2907 34.0275H28.2813L28.2651 34.0356C28.2287 34.0519 28.1869 34.0721 28.1437 34.0965C27.7438 34.3457 27.4042 34.6808 27.1494 35.0776C27.0144 35.2785 26.8958 35.49 26.7946 35.71C26.6982 35.9181 26.6162 36.1326 26.5491 36.3519L26.6975 36.1938C26.8379 36.0356 26.9874 35.8858 27.1454 35.7451C27.2771 35.631 27.4194 35.5296 27.5703 35.4424C27.7862 35.3181 27.9589 35.2181 28.087 35.2978L30.7609 36.8938L30.7919 36.9168C30.7994 36.9238 30.8061 36.9315 30.8122 36.9398C30.8171 36.943 30.8208 36.9478 30.8229 36.9533C30.8308 36.9619 30.8375 36.9715 30.8432 36.9817C30.8432 36.9817 30.8432 36.9817 30.8432 36.9884C30.8515 37.0013 30.8587 37.0149 30.8648 37.0289C30.9336 37.1749 30.9794 37.4344 30.9997 37.8695C30.9997 37.9168 30.9997 37.9668 30.9997 38.0209C30.9997 38.156 30.9997 38.3101 30.9997 38.479V41.5777L22.1902 46.6724C22.047 46.7604 21.8854 46.8141 21.718 46.8292C21.6651 46.8339 21.6118 46.8339 21.5588 46.8292C21.5413 46.8283 21.524 46.8246 21.5076 46.8183C21.4441 46.7998 21.3836 46.7721 21.3281 46.7359Z" fill="#2286FE"/>
<path opacity="0.1" d="M28.0886 35.2981L30.7598 36.894C30.633 36.813 30.4589 36.9157 30.2431 37.04C30.0923 37.1267 29.9504 37.2281 29.8195 37.3427C29.6604 37.4821 29.5104 37.6315 29.3702 37.79C29.0616 38.1486 28.7063 38.464 28.3139 38.7279C28.2613 38.7657 28.1992 38.8049 28.1412 38.8387C27.1631 39.4049 26.3672 38.8022 26.3672 37.4954C26.3721 37.1064 26.4343 36.7202 26.552 36.3494C26.6019 36.2967 26.6491 36.244 26.6977 36.194C26.8381 36.0358 26.9877 35.886 27.1456 35.7454C27.2769 35.6312 27.4187 35.5298 27.5692 35.4427C27.7864 35.3183 27.9618 35.2183 28.0886 35.2981Z" fill="black"/>
<path opacity="0.1" d="M26.4243 27.5476L28.3225 26.4746L31.0206 28.0341L28.7016 29.3747L28.0041 29.7395H27.996H27.9892L27.9393 29.7612L27.9137 29.7706L27.7977 29.8179L27.7329 29.8409L27.7154 29.8477C27.6776 29.8598 27.6412 29.8733 27.6061 29.8828L27.5306 29.9031C27.4914 29.9139 27.455 29.9206 27.4186 29.9274H27.4064L27.3565 29.9355C27.3118 29.9416 27.2668 29.9452 27.2216 29.9463H27.1785C27.1259 29.9457 27.0735 29.9402 27.022 29.9301L26.995 29.9233C26.9553 29.9125 26.9165 29.8985 26.879 29.8814C26.8678 29.8777 26.8574 29.8722 26.8479 29.8652C26.8141 29.8458 26.7817 29.8241 26.7508 29.8004H26.7441L26.7211 29.7801C26.6862 29.7477 26.6546 29.7119 26.6267 29.6733L26.6132 29.6571C26.5403 29.5447 26.4866 29.4209 26.454 29.2909L26.4473 29.2679C26.4297 29.199 26.4176 29.1328 26.4054 29.0584V29.022C26.3933 28.9409 26.3838 28.8544 26.3785 28.7665C26.3704 28.6503 26.3677 28.549 26.3677 28.4476C26.3639 28.1466 26.3828 27.8458 26.4243 27.5476Z" fill="black"/>
<path opacity="0.1" d="M20.8857 33.8793L18.1875 32.3211L20.5174 30.9603L20.5376 30.9481H20.5457L20.8762 30.7562L21.2499 30.4968L21.2634 30.4873L21.2782 30.4765C21.2985 30.463 21.3147 30.4481 21.3322 30.4346L21.3524 30.4197L21.4185 30.3711L21.4806 30.3224C21.4977 30.3062 21.5152 30.2914 21.5332 30.2778L21.5534 30.2616L21.5723 30.2454C21.6074 30.2184 21.6411 30.1887 21.6735 30.1603L21.7248 30.113L21.7437 30.0927C21.8071 30.0346 21.8705 29.9711 21.9285 29.9076L21.9501 29.8873C21.9744 29.8612 21.9973 29.8355 22.0189 29.8103C22.0304 29.7982 22.0407 29.785 22.0499 29.7711C22.0607 29.7603 22.0688 29.7481 22.0782 29.7373L22.0863 29.7278L22.0958 29.717L22.1093 29.6995C22.1335 29.6697 22.1592 29.64 22.1808 29.6089L22.2388 29.5265L22.2523 29.5076V29.4995C22.2779 29.463 22.3008 29.4265 22.3238 29.39C22.3467 29.3535 22.3629 29.3265 22.3818 29.294V29.2805C22.398 29.2522 22.4142 29.2251 22.429 29.1954C22.4379 29.1819 22.446 29.1679 22.4533 29.1535C22.4695 29.1157 22.4884 29.0792 22.5045 29.0427L22.5342 28.9738C22.545 28.9521 22.5545 28.9292 22.5653 28.9048C22.576 28.8805 22.5814 28.8657 22.5882 28.844C22.5949 28.8224 22.6044 28.8035 22.6111 28.7846C22.6287 28.7359 22.6435 28.69 22.6597 28.6386C22.6718 28.5994 22.6853 28.5575 22.6961 28.5156C22.6961 28.5156 22.6961 28.5048 22.6961 28.4981C22.7069 28.4548 22.719 28.4075 22.7285 28.3629V28.3494C22.7352 28.3116 22.7433 28.2765 22.7501 28.2386C22.7595 28.1873 22.7703 28.1278 22.7771 28.0724V28.044C22.7771 28.0332 22.7771 28.0197 22.7771 28.0062C22.7778 28.0013 22.7778 27.9962 22.7771 27.9913C22.7771 27.9792 22.7771 27.9656 22.7771 27.9521C22.7852 27.8846 22.7905 27.817 22.7946 27.7589V27.7291C22.7946 27.7035 22.7946 27.6818 22.7946 27.6548C22.7946 27.5575 22.7973 27.4589 22.8027 27.3589V27.3345C22.8027 27.3062 22.8027 27.2805 22.8027 27.2508V27.1778C22.8027 27.1454 22.8027 27.1102 22.8027 27.0778V27.0535C22.8034 27.0449 22.8034 27.0363 22.8027 27.0278V26.9913C22.8027 26.9413 22.7959 26.8926 22.7919 26.848V26.8386L22.7798 26.717C22.7554 26.5343 22.7179 26.3537 22.6678 26.1764C22.6381 26.067 22.6044 25.9683 22.5733 25.8764C22.4946 25.6647 22.4394 25.4449 22.4088 25.221C22.4088 25.1764 22.398 25.1304 22.3939 25.0859C22.3899 25.0413 22.3939 24.9831 22.3858 24.9264V24.9021C22.3858 24.8885 22.3858 24.875 22.3858 24.8615C22.3832 24.8332 22.3832 24.8047 22.3858 24.7764C22.3858 24.1534 22.7636 23.425 23.2317 23.1547C23.2781 23.1273 23.328 23.1064 23.3801 23.0926C23.4136 23.0834 23.448 23.078 23.4826 23.0763C23.5157 23.0709 23.5494 23.0709 23.5825 23.0763C23.5985 23.0785 23.6143 23.0821 23.6297 23.0872C23.6768 23.1012 23.722 23.1207 23.7646 23.1453L26.5005 24.7129C26.4432 24.6797 26.379 24.6603 26.313 24.6561C26.265 24.6543 26.217 24.6584 26.17 24.6683C26.0915 24.6859 26.0164 24.716 25.9474 24.7575C25.8649 24.8066 25.7884 24.8651 25.7194 24.9318C25.5307 25.118 25.3808 25.3399 25.2782 25.5845C25.254 25.6372 25.2351 25.6913 25.2148 25.7467C25.1892 25.8242 25.1681 25.9032 25.1514 25.9832C25.1219 26.1117 25.1065 26.2431 25.1056 26.3751C25.1056 26.4116 25.1056 26.4534 25.1056 26.4994V26.5129C25.1111 26.732 25.1424 26.9497 25.1986 27.1616C25.2067 27.1967 25.2175 27.2305 25.227 27.2643C25.2486 27.3332 25.2701 27.3994 25.2917 27.467C25.3228 27.5602 25.3565 27.6575 25.3875 27.767C25.3983 27.8048 25.4078 27.8427 25.4172 27.8805C25.4266 27.9183 25.4361 27.9602 25.4469 28.0021C25.4768 28.1431 25.4989 28.2857 25.513 28.4292V28.4359C25.5117 28.4598 25.5117 28.4837 25.513 28.5075V28.5805V28.5994V28.6184C25.513 28.6346 25.513 28.6508 25.513 28.6684C25.5143 28.685 25.5143 28.7017 25.513 28.7184C25.513 28.7346 25.513 28.7521 25.513 28.7684V28.8427C25.513 28.8684 25.513 28.8954 25.513 28.9251V28.9373C25.513 28.9873 25.513 29.0373 25.513 29.0873C25.513 29.1373 25.513 29.1859 25.5062 29.2359C25.5062 29.2603 25.5062 29.2859 25.5062 29.3089V29.3386C25.5062 29.4022 25.4968 29.467 25.4887 29.5319C25.4887 29.563 25.4806 29.5927 25.4766 29.6251V29.6508L25.4482 29.8197L25.4239 29.9292V29.9427C25.4239 29.9684 25.4132 29.9941 25.4051 30.0211C25.397 30.0481 25.3916 30.0724 25.3848 30.0954C25.3781 30.1184 25.3848 30.117 25.3781 30.1278C25.3713 30.1387 25.3578 30.1887 25.3497 30.2197C25.3349 30.2684 25.3187 30.317 25.3012 30.3643C25.2836 30.4116 25.2702 30.4454 25.2553 30.4846C25.2405 30.5238 25.2162 30.5779 25.196 30.6197L25.1406 30.7333C25.1298 30.7535 25.1191 30.7765 25.1069 30.7968L25.0732 30.8603L25.0651 30.8738C25.0567 30.8906 25.0472 30.9068 25.0368 30.9225L25.0273 30.9387C25.0215 30.9492 25.0147 30.9591 25.0071 30.9684C24.9841 31.0062 24.9612 31.0427 24.9369 31.0792V31.0873L24.9234 31.1062C24.9144 31.1204 24.9045 31.1339 24.8938 31.1468C24.8851 31.1608 24.8756 31.1744 24.8654 31.1873L24.8398 31.2211C24.8256 31.2413 24.8103 31.2607 24.7939 31.2792L24.7804 31.2968L24.7656 31.3171L24.7346 31.3535L24.7251 31.3644C24.7251 31.3725 24.7116 31.3819 24.7035 31.39L24.6685 31.4292C24.659 31.4414 24.6469 31.4535 24.6347 31.4671L24.6145 31.4873C24.5559 31.5524 24.4937 31.6142 24.4283 31.6725L24.4094 31.6927L24.3568 31.74C24.3258 31.7698 24.2921 31.7981 24.257 31.8265L24.2381 31.8414L24.2287 31.8509L24.2192 31.859L24.1666 31.9022L24.0317 31.9995L24.0115 32.0157L23.9575 32.0563L23.9278 32.0765L23.5541 32.336L23.2236 32.5279L23.2128 32.536L23.1912 32.5468L20.8857 33.8793Z" fill="black"/>
<mask id="mask0_1096_50746" style="mask-type:luminance" maskUnits="userSpaceOnUse" x="26" y="20" width="17" height="22">
<path d="M28.1378 37.5964C28.1661 37.5802 28.1985 37.5572 28.2335 37.5329C28.5287 37.3333 28.7956 37.0947 29.0268 36.8234C29.1469 36.6883 29.2534 36.5801 29.3749 36.4626L29.3937 36.4437L29.4288 36.4099L29.445 36.3937C29.5057 36.3369 29.5651 36.2842 29.6244 36.2328L30.7428 36.9018C30.7658 36.916 30.7859 36.9343 30.8022 36.9558C30.8118 36.9672 30.8204 36.9794 30.8278 36.9923V37.0004C30.8349 37.0126 30.8412 37.0253 30.8467 37.0383V37.0504L30.8629 37.0923C30.8629 37.0923 30.8629 37.1031 30.8629 37.1085C30.8686 37.1236 30.8736 37.1389 30.8777 37.1545C30.8777 37.1612 30.8777 37.168 30.8777 37.1748C30.8777 37.1815 30.8872 37.2112 30.8926 37.2315V37.2491C30.8926 37.2734 30.902 37.2991 30.9074 37.3275C30.9074 37.3585 30.9169 37.391 30.9223 37.4248V37.4329L30.9344 37.5302C30.9344 37.541 30.9344 37.5518 30.9344 37.5626L30.9425 37.6464C30.9425 37.6612 30.9425 37.6761 30.9425 37.6896C30.9425 37.7031 30.9425 37.745 30.9492 37.7748C30.956 37.8045 30.9492 37.8086 30.9492 37.8261V37.914C30.9492 37.9329 30.9492 37.9531 30.9492 37.9734C30.9492 37.9937 30.9492 38.0369 30.9492 38.0694C30.9492 38.1018 30.9492 38.1086 30.9492 38.1288C30.9492 38.1491 30.9492 38.2059 30.9492 38.245V38.2991C30.9492 38.3586 30.9492 38.418 30.9492 38.4815V41.5775L42.0117 35.1774V33.4301C42.0123 33.4197 42.0123 33.4094 42.0117 33.399V20.3906L39.6912 21.7325L39.6481 21.7582L39.6211 21.7744L39.1638 22.0582C38.9806 22.1796 38.8045 22.3113 38.6363 22.4528L38.6255 22.4623L38.5972 22.4853C38.5553 22.5204 38.5162 22.5569 38.4771 22.5934L38.4663 22.6042L38.4164 22.6528C38.3799 22.688 38.3449 22.7231 38.3098 22.7596L38.2437 22.8312C38.2113 22.8677 38.1789 22.9042 38.1479 22.942C38.1169 22.9799 38.1074 22.992 38.0845 23.0231C38.0616 23.0542 38.0238 23.1015 37.9955 23.1407L37.9469 23.2123L37.9361 23.2312L37.9226 23.2501C37.8997 23.2853 37.8767 23.3204 37.8565 23.3556C37.8363 23.3907 37.8255 23.4083 37.812 23.4366L37.7998 23.4569C37.7594 23.5326 37.7189 23.6123 37.6838 23.6934L37.6744 23.7137C37.6595 23.7475 37.6434 23.7812 37.6299 23.8164C37.6164 23.8515 37.6029 23.888 37.5907 23.9245L37.5813 23.9515C37.5665 23.9934 37.5516 24.0339 37.5395 24.0772C37.5273 24.1204 37.5138 24.165 37.5017 24.2123C37.4896 24.2596 37.4788 24.3042 37.468 24.3475C37.4572 24.3907 37.4491 24.4367 37.441 24.4826C37.4329 24.5285 37.4235 24.5799 37.4167 24.6299V24.6394C37.4167 24.6799 37.4046 24.7204 37.3992 24.7623C37.3938 24.8042 37.3884 24.8704 37.383 24.9286V24.961C37.383 24.9921 37.383 25.0232 37.3762 25.0542C37.3762 25.1205 37.3762 25.1894 37.3762 25.2867V25.3002C37.3762 25.3178 37.3762 25.334 37.3762 25.3515C37.3656 25.8494 37.448 26.3448 37.6191 26.8124C37.7322 27.1154 37.7951 27.435 37.8052 27.7583V27.7732C37.8052 27.8178 37.812 27.8597 37.812 27.8975C37.8055 28.2281 37.7204 28.5524 37.5638 28.8435C37.4305 29.1196 37.2237 29.3534 36.9661 29.5192C36.9253 29.5421 36.883 29.5619 36.8393 29.5786L36.8177 29.5868C36.7792 29.6 36.7394 29.609 36.699 29.6138H36.6774C36.6393 29.6179 36.6009 29.6179 36.5627 29.6138H36.5546C36.5162 29.6076 36.479 29.5958 36.444 29.5786L36.4332 29.5719L35.2663 28.8854C35.2663 28.8503 35.2663 28.8165 35.2757 28.7813C35.2852 28.7462 35.2852 28.7003 35.2906 28.6597C35.3014 28.5759 35.3121 28.4948 35.3256 28.4165C35.3391 28.3381 35.3499 28.2732 35.3634 28.2043C35.3715 28.1678 35.3783 28.1327 35.385 28.0989C35.4174 27.9489 35.4511 27.7989 35.4902 27.6381C35.6068 27.2255 35.6685 26.7993 35.6737 26.3705C35.6737 25.9651 35.6386 25.7826 35.5294 25.7178L34.1992 24.9488L31.9408 26.2529L31.0113 25.7124V26.7935L30.2018 27.2651L29.9428 27.4137L31.0221 28.0354V29.6408V31.1354C31.0221 32.0057 30.956 32.5868 30.8211 32.9112C30.7266 33.1341 30.5823 33.2747 30.2491 33.4679C29.987 33.6298 29.6867 33.7189 29.3789 33.726C29.2845 33.726 29.19 33.7436 29.0997 33.7558L28.989 33.7747C28.9553 33.7814 28.9202 33.7882 28.8838 33.7977C28.8163 33.8136 28.7497 33.833 28.6841 33.8558H28.6706L28.6302 33.8693C28.5283 33.9086 28.4287 33.9537 28.332 34.0044L28.2956 34.022H28.2875H28.2713C28.2293 34.04 28.1884 34.0603 28.1486 34.0828C27.7492 34.3318 27.4104 34.667 27.157 35.0639C27.0922 35.1585 27.0315 35.2571 26.9735 35.3585L26.9506 35.4031C26.9007 35.4923 26.8534 35.5828 26.8157 35.6734L26.8062 35.695C26.7096 35.903 26.6276 36.1175 26.5607 36.3369C26.5001 36.5349 26.455 36.7373 26.4258 36.9423L27.6076 37.6261C27.691 37.6674 27.7837 37.6863 27.8766 37.6811C27.9695 37.6759 28.0594 37.6467 28.1378 37.5964Z" fill="white"/>
</mask>
<g mask="url(#mask0_1096_50746)">
<path d="M31.171 33.8915L28.2988 32.2307L28.3622 32.1428L28.369 32.1347L28.4 32.0901C28.4459 32.0225 28.489 31.955 28.5349 31.8833L28.5471 31.8617C28.5889 31.7874 28.6294 31.7063 28.6685 31.6212C28.6766 31.6009 28.686 31.5806 28.6941 31.559V31.5455C28.7143 31.4969 28.7386 31.4387 28.7616 31.3739C28.7724 31.3455 28.7818 31.3171 28.7926 31.286V31.2685C28.8088 31.2198 28.825 31.1712 28.8385 31.1212C28.8519 31.0712 28.8614 31.0414 28.8722 30.9995C28.883 30.9577 28.8938 30.909 28.9059 30.8644C28.9181 30.8198 28.9248 30.7752 28.9329 30.7293C28.941 30.6833 28.9504 30.6441 28.9572 30.6022V30.582C28.9653 30.5414 28.972 30.4982 28.9788 30.4549C28.9855 30.4117 28.9855 30.4049 28.9896 30.3806V30.3536C29.0192 30.1374 29.0368 29.9103 29.0516 29.6644V29.6374L29.0665 28.9738V25.8184L31.9278 27.4968V30.6536L31.913 31.3185V31.3441C31.9009 31.5901 31.882 31.8171 31.8536 32.032V32.0604C31.8536 32.0861 31.8469 32.1104 31.8429 32.1361C31.8388 32.1617 31.8307 32.2212 31.8226 32.2617V32.2807C31.8159 32.3252 31.8078 32.3658 31.7997 32.409C31.7916 32.4523 31.7808 32.4969 31.77 32.5442C31.7592 32.5915 31.7498 32.6361 31.739 32.6793C31.7282 32.7226 31.716 32.7617 31.7052 32.8009C31.6945 32.8401 31.6756 32.8996 31.658 32.9469V32.9672C31.6486 32.9955 31.6378 33.0266 31.627 33.055C31.6054 33.1172 31.5798 33.1766 31.5595 33.2266L31.5528 33.2388L31.5285 33.3009C31.4894 33.3847 31.4489 33.4658 31.4071 33.5428L31.395 33.5645C31.3558 33.632 31.3127 33.6996 31.2668 33.7712C31.2572 33.7861 31.2464 33.8001 31.2344 33.8131V33.8226L31.171 33.8915Z" fill="#2286FE"/>
<path d="M29.0675 39.3789L29.0756 36.7735L29.0352 36.8154C29.1539 36.6802 29.2632 36.5708 29.3819 36.4546L29.4021 36.4356L29.4372 36.4019L29.4615 36.3883C29.6883 36.1694 29.9401 35.978 30.2116 35.8181L30.2412 35.8032H30.248L30.2682 35.791C30.333 35.7545 30.4031 35.7221 30.4611 35.691C30.4787 35.6816 30.4976 35.6748 30.5151 35.6667L30.534 35.6572C30.5772 35.641 30.623 35.6208 30.6689 35.6059C30.6932 35.5951 30.7161 35.5897 30.7377 35.5816H30.7485C30.7876 35.5721 30.8254 35.5613 30.8605 35.5545C30.8955 35.5478 30.9144 35.5437 30.9401 35.541C30.9733 35.5384 31.0067 35.5384 31.0399 35.541C31.065 35.5397 31.0903 35.5397 31.1154 35.541C31.145 35.5436 31.1744 35.5485 31.2031 35.5559H31.2153L31.2706 35.5694C31.2987 35.5793 31.3258 35.592 31.3515 35.6072C31.3804 35.6213 31.408 35.6381 31.4338 35.6572C31.465 35.6795 31.4944 35.7044 31.5215 35.7316C31.5369 35.7478 31.5513 35.765 31.5647 35.7829L31.5741 35.7964L31.5822 35.8059C31.5962 35.8237 31.6093 35.8422 31.6213 35.8613C31.6385 35.8872 31.6538 35.9143 31.6672 35.9424C31.6807 35.9681 31.6928 35.991 31.7036 36.0167C31.7144 36.0424 31.7306 36.0816 31.7441 36.1167C31.7576 36.1518 31.7616 36.1681 31.7697 36.1951C31.7778 36.2221 31.7927 36.2708 31.8035 36.3113L31.8196 36.3789V36.3897C31.8291 36.4343 31.8399 36.4802 31.848 36.5248C31.848 36.537 31.848 36.5505 31.848 36.564V36.5802C31.8777 36.7708 31.8992 36.9856 31.9141 37.2384V37.2492L31.9289 37.8519V41.0519L29.0675 39.3789Z" fill="#2286FE"/>
<path d="M27.5501 37.6207L24.7265 35.9828C24.539 35.8828 24.4297 35.6206 24.4297 35.2733C24.4416 34.8614 24.5708 34.4614 24.802 34.1206L24.856 34.0449C24.8425 34.0665 24.8263 34.0882 24.8128 34.1084L27.6837 35.7693C27.6761 35.7786 27.6694 35.7886 27.6634 35.799C27.4314 36.139 27.3021 36.5387 27.2911 36.9504C27.2911 37.2761 27.3909 37.5085 27.5501 37.6207Z" fill="#2286FE"/>
<path d="M31.171 33.8915L28.2988 32.2307L28.3622 32.1428L28.369 32.1347L28.4 32.0901C28.4459 32.0225 28.489 31.955 28.5349 31.8833L28.5471 31.8617C28.5889 31.7874 28.6294 31.7063 28.6685 31.6212C28.6766 31.6009 28.686 31.5806 28.6941 31.559V31.5455C28.7143 31.4969 28.7386 31.4387 28.7616 31.3739C28.7724 31.3455 28.7818 31.3171 28.7926 31.286V31.2685C28.8088 31.2198 28.825 31.1712 28.8385 31.1212C28.8519 31.0712 28.8614 31.0414 28.8722 30.9995C28.883 30.9577 28.8938 30.909 28.9059 30.8644C28.9181 30.8198 28.9248 30.7752 28.9329 30.7293C28.941 30.6833 28.9504 30.6441 28.9572 30.6022V30.582C28.9653 30.5414 28.972 30.4982 28.9788 30.4549C28.9855 30.4117 28.9855 30.4049 28.9896 30.3806V30.3536C29.0192 30.1374 29.0368 29.9103 29.0516 29.6644V29.6374L29.0665 28.9738V25.8184L31.9278 27.4968V30.6536L31.913 31.3185V31.3441C31.9009 31.5901 31.882 31.8171 31.8536 32.032V32.0604C31.8536 32.0861 31.8469 32.1104 31.8429 32.1361C31.8388 32.1617 31.8307 32.2212 31.8226 32.2617V32.2807C31.8159 32.3252 31.8078 32.3658 31.7997 32.409C31.7916 32.4523 31.7808 32.4969 31.77 32.5442C31.7592 32.5915 31.7498 32.6361 31.739 32.6793C31.7282 32.7226 31.716 32.7617 31.7052 32.8009C31.6945 32.8401 31.6756 32.8996 31.658 32.9469V32.9672C31.6486 32.9955 31.6378 33.0266 31.627 33.055C31.6054 33.1172 31.5798 33.1766 31.5595 33.2266L31.5528 33.2388L31.5285 33.3009C31.4894 33.3847 31.4489 33.4658 31.4071 33.5428L31.395 33.5645C31.3558 33.632 31.3127 33.6996 31.2668 33.7712C31.2572 33.7861 31.2464 33.8001 31.2344 33.8131V33.8226L31.171 33.8915Z" fill="#263238"/>
<path d="M29.0675 39.3789L29.0756 36.7735L29.0352 36.8154C29.1539 36.6802 29.2632 36.5708 29.3819 36.4546L29.4021 36.4356L29.4372 36.4019L29.4615 36.3883C29.6883 36.1694 29.9401 35.978 30.2116 35.8181L30.2412 35.8032H30.248L30.2682 35.791C30.333 35.7545 30.4031 35.7221 30.4611 35.691C30.4787 35.6816 30.4976 35.6748 30.5151 35.6667L30.534 35.6572C30.5772 35.641 30.623 35.6208 30.6689 35.6059C30.6932 35.5951 30.7161 35.5897 30.7377 35.5816H30.7485C30.7876 35.5721 30.8254 35.5613 30.8605 35.5545C30.8955 35.5478 30.9144 35.5437 30.9401 35.541C30.9733 35.5384 31.0067 35.5384 31.0399 35.541C31.065 35.5397 31.0903 35.5397 31.1154 35.541C31.145 35.5436 31.1744 35.5485 31.2031 35.5559H31.2153L31.2706 35.5694C31.2987 35.5793 31.3258 35.592 31.3515 35.6072C31.3804 35.6213 31.408 35.6381 31.4338 35.6572C31.465 35.6795 31.4944 35.7044 31.5215 35.7316C31.5369 35.7478 31.5513 35.765 31.5647 35.7829L31.5741 35.7964L31.5822 35.8059C31.5962 35.8237 31.6093 35.8422 31.6213 35.8613C31.6385 35.8872 31.6538 35.9143 31.6672 35.9424C31.6807 35.9681 31.6928 35.991 31.7036 36.0167C31.7144 36.0424 31.7306 36.0816 31.7441 36.1167C31.7576 36.1518 31.7616 36.1681 31.7697 36.1951C31.7778 36.2221 31.7927 36.2708 31.8035 36.3113L31.8196 36.3789V36.3897C31.8291 36.4343 31.8399 36.4802 31.848 36.5248C31.848 36.537 31.848 36.5505 31.848 36.564V36.5802C31.8777 36.7708 31.8992 36.9856 31.9141 37.2384V37.2492L31.9289 37.8519V41.0519L29.0675 39.3789Z" fill="#263238"/>
<path d="M27.5501 37.6207L24.7265 35.9828C24.539 35.8828 24.4297 35.6206 24.4297 35.2733C24.4416 34.8614 24.5708 34.4614 24.802 34.1206L24.856 34.0449C24.8425 34.0665 24.8263 34.0882 24.8128 34.1084L27.6837 35.7693C27.6761 35.7786 27.6694 35.7886 27.6634 35.799C27.4314 36.139 27.3021 36.5387 27.2911 36.9504C27.2911 37.2761 27.3909 37.5085 27.5501 37.6207Z" fill="#263238"/>
<path d="M27.5745 37.6305L27.5556 37.6197C27.3964 37.5075 27.2966 37.2751 27.2966 36.9548C27.3077 36.5432 27.4369 36.1434 27.669 35.8035C27.6749 35.793 27.6817 35.7831 27.6892 35.7737L24.8184 34.1129C24.8319 34.0926 24.848 34.071 24.8615 34.0494C24.898 34.0021 24.9357 33.9575 24.9749 33.9142C24.9931 33.893 25.0125 33.8727 25.0329 33.8534C25.0527 33.8314 25.0744 33.8111 25.0976 33.7926C25.1531 33.7409 25.2142 33.6956 25.2797 33.6575C25.3038 33.6435 25.3285 33.6309 25.3539 33.6196L25.3863 33.6061H25.3944C25.5137 33.5424 25.64 33.493 25.7708 33.4588L25.8167 33.448C25.935 33.4239 26.055 33.4081 26.1755 33.4007C26.6004 33.3859 27.014 33.2596 27.3749 33.0345L27.4693 32.9764C27.4976 32.9602 27.5233 32.9426 27.5502 32.9237C27.5772 32.9048 27.5921 32.898 27.6123 32.8845H27.6204L27.7202 32.8115L27.8147 32.7372L27.8322 32.7237L27.847 32.7102L27.8578 32.7007L27.8983 32.6656C27.9104 32.6547 27.9253 32.6439 27.9374 32.6318C27.9496 32.6196 27.986 32.5885 28.0103 32.5642L28.044 32.5304L28.0588 32.5142L28.1182 32.452C28.1425 32.4264 28.1668 32.3993 28.1897 32.3723L28.1991 32.3615L28.2383 32.3156C28.2558 32.2912 28.2774 32.2669 28.2949 32.2412L31.1685 33.9034L31.2197 33.8332V33.8237C31.2317 33.8107 31.2425 33.7966 31.2521 33.7818C31.298 33.7115 31.3411 33.6467 31.3803 33.575L31.3924 33.5534C31.4342 33.4764 31.4747 33.3953 31.5138 33.3115L31.5381 33.2494L31.5449 33.2372C31.5651 33.1872 31.5907 33.1277 31.6123 33.0656C31.6231 33.0372 31.6339 33.0061 31.6433 32.9777V32.9575C31.6609 32.9102 31.6757 32.8615 31.6906 32.8115C31.7054 32.7615 31.7121 32.7318 31.7243 32.6899C31.7364 32.648 31.7459 32.5993 31.7553 32.5547C31.7648 32.5102 31.7755 32.4669 31.785 32.4196C31.7944 32.3723 31.8012 32.3358 31.8079 32.2912V32.2723C31.816 32.2318 31.8214 32.1899 31.8282 32.1466C31.8349 32.1034 31.8349 32.0966 31.839 32.071V32.0426C31.8673 31.8277 31.8862 31.6007 31.8983 31.3547V31.329L31.9132 30.6642V27.4979L29.0518 25.8195L30.2255 25.1438L30.8312 24.7938L31.3708 24.4803L31.5813 24.3613C31.6366 24.3343 31.6865 24.3046 31.7378 24.2803C31.9168 24.1819 32.1059 24.1031 32.3017 24.0451L32.361 24.0302C32.422 24.0157 32.4848 24.0111 32.5472 24.0167C32.5823 24.0167 32.6012 24.0478 32.6282 24.064L35.5233 25.7127C35.5511 25.7309 35.575 25.7545 35.5935 25.7822C35.6121 25.8098 35.6249 25.8409 35.6312 25.8735C35.6312 25.8965 35.6433 25.9235 35.6487 25.9519C35.6541 25.9803 35.6568 26.0127 35.6609 26.0479V26.1019C35.6609 26.1398 35.6609 26.1803 35.6609 26.2249C35.6609 26.2695 35.6609 26.3168 35.6609 26.3681C35.6609 26.4965 35.6609 26.6127 35.6447 26.7235C35.6447 26.7519 35.6447 26.779 35.6447 26.806C35.6447 26.833 35.6447 26.8587 35.6353 26.8857C35.6258 26.9127 35.6353 26.9371 35.6231 26.9641C35.611 26.9911 35.6164 27.0154 35.6123 27.0411C35.6029 27.0911 35.5948 27.1398 35.5853 27.1911C35.5759 27.2425 35.5638 27.2898 35.5543 27.3384C35.553 27.3419 35.553 27.3458 35.5543 27.3492C35.7864 26.8291 35.9117 26.2675 35.9226 25.6978C35.9226 25.6181 35.9226 25.5384 35.9145 25.4708C35.9009 25.0374 35.818 24.609 35.669 24.2019C35.5409 23.8646 35.4781 23.5059 35.4842 23.1451C35.4842 22.4775 35.4842 22.1099 36.898 21.2951L39.2063 19.9707L42.0771 21.6315V33.3967C42.0771 34.3764 41.4808 35.5183 40.7483 35.9427L31.9388 41.0374V37.84L31.9239 37.2373V37.2265C31.9091 36.9765 31.8875 36.7589 31.8578 36.5683V36.5521C31.8578 36.5386 31.8578 36.5251 31.8578 36.5129C31.8497 36.4643 31.839 36.4183 31.8295 36.3778V36.367L31.8133 36.2994C31.8025 36.2589 31.7931 36.221 31.7796 36.1832C31.7661 36.1454 31.7634 36.1305 31.754 36.1048C31.7445 36.0791 31.7283 36.0359 31.7135 36.0048C31.6986 35.9737 31.6906 35.9562 31.6771 35.9305C31.6637 35.9024 31.6484 35.8753 31.6312 35.8494C31.6191 35.8303 31.6061 35.8118 31.5921 35.794L31.584 35.7845L31.5745 35.771C31.5612 35.7531 31.5467 35.7359 31.5314 35.7197C31.5042 35.6925 31.4749 35.6677 31.4437 35.6454C31.4178 35.6262 31.3903 35.6095 31.3614 35.5954C31.3357 35.5801 31.3086 35.5674 31.2804 35.5575L31.2251 35.544H31.213C31.1842 35.5366 31.1549 35.5317 31.1253 35.5291C31.1001 35.5278 31.0749 35.5278 31.0497 35.5291C31.0165 35.5265 30.9831 35.5265 30.9499 35.5291C30.9243 35.5291 30.8986 35.5372 30.8703 35.5426C30.842 35.548 30.7975 35.5602 30.7583 35.5697H30.7476C30.726 35.5778 30.703 35.5832 30.6787 35.594C30.6329 35.6089 30.587 35.6291 30.5438 35.6454L30.525 35.6548C30.5074 35.6629 30.4885 35.6697 30.471 35.6791C30.4062 35.7102 30.3428 35.7426 30.2781 35.7791L30.2578 35.7913H30.2511L30.2214 35.8062C29.9465 35.9694 29.6919 36.1649 29.4632 36.3886L29.4457 36.4048L29.4106 36.4386L29.3904 36.4575C29.2717 36.5737 29.1624 36.69 29.0437 36.8183C28.8124 37.0896 28.5456 37.3283 28.2504 37.5278C28.2153 37.5521 28.1843 37.5751 28.1546 37.5913C28.0757 37.6402 27.9875 37.672 27.8956 37.6846C27.839 37.6955 27.7809 37.6955 27.7243 37.6846C27.6715 37.6757 27.6208 37.6574 27.5745 37.6305Z" fill="#37474F"/>
<path d="M31.9395 27.4952L29.0781 25.8168L30.2518 25.1411L30.8576 24.7911L31.3972 24.4776L31.6076 24.3586C31.663 24.3316 31.7129 24.3019 31.7641 24.2776C31.9432 24.1792 32.1322 24.1004 32.328 24.0424L32.3874 24.0276C32.4483 24.013 32.5112 24.0084 32.5736 24.014C32.6087 24.014 32.6275 24.0451 32.6545 24.0613L35.5146 25.7114C35.5045 25.7057 35.4935 25.7016 35.4822 25.6992C35.4684 25.6923 35.4531 25.6891 35.4377 25.6898C35.393 25.683 35.3475 25.683 35.3028 25.6898C35.2648 25.6944 35.2273 25.7025 35.1908 25.7141C34.8638 25.8208 34.5512 25.9674 34.2599 26.1506L33.7203 26.4641L33.1132 26.8155L31.9395 27.4952Z" fill="black"/>
<path d="M35.6414 30.7034C35.3715 30.4331 35.2366 29.9777 35.2366 29.4277C35.2353 29.3487 35.2384 29.2697 35.2461 29.1912C35.2461 29.1912 35.2461 29.1912 35.2461 29.1817C35.2461 29.0466 35.2596 28.9209 35.2744 28.7763C35.2744 28.7358 35.2839 28.6966 35.2893 28.656C35.2987 28.5722 35.3108 28.4898 35.3243 28.4128C35.3378 28.3357 35.3486 28.2695 35.3621 28.2006C35.3702 28.1641 35.3769 28.129 35.3837 28.0952C35.4161 27.9452 35.4498 27.7952 35.4889 27.6344C35.5145 27.533 35.5375 27.4357 35.5591 27.3384C35.7897 26.8217 35.914 26.2638 35.9247 25.6978C35.9247 25.6181 35.9247 25.5397 35.9152 25.4722C35.9024 25.0379 35.8199 24.6086 35.671 24.2005C35.5434 23.8636 35.4807 23.5054 35.4862 23.1451C35.4862 22.4789 35.4862 22.1113 36.9 21.2937L39.2083 19.9707L42.0792 21.6315L39.7614 22.9721C38.3476 23.7829 38.3476 24.1573 38.3476 24.8235C38.3405 25.1844 38.4032 25.5433 38.5324 25.8803C38.6802 26.2882 38.7626 26.7169 38.7766 27.1506C38.7766 27.2182 38.7861 27.2965 38.7847 27.3749C38.7847 28.6817 37.9901 30.206 37.0093 30.7709C36.4778 31.0804 35.98 31.0547 35.6414 30.7034Z" fill="black"/>
<path d="M27.6853 35.7747L24.8145 34.1138C24.8279 34.0936 24.8441 34.072 24.8576 34.0503C24.894 34.003 24.9318 33.9584 24.9709 33.9152C24.9892 33.894 25.0086 33.8737 25.029 33.8544C25.0488 33.8324 25.0705 33.812 25.0937 33.7936C25.1492 33.7419 25.2103 33.6966 25.2758 33.6584C25.2999 33.6445 25.3246 33.6318 25.35 33.6206L25.3824 33.6084H25.3905C25.5098 33.5447 25.6361 33.4953 25.7669 33.4611L25.8128 33.4503C25.9311 33.4262 26.0511 33.4104 26.1716 33.403C26.5965 33.3882 27.0101 33.2619 27.371 33.0368L27.4654 32.9787C27.4937 32.9625 27.5194 32.9449 27.5463 32.926C27.5674 32.9137 27.5877 32.9002 27.607 32.8854H27.6151L27.715 32.8125L27.8108 32.7381L27.8269 32.7246L27.8418 32.7111L27.8539 32.7017L27.893 32.6665C27.9052 32.6557 27.92 32.6449 27.9322 32.6327C27.9443 32.6206 27.9807 32.5895 28.005 32.5652L28.0387 32.5314C28.0434 32.5257 28.0489 32.5207 28.0549 32.5165L28.1129 32.453C28.1372 32.4273 28.1615 32.4003 28.1844 32.3733L28.1939 32.3625L28.233 32.3165C28.2506 32.2922 28.2721 32.2679 28.2897 32.2422L31.1646 33.9044L31.1524 33.9179C31.1335 33.9449 31.1133 33.9706 31.0931 33.9976C31.0728 34.0247 31.0674 34.026 31.0553 34.0409L31.0445 34.0517C31.0013 34.1017 30.9581 34.149 30.9096 34.1936L30.8826 34.2206C30.8759 34.2287 30.8678 34.2355 30.8624 34.2436L30.7882 34.3111L30.7099 34.3787L30.6991 34.3895L30.6654 34.4152C30.6033 34.4679 30.5386 34.5166 30.4725 34.5639C30.4725 34.5639 30.4644 34.5639 30.4576 34.5733C30.382 34.6273 30.3037 34.6774 30.2229 34.7233L30.1393 34.7666L30.0408 34.8166C29.8214 34.9309 29.5849 35.0089 29.3406 35.0476L29.2165 35.0639H29.1544L29.0398 35.0747C28.8689 35.0807 28.6997 35.1098 28.5366 35.1612C28.4866 35.1774 28.434 35.1977 28.376 35.222C28.3396 35.2382 28.2991 35.2571 28.2586 35.2787L28.2249 35.2923C28.1994 35.3032 28.1746 35.3159 28.1507 35.3301C28.0848 35.3696 28.0225 35.4148 27.9645 35.4652C27.9438 35.4826 27.924 35.5011 27.9052 35.5206C27.885 35.5395 27.8647 35.5612 27.8458 35.5828C27.8204 35.608 27.797 35.6351 27.7757 35.6639C27.7607 35.681 27.7467 35.6991 27.7339 35.7179C27.7109 35.7436 27.6961 35.7585 27.6853 35.7747Z" fill="black"/>
</g>
<mask id="mask1_1096_50746" style="mask-type:luminance" maskUnits="userSpaceOnUse" x="28" y="5" width="15" height="26">
<path d="M31.0193 26.7948V23.6867L31.0503 22.7407V22.7218C31.0503 22.6988 31.0503 22.6772 31.0503 22.6569V22.6258C31.0503 22.565 31.0611 22.5069 31.0678 22.4501C31.0694 22.4211 31.073 22.3922 31.0786 22.3637V22.3366C31.0786 22.2812 31.0921 22.2258 31.0989 22.1731C31.1056 22.1204 31.1097 22.1001 31.1164 22.0664C31.1272 22.0069 31.1353 21.9488 31.1474 21.892V21.8731C31.1474 21.8501 31.1569 21.8258 31.1623 21.8028C31.1785 21.7245 31.1987 21.6488 31.2176 21.5731C31.2176 21.5731 31.2176 21.5582 31.2243 21.5461C31.2473 21.4609 31.2769 21.3731 31.3066 21.2866L31.3188 21.2501C31.3457 21.1771 31.3768 21.1055 31.4051 21.0353C31.4051 21.0217 31.4186 21.0055 31.4267 20.9907V20.9798C31.4577 20.915 31.4888 20.8447 31.5238 20.7852L31.5508 20.7393C31.5916 20.666 31.6367 20.5952 31.6857 20.5271C31.7906 20.3738 31.9094 20.2304 32.0405 20.0987L32.0513 20.0879C32.1066 20.0339 32.17 19.9758 32.2375 19.9204L32.251 19.9068C32.3936 19.7909 32.5451 19.6865 32.7043 19.5947C32.875 19.4929 33.0559 19.4091 33.2439 19.3447C33.3384 19.3134 33.4349 19.2881 33.5326 19.269C33.6549 19.2482 33.7783 19.2342 33.9022 19.2271C34.1752 19.2201 34.443 19.1503 34.6847 19.023H34.6915C34.728 19.008 34.7635 18.9909 34.798 18.9717C35.0553 18.8059 35.2616 18.5721 35.3943 18.296C35.4345 18.2203 35.4701 18.1422 35.5009 18.0622C35.5921 17.8376 35.6401 17.5979 35.6426 17.3554C35.6426 17.3149 35.6426 17.2757 35.6426 17.2379C35.6434 17.2275 35.6434 17.2171 35.6426 17.2068C35.6416 17.1805 35.6384 17.1542 35.6331 17.1284C35.6331 17.1163 35.6331 17.1081 35.6331 17.0973C35.6331 17.0865 35.6223 17.0487 35.6169 17.0284C35.6115 17.0081 35.6102 17.0095 35.6075 17.0014C35.6048 16.9933 35.5926 16.9568 35.5832 16.9352L35.5738 16.9162C35.5653 16.8946 35.5549 16.8738 35.5427 16.8541C35.5407 16.8489 35.5375 16.8443 35.5333 16.8406C35.5211 16.8203 35.5076 16.8014 35.4928 16.7811C35.478 16.7608 35.4928 16.7811 35.4861 16.773L35.4348 16.7216C35.4156 16.7053 35.3948 16.6908 35.3727 16.6784L34.1464 15.9703C33.9511 16.1459 33.7651 16.3318 33.5893 16.5271C33.3412 16.8236 33.0464 17.0774 32.7164 17.2784C32.5046 17.4 32.3306 17.5014 32.2051 17.4284L31.0193 16.7419C31.0112 16.4716 31.0112 16.1784 31.0193 15.8676V13.25L28.1484 11.5905L38.3758 5.66602L42.0979 7.81741L42.0911 21.6353L39.7721 22.9758C38.3596 23.7867 38.3596 24.161 38.3596 24.8272C38.3529 25.188 38.4152 25.5467 38.5431 25.884C38.6925 26.2915 38.7754 26.7204 38.7886 27.1543C38.7886 27.2205 38.7967 27.3002 38.798 27.38C38.7784 28.1274 38.5715 28.8579 38.1964 29.5043L35.8463 30.8625C35.7747 30.8177 35.7086 30.7646 35.6493 30.7044C35.3876 30.4341 35.2446 29.98 35.2446 29.43C35.2446 29.3557 35.2446 29.2773 35.2554 29.1908C35.2554 29.1908 35.2554 29.1908 35.2554 29.1827C35.2554 29.0476 35.2675 28.9219 35.2837 28.7773C35.2837 28.7381 35.2931 28.6962 35.2985 28.657C35.308 28.5719 35.3201 28.4908 35.3336 28.4138C35.3471 28.3368 35.3579 28.2705 35.3714 28.2016C35.3795 28.1651 35.3862 28.13 35.393 28.0962C35.424 27.9462 35.4591 27.7962 35.4996 27.6354C35.615 27.2226 35.6762 26.7965 35.6817 26.3678C35.6817 25.9624 35.6466 25.7799 35.536 25.7151L34.2071 24.9461L31.9474 26.2543L31.0193 26.7948Z" fill="white"/>
</mask>
<g mask="url(#mask1_1096_50746)">
<path d="M36.4643 29.576L33.5867 27.9111C33.5732 27.9042 33.5601 27.8966 33.5476 27.8881C33.387 27.7665 33.3128 27.5138 33.3128 27.2124C33.3098 27.1638 33.3098 27.1151 33.3128 27.0665V27.0489C33.3333 26.659 33.3961 26.2725 33.5003 25.8962C33.5462 25.7029 33.5948 25.4908 33.6352 25.2732L34.2585 24.9124L34.2828 24.8989L34.2976 24.8908L34.7887 24.6272L34.8022 24.6205C34.9565 24.5435 35.1161 24.4775 35.2798 24.4232H35.2987L35.3621 24.4029C35.3872 24.3947 35.4129 24.3884 35.439 24.384H35.4538C35.4835 24.3759 35.5145 24.3678 35.5455 24.3624L35.6265 24.3516C35.6575 24.3516 35.6899 24.3516 35.7209 24.3516C35.7519 24.3516 35.7695 24.3516 35.7924 24.3516C35.8246 24.3521 35.8567 24.3557 35.8882 24.3624H35.9003L35.9462 24.3705C35.9835 24.3805 36.02 24.3931 36.0555 24.4083L36.0879 24.4218C36.1843 24.4732 36.2671 24.5469 36.3293 24.6367C36.3349 24.6444 36.3399 24.6526 36.3442 24.661C36.3737 24.7035 36.399 24.7488 36.4197 24.7962C36.4197 24.8056 36.4292 24.8164 36.4332 24.8245V24.834C36.4535 24.884 36.471 24.9381 36.4885 24.9948L36.4993 25.0381C36.5172 25.1042 36.5307 25.1715 36.5398 25.2394L36.5466 25.2705C36.5727 25.4626 36.5849 25.6564 36.583 25.8502C36.5775 26.4385 36.4958 27.0236 36.3401 27.5908C36.2371 27.9677 36.1747 28.3546 36.154 28.7449V28.7611C36.154 28.8233 36.1472 28.8679 36.1472 28.9084C36.1472 29.2098 36.2349 29.4409 36.3941 29.5625L36.4643 29.576Z" fill="#2286FE"/>
<path d="M31.9458 26.2533L29.0858 24.5762V21.4762C29.0762 21.0214 29.1051 20.5666 29.1721 20.1167C29.272 19.564 29.423 19.3964 29.8575 19.145C30.12 18.9832 30.4208 18.8941 30.729 18.8869C30.8301 18.8788 30.9259 18.8694 31.0231 18.8545L31.1 18.841L31.2349 18.8126C31.2902 18.7964 31.3495 18.7802 31.4116 18.7585C31.4373 18.7511 31.4625 18.7421 31.4871 18.7315C31.586 18.6954 31.6824 18.6529 31.7758 18.6045L31.788 18.5977C31.8462 18.5742 31.9026 18.5462 31.9566 18.5139C32.4881 18.2072 32.9873 17.6031 33.3246 16.8599C33.3475 16.8112 33.3664 16.7626 33.3866 16.7153L33.3151 16.7869C33.4069 16.6963 33.4959 16.599 33.5849 16.499C33.8942 16.1423 34.2489 15.8279 34.6399 15.5639C34.6951 15.5223 34.7533 15.4848 34.814 15.4517C35.792 14.8841 36.5893 15.4882 36.5893 16.7936C36.5781 17.3972 36.4402 17.9916 36.1846 18.5383C35.846 19.2829 35.3468 19.8896 34.8153 20.1937C34.761 20.2249 34.7047 20.2525 34.6467 20.2761C34.6427 20.2774 34.6385 20.2774 34.6345 20.2761C34.541 20.3268 34.4446 20.3719 34.3458 20.4113L34.2703 20.4383C34.2123 20.4584 34.1533 20.4756 34.0936 20.4897C34.0463 20.5018 34.0032 20.5113 33.9586 20.5194L33.8804 20.5329C33.7846 20.5464 33.6875 20.5586 33.5863 20.5653C33.2784 20.5717 32.9779 20.6609 32.7161 20.8235C32.2817 21.0735 32.1293 21.241 32.0308 21.7937C31.9626 22.2445 31.9329 22.7002 31.9418 23.1559V25.1965L31.9458 26.2533Z" fill="#2286FE"/>
<path d="M32.2113 17.3996L29.3378 15.7347C29.1691 15.632 29.0922 15.2049 29.0922 14.1319L29.0801 11.0508L31.9509 12.7116V15.809C31.9509 16.8901 32.0413 17.3023 32.2126 17.3982L32.2113 17.3996Z" fill="#2286FE"/>
<path opacity="0.2" d="M36.4643 29.576L33.5867 27.9111C33.5732 27.9042 33.5601 27.8966 33.5476 27.8881C33.387 27.7665 33.3128 27.5138 33.3128 27.2124C33.3098 27.1638 33.3098 27.1151 33.3128 27.0665V27.0489C33.3333 26.659 33.3961 26.2725 33.5003 25.8962C33.5462 25.7029 33.5948 25.4908 33.6352 25.2732L34.2585 24.9124L34.2828 24.8989L34.2976 24.8908L34.7887 24.6272L34.8022 24.6205C34.9565 24.5435 35.1161 24.4775 35.2798 24.4232H35.2987L35.3621 24.4029C35.3872 24.3947 35.4129 24.3884 35.439 24.384H35.4538C35.4835 24.3759 35.5145 24.3678 35.5455 24.3624L35.6265 24.3516C35.6575 24.3516 35.6899 24.3516 35.7209 24.3516C35.7519 24.3516 35.7695 24.3516 35.7924 24.3516C35.8246 24.3521 35.8567 24.3557 35.8882 24.3624H35.9003L35.9462 24.3705C35.9835 24.3805 36.02 24.3931 36.0555 24.4083L36.0879 24.4218C36.1843 24.4732 36.2671 24.5469 36.3293 24.6367C36.3349 24.6444 36.3399 24.6526 36.3442 24.661C36.3737 24.7035 36.399 24.7488 36.4197 24.7962C36.4197 24.8056 36.4292 24.8164 36.4332 24.8245V24.834C36.4535 24.884 36.471 24.9381 36.4885 24.9948L36.4993 25.0381C36.5172 25.1042 36.5307 25.1715 36.5398 25.2394L36.5466 25.2705C36.5727 25.4626 36.5849 25.6564 36.583 25.8502C36.5775 26.4385 36.4958 27.0236 36.3401 27.5908C36.2371 27.9677 36.1747 28.3546 36.154 28.7449V28.7611C36.154 28.8233 36.1472 28.8679 36.1472 28.9084C36.1472 29.2098 36.2349 29.4409 36.3941 29.5625L36.4643 29.576Z" fill="black"/>
<path opacity="0.2" d="M31.9458 26.2533L29.0858 24.5762V21.4762C29.0762 21.0214 29.1051 20.5666 29.1721 20.1167C29.272 19.564 29.423 19.3964 29.8575 19.145C30.12 18.9832 30.4208 18.8941 30.729 18.8869C30.8301 18.8788 30.9259 18.8694 31.0231 18.8545L31.1 18.841L31.2349 18.8126C31.2902 18.7964 31.3495 18.7802 31.4116 18.7585C31.4373 18.7511 31.4625 18.7421 31.4871 18.7315C31.586 18.6954 31.6824 18.6529 31.7758 18.6045L31.788 18.5977C31.8462 18.5742 31.9026 18.5462 31.9566 18.5139C32.4881 18.2072 32.9873 17.6031 33.3246 16.8599C33.3475 16.8112 33.3664 16.7626 33.3866 16.7153L33.3151 16.7869C33.4069 16.6963 33.4959 16.599 33.5849 16.499C33.8942 16.1423 34.2489 15.8279 34.6399 15.5639C34.6951 15.5223 34.7533 15.4848 34.814 15.4517C35.792 14.8841 36.5893 15.4882 36.5893 16.7936C36.5781 17.3972 36.4402 17.9916 36.1846 18.5383C35.846 19.2829 35.3468 19.8896 34.8153 20.1937C34.761 20.2249 34.7047 20.2525 34.6467 20.2761C34.6427 20.2774 34.6385 20.2774 34.6345 20.2761C34.541 20.3268 34.4446 20.3719 34.3458 20.4113L34.2703 20.4383C34.2123 20.4584 34.1533 20.4756 34.0936 20.4897C34.0463 20.5018 34.0032 20.5113 33.9586 20.5194L33.8804 20.5329C33.7846 20.5464 33.6875 20.5586 33.5863 20.5653C33.2784 20.5717 32.9779 20.6609 32.7161 20.8235C32.2817 21.0735 32.1293 21.241 32.0308 21.7937C31.9626 22.2445 31.9329 22.7002 31.9418 23.1559V25.1965L31.9458 26.2533Z" fill="black"/>
<path opacity="0.2" d="M32.2113 17.3996L29.3378 15.7347C29.1691 15.632 29.0922 15.2049 29.0922 14.1319L29.0801 11.0508L31.9509 12.7116V15.809C31.9509 16.8901 32.0413 17.3023 32.2126 17.3982L32.2113 17.3996Z" fill="black"/>
<path d="M36.4873 29.5895L36.4657 29.5774L36.4198 29.5476C36.2606 29.426 36.1729 29.1949 36.1729 28.8936C36.1729 28.853 36.1729 28.8084 36.1797 28.7463V28.73C36.2004 28.3398 36.2628 27.9529 36.3658 27.576C36.5215 27.0087 36.6032 26.4237 36.6087 25.8354C36.6106 25.6415 36.5984 25.4478 36.5722 25.2557L36.5655 25.2246C36.5564 25.1566 36.5429 25.0894 36.525 25.0232L36.5142 24.98C36.4967 24.9232 36.4792 24.8692 36.4589 24.8192V24.8097C36.4589 24.8016 36.4508 24.7908 36.4454 24.7813C36.4247 24.7339 36.3994 24.6887 36.3699 24.6462C36.3655 24.6377 36.3606 24.6296 36.355 24.6219C36.2927 24.532 36.21 24.4584 36.1136 24.407L36.0812 24.3935C36.0457 24.3783 36.0092 24.3656 35.9719 24.3556L35.926 24.3475H35.9139C35.8824 24.3409 35.8503 24.3373 35.8181 24.3367C35.7952 24.3367 35.7709 24.3367 35.7466 24.3367C35.7223 24.3367 35.6832 24.3367 35.6522 24.3367L35.5712 24.3475C35.5402 24.3475 35.5092 24.361 35.4795 24.3691H35.4647C35.4386 24.3736 35.4129 24.3799 35.3878 24.3881L35.3243 24.4083H35.3055C35.1418 24.4627 34.9822 24.5286 34.8279 24.6056L34.8144 24.6124L34.3233 24.8759L34.3085 24.884L34.2842 24.8975L33.6609 25.2584L31.9476 26.253V25.1948V23.1543C31.9383 22.699 31.9677 22.2437 32.0353 21.7934C32.1338 21.2407 32.2862 21.0731 32.7206 20.8231C32.9824 20.6606 33.2829 20.5714 33.5908 20.565C33.692 20.565 33.7891 20.5461 33.8849 20.5326L33.9631 20.5191C34.0077 20.511 34.0508 20.5015 34.098 20.4893C34.1578 20.4753 34.2168 20.4581 34.2748 20.438L34.3503 20.411C34.4491 20.3716 34.5455 20.3265 34.639 20.2758C34.643 20.2771 34.6472 20.2771 34.6512 20.2758C34.7091 20.2521 34.7655 20.2246 34.8198 20.1934C35.3513 19.8839 35.8505 19.2826 36.1891 18.5379C36.4447 17.9913 36.5825 17.3969 36.5938 16.7933C36.5938 15.4879 35.7965 14.8838 34.8184 15.4514C34.7578 15.4845 34.6996 15.522 34.6444 15.5636C34.2534 15.8276 33.8987 16.142 33.5894 16.4987C33.4963 16.5987 33.4073 16.696 33.3196 16.7866C33.1771 16.9296 33.0207 17.0582 32.8528 17.1704L32.7921 17.2082L32.722 17.2501C32.641 17.296 32.5682 17.3393 32.4994 17.3704L32.4333 17.3974C32.4135 17.406 32.3926 17.4119 32.3712 17.415C32.3525 17.4213 32.3329 17.4245 32.3132 17.4244C32.2773 17.4256 32.2418 17.4167 32.2107 17.3987C32.0393 17.3028 31.949 16.8933 31.949 15.8095V12.7122L29.0781 11.0513L37.8984 5.94039C37.9308 5.92282 37.9604 5.90526 37.9928 5.89039C38.0215 5.87551 38.0513 5.86286 38.0819 5.85255L38.1709 5.82417C38.1986 5.81487 38.227 5.80809 38.2559 5.8039C38.292 5.79726 38.3285 5.79319 38.3652 5.79174C38.5132 5.7851 38.6597 5.82426 38.7847 5.9039L41.6178 7.54042C41.7054 7.58862 41.7821 7.65441 41.8431 7.73367C41.8641 7.76087 41.8835 7.7893 41.9011 7.81881C41.9139 7.83843 41.9256 7.85873 41.9362 7.87962C41.9578 7.92287 41.978 7.96746 41.9969 8.01476C42.0036 8.03908 42.0131 8.06341 42.0198 8.08908C42.0706 8.26466 42.0947 8.44688 42.0913 8.62964V20.3947L39.7723 21.7353L39.7304 21.7623L39.7021 21.7786H39.6954L39.2353 22.0637C39.0519 22.1843 38.8758 22.3156 38.7078 22.4569L38.6957 22.4664L38.6687 22.4894L38.5486 22.5975L38.5392 22.6083C38.5217 22.6232 38.5041 22.6407 38.4879 22.657C38.4717 22.6732 38.4164 22.7272 38.3827 22.7637C38.349 22.8002 38.3368 22.811 38.3166 22.8353C38.2964 22.8597 38.2505 22.9083 38.2195 22.9461L38.1561 23.0259L38.067 23.1448L38.0185 23.2164L38.0077 23.2353L37.9955 23.2543C37.9726 23.288 37.9483 23.3232 37.9267 23.3597C37.9051 23.3962 37.897 23.4124 37.8835 23.4394L37.8728 23.461C37.8309 23.5367 37.7905 23.6164 37.754 23.6975L37.7459 23.7178C37.7297 23.7516 37.7149 23.7867 37.7014 23.8205C37.6893 23.8556 37.6758 23.8908 37.6636 23.9272L37.6529 23.9543L37.6124 24.0786C37.5989 24.1232 37.5867 24.1678 37.5746 24.2137C37.5625 24.2597 37.5517 24.3056 37.5409 24.3489C37.5301 24.3921 37.522 24.4394 37.5139 24.484C37.5058 24.5286 37.4964 24.5827 37.4896 24.6327V24.6408C37.4896 24.6827 37.4761 24.7246 37.4721 24.7665C37.468 24.8083 37.4613 24.8719 37.4559 24.9313V24.9638C37.4559 24.9948 37.4559 25.0259 37.4491 25.057C37.4491 25.1232 37.4491 25.1921 37.4491 25.2894V25.307C37.4491 25.3232 37.4491 25.3408 37.4491 25.357C37.4392 25.8548 37.5215 26.3501 37.692 26.8178C37.805 27.1209 37.8679 27.4404 37.8781 27.7638V27.7787C37.8781 27.8219 37.8849 27.8665 37.8862 27.903C37.8862 28.526 37.5058 29.2544 37.039 29.5247C36.9539 29.5768 36.8587 29.6104 36.7598 29.6233C36.7396 29.6253 36.7192 29.6253 36.6991 29.6233H36.6896C36.6771 29.6254 36.6643 29.6254 36.6518 29.6233C36.6407 29.6254 36.6293 29.6254 36.6181 29.6233L36.5911 29.6166L36.5588 29.6071C36.5501 29.6055 36.5419 29.6023 36.5345 29.5976C36.5183 29.5997 36.5018 29.5969 36.4873 29.5895Z" fill="#2286FE"/>
<path opacity="0.3" d="M31.947 12.7122L29.0762 11.0513L37.8964 5.94039C37.9288 5.92282 37.9585 5.90526 37.9909 5.89039C38.0195 5.87551 38.0493 5.86286 38.0799 5.85255L38.1689 5.82417C38.1966 5.81487 38.2251 5.80809 38.2539 5.8039C38.29 5.79726 38.3265 5.79319 38.3632 5.79174C38.5112 5.7851 38.6577 5.82426 38.7828 5.9039L41.5835 7.52556C41.559 7.51275 41.5332 7.50277 41.5066 7.49583C41.5005 7.49418 41.4946 7.49191 41.489 7.48907C41.4645 7.48066 41.4392 7.47478 41.4135 7.4715H41.3878C41.3713 7.46937 41.3545 7.46937 41.3379 7.4715H41.2894C41.2853 7.47082 41.2812 7.47082 41.2772 7.4715C41.2539 7.46947 41.2304 7.46947 41.2071 7.4715L41.1531 7.47961C41.1164 7.48413 41.0803 7.49228 41.0452 7.50394L40.9912 7.52015L40.886 7.56205C40.8455 7.58097 40.805 7.60259 40.7619 7.62691L31.947 12.7122Z" fill="white"/>
</g>
<mask id="mask2_1096_50746" style="mask-type:luminance" maskUnits="userSpaceOnUse" x="18" y="11" width="18" height="22">
<path d="M20.8755 32.6565L18.002 30.997L18.0127 19.2103C18.0232 18.7414 18.135 18.2803 18.3406 17.8589C18.5848 17.3427 18.9436 16.8981 19.3443 16.6656L28.143 11.5898L31.0138 13.2493V15.8399V16.7143L32.1983 17.3994C32.3264 17.4737 32.4978 17.3737 32.7109 17.2508C33.0409 17.0498 33.3358 16.7959 33.5838 16.4994C33.7596 16.3041 33.9456 16.1183 34.141 15.9426L35.3673 16.6508C35.3769 16.6556 35.3859 16.6615 35.3942 16.6683C35.3957 16.6676 35.3973 16.6672 35.399 16.6672C35.4006 16.6672 35.4022 16.6676 35.4037 16.6683C35.4146 16.6746 35.4246 16.6823 35.4334 16.6913C35.477 16.7296 35.5135 16.7754 35.5413 16.8264C35.5515 16.8401 35.5597 16.8551 35.5656 16.871C35.5723 16.8826 35.5777 16.8948 35.5818 16.9075C35.6048 16.9609 35.622 17.0166 35.633 17.0737C35.6338 17.0827 35.6338 17.0918 35.633 17.1008C35.633 17.1346 35.6438 17.1724 35.6479 17.2102C35.6519 17.2481 35.6479 17.2873 35.6479 17.3278C35.6499 17.3656 35.6499 17.4035 35.6479 17.4413C35.6479 17.4819 35.6411 17.521 35.6357 17.5589C35.6303 17.5967 35.6236 17.6373 35.6168 17.6765C35.6101 17.7156 35.6047 17.7359 35.5966 17.7656C35.5919 17.7871 35.5861 17.8083 35.5791 17.8292C35.5373 17.9817 35.4785 18.129 35.4037 18.2684C35.271 18.5444 35.0646 18.7783 34.8074 18.944C34.7729 18.9632 34.7373 18.9804 34.7008 18.9954H34.6941C34.4523 19.1227 34.1846 19.1925 33.9116 19.1995C33.8253 19.1995 33.7376 19.213 33.6418 19.2265L33.5433 19.2414C33.3074 19.2883 33.08 19.3708 32.8688 19.486C32.8431 19.4981 32.8189 19.5103 32.7959 19.5238L32.719 19.567C32.5599 19.6589 32.4083 19.7633 32.2657 19.8792L32.2522 19.8927C32.1848 19.9481 32.1173 20.0062 32.0661 20.0603L32.0553 20.0711C31.9242 20.2027 31.8054 20.3461 31.7005 20.4995C31.6514 20.5675 31.6064 20.6384 31.5656 20.7117L31.5386 20.7576C31.5035 20.8225 31.4725 20.8927 31.4415 20.9522V20.963C31.4334 20.9779 31.4266 20.9941 31.4199 21.0076C31.3915 21.0779 31.3605 21.1495 31.3335 21.2225L31.3214 21.259C31.2917 21.3455 31.262 21.4333 31.2391 21.5184C31.2391 21.5306 31.2323 21.5414 31.2323 21.5455C31.2135 21.6211 31.1932 21.6968 31.177 21.7752C31.177 21.7982 31.1676 21.8225 31.1622 21.8455V21.8644C31.1501 21.9211 31.142 21.9792 31.1312 22.0387C31.1312 22.0725 31.119 22.109 31.1136 22.1455C31.1082 22.182 31.0988 22.2536 31.0934 22.309V22.336C31.0877 22.3645 31.0841 22.3934 31.0826 22.4225C31.0826 22.4793 31.0705 22.5374 31.0651 22.5982V22.6293C31.0651 22.6495 31.0651 22.6712 31.0651 22.6941V22.713L31.034 23.659V26.7672L30.2246 27.2375L29.9669 27.3875L29.4583 27.678L28.7177 28.1078C28.2023 28.4064 27.8462 28.5578 27.6249 28.5753C27.5909 28.5796 27.5564 28.5796 27.5224 28.5753C27.4993 28.5703 27.4771 28.5621 27.4563 28.551L26.4 27.9321C26.3994 27.9276 26.3994 27.923 26.4 27.9186C26.4121 27.7834 26.4283 27.6483 26.4472 27.5267C26.4593 27.4483 26.4728 27.3726 26.4876 27.3023C26.5268 27.0807 26.5767 26.882 26.6226 26.6929C26.7272 26.3168 26.7892 25.9301 26.8074 25.5401V25.532V25.5212C26.8074 25.4577 26.8074 25.4158 26.8141 25.3766C26.8141 25.0753 26.7251 24.8428 26.5659 24.7225C26.5581 24.7167 26.55 24.7113 26.5416 24.7063L26.52 24.6942L25.3396 24.0117C25.0124 24.3748 24.7488 24.7905 24.5598 25.2415C24.5342 25.3036 24.5085 25.3658 24.4856 25.4253C24.4627 25.4847 24.4384 25.5509 24.4182 25.6145L24.4087 25.6415C24.3871 25.705 24.3682 25.7685 24.3494 25.832C24.3305 25.8955 24.3143 25.9604 24.2994 26.0239C24.2846 26.0874 24.2792 26.1118 24.2698 26.1591C24.2603 26.2064 24.2522 26.2469 24.2468 26.2942C24.2303 26.3836 24.2186 26.4738 24.2118 26.5645C24.205 26.6131 24.201 26.6631 24.1983 26.7118C24.1956 26.7604 24.1915 26.8375 24.1915 26.8983C24.1915 26.9591 24.1915 26.9793 24.1915 27.0185C24.1915 27.0577 24.1915 27.0929 24.1996 27.1266C24.1996 27.1848 24.1996 27.2388 24.2091 27.2915C24.2162 27.4138 24.2302 27.5356 24.2509 27.6564C24.2509 27.705 24.2657 27.7523 24.2752 27.7915C24.318 27.994 24.3739 28.1936 24.4424 28.3888C24.5247 28.6065 24.5805 28.8334 24.6084 29.0645V29.0902V29.1105V29.1389C24.6165 29.2389 24.6205 29.3375 24.6205 29.4402C24.6205 30.1064 24.6205 30.474 23.2067 31.2916L20.8755 32.6565Z" fill="white"/>
</mask>
<g mask="url(#mask2_1096_50746)">
<path d="M27.4299 28.5727L24.5685 26.8916C24.4566 26.8254 24.4215 26.6403 24.4215 26.2403C24.422 25.9106 24.4614 25.5822 24.5389 25.2619C24.4526 25.4609 24.3796 25.6654 24.3203 25.874C24.5901 24.8808 25.2201 23.9362 25.9392 23.5172C26.4127 23.247 26.8579 23.2321 27.1938 23.4861C27.5298 23.7402 27.7146 24.2254 27.7146 24.8605C27.7146 24.9213 27.7146 24.9808 27.7078 25.0348V25.0646C27.7078 25.0794 27.7078 25.0943 27.7078 25.1092C27.7078 25.2443 27.6917 25.3794 27.6768 25.5213C27.6754 25.544 27.6727 25.5666 27.6687 25.5889V25.6092C27.6566 25.7051 27.6444 25.7984 27.6296 25.8916C27.6188 25.947 27.608 26.0024 27.5986 26.0565C27.5891 26.1105 27.577 26.1659 27.5662 26.22C27.5365 26.3551 27.5028 26.5024 27.4677 26.6497C27.3507 27.0627 27.2885 27.4894 27.2829 27.9187C27.2815 28.3214 27.3099 28.5065 27.4299 28.5727Z" fill="#2286FE"/>
<path d="M20.8755 32.6576L18.002 30.9981L18.0127 19.2127C18.0222 18.7437 18.1341 18.2824 18.3406 17.8613L21.2087 19.5195C20.9977 19.9465 20.883 20.4148 20.8728 20.8911L20.8755 32.6576Z" fill="#2286FE"/>
<path d="M27.4303 28.5727L24.5689 26.8916C24.457 26.8254 24.4219 26.6403 24.4219 26.2403C24.4224 25.9106 24.4618 25.5822 24.5392 25.2619C24.863 24.5091 25.3716 23.8483 25.945 23.5172C26.4185 23.247 26.8637 23.2321 27.1996 23.4861C27.5355 23.7402 27.715 24.2254 27.715 24.8605C27.715 24.9213 27.715 24.9808 27.7082 25.0348V25.0646C27.7082 25.0794 27.7082 25.0943 27.7082 25.1092C27.7082 25.2443 27.692 25.3794 27.6772 25.5213C27.6758 25.544 27.6731 25.5666 27.6691 25.5889V25.6092C27.657 25.7051 27.6448 25.7984 27.63 25.8916C27.6192 25.947 27.6084 26.0024 27.5989 26.0565C27.5895 26.1105 27.5774 26.1659 27.5666 26.22C27.5369 26.3551 27.5032 26.5024 27.4681 26.6497C27.3511 27.0627 27.2889 27.4894 27.2833 27.9187C27.2819 28.3214 27.3102 28.5065 27.4303 28.5727Z" fill="#263238"/>
<path d="M20.8755 32.6576L18.002 30.9981L18.0127 19.2127C18.0222 18.7437 18.1341 18.2824 18.3406 17.8613L21.2087 19.5195C20.9977 19.9465 20.883 20.4148 20.8728 20.8911L20.8755 32.6576Z" fill="#263238"/>
<path d="M20.876 32.658V20.8902C20.8862 20.4138 21.0009 19.9456 21.2119 19.5185L18.3438 17.8604C18.3518 17.8428 18.3586 17.8266 18.3667 17.8104C18.3785 17.7835 18.3921 17.7573 18.4072 17.732C18.426 17.6955 18.4449 17.6604 18.4652 17.6253C18.4854 17.5901 18.5137 17.5401 18.5407 17.5009L18.5556 17.4726C18.5592 17.4668 18.5632 17.4614 18.5677 17.4563C18.5906 17.4185 18.6176 17.3793 18.6446 17.3415L18.6689 17.3077C18.6826 17.2863 18.698 17.266 18.7147 17.2469C18.7293 17.2262 18.7451 17.2063 18.762 17.1874L18.7755 17.1698C18.7997 17.1388 18.8254 17.1077 18.8524 17.0793L18.8847 17.0455C18.8917 17.0368 18.8993 17.0286 18.9077 17.0212L18.9225 17.0036L18.9508 16.978L19.0007 16.9293C19.0051 16.9245 19.0101 16.9204 19.0156 16.9171C19.0304 16.9036 19.0439 16.8888 19.0574 16.8779L19.0723 16.8658H19.079L19.1154 16.8388C19.1289 16.8266 19.1438 16.8171 19.1572 16.8063C19.1707 16.7955 19.1842 16.7847 19.1977 16.7739C19.2137 16.7617 19.2304 16.7504 19.2476 16.7401C19.277 16.7174 19.3081 16.697 19.3407 16.6793L28.1407 11.6035L31.0116 13.2644V15.8536L31.0534 15.8104C31.2848 15.5387 31.5521 15.3 31.848 15.1009H31.8588C31.8865 15.08 31.9153 15.0606 31.9451 15.0428C32.0256 14.987 32.1203 14.9555 32.2181 14.9519C32.3158 14.9483 32.4126 14.9728 32.4969 15.0225L35.3583 16.6779C35.3738 16.6856 35.3883 16.6952 35.4015 16.7063L35.4258 16.7252C35.5253 16.8183 35.5932 16.9402 35.62 17.0739C35.6281 17.1077 35.6349 17.1442 35.6403 17.1807C35.6481 17.2407 35.6517 17.3012 35.6511 17.3617C35.6438 17.6899 35.5592 18.0117 35.4042 18.301C35.2708 18.5769 35.064 18.8107 34.8065 18.9766C34.772 18.9966 34.7364 19.0146 34.6999 19.0307H34.6932C34.4515 19.1581 34.1838 19.2279 33.9107 19.2348C33.4856 19.2504 33.072 19.3776 32.7114 19.6037C32.5522 19.6947 32.401 19.7992 32.2595 19.9159L32.2433 19.928C32.1772 19.9834 32.1084 20.0402 32.0571 20.0969L32.049 20.1064C31.9172 20.2369 31.7984 20.3799 31.6942 20.5334C31.6497 20.5996 31.6065 20.6686 31.5593 20.7456L31.5391 20.7821V20.7929C31.504 20.8551 31.4716 20.928 31.4406 20.9875V20.997C31.4332 21.0118 31.4269 21.0272 31.4217 21.0429C31.3907 21.1118 31.3623 21.178 31.3354 21.2578L31.3219 21.2929C31.2908 21.3794 31.2625 21.4686 31.2396 21.5524L31.2328 21.5807C31.2126 21.6551 31.1937 21.7321 31.1775 21.8105C31.1775 21.8321 31.1667 21.8564 31.1627 21.8794V21.8983C31.1519 21.9564 31.1424 22.0132 31.1316 22.0727C31.1316 22.1064 31.1195 22.1429 31.1155 22.1781C31.1114 22.2132 31.0993 22.2875 31.0925 22.3443V22.3713C31.0925 22.3983 31.0858 22.4267 31.0844 22.4564C31.0844 22.5132 31.0723 22.5727 31.0682 22.6308V22.6619C31.0682 22.6835 31.0682 22.7051 31.0615 22.7267V22.747L31.0305 23.693V26.8011L30.221 27.2728L29.4561 27.7147L28.7154 28.143C28.2015 28.4417 27.8426 28.5931 27.624 28.6093C27.607 28.6106 27.5898 28.6106 27.5728 28.6093C27.531 28.6088 27.4899 28.5986 27.4527 28.5795C27.338 28.5133 27.3043 28.3282 27.3043 27.9255C27.31 27.4962 27.3721 27.0695 27.4891 26.6565C27.5242 26.5092 27.5579 26.366 27.5876 26.2268C27.5984 26.1727 27.6106 26.1187 27.62 26.0633C27.6294 26.0079 27.6402 25.9538 27.651 25.8984C27.6659 25.8052 27.678 25.7119 27.6902 25.616V25.5957C27.6942 25.5734 27.6969 25.5508 27.6982 25.5281C27.7131 25.3862 27.7239 25.2579 27.7293 25.116C27.7293 25.1011 27.7293 25.0862 27.7293 25.0714V25.0376C27.7293 24.9835 27.7374 24.9241 27.736 24.8633C27.736 24.2295 27.5525 23.7416 27.2166 23.4875C26.8807 23.2335 26.4355 23.2429 25.962 23.5186C25.3886 23.8497 24.8827 24.5105 24.5562 25.2633C24.4896 25.4119 24.4319 25.5644 24.3836 25.72C24.3674 25.7714 24.3512 25.8241 24.3377 25.8754C24.3242 25.9268 24.3053 25.9984 24.2905 26.0606C24.2862 26.0709 24.2835 26.0819 24.2824 26.093C24.2689 26.1525 24.2568 26.2133 24.2473 26.2727C24.2241 26.4011 24.2075 26.5305 24.1974 26.6606C24.1947 26.6993 24.1947 26.7381 24.1974 26.7768C24.1974 26.8227 24.1974 26.8687 24.1974 26.9119C24.1974 26.9917 24.1974 27.0755 24.2068 27.1403C24.2199 27.5732 24.3024 28.0012 24.451 28.4079C24.5327 28.6258 24.5884 28.8526 24.617 29.0836V29.1106V29.1187V29.1296C24.6163 29.139 24.6163 29.1485 24.617 29.1579C24.6237 29.2579 24.6291 29.3566 24.6291 29.4593C24.6291 30.1255 24.6291 30.4931 23.2166 31.3107L20.876 32.658Z" fill="#37474F"/>
<path d="M32.5096 14.9931L35.3709 16.6485C35.2832 16.6048 35.1852 16.5859 35.0875 16.5937C34.9899 16.6016 34.8961 16.6359 34.8165 16.6931C34.7922 16.7066 34.7612 16.7282 34.7301 16.7499L34.7207 16.7593H34.7139C34.4178 16.9581 34.1504 17.1968 33.9193 17.4688C33.5756 17.8688 33.1708 18.2118 32.72 18.485L32.6634 18.5161L32.6418 18.5269L32.6256 18.535C32.5824 18.558 32.5406 18.5823 32.5015 18.6012L32.4259 18.6337L32.4003 18.6431L32.3854 18.6512L32.291 18.6864C32.2629 18.6974 32.234 18.7064 32.2047 18.7134H32.1939L32.0981 18.7364C32.0657 18.7445 32.036 18.7458 32.005 18.7512H31.916C31.8876 18.7512 31.8593 18.7512 31.8323 18.7512C31.8053 18.7512 31.7797 18.7418 31.7541 18.7377C31.7283 18.7328 31.703 18.7255 31.6785 18.7161C31.6547 18.708 31.6316 18.6976 31.6097 18.685H31.5976C31.5777 18.6753 31.5583 18.6645 31.5396 18.6526C31.5213 18.6396 31.5042 18.6251 31.4883 18.6094L31.4775 18.6012L31.4667 18.5904C31.4519 18.5783 31.4357 18.5634 31.4209 18.5485C31.4036 18.5282 31.3874 18.507 31.3723 18.485L31.3642 18.4729C31.3343 18.4297 31.3072 18.3845 31.2832 18.3377L31.2752 18.3202C31.2635 18.2997 31.2531 18.2785 31.2441 18.2566C31.2347 18.2337 31.2239 18.2053 31.2144 18.1783V18.1593V18.1431C31.2063 18.1188 31.1969 18.0972 31.1888 18.0702C31.1807 18.0431 31.1699 17.9972 31.1605 17.9593C31.151 17.9215 31.1429 17.8945 31.1375 17.8607C31.1322 17.8269 31.1214 17.7796 31.1146 17.7364C31.1079 17.6931 31.1025 17.6661 31.0971 17.631C31.0917 17.5958 31.0863 17.5404 31.0809 17.4958C31.0755 17.4512 31.0728 17.4215 31.0687 17.3837C31.0647 17.3458 31.0593 17.285 31.0566 17.2323C31.0566 17.2053 31.0566 17.1728 31.0566 17.1418V17.1012C31.0566 17.0539 31.0566 17.0039 31.0485 16.9526V16.9323L31.0391 16.3917V15.8323C31.0512 15.8174 31.066 15.8039 31.0782 15.7904C31.3096 15.5187 31.5769 15.28 31.8728 15.0809H31.8795L31.8903 15.0728C31.9174 15.052 31.9458 15.0331 31.9753 15.016C32.0539 14.9639 32.1451 14.9342 32.2392 14.9302C32.3334 14.9261 32.4268 14.9479 32.5096 14.9931Z" fill="black"/>
<path d="M21.2126 19.5193L18.3418 17.8584C18.3499 17.8409 18.3566 17.826 18.3661 17.8098C18.3779 17.7829 18.3915 17.7567 18.4066 17.7314C18.4254 17.6949 18.4443 17.6598 18.4646 17.6247C18.4848 17.5895 18.5131 17.5395 18.5401 17.5003C18.5478 17.4847 18.5568 17.4698 18.5671 17.4557C18.59 17.4179 18.617 17.3787 18.644 17.3409L18.6683 17.3071C18.682 17.2857 18.6974 17.2654 18.7141 17.2463C18.7329 17.2194 18.7531 17.1937 18.7748 17.1692C18.7991 17.1382 18.8248 17.1071 18.8517 17.0787L18.8841 17.0449C18.8911 17.0362 18.8987 17.028 18.9071 17.0206L18.9502 16.9773L19.0001 16.9287C19.0045 16.9239 19.0095 16.9198 19.015 16.9165C19.0326 16.898 19.0515 16.8809 19.0716 16.8652H19.0784L19.1148 16.8382C19.1411 16.8151 19.1685 16.7934 19.1971 16.7733C19.2131 16.7611 19.2298 16.7498 19.247 16.7395C19.2764 16.7168 19.3075 16.6964 19.3401 16.6787L28.1388 11.6016L31.0096 13.2624L27.1418 15.4989L22.1988 18.3598C22.161 18.3814 22.1246 18.4044 22.0882 18.4287C22.0518 18.4531 22.0207 18.4774 21.9897 18.5044C21.9715 18.5164 21.9543 18.53 21.9384 18.5449C21.9061 18.5706 21.8737 18.6017 21.8426 18.6314C21.8116 18.6612 21.7671 18.7058 21.7307 18.7436C21.6496 18.8323 21.5743 18.9262 21.5054 19.0247C21.4784 19.0625 21.4514 19.1004 21.4258 19.1409C21.3468 19.2624 21.2756 19.3888 21.2126 19.5193Z" fill="#455A64"/>
</g>
<path d="M16.9824 22.4331C17.123 22.4412 17.2617 22.3975 17.3723 22.3101C17.6705 22.079 17.8931 22.0979 18.2128 21.9601C18.4637 21.8506 18.5649 21.7169 18.6175 21.7628C18.6698 21.8209 18.6982 21.8967 18.6969 21.9749C18.6957 22.0532 18.6649 22.128 18.6108 22.1844C18.5143 22.2968 18.4026 22.3951 18.2789 22.4763C18.5754 22.4579 18.8679 22.3979 19.1477 22.298C19.8222 22.0682 20.142 22.1628 19.8357 23.0209C19.6442 23.5615 19.1612 23.8588 17.8377 23.8318C17.3486 23.7988 16.8623 23.7329 16.3821 23.6345C15.0721 23.3764 12.4347 22.9804 11.9747 22.3601C10.6728 20.6033 9.47886 19.1546 9.31427 17.8438C9.17936 16.7438 9.8539 16.1289 10.4785 16.1289C10.8333 16.5032 11.0492 16.9492 11.3757 17.9992C11.3757 17.9992 13.0701 21.0385 13.2414 21.2601C13.6677 21.4939 16.7045 22.3885 16.9824 22.4331Z" fill="#CE7A63"/>
<path d="M41.4502 11.1723C41.6782 11.3074 41.9223 11.3656 42.2259 11.5872C42.4221 11.7559 42.6564 11.8742 42.9085 11.9318C43.2337 12.0115 45.7928 11.1453 46.2664 10.7791C47.231 10.0344 48.0633 8.63307 48.5274 8.10198C48.9092 7.66413 49.3369 7.00466 49.8131 7.00195C50.5915 7.23709 50.4161 8.39658 49.7645 9.43444C49.2249 10.298 48.2023 11.3885 47.0448 12.1494C46.4836 12.5183 43.8974 13.1872 43.038 13.244C42.7777 13.2602 42.5847 13.3197 42.0937 13.3899C41.8896 13.4314 41.6805 13.4428 41.4731 13.4237C41.2185 13.384 40.9709 13.308 40.7379 13.198C40.442 13.0598 40.1886 12.8447 40.004 12.575C39.9032 12.4268 39.8385 12.2569 39.8151 12.0791C39.7915 11.9 39.8326 11.7183 39.9311 11.5669C39.9496 11.5353 39.9761 11.5092 40.008 11.4912C40.0708 11.4708 40.139 11.4756 40.1982 11.5047C40.5436 11.625 40.8971 11.8061 41.2519 11.8885C41.5514 11.9575 41.7726 11.9656 41.7429 11.9115C41.7132 11.8575 41.5352 11.8277 41.3315 11.6548C41.1277 11.4818 41.0441 11.2088 41.1453 11.1061C41.2465 11.0034 41.2235 11.0318 41.4502 11.1723Z" fill="#CE7A63"/>
<path d="M49.8651 6.72749C50.4398 7.00993 50.6746 7.43967 50.4183 8.39644C50.1889 9.25592 49.3093 10.7222 48.6172 11.4398C48.6172 11.4398 47.4328 10.8776 46.8027 10.1465C47.426 9.19106 47.7269 8.62888 48.3124 7.81941C48.8979 7.00993 49.5144 6.63154 49.8651 6.72749Z" fill="#E0E0E0"/>
</svg>
