<svg width="40" height="40" viewBox="0 0 40 40" fill="none" xmlns="http://www.w3.org/2000/svg">
<circle cx="20" cy="20" r="20" fill="#2286FE" fill-opacity="0.4"/>
<path d="M30.9984 9.85512C30.369 9.7056 29.7721 9.4423 29.237 9.07812C28.7019 9.44244 28.1049 9.70575 27.4755 9.85512C27.2455 9.90995 27.0123 9.95043 26.7773 9.97632C26.7773 9.98676 26.7773 9.998 26.7773 10.0084C26.7773 12.1757 27.7477 13.6887 29.2378 14.8719C30.7278 13.6887 31.6982 12.1765 31.6982 10.0084C31.6982 9.998 31.6982 9.98676 31.6982 9.97632C31.4626 9.95047 31.2289 9.90999 30.9984 9.85512Z" fill="#2286FE"/>
<path opacity="0.1" d="M29.237 9.07812C28.7019 9.44244 28.1049 9.70575 27.4755 9.85512C27.2455 9.90995 27.0123 9.95043 26.7773 9.97632C26.7773 9.98676 26.7773 9.998 26.7773 10.0084C26.7773 12.1757 27.7477 13.6887 29.2378 14.8719L29.237 9.07812Z" fill="black"/>
<g opacity="0.5">
<path d="M29.2373 14.479L29.1716 14.4228C27.8289 13.2702 27.17 11.9715 27.0899 10.334L27.0859 10.2441L27.174 10.2288C27.3005 10.2072 27.427 10.1815 27.5487 10.1486C28.1262 10.0114 28.6785 9.78389 29.1853 9.47432L29.2381 9.44141L29.2909 9.47432C29.7978 9.78375 30.3501 10.0113 30.9275 10.1486C31.0508 10.1783 31.1765 10.204 31.3022 10.2288L31.3911 10.2441L31.3862 10.334C31.3062 11.9715 30.6464 13.271 29.3045 14.4228L29.2373 14.479ZM27.2965 10.4135C27.3894 11.9225 28.0083 13.1329 29.2373 14.2109C30.4663 13.1337 31.0852 11.9225 31.1781 10.4135C31.078 10.395 30.9779 10.3733 30.8794 10.3492C30.3015 10.2119 29.7478 9.98724 29.2373 9.68301C28.7268 9.98738 28.1731 10.212 27.5952 10.3492C27.4975 10.3733 27.3958 10.3942 27.2965 10.4135Z" fill="white"/>
</g>
<path opacity="0.9" d="M29.2361 14.2101C28.0071 13.1321 27.3882 11.9217 27.2954 10.4126C27.3962 10.3934 27.4963 10.3725 27.594 10.3484C28.1719 10.2112 28.7257 9.98657 29.2361 9.68221V9.44141L29.1833 9.47432C28.6765 9.78389 28.1242 10.0114 27.5468 10.1486C27.4251 10.1783 27.2986 10.204 27.1721 10.2288L27.084 10.2441L27.088 10.334C27.1681 11.9715 27.8278 13.2702 29.1697 14.4228L29.2353 14.479L29.2361 14.2101Z" fill="#F0F0F0"/>
<g opacity="0.2">
<path d="M29.0964 12.9086L28.0195 11.8282L28.3398 11.5071L29.0964 12.2656L30.4679 10.8906L30.789 11.2117L29.0964 12.9086Z" fill="#2286FE"/>
</g>
<g opacity="0.9">
<path d="M29.0964 12.9086L28.0195 11.8282L28.3398 11.5071L29.0964 12.2656L30.4679 10.8906L30.789 11.2117L29.0964 12.9086Z" fill="white"/>
</g>
<path d="M18.9725 9H16.1758V11.6063H18.9725V9Z" fill="#2286FE"/>
<path opacity="0.3" d="M18.9725 9H16.1758V11.6063H18.9725V9Z" fill="white"/>
<path d="M20.2124 9H18.8145V11.6063H20.2124V9Z" fill="#2286FE"/>
<path d="M18.0111 9.51172H17.1328V11.6067H18.0111V9.51172Z" fill="#263238"/>
<path d="M17.3522 9.51172H17.1328V11.6067H17.3522V9.51172Z" fill="#2286FE"/>
<path d="M18.2395 11.2812H9.32812V32.0002H18.2395V11.2812Z" fill="#2286FE"/>
<path opacity="0.6" d="M18.2395 11.2812H9.32812V32.0002H18.2395V11.2812Z" fill="white"/>
<path d="M18.161 11.2812V14.345H15.2051V15.0241H18.161V17.6501H15.2051V18.3292H18.161V20.9552H15.2051V21.6343H18.161V24.2603H15.2051V24.9394H18.161V27.5654H15.2051V28.2445H18.161V32.0002H24.4956V11.2812H18.161Z" fill="#2286FE"/>
<path opacity="0.2" d="M17.8635 12V14.9574H15V15.613H17.8635V18.1478H15V18.8034H17.8635V21.3382H15V21.9938H17.8635V24.5286H15V25.1842H17.8635V27.719H15V28.3746H17.8635V32H24V12H17.8635Z" fill="white"/>
<path d="M15.5841 27.6289H8V28.1992H15.5841V27.6289Z" fill="#2286FE"/>
<path d="M15.5841 24.207H8V24.9674H15.5841V24.207Z" fill="#2286FE"/>
<path d="M15.5841 20.9746H8V21.5449H15.5841V20.9746Z" fill="#2286FE"/>
<path d="M15.5841 17.5547H8V18.315H15.5841V17.5547Z" fill="#2286FE"/>
<path d="M15.5841 14.3223H8V15.0826H15.5841V14.3223Z" fill="#2286FE"/>
<g opacity="0.4">
<path d="M15.5841 27.627H8V28.1972H15.5841V27.627Z" fill="white"/>
<path d="M15.5841 24.207H8V24.9674H15.5841V24.207Z" fill="white"/>
<path d="M15.5841 20.9746H8V21.5449H15.5841V20.9746Z" fill="white"/>
<path d="M15.5841 17.5527H8V18.3131H15.5841V17.5527Z" fill="white"/>
<path d="M15.5841 14.3223H8V15.0826H15.5841V14.3223Z" fill="white"/>
</g>
<path d="M15.7391 28.9844H11.4844V32.0008H15.7391V28.9844Z" fill="#2286FE"/>
<path d="M12.349 12.0586H10.5859V13.8261H12.349V12.0586Z" fill="#2286FE"/>
<path d="M14.4486 12.0586H12.6855V13.8261H14.4486V12.0586Z" fill="#2286FE"/>
<path opacity="0.7" d="M16.7416 12.0586H14.9785V13.8261H16.7416V12.0586Z" fill="white"/>
<path opacity="0.7" d="M12.349 15.4355H10.5859V17.203H12.349V15.4355Z" fill="white"/>
<path d="M14.4486 15.4355H12.6855V17.203H14.4486V15.4355Z" fill="#2286FE"/>
<path opacity="0.7" d="M16.7416 15.4355H14.9785V17.203H16.7416V15.4355Z" fill="white"/>
<path opacity="0.7" d="M12.349 18.7441H10.5859V20.5116H12.349V18.7441Z" fill="white"/>
<path opacity="0.7" d="M14.4486 18.7441H12.6855V20.5116H14.4486V18.7441Z" fill="white"/>
<path d="M16.7416 18.7441H14.9785V20.5116H16.7416V18.7441Z" fill="#2286FE"/>
<path opacity="0.7" d="M12.349 22.0527H10.5859V23.8202H12.349V22.0527Z" fill="white"/>
<path d="M14.4486 22.0527H12.6855V23.8202H14.4486V22.0527Z" fill="#2286FE"/>
<path opacity="0.7" d="M16.7416 22.0527H14.9785V23.8202H16.7416V22.0527Z" fill="white"/>
<path opacity="0.9" d="M12.2924 25.3477H10.5859V27.0584H12.2924V25.3477Z" fill="#2286FE"/>
<path opacity="0.9" d="M14.392 25.3477H12.6855V27.0584H14.392V25.3477Z" fill="#2286FE"/>
<path opacity="0.9" d="M16.6849 25.3477H14.9785V27.0584H16.6849V25.3477Z" fill="white"/>
<path d="M10.7717 12.0586H10.5859V13.8261H10.7717V12.0586Z" fill="#2286FE"/>
<path d="M12.8713 12.0586H12.6855V13.8261H12.8713V12.0586Z" fill="#2286FE"/>
<path d="M14.9768 12.0586H14.791V13.8261H14.9768V12.0586Z" fill="#2286FE"/>
<path d="M10.7717 15.4355H10.5859V17.203H10.7717V15.4355Z" fill="#2286FE"/>
<path d="M12.8713 15.4355H12.6855V17.203H12.8713V15.4355Z" fill="#2286FE"/>
<path d="M14.9768 15.4355H14.791V17.203H14.9768V15.4355Z" fill="#2286FE"/>
<path d="M10.7717 18.7441H10.5859V20.5116H10.7717V18.7441Z" fill="#2286FE"/>
<path d="M12.8713 18.7441H12.6855V20.5116H12.8713V18.7441Z" fill="#2286FE"/>
<path d="M14.9768 18.7441H14.791V20.5116H14.9768V18.7441Z" fill="#2286FE"/>
<path d="M10.7717 22.0527H10.5859V23.8202H10.7717V22.0527Z" fill="#2286FE"/>
<path d="M12.8713 22.0527H12.6855V23.8202H12.8713V22.0527Z" fill="#2286FE"/>
<path d="M14.9768 22.0527H14.791V23.8202H14.9768V22.0527Z" fill="#2286FE"/>
<path d="M10.7755 25.3633H10.5859V27.074H10.7755V25.3633Z" fill="#2286FE"/>
<path d="M12.8751 25.3633H12.6855V27.074H12.8751V25.3633Z" fill="#2286FE"/>
<path d="M14.9806 25.3633H14.791V27.074H14.9806V25.3633Z" fill="#2286FE"/>
<g opacity="0.2">
<path d="M10.8439 12.041H10.6543V13.7518H10.8439V12.041Z" fill="black"/>
<path d="M12.9318 12.041H12.7422V13.7518H12.9318V12.041Z" fill="black"/>
<path d="M15.0197 12.041H14.8301V13.7518H15.0197V12.041Z" fill="black"/>
<path d="M10.8439 15.4062H10.6543V17.117H10.8439V15.4062Z" fill="black"/>
<path d="M12.9318 15.4062H12.7422V17.117H12.9318V15.4062Z" fill="black"/>
<path d="M15.0197 15.4062H14.8301V17.117H15.0197V15.4062Z" fill="black"/>
<path d="M10.8439 18.7031H10.6543V20.4139H10.8439V18.7031Z" fill="black"/>
<path d="M12.9318 18.7031H12.7422V20.4139H12.9318V18.7031Z" fill="black"/>
<path d="M15.0197 18.7031H14.8301V20.4139H15.0197V18.7031Z" fill="black"/>
<path d="M10.8439 21.998H10.6543V23.7088H10.8439V21.998Z" fill="black"/>
<path d="M12.9318 22H12.7422V23.7107H12.9318V22Z" fill="black"/>
<path d="M15.0197 22H14.8301V23.7107H15.0197V22Z" fill="black"/>
<path d="M10.8439 25.2969H10.6543V27.0076H10.8439V25.2969Z" fill="black"/>
<path d="M12.9318 25.2969H12.7422V27.0076H12.9318V25.2969Z" fill="black"/>
<path d="M15.0197 25.2969H14.8301V27.0076H15.0197V25.2969Z" fill="black"/>
</g>
<path opacity="0.4" d="M15.5353 29.1875H13.6113V32.0001H15.5353V29.1875Z" fill="white"/>
<path opacity="0.7" d="M13.6095 29.1875H11.6855V32.0001H13.6095V29.1875Z" fill="white"/>
<path d="M11.8889 29.1875H11.6855V32.0001H11.8889V29.1875Z" fill="#2286FE"/>
<path opacity="0.2" d="M11.8889 29.1875H11.6855V32.0001H11.8889V29.1875Z" fill="black"/>
</svg>
