<svg width="30" height="30" viewBox="0 0 30 30" fill="none" xmlns="http://www.w3.org/2000/svg">
<path d="M6.58654 12.1876C6.58498 11.0762 6.80332 9.97544 7.22899 8.94876C7.65466 7.92207 8.27925 6.98975 9.06679 6.20548C9.85432 5.42122 10.7892 4.80051 11.8177 4.37911C12.8461 3.95771 13.9478 3.74395 15.0592 3.75013C19.6998 3.78529 23.4147 7.64076 23.4147 12.2931V13.1251C23.4147 17.3204 24.2936 19.7579 25.067 21.0939C25.1492 21.2362 25.1925 21.3975 25.1926 21.5618C25.1928 21.7261 25.1497 21.8875 25.0678 22.03C24.9859 22.1724 24.8681 22.2908 24.726 22.3733C24.584 22.4558 24.4227 22.4996 24.2584 22.5001H5.74279C5.57851 22.4996 5.41726 22.4558 5.2752 22.3733C5.13314 22.2908 5.01526 22.1724 4.93337 22.03C4.85148 21.8875 4.80845 21.7261 4.80859 21.5618C4.80874 21.3975 4.85205 21.2362 4.9342 21.0939C5.70764 19.7579 6.58654 17.3204 6.58654 13.1251V12.1876Z" stroke="#1D3354" stroke-width="1.5" stroke-linecap="round" stroke-linejoin="round"/>
<path d="M11.25 22.5V23.4375C11.25 24.4321 11.6451 25.3859 12.3483 26.0891C13.0516 26.7924 14.0054 27.1875 15 27.1875C15.9946 27.1875 16.9484 26.7924 17.6516 26.0891C18.3549 25.3859 18.75 24.4321 18.75 23.4375V22.5" stroke="#1D3354" stroke-width="1.5" stroke-linecap="round" stroke-linejoin="round"/>
</svg>
