<svg width="95" height="94" viewBox="0 0 95 94" fill="none" xmlns="http://www.w3.org/2000/svg">
<g filter="url(#filter0_d_1096_50744)">
<circle cx="47.5" cy="43" r="38.5" fill="white" stroke="#EBEDF0"/>
<path d="M64.0147 56.5227C67.4898 56.5227 70.3068 54.8933 70.3068 52.8834C70.3068 50.8735 67.4898 49.2441 64.0147 49.2441C60.5397 49.2441 57.7227 50.8735 57.7227 52.8834C57.7227 54.8933 60.5397 56.5227 64.0147 56.5227Z" fill="#E0E0E0"/>
<path d="M29.9776 65.7512C33.4527 65.7512 36.2697 64.1218 36.2697 62.1119C36.2697 60.102 33.4527 58.4727 29.9776 58.4727C26.5026 58.4727 23.6855 60.102 23.6855 62.1119C23.6855 64.1218 26.5026 65.7512 29.9776 65.7512Z" fill="#E0E0E0"/>
<path d="M73.4685 51.6107L72.5593 51.0905C72.5593 51.0905 72.1235 48.6836 72.4486 46.616C72.9073 43.7079 74.8837 42.7038 75.6028 42.993C76.3218 43.2822 76.4891 44.1444 75.198 45.8309C74.4277 46.816 73.4496 48.9107 73.4685 51.6107Z" fill="#2286FE"/>
<g opacity="0.1">
<path d="M73.4685 51.6107L72.5593 51.0905C72.5593 51.0905 72.1235 48.6836 72.4486 46.616C72.9073 43.7079 74.8837 42.7038 75.6028 42.993C76.3218 43.2822 76.4891 44.1444 75.198 45.8309C74.4277 46.816 73.4496 48.9107 73.4685 51.6107Z" fill="black"/>
</g>
<path d="M73.0404 50.4271H73.0498C73.0584 50.4262 73.0666 50.4237 73.0742 50.4196C73.0817 50.4156 73.0884 50.41 73.0938 50.4034C73.0992 50.3967 73.1032 50.3891 73.1056 50.3808C73.108 50.3726 73.1088 50.364 73.1079 50.3554C72.8111 47.623 73.9901 44.6797 75.2529 43.508C75.2656 43.4962 75.2731 43.4798 75.2737 43.4624C75.2743 43.4451 75.2681 43.4282 75.2563 43.4154C75.2445 43.4027 75.2281 43.3952 75.2108 43.3946C75.1934 43.3939 75.1766 43.4002 75.1638 43.4121C73.8795 44.5999 72.6775 47.6013 72.9783 50.3703C72.9805 50.3855 72.9879 50.3995 72.9992 50.4098C73.0105 50.4202 73.0251 50.4263 73.0404 50.4271Z" fill="white"/>
<path d="M75.9918 53.0687C76.1348 53.1512 76.4302 52.9714 76.5435 52.8944C76.738 52.7624 76.8951 52.5822 76.9995 52.3714C77.1166 52.1318 77.1566 51.8618 77.1142 51.5984C77.0904 51.4614 77.0579 51.326 77.0171 51.193C76.9779 51.0579 76.9402 50.9228 76.9024 50.7944C76.8555 50.6646 76.8358 50.5267 76.8444 50.389C76.8781 50.1187 77.1142 49.9254 77.3395 49.7606C77.5823 49.5781 77.8359 49.3376 77.8346 49.0092C77.8163 48.7544 77.7148 48.5127 77.5459 48.3214C77.3894 48.1227 77.2032 47.947 77.0616 47.7376C76.9494 47.5915 76.8913 47.4109 76.897 47.2267C76.9115 47.1144 76.9492 47.0062 77.0076 46.9092C77.1406 46.7058 77.257 46.4921 77.3557 46.27C77.4353 46.0402 77.4245 45.7537 77.2451 45.5943C77.1647 45.5353 77.0735 45.493 76.9767 45.4698C76.8799 45.4466 76.7794 45.443 76.6811 45.4591C76.495 45.4818 76.316 45.5445 76.1563 45.6429C75.6356 45.9335 75.3388 46.551 74.787 46.774C74.5698 46.8381 74.3491 46.8895 74.126 46.9281C74.0126 46.9487 73.9049 46.9931 73.8098 47.0583C73.7147 47.1235 73.6344 47.2081 73.5742 47.3065C73.3719 47.7119 73.7483 48.2119 73.6052 48.6416C73.4784 49.0227 73.1088 49.1687 72.9024 49.5119C72.8175 49.6634 72.7835 49.8382 72.8052 50.0106C72.8229 50.3021 72.8938 50.5879 73.0144 50.8538C73.1497 51.1181 73.3044 51.3719 73.4771 51.6133C73.4784 51.6187 75.9688 53.0566 75.9918 53.0687Z" fill="#2286FE"/>
<path d="M74.5164 52.2822C74.5251 52.282 74.5335 52.2801 74.5414 52.2766C74.5493 52.2731 74.5564 52.268 74.5623 52.2617C74.5682 52.2554 74.5728 52.248 74.5758 52.2399C74.5788 52.2318 74.5802 52.2232 74.5798 52.2146C74.4733 49.6375 75.6847 46.7929 76.567 45.9658C76.5732 45.96 76.5782 45.9529 76.5817 45.9452C76.5852 45.9374 76.5871 45.929 76.5874 45.9204C76.5876 45.9119 76.5862 45.9034 76.5832 45.8954C76.5801 45.8874 76.5756 45.8801 76.5697 45.8739C76.5639 45.8677 76.5569 45.8627 76.5491 45.8592C76.5413 45.8557 76.5329 45.8538 76.5244 45.8535C76.5159 45.8533 76.5074 45.8547 76.4994 45.8578C76.4915 45.8608 76.4842 45.8654 76.478 45.8712C75.5781 46.7145 74.3424 49.6064 74.4544 52.2227C74.4557 52.2385 74.4627 52.2533 74.4741 52.2642C74.4856 52.2752 74.5006 52.2816 74.5164 52.2822Z" fill="white"/>
<path d="M74.9028 49.238H74.9217C75.5311 49.0692 76.1573 48.9681 76.7888 48.9366C76.8059 48.9356 76.8218 48.9279 76.8334 48.9153C76.845 48.9028 76.8512 48.8862 76.8509 48.869C76.8509 48.8604 76.8491 48.8519 76.8457 48.8439C76.8422 48.836 76.8372 48.8289 76.8308 48.8231C76.8245 48.8172 76.817 48.8127 76.8088 48.81C76.8006 48.8072 76.792 48.8061 76.7834 48.8069C76.1409 48.8393 75.504 48.9422 74.8839 49.1136C74.8757 49.1161 74.8682 49.1202 74.8616 49.1256C74.855 49.131 74.8495 49.1377 74.8455 49.1452C74.8415 49.1527 74.839 49.161 74.8382 49.1695C74.8374 49.178 74.8382 49.1866 74.8407 49.1947C74.8451 49.2076 74.8534 49.2188 74.8646 49.2266C74.8758 49.2344 74.8892 49.2384 74.9028 49.238Z" fill="white"/>
<path d="M21.1658 54.5389L22.0697 54.0159C22.0697 54.0159 22.5081 51.6091 22.1817 49.5415C21.7243 46.6333 19.7533 45.6306 19.0289 45.9184C18.3044 46.2063 18.1425 47.0698 19.4336 48.7563C20.2039 49.7415 21.1901 51.8402 21.1658 54.5389Z" fill="#2286FE"/>
<g opacity="0.1">
<path d="M21.1678 54.5389L22.0717 54.0159C22.0717 54.0159 22.5101 51.6091 22.1836 49.5415C21.7263 46.6333 19.7553 45.6306 19.0308 45.9184C18.3064 46.2063 18.1445 47.0698 19.4356 48.7563C20.2059 49.7415 21.1921 51.8402 21.1678 54.5389Z" fill="black"/>
</g>
<path d="M21.6479 54.3999C21.6302 54.3989 21.6137 54.3909 21.6018 54.3778C21.5899 54.3646 21.5837 54.3474 21.5845 54.3297C21.7976 50.2755 21.2283 47.9687 19.6796 46.5998C19.6671 46.5869 19.6602 46.5697 19.6602 46.5518C19.6602 46.5339 19.6671 46.5167 19.6796 46.5038C19.6924 46.4913 19.7096 46.4844 19.7275 46.4844C19.7453 46.4844 19.7625 46.4913 19.7753 46.5038C21.3578 47.9025 21.942 50.2471 21.7261 54.3418C21.725 54.3509 21.722 54.3596 21.7174 54.3674C21.7128 54.3753 21.7067 54.3822 21.6994 54.3876C21.6921 54.393 21.6837 54.3969 21.6749 54.399C21.666 54.4011 21.6568 54.4015 21.6479 54.3999Z" fill="white"/>
<path d="M21.4408 54.3779C21.4597 53.5076 20.9538 50.6251 19.2513 49.5764C17.5488 48.5278 16.7218 49.8345 17.4112 50.6264C17.9171 51.2062 18.8587 51.6251 19.7451 52.8238C20.3535 53.6481 20.7042 54.8063 20.7042 54.8063L21.4408 54.3779Z" fill="#2286FE"/>
<path d="M21.1358 54.7169C21.1186 54.7169 21.1021 54.7104 21.0895 54.6986C21.077 54.6868 21.0694 54.6706 21.0684 54.6534C20.9051 52.456 19.6599 50.4844 18.0397 49.86C18.0314 49.8569 18.0238 49.852 18.0173 49.8459C18.0108 49.8398 18.0056 49.8324 18.002 49.8242C17.9984 49.8161 17.9964 49.8073 17.9961 49.7984C17.9959 49.7894 17.9974 49.7805 18.0006 49.7722C18.0038 49.7639 18.0086 49.7562 18.0147 49.7498C18.0208 49.7433 18.0282 49.7381 18.0363 49.7344C18.0445 49.7308 18.0532 49.7288 18.0622 49.7285C18.0711 49.7283 18.0799 49.7298 18.0883 49.733C19.7598 50.3776 21.036 52.3966 21.2033 54.6439C21.204 54.6529 21.203 54.662 21.2002 54.6705C21.1973 54.6791 21.1929 54.687 21.1869 54.6938C21.181 54.7006 21.1738 54.7062 21.1657 54.7101C21.1577 54.7141 21.1489 54.7164 21.1399 54.7169H21.1358Z" fill="white"/>
<path d="M55.4344 28.7475C55.6395 28.9165 55.8742 29.0043 56.144 29.2665C56.3146 29.4609 56.5299 29.6107 56.7713 29.703C57.083 29.8273 57.3757 29.7908 58.2405 29.6516C59.2968 29.4827 59.7514 29.3043 60.2074 28.9151C60.7403 28.4597 61.9329 27.0853 62.509 26.5461C63.1187 25.9759 63.9565 26.1961 63.9565 26.1961C63.6972 27.0414 63.3115 27.8424 62.8125 28.5719C62.3511 29.23 61.4891 29.8611 61.0992 30.1854C60.4745 30.7057 60.1427 30.9111 58.772 31.0152C57.7373 31.0935 57.5997 31.1179 56.7484 31.0935C56.4422 31.0841 56.2519 31.0814 55.7501 31.0395C55.5322 31.0252 55.3165 30.9876 55.1066 30.9273C54.8692 30.8726 54.6416 30.7814 54.432 30.657C54.1585 30.4791 53.9376 30.2308 53.7926 29.9381C53.7133 29.7772 53.6727 29.6 53.6739 29.4205C53.676 29.2397 53.742 29.0654 53.86 28.9286C53.8832 28.9007 53.9128 28.8789 53.9464 28.8651C54.0118 28.8539 54.0789 28.8685 54.1339 28.9057C54.4577 29.0719 54.7841 29.3016 55.1241 29.4327C55.4101 29.5422 55.6287 29.5813 55.6071 29.5232C55.5855 29.4651 55.4128 29.4124 55.2347 29.2111C55.0567 29.0097 55.0121 28.73 55.1268 28.6421C55.2415 28.5543 55.2347 28.5773 55.4344 28.7475Z" fill="#CE7A63"/>
<path d="M64.2037 26.1919C63.8776 26.0349 63.5077 25.9944 63.1555 26.077C62.6226 26.2311 62.1949 26.5797 61.6863 27.127C61.1777 27.6743 60.3184 28.5581 60.3184 28.5581C60.3184 28.5581 60.742 29.6298 61.6917 30.0109L63.683 28.1662L64.2037 26.1919Z" fill="#E0E0E0"/>
<path d="M67.1293 50.6777H65.9219V52.748H67.1293V50.6777Z" fill="#CE7A63"/>
<path d="M63.7902 51.2004L62.5841 51.2422L62.5234 49.0517L63.7902 49.0098V51.2004Z" fill="#CE7A63"/>
<path d="M67.6487 35.2224C67.6487 36.3765 67.445 43.0929 67.445 43.0929C67.472 43.4253 67.7917 44.0159 67.8173 45.2132C67.8524 46.9484 67.186 51.7133 67.186 51.7133C66.9769 51.8168 66.7476 51.8729 66.5144 51.8775C66.2813 51.8822 66.0499 51.8354 65.8369 51.7404C65.8369 51.7404 65.2892 45.2808 65.072 43.5632C64.8831 42.0631 64.5634 37.9901 64.5634 37.9901L63.9954 42.8848C64.1338 43.5153 64.1828 44.1622 64.1411 44.8064C64.0844 45.601 63.8605 50.5214 63.8605 50.5214C63.6503 50.6406 63.4164 50.7119 63.1756 50.7303C62.9347 50.7488 62.6928 50.7139 62.4669 50.6282C62.4669 50.6282 61.6156 43.6132 61.6021 42.8848C61.5859 42.0537 61.9165 33.5684 61.9165 33.5684L67.6487 35.2224Z" fill="#37474F"/>
<path d="M66.8529 26.7266C67.1187 26.8445 67.3276 27.0625 67.4344 27.3333C67.5582 27.6673 67.6182 28.0217 67.6111 28.378V30.7469L67.6462 35.2213C65.9126 36.1362 63.7109 36.197 61.8613 34.8443C61.8613 34.8443 61.9652 29.0861 61.9652 28.1442C61.9652 28.1023 61.9652 28.059 61.9652 28.009C62.0327 26.6577 63.3548 25.7401 64.6634 26.0752L65.7615 26.3644L66.8597 26.7266H66.8529Z" fill="#F0F0F0"/>
<path d="M64.1332 23.9416C65.0251 23.7307 65.5775 22.8354 65.367 21.942C65.1565 21.0485 64.2628 20.4952 63.3708 20.7061C62.4789 20.9169 61.9265 21.8122 62.137 22.7056C62.3475 23.5991 63.2413 24.1524 64.1332 23.9416Z" fill="#2286FE"/>
<path opacity="0.5" d="M64.1332 23.9416C65.0251 23.7307 65.5775 22.8354 65.367 21.942C65.1565 21.0485 64.2628 20.4952 63.3708 20.7061C62.4789 20.9169 61.9265 21.8122 62.137 22.7056C62.3475 23.5991 63.2413 24.1524 64.1332 23.9416Z" fill="black"/>
<path d="M66.621 23.502C66.621 23.502 66.3512 24.7682 66.2446 24.975C66.1732 25.1043 66.0548 25.2011 65.9141 25.2452L65.9329 24.3547L66.621 23.502Z" fill="#2286FE"/>
<path opacity="0.5" d="M66.621 23.502C66.621 23.502 66.3512 24.7682 66.2446 24.975C66.1732 25.1043 66.0548 25.2011 65.9141 25.2452L65.9329 24.3547L66.621 23.502Z" fill="black"/>
<path d="M66.2839 21.6897C66.378 21.6787 66.4733 21.6894 66.5627 21.7211C66.652 21.7527 66.7329 21.8044 66.7992 21.8722C67.0205 22.0979 66.8963 22.8073 66.6211 23.5019L66.1152 23.5614L66.2839 21.6897Z" fill="#2286FE"/>
<path opacity="0.5" d="M66.2839 21.6897C66.378 21.6787 66.4733 21.6894 66.5627 21.7211C66.652 21.7527 66.7329 21.8044 66.7992 21.8722C67.0205 22.0979 66.8963 22.8073 66.6211 23.5019L66.1152 23.5614L66.2839 21.6897Z" fill="black"/>
<path d="M65.9618 23.5608C66.063 23.6216 66.2087 23.4257 66.3328 23.2905C66.4569 23.1554 66.8724 22.9797 67.0707 23.4108C67.269 23.8419 66.8913 24.4284 66.5689 24.5298C66.0144 24.7041 65.9321 24.3473 65.9321 24.3473L65.8957 26.4176C65.2063 27.3028 63.2933 27.2285 64.0906 26.3028V25.6933C63.8435 25.7325 63.593 25.7452 63.3432 25.7311C62.9385 25.6676 62.6781 25.346 62.554 24.9041C62.3557 24.1933 62.2842 23.6203 62.4488 22.223C62.6336 20.6918 64.4117 20.6756 65.3722 21.277C66.3328 21.8784 65.9618 23.5608 65.9618 23.5608Z" fill="#CE7A63"/>
<path d="M65.964 23.7316C66.0153 23.7316 66.2096 23.4099 66.335 23.2951C66.5104 23.1356 66.2851 21.6896 66.2851 21.6896C66.3312 21.5646 66.3398 21.4287 66.3099 21.2988C66.2799 21.1689 66.2127 21.0507 66.1165 20.9585C65.8764 20.6883 65.4757 20.6653 64.7903 20.5531C64.4315 20.4964 63.8865 20.3964 63.5276 20.3288C63.1 20.2491 62.7451 20.1653 62.4483 20.4288C62.3295 20.5314 62.2454 20.6684 62.2077 20.8209C62.17 20.9734 62.1806 21.1339 62.2379 21.2802C62.3224 21.4623 62.4736 21.6051 62.6602 21.6788C62.6602 21.6788 62.8463 21.845 63.4966 21.9248C64.0963 21.9693 64.6988 21.9575 65.2962 21.8896C65.4851 21.864 65.5256 22.0477 65.6268 22.5464C65.7185 22.9856 65.7927 23.7289 65.964 23.7316Z" fill="#2286FE"/>
<path opacity="0.5" d="M65.964 23.7316C66.0153 23.7316 66.2096 23.4099 66.335 23.2951C66.5104 23.1356 66.2851 21.6896 66.2851 21.6896C66.3312 21.5646 66.3398 21.4287 66.3099 21.2988C66.2799 21.1689 66.2127 21.0507 66.1165 20.9585C65.8764 20.6883 65.4757 20.6653 64.7903 20.5531C64.4315 20.4964 63.8865 20.3964 63.5276 20.3288C63.1 20.2491 62.7451 20.1653 62.4483 20.4288C62.3295 20.5314 62.2454 20.6684 62.2077 20.8209C62.17 20.9734 62.1806 21.1339 62.2379 21.2802C62.3224 21.4623 62.4736 21.6051 62.6602 21.6788C62.6602 21.6788 62.8463 21.845 63.4966 21.9248C64.0963 21.9693 64.6988 21.9575 65.2962 21.8896C65.4851 21.864 65.5256 22.0477 65.6268 22.5464C65.7185 22.9856 65.7927 23.7289 65.964 23.7316Z" fill="black"/>
<path d="M66.2813 21.8027L66.8952 21.473C66.8755 21.4322 66.8479 21.3958 66.814 21.3658C66.78 21.3359 66.7405 21.3131 66.6976 21.2988C66.6547 21.2844 66.6094 21.2788 66.5643 21.2822C66.5192 21.2857 66.4753 21.2982 66.4351 21.3189C66.3523 21.3643 66.2901 21.4398 66.2614 21.5299C66.2328 21.62 66.2399 21.7177 66.2813 21.8027Z" fill="#2286FE"/>
<path opacity="0.5" d="M66.2813 21.8027L66.8952 21.473C66.8755 21.4322 66.8479 21.3958 66.814 21.3658C66.78 21.3359 66.7405 21.3131 66.6976 21.2988C66.6547 21.2844 66.6094 21.2788 66.5643 21.2822C66.5192 21.2857 66.4753 21.2982 66.4351 21.3189C66.3523 21.3643 66.2901 21.4398 66.2614 21.5299C66.2328 21.62 66.2399 21.7177 66.2813 21.8027Z" fill="black"/>
<path d="M64.0879 25.6943C64.0879 25.6943 64.9985 25.5105 65.3169 25.3402C65.5063 25.243 65.6616 25.0902 65.7621 24.9023C65.7142 25.0886 65.6293 25.2633 65.5125 25.4159C65.2791 25.7145 64.0933 25.9334 64.0933 25.9334L64.0879 25.6943Z" fill="#CE7A63"/>
<path d="M64.1328 23.3324C64.1339 23.3682 64.1455 23.4029 64.1661 23.4322C64.1867 23.4615 64.2155 23.484 64.2489 23.497C64.2823 23.51 64.3187 23.5129 64.3537 23.5052C64.3886 23.4976 64.4206 23.4798 64.4455 23.4541C64.4704 23.4284 64.4873 23.3959 64.4939 23.3606C64.5005 23.3254 64.4966 23.289 64.4826 23.256C64.4687 23.2229 64.4454 23.1948 64.4155 23.1749C64.3857 23.1551 64.3507 23.1445 64.3149 23.1445C64.266 23.1456 64.2195 23.1659 64.1854 23.201C64.1514 23.2362 64.1325 23.2834 64.1328 23.3324Z" fill="#263238"/>
<path d="M64.3242 22.643L64.7155 22.8592C64.7429 22.8055 64.7487 22.7433 64.7316 22.6854C64.7145 22.6276 64.6759 22.5785 64.6237 22.5484C64.598 22.5342 64.5697 22.5254 64.5405 22.5225C64.5113 22.5196 64.4818 22.5227 64.4538 22.5316C64.4258 22.5404 64.3999 22.5548 64.3776 22.574C64.3553 22.5931 64.3372 22.6166 64.3242 22.643Z" fill="#263238"/>
<path d="M64.1669 24.5957L63.75 24.7525C63.7594 24.7802 63.7742 24.8058 63.7936 24.8278C63.8131 24.8497 63.8367 24.8675 63.8631 24.8801C63.8895 24.8927 63.9182 24.8999 63.9474 24.9011C63.9767 24.9024 64.0059 24.8978 64.0333 24.8876C64.0888 24.8655 64.1336 24.8228 64.1585 24.7685C64.1834 24.7141 64.1864 24.6522 64.1669 24.5957Z" fill="#CE7A63"/>
<path d="M62.5589 22.7944L62.915 22.5242C62.8991 22.4994 62.8782 22.4782 62.8537 22.4618C62.8292 22.4455 62.8016 22.4343 62.7726 22.4291C62.7436 22.4239 62.7139 22.4248 62.6852 22.4316C62.6566 22.4384 62.6296 22.4511 62.6061 22.4688C62.5572 22.5061 62.5249 22.5611 62.5161 22.6219C62.5073 22.6828 62.5226 22.7448 62.5589 22.7944Z" fill="#263238"/>
<path d="M62.6661 23.2804C62.6674 23.3164 62.6793 23.3513 62.7002 23.3806C62.7212 23.4099 62.7502 23.4324 62.7839 23.4453C62.8175 23.4582 62.8542 23.4609 62.8893 23.453C62.9244 23.4452 62.9565 23.4272 62.9815 23.4012C63.0065 23.3753 63.0233 23.3425 63.0298 23.3071C63.0364 23.2716 63.0324 23.235 63.0183 23.2018C63.0042 23.1686 62.9807 23.1403 62.9507 23.1204C62.9207 23.1005 62.8855 23.0899 62.8495 23.0898C62.825 23.0902 62.8007 23.0954 62.7782 23.1052C62.7556 23.115 62.7352 23.1291 62.7182 23.1468C62.7011 23.1646 62.6877 23.1855 62.6788 23.2084C62.6699 23.2313 62.6655 23.2558 62.6661 23.2804Z" fill="#263238"/>
<path d="M63.5937 23.1074L63.5343 24.2074L62.9609 24.0115L63.5937 23.1074Z" fill="#CE7A63"/>
<path d="M65.9248 52.1507V51.9777C65.8088 52.0291 65.5403 53.0588 65.0614 53.4912C64.681 53.8399 64.1616 54.2413 64.0294 54.6291C63.8972 55.017 64.7525 55.2548 65.1086 55.1926C65.5215 55.1183 66.2378 54.8278 66.4186 54.5575C66.5994 54.2872 66.6817 53.8886 66.8233 53.6899C66.965 53.4912 67.3063 53.271 67.3845 53.0412C67.4277 52.9156 67.3764 52.6358 67.3157 52.4074C67.255 52.1791 67.1997 51.9588 67.1269 51.9777C67.1269 52.0047 67.1269 52.1128 67.1269 52.1128C66.9546 52.248 66.7413 52.32 66.5225 52.3169C66.3511 52.321 65.9235 52.2858 65.9248 52.1507Z" fill="#263238"/>
<path d="M62.5719 50.8682C62.5085 50.8682 62.4572 50.9588 62.3196 51.1088C62.1132 51.3179 61.8733 51.491 61.61 51.621C61.158 51.8466 60.2784 52.1953 59.8805 52.375C59.6322 52.4872 59.6444 52.7886 59.9007 52.9588C60.157 53.1291 60.7776 53.2534 61.5196 53.0872C61.9243 52.9953 62.4531 52.621 62.7877 52.6413C63.1223 52.6615 63.7469 52.6561 63.9938 52.4858C64.2407 52.3156 64.1422 51.9521 64.072 51.6385C63.9965 51.298 63.9007 50.7655 63.7887 50.7899V50.9074C63.643 51.1277 62.8943 51.2169 62.5746 51.0547L62.5719 50.8682Z" fill="#263238"/>
<path d="M64.5657 37.9903C63.9417 37.7957 63.3678 37.4664 62.8848 37.0254C62.8848 37.0254 63.2085 37.6335 64.1731 38.1997L64.0382 42.4742L64.5657 37.9903Z" fill="#263238"/>
<path d="M28.7566 30.2188H29.187C29.8278 30.2188 30.4424 30.4737 30.8955 30.9276C31.3486 31.3815 31.6032 31.9972 31.6032 32.6391V37.7743H26.3418V32.6391C26.3418 31.9972 26.5964 31.3815 27.0495 30.9276C27.5026 30.4737 28.1172 30.2188 28.758 30.2188H28.7566Z" fill="#263238"/>
<path d="M28.585 63.0211L28.2464 62.7197C27.9186 62.4197 27.669 61.9089 27.5247 61.5657C27.4432 61.3676 27.401 61.1555 27.4005 60.9413V60.2656H26.2188V61.3643V61.39C26.2754 61.6359 26.8191 62.2913 27.1267 62.7184C27.3344 63.0049 27.727 63.3684 28.1965 63.4319C28.6457 63.4995 28.8737 63.3589 28.585 63.0211Z" fill="#CE7A63"/>
<path d="M32.0013 61.2184C32.0344 61.1992 32.0633 61.1735 32.0863 61.1428C32.178 61.0157 32.1052 60.9468 32.0377 60.8454C31.9567 60.7048 31.889 60.5568 31.8353 60.4035C31.78 60.2684 31.7085 60.0279 31.7085 60.0279C31.7085 60.0279 31.7085 59.8508 31.7085 59.7792V59.1035H30.5254V60.2319C30.5861 60.5022 30.8262 60.7495 30.9827 60.959C31.1041 61.1211 31.4171 61.2036 31.606 61.2441C31.6888 61.2654 31.7747 61.2713 31.8596 61.2617C31.9092 61.2566 31.9573 61.2419 32.0013 61.2184Z" fill="#CE7A63"/>
<path d="M26.4538 42.9917C25.5364 44.9985 26.4875 52.0662 26.4875 52.0662C26.4592 52.3919 26.0828 53.0325 25.9479 54.4649C25.7846 56.1582 26.2042 60.411 26.2042 60.411C26.3848 60.5158 26.5881 60.5748 26.7967 60.5831C27.0052 60.5913 27.2126 60.5485 27.4008 60.4583C27.4008 60.4583 28.5273 54.0555 28.7391 52.3716C28.9239 50.9027 29.2787 47.6729 29.2787 47.6729L29.9843 52.3703C29.8377 52.8442 29.7316 53.3297 29.6673 53.8217C29.5715 54.8109 30.5293 59.4218 30.5293 59.4218C30.5293 59.4218 30.9341 59.5718 31.7125 59.4569C31.7125 59.4569 32.0511 53.3392 32.1401 52.146C32.2899 50.1432 32.0619 43.8863 31.6949 42.7012L26.4538 42.9917Z" fill="#37474F"/>
<path d="M29.2832 47.6714L29.58 45.8078C29.58 45.8078 30.84 45.5457 31.4107 45.0078C31.4107 45.0078 30.8117 45.7551 29.9267 45.9997L29.5921 47.4335L29.8916 51.6904L29.2832 47.6714Z" fill="#263238"/>
<path d="M27.4049 61.1872V61.0156C27.5182 61.0656 27.7826 62.0738 28.2534 62.5021C28.6271 62.844 29.1384 63.2386 29.2679 63.6197C29.3974 64.0008 28.557 64.2346 28.2076 64.1738C27.8028 64.1008 27.0986 63.8143 26.9219 63.5495C26.7452 63.2846 26.6615 62.8927 26.5172 62.6981C26.3728 62.5035 26.0423 62.2873 25.9614 62.0656C25.9182 61.9427 25.9694 61.671 26.0288 61.4427C26.0882 61.2143 26.1435 61.0021 26.215 61.021V61.1562C26.3838 61.2887 26.5927 61.3597 26.8072 61.3575C26.9853 61.3548 27.4062 61.3197 27.4049 61.1872Z" fill="#263238"/>
<path d="M31.7095 60.0274C31.7702 60.0274 31.8444 60.122 31.9793 60.2693C32.1823 60.4746 32.418 60.6446 32.6768 60.772C33.1207 60.995 33.9841 61.3369 34.3753 61.514C34.6195 61.6234 34.6073 61.9194 34.3551 62.0869C34.1028 62.2545 33.4944 62.3761 32.7632 62.2126C32.3584 62.1234 31.8458 61.7545 31.5166 61.7748C31.1874 61.795 30.5723 61.7896 30.3321 61.6221C30.092 61.4545 30.1864 61.0977 30.2552 60.791C30.3308 60.4558 30.4239 59.9328 30.5345 59.9558V60.072C30.6775 60.2882 31.4127 60.3761 31.7257 60.2166L31.7095 60.0274Z" fill="#263238"/>
<path d="M30.0331 35.9675C30.3207 35.9421 30.6101 35.9909 30.8736 36.1092C31.1371 36.2274 31.3661 36.4113 31.5387 36.6431C32.0122 37.2621 33.2587 39.7973 33.2587 39.7973C33.2587 39.7973 35.996 39.6135 36.1269 39.4554C36.2577 39.2973 36.1849 38.9756 36.1485 38.7986C36.112 38.6216 36.0527 38.2297 36.0135 38.1229C35.9447 37.9297 36.2294 37.9878 36.3967 38.1621C36.564 38.3364 36.6382 38.6932 36.7218 38.754C36.8055 38.8148 37.4409 38.0783 37.7485 37.7283C38.0561 37.3783 38.2018 37.1283 38.4082 37.2742C38.5579 37.3796 38.4621 37.5891 38.2409 37.8918C38.1375 38.0211 38.042 38.1565 37.9549 38.2972C37.9292 38.3526 38.0102 38.3959 38.0426 38.4243C38.1033 38.4783 38.2085 38.5662 38.2166 38.6499C38.2153 38.6951 38.218 38.7404 38.2247 38.7851C38.253 38.8864 38.3785 38.9337 38.4136 39.0324C38.4392 39.104 38.4136 39.1837 38.4244 39.2581C38.4338 39.3054 38.4608 39.3486 38.4689 39.3932C38.4721 39.441 38.465 39.4889 38.448 39.5337C38.431 39.5785 38.4045 39.6191 38.3704 39.6527C38.1532 39.9108 37.8577 40.0094 37.5731 40.1675C37.337 40.3027 37.0942 40.3554 36.8216 40.477C36.5491 40.5986 33.2223 41.4608 32.7245 41.1838C32.2267 40.9067 30.3178 37.904 30.3178 37.904C29.5731 36.6675 30.0331 35.9675 30.0331 35.9675Z" fill="#CE7A63"/>
<path d="M28.071 36.0213C26.896 36.1024 26.8137 36.6713 26.5196 37.2929C26.2943 37.7673 26.3685 38.3321 26.5398 38.8267L27.2832 41.1849C27.2832 41.1849 26.8987 42.1146 26.4535 42.9917C28.5095 44.1417 31.0768 43.5322 31.6946 42.6984C31.7216 42.5201 31.5597 41.1295 31.4653 40.22C31.8269 39.3105 31.9226 38.7335 31.7702 38.1321C31.4855 37.0159 30.3847 35.928 29.8977 35.9699L28.071 36.0213Z" fill="#2286FE"/>
<path d="M26.2144 31.3066L26.5706 31.8796C26.5342 31.9049 26.4931 31.9225 26.4498 31.9314C26.4065 31.9404 26.3618 31.9404 26.3184 31.9316C26.275 31.9227 26.2339 31.9052 26.1975 31.88C26.1611 31.8548 26.1301 31.8225 26.1065 31.785C26.06 31.7066 26.0453 31.6133 26.0654 31.5243C26.0855 31.4353 26.1388 31.3574 26.2144 31.3066Z" fill="#263238"/>
<path d="M30.7417 31.2852C31.0196 31.4487 31.3623 32.1487 31.3286 33.6176C31.3002 34.8609 30.8969 35.169 30.6959 35.2569C30.4948 35.3447 30.1036 35.292 29.7245 35.2285V35.9758C29.7245 35.9758 30.248 36.5853 30.2156 36.9218C30.1832 37.2583 29.4587 37.3447 28.969 37.011C28.6494 36.782 28.3749 36.4956 28.1596 36.1663V34.3622C28.1596 34.3622 27.9046 34.7041 27.485 34.4258C27.0655 34.1474 27.0506 33.4582 27.2935 33.2095C27.5363 32.9609 28.0611 33.0406 28.1582 33.3825C28.1582 33.3825 28.7626 33.4041 29.568 32.9622C29.8813 32.7945 30.1508 32.5553 30.3547 32.264C30.5586 31.9726 30.6911 31.6373 30.7417 31.2852Z" fill="#CE7A63"/>
<path d="M29.8012 33.3026C29.8017 33.3333 29.7932 33.3636 29.7766 33.3895C29.7601 33.4154 29.7363 33.4359 29.7082 33.4484C29.6802 33.4608 29.6491 33.4648 29.6188 33.4597C29.5885 33.4545 29.5604 33.4406 29.5379 33.4196C29.5155 33.3986 29.4997 33.3715 29.4926 33.3415C29.4854 33.3116 29.4872 33.2803 29.4978 33.2514C29.5083 33.2225 29.5271 33.1973 29.5518 33.179C29.5765 33.1607 29.606 33.1501 29.6367 33.1485C29.6576 33.1478 29.6784 33.1512 29.698 33.1586C29.7176 33.1659 29.7355 33.1771 29.7508 33.1914C29.7661 33.2057 29.7784 33.2229 29.7871 33.242C29.7957 33.261 29.8006 33.2816 29.8012 33.3026Z" fill="#263238"/>
<path d="M29.9824 34.3613L30.3453 34.4775C30.3392 34.5023 30.3282 34.5255 30.3129 34.5459C30.2976 34.5662 30.2783 34.5832 30.2562 34.5959C30.2341 34.6085 30.2097 34.6165 30.1844 34.6194C30.1591 34.6223 30.1335 34.62 30.1092 34.6127C30.0592 34.596 30.0179 34.5602 29.9941 34.5132C29.9704 34.4661 29.9661 34.4115 29.9824 34.3613Z" fill="#CE7A63"/>
<path d="M31.0887 32.824L30.7676 32.6051C30.7808 32.5837 30.7983 32.5653 30.8189 32.5509C30.8395 32.5365 30.8629 32.5264 30.8875 32.5214C30.9121 32.5163 30.9375 32.5163 30.9621 32.5214C30.9867 32.5265 31.0101 32.5366 31.0306 32.5511C31.0737 32.5802 31.1037 32.625 31.1145 32.6759C31.1253 32.7267 31.1161 32.7798 31.0887 32.824Z" fill="#263238"/>
<path d="M31.0092 33.1919C31.0108 33.2127 31.0083 33.2336 31.0018 33.2534C30.9952 33.2732 30.9848 33.2916 30.9711 33.3073C30.9574 33.323 30.9407 33.3359 30.922 33.3451C30.9033 33.3542 30.8829 33.3596 30.8621 33.3608C30.8299 33.3637 30.7976 33.3569 30.7693 33.3413C30.741 33.3256 30.718 33.3019 30.7033 33.273C30.6886 33.2442 30.6828 33.2116 30.6868 33.1795C30.6907 33.1473 30.7042 33.1171 30.7254 33.0927C30.7467 33.0683 30.7747 33.0508 30.806 33.0425C30.8372 33.0342 30.8702 33.0355 30.9008 33.0462C30.9313 33.0568 30.9579 33.0764 30.9772 33.1024C30.9966 33.1283 31.0077 33.1595 31.0092 33.1919Z" fill="#263238"/>
<path d="M30.248 33.1016L30.2723 34.0435L30.7674 33.8908L30.248 33.1016Z" fill="#CE7A63"/>
<path d="M29.7241 35.2282C29.3194 35.1755 28.5099 34.939 28.375 34.6133C28.4256 34.7784 28.526 34.9238 28.6624 35.0295C28.9079 35.2403 29.7241 35.4768 29.7241 35.4768V35.2282Z" fill="#CE7A63"/>
<path opacity="0.1" d="M28.5982 43.2139C28.0384 43.0787 27.4704 42.4679 27.7267 41.8693C27.7998 41.7012 27.9252 41.5613 28.0842 41.4706C28.1429 41.4372 28.2105 41.4231 28.2776 41.4304C28.3447 41.4377 28.4078 41.4659 28.4579 41.5111C28.1881 41.3341 27.7254 40.4733 27.6633 40.1598L27.3463 39.1003C27.3168 38.8579 27.3384 38.6121 27.4097 38.3787L26.5827 37.4219L26.4303 37.5273C26.2953 37.9422 26.3979 38.4111 26.5409 38.826L27.2842 41.1841C27.2842 41.1841 26.8997 42.1139 26.4545 42.9909C27.1235 43.3508 27.8618 43.5628 28.6195 43.6127C29.3773 43.6626 30.1369 43.5492 30.8471 43.2801C30.1 43.4002 29.337 43.3777 28.5982 43.2139Z" fill="black"/>
<path d="M38.3111 66.7247L35.6372 65.1787C35.3593 65.0138 35.2042 64.6003 35.2042 64.0679L35.1934 52.3203L37.8915 53.8785L37.8807 65.6638C37.8767 66.1828 38.044 66.553 38.3111 66.7247Z" fill="#2286FE"/>
<path opacity="0.2" d="M38.3111 66.7247L35.6372 65.1787C35.3593 65.0138 35.2042 64.6003 35.2042 64.0679L35.1934 52.3203L37.8915 53.8785L37.8807 65.6638C37.8767 66.1828 38.044 66.553 38.3111 66.7247Z" fill="black"/>
<path d="M38.3281 66.7359L38.3093 66.7251C38.0394 66.5535 37.8749 66.1845 37.8749 65.6643L37.8857 53.8789L35.1875 52.3207L37.5174 50.9599L37.5389 50.9477L37.8695 50.7559L38.2418 50.4964L38.2566 50.4869L38.2715 50.4761C38.2917 50.4626 38.3079 50.4477 38.3255 50.4342L38.347 50.4194L38.4118 50.3707L38.4739 50.3221C38.4909 50.3058 38.5085 50.291 38.5265 50.2775L38.5467 50.2612L38.5656 50.245C38.6007 50.218 38.6344 50.1883 38.6668 50.1599L38.718 50.1126L38.7369 50.0923C38.8003 50.0342 38.8637 49.9707 38.9217 49.9072L38.9433 49.8869C38.9676 49.8608 38.9905 49.8351 39.0121 49.8099C39.0236 49.7978 39.034 49.7847 39.0432 49.7707C39.0541 49.7604 39.064 49.7491 39.0728 49.7369V49.7274L39.0809 49.7153L39.0958 49.6991L39.1673 49.6085C39.1862 49.5815 39.2064 49.5531 39.2239 49.5247L39.2388 49.5072V49.4991C39.2644 49.4626 39.2873 49.4261 39.3103 49.3896C39.3332 49.3531 39.3494 49.3261 39.3683 49.2937L39.375 49.2815C39.3899 49.2518 39.4061 49.2247 39.4209 49.195L39.4438 49.1531C39.4627 49.1166 39.4803 49.0801 39.4965 49.0423L39.5261 48.9734C39.538 48.9508 39.5479 48.9273 39.5558 48.9031C39.5657 48.8841 39.5739 48.8642 39.5801 48.8436C39.5868 48.8247 39.5963 48.8031 39.603 48.7842C39.6206 48.7369 39.6354 48.6882 39.6516 48.6382C39.6637 48.599 39.6772 48.5572 39.688 48.5153C39.688 48.5153 39.688 48.5044 39.688 48.4977C39.7015 48.4531 39.711 48.4072 39.7204 48.3626V48.3477C39.7204 48.3126 39.7366 48.2761 39.7433 48.2382C39.7528 48.1869 39.7636 48.1274 39.7703 48.072V48.0436C39.7703 48.0315 39.7703 48.0193 39.7703 48.0058C39.7711 48.0009 39.7711 47.9959 39.7703 47.9909C39.7697 47.9783 39.7697 47.9657 39.7703 47.9531C39.7771 47.8869 39.7825 47.818 39.7878 47.7585V47.7288V47.6544C39.7878 47.5571 39.7905 47.4585 39.7959 47.3585V47.3342C39.7959 47.3058 39.7959 47.2801 39.7959 47.2504V47.1774C39.7959 47.145 39.7959 47.1098 39.7959 47.0787C39.7967 47.0702 39.7967 47.0616 39.7959 47.0531C39.7966 47.0445 39.7966 47.0359 39.7959 47.0274V46.9909C39.7959 46.9409 39.7892 46.8923 39.7852 46.8477V46.8396C39.7852 46.7963 39.7757 46.7558 39.7717 46.7166C39.7473 46.5339 39.7099 46.3533 39.6597 46.176C39.6287 46.0679 39.5949 45.9693 39.5653 45.876C39.4865 45.6643 39.4313 45.4445 39.4007 45.2206C39.4007 45.176 39.3899 45.1301 39.3858 45.0855C39.3818 45.0409 39.3858 44.9814 39.3764 44.926V44.9017C39.3751 44.8886 39.3751 44.8755 39.3764 44.8625C39.3738 44.8342 39.3738 44.8057 39.3764 44.7773C39.3764 44.1544 39.7541 43.426 40.2223 43.1557C40.2687 43.1283 40.3186 43.1074 40.3707 43.0935C40.4041 43.0844 40.4385 43.079 40.4732 43.0773C40.5063 43.0732 40.5399 43.0732 40.573 43.0773C40.589 43.0795 40.6048 43.0831 40.6202 43.0881C40.6673 43.1021 40.7126 43.1216 40.7551 43.1462L43.5005 44.7125C43.5164 44.7214 43.5317 44.7314 43.5464 44.7422C43.7056 44.8638 43.7946 45.0949 43.7946 45.3949C43.7946 45.4355 43.7946 45.4774 43.7865 45.5422V45.5598C43.7679 45.9498 43.7055 46.3365 43.6003 46.7125C43.5774 46.8085 43.5545 46.9044 43.5329 47.0058C43.5234 47.0396 43.5167 47.0747 43.51 47.1085C43.4857 47.2112 43.4641 47.3179 43.4465 47.4328C43.4398 47.4693 43.4344 47.5085 43.429 47.5463L45.3177 46.4747L48.0159 48.0328V51.1329C48.0159 52.0032 47.9498 52.5843 47.8149 52.9086C47.7204 53.1329 47.5761 53.2735 47.2428 53.4654C46.9812 53.6271 46.6814 53.7162 46.374 53.7235C46.2769 53.7235 46.1852 53.741 46.0921 53.7532L45.9828 53.7721C45.9477 53.7789 45.914 53.7856 45.8776 53.7951C45.8128 53.81 45.7427 53.8316 45.6779 53.8532L45.624 53.8735C45.5222 53.913 45.4226 53.9581 45.3258 54.0086C45.3134 54.0136 45.3017 54.0199 45.2907 54.0275H45.2813L45.2651 54.0356C45.2287 54.0519 45.1869 54.0721 45.1437 54.0965C44.7438 54.3457 44.4042 54.6808 44.1494 55.0776C44.0144 55.2785 43.8958 55.49 43.7946 55.71C43.6982 55.9181 43.6162 56.1326 43.5491 56.3519L43.6975 56.1938C43.8379 56.0356 43.9874 55.8858 44.1454 55.7451C44.2771 55.631 44.4194 55.5296 44.5703 55.4424C44.7862 55.3181 44.9589 55.2181 45.087 55.2978L47.7609 56.8938L47.7919 56.9168C47.7994 56.9238 47.8061 56.9315 47.8122 56.9398C47.8171 56.943 47.8208 56.9478 47.8229 56.9533C47.8308 56.9619 47.8375 56.9715 47.8432 56.9817C47.8432 56.9817 47.8432 56.9817 47.8432 56.9884C47.8515 57.0013 47.8587 57.0149 47.8648 57.0289C47.9336 57.1749 47.9794 57.4344 47.9997 57.8695C47.9997 57.9168 47.9997 57.9668 47.9997 58.0209C47.9997 58.156 47.9997 58.3101 47.9997 58.479V61.5777L39.1902 66.6724C39.047 66.7604 38.8854 66.8141 38.718 66.8292C38.6651 66.8339 38.6118 66.8339 38.5588 66.8292C38.5413 66.8283 38.524 66.8246 38.5076 66.8183C38.4441 66.7998 38.3836 66.7721 38.3281 66.7359Z" fill="#2286FE"/>
<path opacity="0.1" d="M45.0886 55.2981L47.7598 56.894C47.633 56.813 47.4589 56.9157 47.2431 57.04C47.0923 57.1267 46.9504 57.2281 46.8195 57.3427C46.6604 57.4821 46.5104 57.6315 46.3702 57.79C46.0616 58.1486 45.7063 58.464 45.3139 58.7279C45.2613 58.7657 45.1992 58.8049 45.1412 58.8387C44.1631 59.4049 43.3672 58.8022 43.3672 57.4954C43.3721 57.1064 43.4343 56.7202 43.552 56.3494C43.6019 56.2967 43.6491 56.244 43.6977 56.194C43.8381 56.0358 43.9877 55.886 44.1456 55.7454C44.2769 55.6312 44.4187 55.5298 44.5692 55.4427C44.7864 55.3183 44.9618 55.2183 45.0886 55.2981Z" fill="black"/>
<path opacity="0.1" d="M43.4243 47.5476L45.3225 46.4746L48.0206 48.0341L45.7016 49.3747L45.0041 49.7395H44.996H44.9892L44.9393 49.7612L44.9137 49.7706L44.7977 49.8179L44.7329 49.8409L44.7154 49.8477C44.6776 49.8598 44.6412 49.8733 44.6061 49.8828L44.5306 49.9031C44.4914 49.9139 44.455 49.9206 44.4186 49.9274H44.4064L44.3565 49.9355C44.3118 49.9416 44.2668 49.9452 44.2216 49.9463H44.1785C44.1259 49.9457 44.0735 49.9402 44.022 49.9301L43.995 49.9233C43.9553 49.9125 43.9165 49.8985 43.879 49.8814C43.8678 49.8777 43.8574 49.8722 43.8479 49.8652C43.8141 49.8458 43.7817 49.8241 43.7508 49.8004H43.7441L43.7211 49.7801C43.6862 49.7477 43.6546 49.7119 43.6267 49.6733L43.6132 49.6571C43.5403 49.5447 43.4866 49.4209 43.454 49.2909L43.4473 49.2679C43.4297 49.199 43.4176 49.1328 43.4054 49.0584V49.022C43.3933 48.9409 43.3838 48.8544 43.3785 48.7665C43.3704 48.6503 43.3677 48.549 43.3677 48.4476C43.3639 48.1466 43.3828 47.8458 43.4243 47.5476Z" fill="black"/>
<path opacity="0.1" d="M37.8857 53.8793L35.1875 52.3211L37.5174 50.9603L37.5376 50.9481H37.5457L37.8762 50.7562L38.2499 50.4968L38.2634 50.4873L38.2782 50.4765C38.2985 50.463 38.3147 50.4481 38.3322 50.4346L38.3524 50.4197L38.4185 50.3711L38.4806 50.3224C38.4977 50.3062 38.5152 50.2914 38.5332 50.2778L38.5534 50.2616L38.5723 50.2454C38.6074 50.2184 38.6411 50.1887 38.6735 50.1603L38.7248 50.113L38.7437 50.0927C38.8071 50.0346 38.8705 49.9711 38.9285 49.9076L38.9501 49.8873C38.9744 49.8612 38.9973 49.8355 39.0189 49.8103C39.0304 49.7982 39.0407 49.785 39.0499 49.7711C39.0607 49.7603 39.0688 49.7481 39.0782 49.7373L39.0863 49.7278L39.0958 49.717L39.1093 49.6995C39.1335 49.6697 39.1592 49.64 39.1808 49.6089L39.2388 49.5265L39.2523 49.5076V49.4995C39.2779 49.463 39.3008 49.4265 39.3238 49.39C39.3467 49.3535 39.3629 49.3265 39.3818 49.294V49.2805C39.398 49.2522 39.4142 49.2251 39.429 49.1954C39.4379 49.1819 39.446 49.1679 39.4533 49.1535C39.4695 49.1157 39.4884 49.0792 39.5045 49.0427L39.5342 48.9738C39.545 48.9521 39.5545 48.9292 39.5653 48.9048C39.576 48.8805 39.5814 48.8657 39.5882 48.844C39.5949 48.8224 39.6044 48.8035 39.6111 48.7846C39.6287 48.7359 39.6435 48.69 39.6597 48.6386C39.6718 48.5994 39.6853 48.5575 39.6961 48.5156C39.6961 48.5156 39.6961 48.5048 39.6961 48.4981C39.7069 48.4548 39.719 48.4075 39.7285 48.3629V48.3494C39.7352 48.3116 39.7433 48.2765 39.7501 48.2386C39.7595 48.1873 39.7703 48.1278 39.7771 48.0724V48.044C39.7771 48.0332 39.7771 48.0197 39.7771 48.0062C39.7778 48.0013 39.7778 47.9962 39.7771 47.9913C39.7771 47.9792 39.7771 47.9656 39.7771 47.9521C39.7852 47.8846 39.7905 47.817 39.7946 47.7589V47.7291C39.7946 47.7035 39.7946 47.6818 39.7946 47.6548C39.7946 47.5575 39.7973 47.4589 39.8027 47.3589V47.3345C39.8027 47.3062 39.8027 47.2805 39.8027 47.2508V47.1778C39.8027 47.1454 39.8027 47.1102 39.8027 47.0778V47.0535C39.8034 47.0449 39.8034 47.0363 39.8027 47.0278V46.9913C39.8027 46.9413 39.7959 46.8926 39.7919 46.848V46.8386L39.7798 46.717C39.7554 46.5343 39.7179 46.3537 39.6678 46.1764C39.6381 46.067 39.6044 45.9683 39.5733 45.8764C39.4946 45.6647 39.4394 45.4449 39.4088 45.221C39.4088 45.1764 39.398 45.1304 39.3939 45.0859C39.3899 45.0413 39.3939 44.9831 39.3858 44.9264V44.9021C39.3858 44.8885 39.3858 44.875 39.3858 44.8615C39.3832 44.8332 39.3832 44.8047 39.3858 44.7764C39.3858 44.1534 39.7636 43.425 40.2317 43.1547C40.2781 43.1273 40.328 43.1064 40.3801 43.0926C40.4136 43.0834 40.448 43.078 40.4826 43.0763C40.5157 43.0709 40.5494 43.0709 40.5825 43.0763C40.5985 43.0785 40.6143 43.0821 40.6297 43.0872C40.6768 43.1012 40.722 43.1207 40.7646 43.1453L43.5005 44.7129C43.4432 44.6797 43.379 44.6603 43.313 44.6561C43.265 44.6543 43.217 44.6584 43.17 44.6683C43.0915 44.6859 43.0164 44.716 42.9474 44.7575C42.8649 44.8066 42.7884 44.8651 42.7194 44.9318C42.5307 45.118 42.3808 45.3399 42.2782 45.5845C42.254 45.6372 42.2351 45.6913 42.2148 45.7467C42.1892 45.8242 42.1681 45.9032 42.1514 45.9832C42.1219 46.1117 42.1065 46.2431 42.1056 46.3751C42.1056 46.4116 42.1056 46.4534 42.1056 46.4994V46.5129C42.1111 46.732 42.1424 46.9497 42.1986 47.1616C42.2067 47.1967 42.2175 47.2305 42.227 47.2643C42.2486 47.3332 42.2701 47.3994 42.2917 47.467C42.3228 47.5602 42.3565 47.6575 42.3875 47.767C42.3983 47.8048 42.4078 47.8427 42.4172 47.8805C42.4266 47.9183 42.4361 47.9602 42.4469 48.0021C42.4768 48.1431 42.4989 48.2857 42.513 48.4292V48.4359C42.5117 48.4598 42.5117 48.4837 42.513 48.5075V48.5805V48.5994V48.6184C42.513 48.6346 42.513 48.6508 42.513 48.6684C42.5143 48.685 42.5143 48.7017 42.513 48.7184C42.513 48.7346 42.513 48.7521 42.513 48.7684V48.8427C42.513 48.8684 42.513 48.8954 42.513 48.9251V48.9373C42.513 48.9873 42.513 49.0373 42.513 49.0873C42.513 49.1373 42.513 49.1859 42.5062 49.2359C42.5062 49.2603 42.5062 49.2859 42.5062 49.3089V49.3386C42.5062 49.4022 42.4968 49.467 42.4887 49.5319C42.4887 49.563 42.4806 49.5927 42.4766 49.6251V49.6508L42.4482 49.8197L42.4239 49.9292V49.9427C42.4239 49.9684 42.4132 49.9941 42.4051 50.0211C42.397 50.0481 42.3916 50.0724 42.3848 50.0954C42.3781 50.1184 42.3848 50.117 42.3781 50.1278C42.3713 50.1387 42.3578 50.1887 42.3497 50.2197C42.3349 50.2684 42.3187 50.317 42.3012 50.3643C42.2836 50.4116 42.2702 50.4454 42.2553 50.4846C42.2405 50.5238 42.2162 50.5779 42.196 50.6197L42.1406 50.7333C42.1298 50.7535 42.1191 50.7765 42.1069 50.7968L42.0732 50.8603L42.0651 50.8738C42.0567 50.8906 42.0472 50.9068 42.0368 50.9225L42.0273 50.9387C42.0215 50.9492 42.0147 50.9591 42.0071 50.9684C41.9841 51.0062 41.9612 51.0427 41.9369 51.0792V51.0873L41.9234 51.1062C41.9144 51.1204 41.9045 51.1339 41.8938 51.1468C41.8851 51.1608 41.8756 51.1744 41.8654 51.1873L41.8398 51.2211C41.8256 51.2413 41.8103 51.2607 41.7939 51.2792L41.7804 51.2968L41.7656 51.3171L41.7346 51.3535L41.7251 51.3644C41.7251 51.3725 41.7116 51.3819 41.7035 51.39L41.6685 51.4292C41.659 51.4414 41.6469 51.4535 41.6347 51.4671L41.6145 51.4873C41.5559 51.5524 41.4937 51.6142 41.4283 51.6725L41.4094 51.6927L41.3568 51.74C41.3258 51.7698 41.2921 51.7981 41.257 51.8265L41.2381 51.8414L41.2287 51.8509L41.2192 51.859L41.1666 51.9022L41.0317 51.9995L41.0115 52.0157L40.9575 52.0563L40.9278 52.0765L40.5541 52.336L40.2236 52.5279L40.2128 52.536L40.1912 52.5468L37.8857 53.8793Z" fill="black"/>
<mask id="mask0_1096_50744" style="mask-type:luminance" maskUnits="userSpaceOnUse" x="43" y="40" width="17" height="22">
<path d="M45.1378 57.5964C45.1661 57.5802 45.1985 57.5572 45.2335 57.5329C45.5287 57.3333 45.7956 57.0947 46.0268 56.8234C46.1469 56.6883 46.2534 56.5801 46.3749 56.4626L46.3937 56.4437L46.4288 56.4099L46.445 56.3937C46.5057 56.3369 46.5651 56.2842 46.6244 56.2328L47.7428 56.9018C47.7658 56.916 47.7859 56.9343 47.8022 56.9558C47.8118 56.9672 47.8204 56.9794 47.8278 56.9923V57.0004C47.8349 57.0126 47.8412 57.0253 47.8467 57.0383V57.0504L47.8629 57.0923C47.8629 57.0923 47.8629 57.1031 47.8629 57.1085C47.8686 57.1236 47.8736 57.1389 47.8777 57.1545C47.8777 57.1612 47.8777 57.168 47.8777 57.1748C47.8777 57.1815 47.8872 57.2112 47.8926 57.2315V57.2491C47.8926 57.2734 47.902 57.2991 47.9074 57.3275C47.9074 57.3585 47.9169 57.391 47.9223 57.4248V57.4329L47.9344 57.5302C47.9344 57.541 47.9344 57.5518 47.9344 57.5626L47.9425 57.6464C47.9425 57.6612 47.9425 57.6761 47.9425 57.6896C47.9425 57.7031 47.9425 57.745 47.9492 57.7748C47.956 57.8045 47.9492 57.8086 47.9492 57.8261V57.914C47.9492 57.9329 47.9492 57.9531 47.9492 57.9734C47.9492 57.9937 47.9492 58.0369 47.9492 58.0694C47.9492 58.1018 47.9492 58.1086 47.9492 58.1288C47.9492 58.1491 47.9492 58.2059 47.9492 58.245V58.2991C47.9492 58.3586 47.9492 58.418 47.9492 58.4815V61.5775L59.0117 55.1774V53.4301C59.0123 53.4197 59.0123 53.4094 59.0117 53.399V40.3906L56.6912 41.7325L56.6481 41.7582L56.6211 41.7744L56.1638 42.0582C55.9806 42.1796 55.8045 42.3113 55.6363 42.4528L55.6255 42.4623L55.5972 42.4853C55.5553 42.5204 55.5162 42.5569 55.4771 42.5934L55.4663 42.6042L55.4164 42.6528C55.3799 42.688 55.3449 42.7231 55.3098 42.7596L55.2437 42.8312C55.2113 42.8677 55.1789 42.9042 55.1479 42.942C55.1169 42.9799 55.1074 42.992 55.0845 43.0231C55.0616 43.0542 55.0238 43.1015 54.9955 43.1407L54.9469 43.2123L54.9361 43.2312L54.9226 43.2501C54.8997 43.2853 54.8767 43.3204 54.8565 43.3556C54.8363 43.3907 54.8255 43.4083 54.812 43.4366L54.7998 43.4569C54.7594 43.5326 54.7189 43.6123 54.6838 43.6934L54.6744 43.7137C54.6595 43.7475 54.6434 43.7812 54.6299 43.8164C54.6164 43.8515 54.6029 43.888 54.5907 43.9245L54.5813 43.9515C54.5665 43.9934 54.5516 44.0339 54.5395 44.0772C54.5273 44.1204 54.5138 44.165 54.5017 44.2123C54.4896 44.2596 54.4788 44.3042 54.468 44.3475C54.4572 44.3907 54.4491 44.4367 54.441 44.4826C54.4329 44.5285 54.4235 44.5799 54.4167 44.6299V44.6394C54.4167 44.6799 54.4046 44.7204 54.3992 44.7623C54.3938 44.8042 54.3884 44.8704 54.383 44.9286V44.961C54.383 44.9921 54.383 45.0232 54.3762 45.0542C54.3762 45.1205 54.3762 45.1894 54.3762 45.2867V45.3002C54.3762 45.3178 54.3762 45.334 54.3762 45.3515C54.3656 45.8494 54.448 46.3448 54.6191 46.8124C54.7322 47.1154 54.7951 47.435 54.8052 47.7583V47.7732C54.8052 47.8178 54.812 47.8597 54.812 47.8975C54.8055 48.2281 54.7204 48.5524 54.5638 48.8435C54.4305 49.1196 54.2237 49.3534 53.9661 49.5192C53.9253 49.5421 53.883 49.5619 53.8393 49.5786L53.8177 49.5868C53.7792 49.6 53.7394 49.609 53.699 49.6138H53.6774C53.6393 49.6179 53.6009 49.6179 53.5627 49.6138H53.5546C53.5162 49.6076 53.479 49.5958 53.444 49.5786L53.4332 49.5719L52.2663 48.8854C52.2663 48.8503 52.2663 48.8165 52.2757 48.7813C52.2852 48.7462 52.2852 48.7003 52.2906 48.6597C52.3014 48.5759 52.3121 48.4948 52.3256 48.4165C52.3391 48.3381 52.3499 48.2732 52.3634 48.2043C52.3715 48.1678 52.3783 48.1327 52.385 48.0989C52.4174 47.9489 52.4511 47.7989 52.4902 47.6381C52.6068 47.2255 52.6685 46.7993 52.6737 46.3705C52.6737 45.9651 52.6386 45.7826 52.5294 45.7178L51.1992 44.9488L48.9408 46.2529L48.0113 45.7124V46.7935L47.2018 47.2651L46.9428 47.4137L48.0221 48.0354V49.6408V51.1354C48.0221 52.0057 47.956 52.5868 47.8211 52.9112C47.7266 53.1341 47.5823 53.2747 47.2491 53.4679C46.987 53.6298 46.6867 53.7189 46.3789 53.726C46.2845 53.726 46.19 53.7436 46.0997 53.7558L45.989 53.7747C45.9553 53.7814 45.9202 53.7882 45.8838 53.7977C45.8163 53.8136 45.7497 53.833 45.6841 53.8558H45.6706L45.6302 53.8693C45.5283 53.9086 45.4287 53.9537 45.332 54.0044L45.2956 54.022H45.2875H45.2713C45.2293 54.04 45.1884 54.0603 45.1486 54.0828C44.7492 54.3318 44.4104 54.667 44.157 55.0639C44.0922 55.1585 44.0315 55.2571 43.9735 55.3585L43.9506 55.4031C43.9007 55.4923 43.8534 55.5828 43.8157 55.6734L43.8062 55.695C43.7096 55.903 43.6276 56.1175 43.5607 56.3369C43.5001 56.5349 43.455 56.7373 43.4258 56.9423L44.6076 57.6261C44.691 57.6674 44.7837 57.6863 44.8766 57.6811C44.9695 57.6759 45.0594 57.6467 45.1378 57.5964Z" fill="white"/>
</mask>
<g mask="url(#mask0_1096_50744)">
<path d="M48.171 53.8915L45.2988 52.2307L45.3622 52.1428L45.369 52.1347L45.4 52.0901C45.4459 52.0225 45.489 51.955 45.5349 51.8833L45.5471 51.8617C45.5889 51.7874 45.6294 51.7063 45.6685 51.6212C45.6766 51.6009 45.686 51.5806 45.6941 51.559V51.5455C45.7143 51.4969 45.7386 51.4387 45.7616 51.3739C45.7724 51.3455 45.7818 51.3171 45.7926 51.286V51.2685C45.8088 51.2198 45.825 51.1712 45.8385 51.1212C45.8519 51.0712 45.8614 51.0414 45.8722 50.9995C45.883 50.9577 45.8938 50.909 45.9059 50.8644C45.9181 50.8198 45.9248 50.7752 45.9329 50.7293C45.941 50.6833 45.9504 50.6441 45.9572 50.6022V50.582C45.9653 50.5414 45.972 50.4982 45.9788 50.4549C45.9855 50.4117 45.9855 50.4049 45.9896 50.3806V50.3536C46.0192 50.1374 46.0368 49.9103 46.0516 49.6644V49.6374L46.0665 48.9738V45.8184L48.9278 47.4968V50.6536L48.913 51.3185V51.3441C48.9009 51.5901 48.882 51.8171 48.8536 52.032V52.0604C48.8536 52.0861 48.8469 52.1104 48.8429 52.1361C48.8388 52.1617 48.8307 52.2212 48.8226 52.2617V52.2807C48.8159 52.3252 48.8078 52.3658 48.7997 52.409C48.7916 52.4523 48.7808 52.4969 48.77 52.5442C48.7592 52.5915 48.7498 52.6361 48.739 52.6793C48.7282 52.7226 48.716 52.7617 48.7052 52.8009C48.6945 52.8401 48.6756 52.8996 48.658 52.9469V52.9672C48.6486 52.9955 48.6378 53.0266 48.627 53.055C48.6054 53.1172 48.5798 53.1766 48.5595 53.2266L48.5528 53.2388L48.5285 53.3009C48.4894 53.3847 48.4489 53.4658 48.4071 53.5428L48.395 53.5645C48.3558 53.632 48.3127 53.6996 48.2668 53.7712C48.2572 53.7861 48.2464 53.8001 48.2344 53.8131V53.8226L48.171 53.8915Z" fill="#2286FE"/>
<path d="M46.0675 59.3789L46.0756 56.7735L46.0352 56.8154C46.1539 56.6802 46.2632 56.5708 46.3819 56.4546L46.4021 56.4356L46.4372 56.4019L46.4615 56.3883C46.6883 56.1694 46.9401 55.978 47.2116 55.8181L47.2412 55.8032H47.248L47.2682 55.791C47.333 55.7545 47.4031 55.7221 47.4611 55.691C47.4787 55.6816 47.4976 55.6748 47.5151 55.6667L47.534 55.6572C47.5772 55.641 47.623 55.6208 47.6689 55.6059C47.6932 55.5951 47.7161 55.5897 47.7377 55.5816H47.7485C47.7876 55.5721 47.8254 55.5613 47.8605 55.5545C47.8955 55.5478 47.9144 55.5437 47.9401 55.541C47.9733 55.5384 48.0067 55.5384 48.0399 55.541C48.065 55.5397 48.0903 55.5397 48.1154 55.541C48.145 55.5436 48.1744 55.5485 48.2031 55.5559H48.2153L48.2706 55.5694C48.2987 55.5793 48.3258 55.592 48.3515 55.6072C48.3804 55.6213 48.408 55.6381 48.4338 55.6572C48.465 55.6795 48.4944 55.7044 48.5215 55.7316C48.5369 55.7478 48.5513 55.765 48.5647 55.7829L48.5741 55.7964L48.5822 55.8059C48.5962 55.8237 48.6093 55.8422 48.6213 55.8613C48.6385 55.8872 48.6538 55.9143 48.6672 55.9424C48.6807 55.9681 48.6928 55.991 48.7036 56.0167C48.7144 56.0424 48.7306 56.0816 48.7441 56.1167C48.7576 56.1518 48.7616 56.1681 48.7697 56.1951C48.7778 56.2221 48.7927 56.2708 48.8035 56.3113L48.8196 56.3789V56.3897C48.8291 56.4343 48.8399 56.4802 48.848 56.5248C48.848 56.537 48.848 56.5505 48.848 56.564V56.5802C48.8777 56.7708 48.8992 56.9856 48.9141 57.2384V57.2492L48.9289 57.8519V61.0519L46.0675 59.3789Z" fill="#2286FE"/>
<path d="M44.5501 57.6207L41.7265 55.9828C41.539 55.8828 41.4297 55.6206 41.4297 55.2733C41.4416 54.8614 41.5708 54.4614 41.802 54.1206L41.856 54.0449C41.8425 54.0665 41.8263 54.0882 41.8128 54.1084L44.6837 55.7693C44.6761 55.7786 44.6694 55.7886 44.6634 55.799C44.4314 56.139 44.3021 56.5387 44.2911 56.9504C44.2911 57.2761 44.3909 57.5085 44.5501 57.6207Z" fill="#2286FE"/>
<path d="M48.171 53.8915L45.2988 52.2307L45.3622 52.1428L45.369 52.1347L45.4 52.0901C45.4459 52.0225 45.489 51.955 45.5349 51.8833L45.5471 51.8617C45.5889 51.7874 45.6294 51.7063 45.6685 51.6212C45.6766 51.6009 45.686 51.5806 45.6941 51.559V51.5455C45.7143 51.4969 45.7386 51.4387 45.7616 51.3739C45.7724 51.3455 45.7818 51.3171 45.7926 51.286V51.2685C45.8088 51.2198 45.825 51.1712 45.8385 51.1212C45.8519 51.0712 45.8614 51.0414 45.8722 50.9995C45.883 50.9577 45.8938 50.909 45.9059 50.8644C45.9181 50.8198 45.9248 50.7752 45.9329 50.7293C45.941 50.6833 45.9504 50.6441 45.9572 50.6022V50.582C45.9653 50.5414 45.972 50.4982 45.9788 50.4549C45.9855 50.4117 45.9855 50.4049 45.9896 50.3806V50.3536C46.0192 50.1374 46.0368 49.9103 46.0516 49.6644V49.6374L46.0665 48.9738V45.8184L48.9278 47.4968V50.6536L48.913 51.3185V51.3441C48.9009 51.5901 48.882 51.8171 48.8536 52.032V52.0604C48.8536 52.0861 48.8469 52.1104 48.8429 52.1361C48.8388 52.1617 48.8307 52.2212 48.8226 52.2617V52.2807C48.8159 52.3252 48.8078 52.3658 48.7997 52.409C48.7916 52.4523 48.7808 52.4969 48.77 52.5442C48.7592 52.5915 48.7498 52.6361 48.739 52.6793C48.7282 52.7226 48.716 52.7617 48.7052 52.8009C48.6945 52.8401 48.6756 52.8996 48.658 52.9469V52.9672C48.6486 52.9955 48.6378 53.0266 48.627 53.055C48.6054 53.1172 48.5798 53.1766 48.5595 53.2266L48.5528 53.2388L48.5285 53.3009C48.4894 53.3847 48.4489 53.4658 48.4071 53.5428L48.395 53.5645C48.3558 53.632 48.3127 53.6996 48.2668 53.7712C48.2572 53.7861 48.2464 53.8001 48.2344 53.8131V53.8226L48.171 53.8915Z" fill="#263238"/>
<path d="M46.0675 59.3789L46.0756 56.7735L46.0352 56.8154C46.1539 56.6802 46.2632 56.5708 46.3819 56.4546L46.4021 56.4356L46.4372 56.4019L46.4615 56.3883C46.6883 56.1694 46.9401 55.978 47.2116 55.8181L47.2412 55.8032H47.248L47.2682 55.791C47.333 55.7545 47.4031 55.7221 47.4611 55.691C47.4787 55.6816 47.4976 55.6748 47.5151 55.6667L47.534 55.6572C47.5772 55.641 47.623 55.6208 47.6689 55.6059C47.6932 55.5951 47.7161 55.5897 47.7377 55.5816H47.7485C47.7876 55.5721 47.8254 55.5613 47.8605 55.5545C47.8955 55.5478 47.9144 55.5437 47.9401 55.541C47.9733 55.5384 48.0067 55.5384 48.0399 55.541C48.065 55.5397 48.0903 55.5397 48.1154 55.541C48.145 55.5436 48.1744 55.5485 48.2031 55.5559H48.2153L48.2706 55.5694C48.2987 55.5793 48.3258 55.592 48.3515 55.6072C48.3804 55.6213 48.408 55.6381 48.4338 55.6572C48.465 55.6795 48.4944 55.7044 48.5215 55.7316C48.5369 55.7478 48.5513 55.765 48.5647 55.7829L48.5741 55.7964L48.5822 55.8059C48.5962 55.8237 48.6093 55.8422 48.6213 55.8613C48.6385 55.8872 48.6538 55.9143 48.6672 55.9424C48.6807 55.9681 48.6928 55.991 48.7036 56.0167C48.7144 56.0424 48.7306 56.0816 48.7441 56.1167C48.7576 56.1518 48.7616 56.1681 48.7697 56.1951C48.7778 56.2221 48.7927 56.2708 48.8035 56.3113L48.8196 56.3789V56.3897C48.8291 56.4343 48.8399 56.4802 48.848 56.5248C48.848 56.537 48.848 56.5505 48.848 56.564V56.5802C48.8777 56.7708 48.8992 56.9856 48.9141 57.2384V57.2492L48.9289 57.8519V61.0519L46.0675 59.3789Z" fill="#263238"/>
<path d="M44.5501 57.6207L41.7265 55.9828C41.539 55.8828 41.4297 55.6206 41.4297 55.2733C41.4416 54.8614 41.5708 54.4614 41.802 54.1206L41.856 54.0449C41.8425 54.0665 41.8263 54.0882 41.8128 54.1084L44.6837 55.7693C44.6761 55.7786 44.6694 55.7886 44.6634 55.799C44.4314 56.139 44.3021 56.5387 44.2911 56.9504C44.2911 57.2761 44.3909 57.5085 44.5501 57.6207Z" fill="#263238"/>
<path d="M44.5745 57.6305L44.5556 57.6197C44.3964 57.5075 44.2966 57.2751 44.2966 56.9548C44.3077 56.5432 44.4369 56.1434 44.669 55.8035C44.6749 55.793 44.6817 55.7831 44.6892 55.7737L41.8184 54.1129C41.8319 54.0926 41.848 54.071 41.8615 54.0494C41.898 54.0021 41.9357 53.9575 41.9749 53.9142C41.9931 53.893 42.0125 53.8727 42.0329 53.8534C42.0527 53.8314 42.0744 53.8111 42.0976 53.7926C42.1531 53.7409 42.2142 53.6956 42.2797 53.6575C42.3038 53.6435 42.3285 53.6309 42.3539 53.6196L42.3863 53.6061H42.3944C42.5137 53.5424 42.64 53.493 42.7708 53.4588L42.8167 53.448C42.935 53.4239 43.055 53.4081 43.1755 53.4007C43.6004 53.3859 44.014 53.2596 44.3749 53.0345L44.4693 52.9764C44.4976 52.9602 44.5233 52.9426 44.5502 52.9237C44.5772 52.9048 44.5921 52.898 44.6123 52.8845H44.6204L44.7202 52.8115L44.8147 52.7372L44.8322 52.7237L44.847 52.7102L44.8578 52.7007L44.8983 52.6656C44.9104 52.6547 44.9253 52.6439 44.9374 52.6318C44.9496 52.6196 44.986 52.5885 45.0103 52.5642L45.044 52.5304L45.0588 52.5142L45.1182 52.452C45.1425 52.4264 45.1668 52.3993 45.1897 52.3723L45.1991 52.3615L45.2383 52.3156C45.2558 52.2912 45.2774 52.2669 45.2949 52.2412L48.1685 53.9034L48.2197 53.8332V53.8237C48.2317 53.8107 48.2425 53.7966 48.2521 53.7818C48.298 53.7115 48.3411 53.6467 48.3803 53.575L48.3924 53.5534C48.4342 53.4764 48.4747 53.3953 48.5138 53.3115L48.5381 53.2494L48.5449 53.2372C48.5651 53.1872 48.5907 53.1277 48.6123 53.0656C48.6231 53.0372 48.6339 53.0061 48.6433 52.9777V52.9575C48.6609 52.9102 48.6757 52.8615 48.6906 52.8115C48.7054 52.7615 48.7121 52.7318 48.7243 52.6899C48.7364 52.648 48.7459 52.5993 48.7553 52.5547C48.7648 52.5102 48.7755 52.4669 48.785 52.4196C48.7944 52.3723 48.8012 52.3358 48.8079 52.2912V52.2723C48.816 52.2318 48.8214 52.1899 48.8282 52.1466C48.8349 52.1034 48.8349 52.0966 48.839 52.071V52.0426C48.8673 51.8277 48.8862 51.6007 48.8983 51.3547V51.329L48.9132 50.6642V47.4979L46.0518 45.8195L47.2255 45.1438L47.8312 44.7938L48.3708 44.4803L48.5813 44.3613C48.6366 44.3343 48.6865 44.3046 48.7378 44.2803C48.9168 44.1819 49.1059 44.1031 49.3017 44.0451L49.361 44.0302C49.422 44.0157 49.4848 44.0111 49.5472 44.0167C49.5823 44.0167 49.6012 44.0478 49.6282 44.064L52.5233 45.7127C52.5511 45.7309 52.575 45.7545 52.5935 45.7822C52.6121 45.8098 52.6249 45.8409 52.6312 45.8735C52.6312 45.8965 52.6433 45.9235 52.6487 45.9519C52.6541 45.9803 52.6568 46.0127 52.6609 46.0479V46.1019C52.6609 46.1398 52.6609 46.1803 52.6609 46.2249C52.6609 46.2695 52.6609 46.3168 52.6609 46.3681C52.6609 46.4965 52.6609 46.6127 52.6447 46.7235C52.6447 46.7519 52.6447 46.779 52.6447 46.806C52.6447 46.833 52.6447 46.8587 52.6353 46.8857C52.6258 46.9127 52.6353 46.9371 52.6231 46.9641C52.611 46.9911 52.6164 47.0154 52.6123 47.0411C52.6029 47.0911 52.5948 47.1398 52.5853 47.1911C52.5759 47.2425 52.5638 47.2898 52.5543 47.3384C52.553 47.3419 52.553 47.3458 52.5543 47.3492C52.7864 46.8291 52.9117 46.2675 52.9226 45.6978C52.9226 45.6181 52.9226 45.5384 52.9145 45.4708C52.9009 45.0374 52.818 44.609 52.669 44.2019C52.5409 43.8646 52.4781 43.5059 52.4842 43.1451C52.4842 42.4775 52.4842 42.1099 53.898 41.2951L56.2063 39.9707L59.0771 41.6315V53.3967C59.0771 54.3764 58.4808 55.5183 57.7483 55.9427L48.9388 61.0374V57.84L48.9239 57.2373V57.2265C48.9091 56.9765 48.8875 56.7589 48.8578 56.5683V56.5521C48.8578 56.5386 48.8578 56.5251 48.8578 56.5129C48.8497 56.4643 48.839 56.4183 48.8295 56.3778V56.367L48.8133 56.2994C48.8025 56.2589 48.7931 56.221 48.7796 56.1832C48.7661 56.1454 48.7634 56.1305 48.754 56.1048C48.7445 56.0791 48.7283 56.0359 48.7135 56.0048C48.6986 55.9737 48.6906 55.9562 48.6771 55.9305C48.6637 55.9024 48.6484 55.8753 48.6312 55.8494C48.6191 55.8303 48.6061 55.8118 48.5921 55.794L48.584 55.7845L48.5745 55.771C48.5612 55.7531 48.5467 55.7359 48.5314 55.7197C48.5042 55.6925 48.4749 55.6677 48.4437 55.6454C48.4178 55.6262 48.3903 55.6095 48.3614 55.5954C48.3357 55.5801 48.3086 55.5674 48.2804 55.5575L48.2251 55.544H48.213C48.1842 55.5366 48.1549 55.5317 48.1253 55.5291C48.1001 55.5278 48.0749 55.5278 48.0497 55.5291C48.0165 55.5265 47.9831 55.5265 47.9499 55.5291C47.9243 55.5291 47.8986 55.5372 47.8703 55.5426C47.842 55.548 47.7975 55.5602 47.7583 55.5697H47.7476C47.726 55.5778 47.703 55.5832 47.6787 55.594C47.6329 55.6089 47.587 55.6291 47.5438 55.6454L47.525 55.6548C47.5074 55.6629 47.4885 55.6697 47.471 55.6791C47.4062 55.7102 47.3428 55.7426 47.2781 55.7791L47.2578 55.7913H47.2511L47.2214 55.8062C46.9465 55.9694 46.6919 56.1649 46.4632 56.3886L46.4457 56.4048L46.4106 56.4386L46.3904 56.4575C46.2717 56.5737 46.1624 56.69 46.0437 56.8183C45.8124 57.0896 45.5456 57.3283 45.2504 57.5278C45.2153 57.5521 45.1843 57.5751 45.1546 57.5913C45.0757 57.6402 44.9875 57.672 44.8956 57.6846C44.839 57.6955 44.7809 57.6955 44.7243 57.6846C44.6715 57.6757 44.6208 57.6574 44.5745 57.6305Z" fill="#37474F"/>
<path d="M48.9395 47.4952L46.0781 45.8168L47.2518 45.1411L47.8576 44.7911L48.3972 44.4776L48.6076 44.3586C48.663 44.3316 48.7129 44.3019 48.7641 44.2776C48.9432 44.1792 49.1322 44.1004 49.328 44.0424L49.3874 44.0276C49.4483 44.013 49.5112 44.0084 49.5736 44.014C49.6087 44.014 49.6275 44.0451 49.6545 44.0613L52.5146 45.7114C52.5045 45.7057 52.4935 45.7016 52.4822 45.6992C52.4684 45.6923 52.4531 45.6891 52.4377 45.6898C52.393 45.683 52.3475 45.683 52.3028 45.6898C52.2648 45.6944 52.2273 45.7025 52.1908 45.7141C51.8638 45.8208 51.5512 45.9674 51.2599 46.1506L50.7203 46.4641L50.1132 46.8155L48.9395 47.4952Z" fill="black"/>
<path d="M52.6414 50.7034C52.3715 50.4331 52.2366 49.9777 52.2366 49.4277C52.2353 49.3487 52.2384 49.2697 52.2461 49.1912C52.2461 49.1912 52.2461 49.1912 52.2461 49.1817C52.2461 49.0466 52.2596 48.9209 52.2744 48.7763C52.2744 48.7358 52.2839 48.6966 52.2893 48.656C52.2987 48.5722 52.3108 48.4898 52.3243 48.4128C52.3378 48.3357 52.3486 48.2695 52.3621 48.2006C52.3702 48.1641 52.3769 48.129 52.3837 48.0952C52.4161 47.9452 52.4498 47.7952 52.4889 47.6344C52.5145 47.533 52.5375 47.4357 52.5591 47.3384C52.7897 46.8217 52.914 46.2638 52.9247 45.6978C52.9247 45.6181 52.9247 45.5397 52.9152 45.4722C52.9024 45.0379 52.8199 44.6086 52.671 44.2005C52.5434 43.8636 52.4807 43.5054 52.4862 43.1451C52.4862 42.4789 52.4862 42.1113 53.9 41.2937L56.2083 39.9707L59.0792 41.6315L56.7614 42.9721C55.3476 43.7829 55.3476 44.1573 55.3476 44.8235C55.3405 45.1844 55.4032 45.5433 55.5324 45.8803C55.6802 46.2882 55.7626 46.7169 55.7766 47.1506C55.7766 47.2182 55.7861 47.2965 55.7847 47.3749C55.7847 48.6817 54.9901 50.206 54.0093 50.7709C53.4778 51.0804 52.98 51.0547 52.6414 50.7034Z" fill="black"/>
<path d="M44.6853 55.7747L41.8145 54.1138C41.8279 54.0936 41.8441 54.072 41.8576 54.0503C41.894 54.003 41.9318 53.9584 41.9709 53.9152C41.9892 53.894 42.0086 53.8737 42.029 53.8544C42.0488 53.8324 42.0705 53.812 42.0937 53.7936C42.1492 53.7419 42.2103 53.6966 42.2758 53.6584C42.2999 53.6445 42.3246 53.6318 42.35 53.6206L42.3824 53.6084H42.3905C42.5098 53.5447 42.6361 53.4953 42.7669 53.4611L42.8128 53.4503C42.9311 53.4262 43.0511 53.4104 43.1716 53.403C43.5965 53.3882 44.0101 53.2619 44.371 53.0368L44.4654 52.9787C44.4937 52.9625 44.5194 52.9449 44.5463 52.926C44.5674 52.9137 44.5877 52.9002 44.607 52.8854H44.6151L44.715 52.8125L44.8108 52.7381L44.8269 52.7246L44.8418 52.7111L44.8539 52.7017L44.893 52.6665C44.9052 52.6557 44.92 52.6449 44.9322 52.6327C44.9443 52.6206 44.9807 52.5895 45.005 52.5652L45.0387 52.5314C45.0434 52.5257 45.0489 52.5207 45.0549 52.5165L45.1129 52.453C45.1372 52.4273 45.1615 52.4003 45.1844 52.3733L45.1939 52.3625L45.233 52.3165C45.2506 52.2922 45.2721 52.2679 45.2897 52.2422L48.1646 53.9044L48.1524 53.9179C48.1335 53.9449 48.1133 53.9706 48.0931 53.9976C48.0728 54.0247 48.0674 54.026 48.0553 54.0409L48.0445 54.0517C48.0013 54.1017 47.9581 54.149 47.9096 54.1936L47.8826 54.2206C47.8759 54.2287 47.8678 54.2355 47.8624 54.2436L47.7882 54.3111L47.7099 54.3787L47.6991 54.3895L47.6654 54.4152C47.6033 54.4679 47.5386 54.5166 47.4725 54.5639C47.4725 54.5639 47.4644 54.5639 47.4576 54.5733C47.382 54.6273 47.3037 54.6774 47.2229 54.7233L47.1393 54.7666L47.0408 54.8166C46.8214 54.9309 46.5849 55.0089 46.3406 55.0476L46.2165 55.0639H46.1544L46.0398 55.0747C45.8689 55.0807 45.6997 55.1098 45.5366 55.1612C45.4866 55.1774 45.434 55.1977 45.376 55.222C45.3396 55.2382 45.2991 55.2571 45.2586 55.2787L45.2249 55.2923C45.1994 55.3032 45.1746 55.3159 45.1507 55.3301C45.0848 55.3696 45.0225 55.4148 44.9645 55.4652C44.9438 55.4826 44.924 55.5011 44.9052 55.5206C44.885 55.5395 44.8647 55.5612 44.8458 55.5828C44.8204 55.608 44.797 55.6351 44.7757 55.6639C44.7607 55.681 44.7467 55.6991 44.7339 55.7179C44.7109 55.7436 44.6961 55.7585 44.6853 55.7747Z" fill="black"/>
</g>
<mask id="mask1_1096_50744" style="mask-type:luminance" maskUnits="userSpaceOnUse" x="45" y="25" width="15" height="26">
<path d="M48.0193 46.7948V43.6867L48.0503 42.7407V42.7218C48.0503 42.6988 48.0503 42.6772 48.0503 42.6569V42.6258C48.0503 42.565 48.0611 42.5069 48.0678 42.4501C48.0694 42.4211 48.073 42.3922 48.0786 42.3637V42.3366C48.0786 42.2812 48.0921 42.2258 48.0989 42.1731C48.1056 42.1204 48.1097 42.1001 48.1164 42.0664C48.1272 42.0069 48.1353 41.9488 48.1474 41.892V41.8731C48.1474 41.8501 48.1569 41.8258 48.1623 41.8028C48.1785 41.7245 48.1987 41.6488 48.2176 41.5731C48.2176 41.5731 48.2176 41.5582 48.2243 41.5461C48.2473 41.4609 48.2769 41.3731 48.3066 41.2866L48.3188 41.2501C48.3457 41.1771 48.3768 41.1055 48.4051 41.0353C48.4051 41.0217 48.4186 41.0055 48.4267 40.9907V40.9798C48.4577 40.915 48.4888 40.8447 48.5238 40.7852L48.5508 40.7393C48.5916 40.666 48.6367 40.5952 48.6857 40.5271C48.7906 40.3738 48.9094 40.2304 49.0405 40.0987L49.0513 40.0879C49.1066 40.0339 49.17 39.9758 49.2375 39.9204L49.251 39.9068C49.3936 39.7909 49.5451 39.6865 49.7043 39.5947C49.875 39.4929 50.0559 39.4091 50.2439 39.3447C50.3384 39.3134 50.4349 39.2881 50.5326 39.269C50.6549 39.2482 50.7783 39.2342 50.9022 39.2271C51.1752 39.2201 51.443 39.1503 51.6847 39.023H51.6915C51.728 39.008 51.7635 38.9909 51.798 38.9717C52.0553 38.8059 52.2616 38.5721 52.3943 38.296C52.4345 38.2203 52.4701 38.1422 52.5009 38.0622C52.5921 37.8376 52.6401 37.5979 52.6426 37.3554C52.6426 37.3149 52.6426 37.2757 52.6426 37.2379C52.6434 37.2275 52.6434 37.2171 52.6426 37.2068C52.6416 37.1805 52.6384 37.1542 52.6331 37.1284C52.6331 37.1163 52.6331 37.1081 52.6331 37.0973C52.6331 37.0865 52.6223 37.0487 52.6169 37.0284C52.6115 37.0081 52.6102 37.0095 52.6075 37.0014C52.6048 36.9933 52.5926 36.9568 52.5832 36.9352L52.5738 36.9162C52.5653 36.8946 52.5549 36.8738 52.5427 36.8541C52.5407 36.8489 52.5375 36.8443 52.5333 36.8406C52.5211 36.8203 52.5076 36.8014 52.4928 36.7811C52.478 36.7608 52.4928 36.7811 52.4861 36.773L52.4348 36.7216C52.4156 36.7053 52.3948 36.6908 52.3727 36.6784L51.1464 35.9703C50.9511 36.1459 50.7651 36.3318 50.5893 36.5271C50.3412 36.8236 50.0464 37.0774 49.7164 37.2784C49.5046 37.4 49.3306 37.5014 49.2051 37.4284L48.0193 36.7419C48.0112 36.4716 48.0112 36.1784 48.0193 35.8676V33.25L45.1484 31.5905L55.3758 25.666L59.0979 27.8174L59.0911 41.6353L56.7721 42.9758C55.3596 43.7867 55.3596 44.161 55.3596 44.8272C55.3529 45.188 55.4152 45.5467 55.5431 45.884C55.6925 46.2915 55.7754 46.7204 55.7886 47.1543C55.7886 47.2205 55.7967 47.3002 55.798 47.38C55.7784 48.1274 55.5715 48.8579 55.1964 49.5043L52.8463 50.8625C52.7747 50.8177 52.7086 50.7646 52.6493 50.7044C52.3876 50.4341 52.2446 49.98 52.2446 49.43C52.2446 49.3557 52.2446 49.2773 52.2554 49.1908C52.2554 49.1908 52.2554 49.1908 52.2554 49.1827C52.2554 49.0476 52.2675 48.9219 52.2837 48.7773C52.2837 48.7381 52.2931 48.6962 52.2985 48.657C52.308 48.5719 52.3201 48.4908 52.3336 48.4138C52.3471 48.3368 52.3579 48.2705 52.3714 48.2016C52.3795 48.1651 52.3862 48.13 52.393 48.0962C52.424 47.9462 52.4591 47.7962 52.4996 47.6354C52.615 47.2226 52.6762 46.7965 52.6817 46.3678C52.6817 45.9624 52.6466 45.7799 52.536 45.7151L51.2071 44.9461L48.9474 46.2543L48.0193 46.7948Z" fill="white"/>
</mask>
<g mask="url(#mask1_1096_50744)">
<path d="M53.4643 49.576L50.5867 47.9111C50.5732 47.9042 50.5601 47.8966 50.5476 47.8881C50.387 47.7665 50.3128 47.5138 50.3128 47.2124C50.3098 47.1638 50.3098 47.1151 50.3128 47.0665V47.0489C50.3333 46.659 50.3961 46.2725 50.5003 45.8962C50.5462 45.7029 50.5948 45.4908 50.6352 45.2732L51.2585 44.9124L51.2828 44.8989L51.2976 44.8908L51.7887 44.6272L51.8022 44.6205C51.9565 44.5435 52.1161 44.4775 52.2798 44.4232H52.2987L52.3621 44.4029C52.3872 44.3947 52.4129 44.3884 52.439 44.384H52.4538C52.4835 44.3759 52.5145 44.3678 52.5455 44.3624L52.6265 44.3516C52.6575 44.3516 52.6899 44.3516 52.7209 44.3516C52.7519 44.3516 52.7695 44.3516 52.7924 44.3516C52.8246 44.3521 52.8567 44.3557 52.8882 44.3624H52.9003L52.9462 44.3705C52.9835 44.3805 53.02 44.3931 53.0555 44.4083L53.0879 44.4218C53.1843 44.4732 53.2671 44.5469 53.3293 44.6367C53.3349 44.6444 53.3399 44.6526 53.3442 44.661C53.3737 44.7035 53.399 44.7488 53.4197 44.7962C53.4197 44.8056 53.4292 44.8164 53.4332 44.8245V44.834C53.4535 44.884 53.471 44.9381 53.4885 44.9948L53.4993 45.0381C53.5172 45.1042 53.5307 45.1715 53.5398 45.2394L53.5466 45.2705C53.5727 45.4626 53.5849 45.6564 53.583 45.8502C53.5775 46.4385 53.4958 47.0236 53.3401 47.5908C53.2371 47.9677 53.1747 48.3546 53.154 48.7449V48.7611C53.154 48.8233 53.1472 48.8679 53.1472 48.9084C53.1472 49.2098 53.2349 49.4409 53.3941 49.5625L53.4643 49.576Z" fill="#2286FE"/>
<path d="M48.9458 46.2533L46.0858 44.5762V41.4762C46.0762 41.0214 46.1051 40.5666 46.1721 40.1167C46.272 39.564 46.423 39.3964 46.8575 39.145C47.12 38.9832 47.4208 38.8941 47.729 38.8869C47.8301 38.8788 47.9259 38.8694 48.0231 38.8545L48.1 38.841L48.2349 38.8126C48.2902 38.7964 48.3495 38.7802 48.4116 38.7585C48.4373 38.7511 48.4625 38.7421 48.4871 38.7315C48.586 38.6954 48.6824 38.6529 48.7758 38.6045L48.788 38.5977C48.8462 38.5742 48.9026 38.5462 48.9566 38.5139C49.4881 38.2072 49.9873 37.6031 50.3246 36.8599C50.3475 36.8112 50.3664 36.7626 50.3866 36.7153L50.3151 36.7869C50.4069 36.6963 50.4959 36.599 50.5849 36.499C50.8942 36.1423 51.2489 35.8279 51.6399 35.5639C51.6951 35.5223 51.7533 35.4848 51.814 35.4517C52.792 34.8841 53.5893 35.4882 53.5893 36.7936C53.5781 37.3972 53.4402 37.9916 53.1846 38.5383C52.846 39.2829 52.3468 39.8896 51.8153 40.1937C51.761 40.2249 51.7047 40.2525 51.6467 40.2761C51.6427 40.2774 51.6385 40.2774 51.6345 40.2761C51.541 40.3268 51.4446 40.3719 51.3458 40.4113L51.2703 40.4383C51.2123 40.4584 51.1533 40.4756 51.0936 40.4897C51.0463 40.5018 51.0032 40.5113 50.9586 40.5194L50.8804 40.5329C50.7846 40.5464 50.6875 40.5586 50.5863 40.5653C50.2784 40.5717 49.9779 40.6609 49.7161 40.8235C49.2817 41.0735 49.1293 41.241 49.0308 41.7937C48.9626 42.2445 48.9329 42.7002 48.9418 43.1559V45.1965L48.9458 46.2533Z" fill="#2286FE"/>
<path d="M49.2113 37.3996L46.3378 35.7347C46.1691 35.632 46.0922 35.2049 46.0922 34.1319L46.0801 31.0508L48.9509 32.7116V35.809C48.9509 36.8901 49.0413 37.3023 49.2126 37.3982L49.2113 37.3996Z" fill="#2286FE"/>
<path opacity="0.2" d="M53.4643 49.576L50.5867 47.9111C50.5732 47.9042 50.5601 47.8966 50.5476 47.8881C50.387 47.7665 50.3128 47.5138 50.3128 47.2124C50.3098 47.1638 50.3098 47.1151 50.3128 47.0665V47.0489C50.3333 46.659 50.3961 46.2725 50.5003 45.8962C50.5462 45.7029 50.5948 45.4908 50.6352 45.2732L51.2585 44.9124L51.2828 44.8989L51.2976 44.8908L51.7887 44.6272L51.8022 44.6205C51.9565 44.5435 52.1161 44.4775 52.2798 44.4232H52.2987L52.3621 44.4029C52.3872 44.3947 52.4129 44.3884 52.439 44.384H52.4538C52.4835 44.3759 52.5145 44.3678 52.5455 44.3624L52.6265 44.3516C52.6575 44.3516 52.6899 44.3516 52.7209 44.3516C52.7519 44.3516 52.7695 44.3516 52.7924 44.3516C52.8246 44.3521 52.8567 44.3557 52.8882 44.3624H52.9003L52.9462 44.3705C52.9835 44.3805 53.02 44.3931 53.0555 44.4083L53.0879 44.4218C53.1843 44.4732 53.2671 44.5469 53.3293 44.6367C53.3349 44.6444 53.3399 44.6526 53.3442 44.661C53.3737 44.7035 53.399 44.7488 53.4197 44.7962C53.4197 44.8056 53.4292 44.8164 53.4332 44.8245V44.834C53.4535 44.884 53.471 44.9381 53.4885 44.9948L53.4993 45.0381C53.5172 45.1042 53.5307 45.1715 53.5398 45.2394L53.5466 45.2705C53.5727 45.4626 53.5849 45.6564 53.583 45.8502C53.5775 46.4385 53.4958 47.0236 53.3401 47.5908C53.2371 47.9677 53.1747 48.3546 53.154 48.7449V48.7611C53.154 48.8233 53.1472 48.8679 53.1472 48.9084C53.1472 49.2098 53.2349 49.4409 53.3941 49.5625L53.4643 49.576Z" fill="black"/>
<path opacity="0.2" d="M48.9458 46.2533L46.0858 44.5762V41.4762C46.0762 41.0214 46.1051 40.5666 46.1721 40.1167C46.272 39.564 46.423 39.3964 46.8575 39.145C47.12 38.9832 47.4208 38.8941 47.729 38.8869C47.8301 38.8788 47.9259 38.8694 48.0231 38.8545L48.1 38.841L48.2349 38.8126C48.2902 38.7964 48.3495 38.7802 48.4116 38.7585C48.4373 38.7511 48.4625 38.7421 48.4871 38.7315C48.586 38.6954 48.6824 38.6529 48.7758 38.6045L48.788 38.5977C48.8462 38.5742 48.9026 38.5462 48.9566 38.5139C49.4881 38.2072 49.9873 37.6031 50.3246 36.8599C50.3475 36.8112 50.3664 36.7626 50.3866 36.7153L50.3151 36.7869C50.4069 36.6963 50.4959 36.599 50.5849 36.499C50.8942 36.1423 51.2489 35.8279 51.6399 35.5639C51.6951 35.5223 51.7533 35.4848 51.814 35.4517C52.792 34.8841 53.5893 35.4882 53.5893 36.7936C53.5781 37.3972 53.4402 37.9916 53.1846 38.5383C52.846 39.2829 52.3468 39.8896 51.8153 40.1937C51.761 40.2249 51.7047 40.2525 51.6467 40.2761C51.6427 40.2774 51.6385 40.2774 51.6345 40.2761C51.541 40.3268 51.4446 40.3719 51.3458 40.4113L51.2703 40.4383C51.2123 40.4584 51.1533 40.4756 51.0936 40.4897C51.0463 40.5018 51.0032 40.5113 50.9586 40.5194L50.8804 40.5329C50.7846 40.5464 50.6875 40.5586 50.5863 40.5653C50.2784 40.5717 49.9779 40.6609 49.7161 40.8235C49.2817 41.0735 49.1293 41.241 49.0308 41.7937C48.9626 42.2445 48.9329 42.7002 48.9418 43.1559V45.1965L48.9458 46.2533Z" fill="black"/>
<path opacity="0.2" d="M49.2113 37.3996L46.3378 35.7347C46.1691 35.632 46.0922 35.2049 46.0922 34.1319L46.0801 31.0508L48.9509 32.7116V35.809C48.9509 36.8901 49.0413 37.3023 49.2126 37.3982L49.2113 37.3996Z" fill="black"/>
<path d="M53.4873 49.5895L53.4657 49.5774L53.4198 49.5476C53.2606 49.426 53.1729 49.1949 53.1729 48.8936C53.1729 48.853 53.1729 48.8084 53.1797 48.7463V48.73C53.2004 48.3398 53.2628 47.9529 53.3658 47.576C53.5215 47.0087 53.6032 46.4237 53.6087 45.8354C53.6106 45.6415 53.5984 45.4478 53.5722 45.2557L53.5655 45.2246C53.5564 45.1566 53.5429 45.0894 53.525 45.0232L53.5142 44.98C53.4967 44.9232 53.4792 44.8692 53.4589 44.8192V44.8097C53.4589 44.8016 53.4508 44.7908 53.4454 44.7813C53.4247 44.7339 53.3994 44.6887 53.3699 44.6462C53.3655 44.6377 53.3606 44.6296 53.355 44.6219C53.2927 44.532 53.21 44.4584 53.1136 44.407L53.0812 44.3935C53.0457 44.3783 53.0092 44.3656 52.9719 44.3556L52.926 44.3475H52.9139C52.8824 44.3409 52.8503 44.3373 52.8181 44.3367C52.7952 44.3367 52.7709 44.3367 52.7466 44.3367C52.7223 44.3367 52.6832 44.3367 52.6522 44.3367L52.5712 44.3475C52.5402 44.3475 52.5092 44.361 52.4795 44.3691H52.4647C52.4386 44.3736 52.4129 44.3799 52.3878 44.3881L52.3243 44.4083H52.3055C52.1418 44.4627 51.9822 44.5286 51.8279 44.6056L51.8144 44.6124L51.3233 44.8759L51.3085 44.884L51.2842 44.8975L50.6609 45.2584L48.9476 46.253V45.1948V43.1543C48.9383 42.699 48.9677 42.2437 49.0353 41.7934C49.1338 41.2407 49.2862 41.0731 49.7206 40.8231C49.9824 40.6606 50.2829 40.5714 50.5908 40.565C50.692 40.565 50.7891 40.5461 50.8849 40.5326L50.9631 40.5191C51.0077 40.511 51.0508 40.5015 51.098 40.4893C51.1578 40.4753 51.2168 40.4581 51.2748 40.438L51.3503 40.411C51.4491 40.3716 51.5455 40.3265 51.639 40.2758C51.643 40.2771 51.6472 40.2771 51.6512 40.2758C51.7091 40.2521 51.7655 40.2246 51.8198 40.1934C52.3513 39.8839 52.8505 39.2826 53.1891 38.5379C53.4447 37.9913 53.5825 37.3969 53.5938 36.7933C53.5938 35.4879 52.7965 34.8838 51.8184 35.4514C51.7578 35.4845 51.6996 35.522 51.6444 35.5636C51.2534 35.8276 50.8987 36.142 50.5894 36.4987C50.4963 36.5987 50.4073 36.696 50.3196 36.7866C50.1771 36.9296 50.0207 37.0582 49.8528 37.1704L49.7921 37.2082L49.722 37.2501C49.641 37.296 49.5682 37.3393 49.4994 37.3704L49.4333 37.3974C49.4135 37.406 49.3926 37.4119 49.3712 37.415C49.3525 37.4213 49.3329 37.4245 49.3132 37.4244C49.2773 37.4256 49.2418 37.4167 49.2107 37.3987C49.0393 37.3028 48.949 36.8933 48.949 35.8095V32.7122L46.0781 31.0513L54.8984 25.9404C54.9308 25.9228 54.9604 25.9053 54.9928 25.8904C55.0215 25.8755 55.0513 25.8629 55.0819 25.8526L55.1709 25.8242C55.1986 25.8149 55.227 25.8081 55.2559 25.8039C55.292 25.7973 55.3285 25.7932 55.3652 25.7917C55.5132 25.7851 55.6597 25.8243 55.7847 25.9039L58.6178 27.5404C58.7054 27.5886 58.7821 27.6544 58.8431 27.7337C58.8641 27.7609 58.8835 27.7893 58.9011 27.8188C58.9139 27.8384 58.9256 27.8587 58.9362 27.8796C58.9578 27.9229 58.978 27.9675 58.9969 28.0148C59.0036 28.0391 59.0131 28.0634 59.0198 28.0891C59.0706 28.2647 59.0947 28.4469 59.0913 28.6296V40.3947L56.7723 41.7353L56.7304 41.7623L56.7021 41.7786H56.6954L56.2353 42.0637C56.0519 42.1843 55.8758 42.3156 55.7078 42.4569L55.6957 42.4664L55.6687 42.4894L55.5486 42.5975L55.5392 42.6083C55.5217 42.6232 55.5041 42.6407 55.4879 42.657C55.4717 42.6732 55.4164 42.7272 55.3827 42.7637C55.349 42.8002 55.3368 42.811 55.3166 42.8353C55.2964 42.8597 55.2505 42.9083 55.2195 42.9461L55.1561 43.0259L55.067 43.1448L55.0185 43.2164L55.0077 43.2353L54.9955 43.2543C54.9726 43.288 54.9483 43.3232 54.9267 43.3597C54.9051 43.3962 54.897 43.4124 54.8835 43.4394L54.8728 43.461C54.8309 43.5367 54.7905 43.6164 54.754 43.6975L54.7459 43.7178C54.7297 43.7516 54.7149 43.7867 54.7014 43.8205C54.6893 43.8556 54.6758 43.8908 54.6636 43.9272L54.6529 43.9543L54.6124 44.0786C54.5989 44.1232 54.5867 44.1678 54.5746 44.2137C54.5625 44.2597 54.5517 44.3056 54.5409 44.3489C54.5301 44.3921 54.522 44.4394 54.5139 44.484C54.5058 44.5286 54.4964 44.5827 54.4896 44.6327V44.6408C54.4896 44.6827 54.4761 44.7246 54.4721 44.7665C54.468 44.8083 54.4613 44.8719 54.4559 44.9313V44.9638C54.4559 44.9948 54.4559 45.0259 54.4491 45.057C54.4491 45.1232 54.4491 45.1921 54.4491 45.2894V45.307C54.4491 45.3232 54.4491 45.3408 54.4491 45.357C54.4392 45.8548 54.5215 46.3501 54.692 46.8178C54.805 47.1209 54.8679 47.4404 54.8781 47.7638V47.7787C54.8781 47.8219 54.8849 47.8665 54.8862 47.903C54.8862 48.526 54.5058 49.2544 54.039 49.5247C53.9539 49.5768 53.8587 49.6104 53.7598 49.6233C53.7396 49.6253 53.7192 49.6253 53.6991 49.6233H53.6896C53.6771 49.6254 53.6643 49.6254 53.6518 49.6233C53.6407 49.6254 53.6293 49.6254 53.6181 49.6233L53.5911 49.6166L53.5588 49.6071C53.5501 49.6055 53.5419 49.6023 53.5345 49.5976C53.5183 49.5997 53.5018 49.5969 53.4873 49.5895Z" fill="#2286FE"/>
<path opacity="0.3" d="M48.947 32.7122L46.0762 31.0513L54.8964 25.9404C54.9288 25.9228 54.9585 25.9053 54.9909 25.8904C55.0195 25.8755 55.0493 25.8629 55.0799 25.8526L55.1689 25.8242C55.1966 25.8149 55.2251 25.8081 55.2539 25.8039C55.29 25.7973 55.3265 25.7932 55.3632 25.7917C55.5112 25.7851 55.6577 25.8243 55.7828 25.9039L58.5835 27.5256C58.559 27.5127 58.5332 27.5028 58.5066 27.4958C58.5005 27.4942 58.4946 27.4919 58.489 27.4891C58.4645 27.4807 58.4392 27.4748 58.4135 27.4715H58.3878C58.3713 27.4694 58.3545 27.4694 58.3379 27.4715H58.2894C58.2853 27.4708 58.2812 27.4708 58.2772 27.4715C58.2539 27.4695 58.2304 27.4695 58.2071 27.4715L58.1531 27.4796C58.1164 27.4841 58.0803 27.4923 58.0452 27.5039L57.9912 27.5202L57.886 27.562C57.8455 27.581 57.805 27.6026 57.7619 27.6269L48.947 32.7122Z" fill="white"/>
</g>
<mask id="mask2_1096_50744" style="mask-type:luminance" maskUnits="userSpaceOnUse" x="35" y="31" width="18" height="22">
<path d="M37.8755 52.6565L35.002 50.997L35.0127 39.2103C35.0232 38.7414 35.135 38.2803 35.3406 37.8589C35.5848 37.3427 35.9436 36.8981 36.3443 36.6656L45.143 31.5898L48.0138 33.2493V35.8399V36.7143L49.1983 37.3994C49.3264 37.4737 49.4978 37.3737 49.7109 37.2508C50.0409 37.0498 50.3358 36.7959 50.5838 36.4994C50.7596 36.3041 50.9456 36.1183 51.141 35.9426L52.3673 36.6508C52.3769 36.6556 52.3859 36.6615 52.3942 36.6683C52.3957 36.6676 52.3973 36.6672 52.399 36.6672C52.4006 36.6672 52.4022 36.6676 52.4037 36.6683C52.4146 36.6746 52.4246 36.6823 52.4334 36.6913C52.477 36.7296 52.5135 36.7754 52.5413 36.8264C52.5515 36.8401 52.5597 36.8551 52.5656 36.871C52.5723 36.8826 52.5777 36.8948 52.5818 36.9075C52.6048 36.9609 52.622 37.0166 52.633 37.0737C52.6338 37.0827 52.6338 37.0918 52.633 37.1008C52.633 37.1346 52.6438 37.1724 52.6479 37.2102C52.6519 37.2481 52.6479 37.2873 52.6479 37.3278C52.6499 37.3656 52.6499 37.4035 52.6479 37.4413C52.6479 37.4819 52.6411 37.521 52.6357 37.5589C52.6303 37.5967 52.6236 37.6373 52.6168 37.6765C52.6101 37.7156 52.6047 37.7359 52.5966 37.7656C52.5919 37.7871 52.5861 37.8083 52.5791 37.8292C52.5373 37.9817 52.4785 38.129 52.4037 38.2684C52.271 38.5444 52.0646 38.7783 51.8074 38.944C51.7729 38.9632 51.7373 38.9804 51.7008 38.9954H51.6941C51.4523 39.1227 51.1846 39.1925 50.9116 39.1995C50.8253 39.1995 50.7376 39.213 50.6418 39.2265L50.5433 39.2414C50.3074 39.2883 50.08 39.3708 49.8688 39.486C49.8431 39.4981 49.8189 39.5103 49.7959 39.5238L49.719 39.567C49.5599 39.6589 49.4083 39.7633 49.2657 39.8792L49.2522 39.8927C49.1848 39.9481 49.1173 40.0062 49.0661 40.0603L49.0553 40.0711C48.9242 40.2027 48.8054 40.3461 48.7005 40.4995C48.6514 40.5675 48.6064 40.6384 48.5656 40.7117L48.5386 40.7576C48.5035 40.8225 48.4725 40.8927 48.4415 40.9522V40.963C48.4334 40.9779 48.4266 40.9941 48.4199 41.0076C48.3915 41.0779 48.3605 41.1495 48.3335 41.2225L48.3214 41.259C48.2917 41.3455 48.262 41.4333 48.2391 41.5184C48.2391 41.5306 48.2323 41.5414 48.2323 41.5455C48.2135 41.6211 48.1932 41.6968 48.177 41.7752C48.177 41.7982 48.1676 41.8225 48.1622 41.8455V41.8644C48.1501 41.9211 48.142 41.9792 48.1312 42.0387C48.1312 42.0725 48.119 42.109 48.1136 42.1455C48.1082 42.182 48.0988 42.2536 48.0934 42.309V42.336C48.0877 42.3645 48.0841 42.3934 48.0826 42.4225C48.0826 42.4793 48.0705 42.5374 48.0651 42.5982V42.6293C48.0651 42.6495 48.0651 42.6712 48.0651 42.6941V42.713L48.034 43.659V46.7672L47.2246 47.2375L46.9669 47.3875L46.4583 47.678L45.7177 48.1078C45.2023 48.4064 44.8462 48.5578 44.6249 48.5753C44.5909 48.5796 44.5564 48.5796 44.5224 48.5753C44.4993 48.5703 44.4771 48.5621 44.4563 48.551L43.4 47.9321C43.3994 47.9276 43.3994 47.923 43.4 47.9186C43.4121 47.7834 43.4283 47.6483 43.4472 47.5267C43.4593 47.4483 43.4728 47.3726 43.4876 47.3023C43.5268 47.0807 43.5767 46.882 43.6226 46.6929C43.7272 46.3168 43.7892 45.9301 43.8074 45.5401V45.532V45.5212C43.8074 45.4577 43.8074 45.4158 43.8141 45.3766C43.8141 45.0753 43.7251 44.8428 43.5659 44.7225C43.5581 44.7167 43.55 44.7113 43.5416 44.7063L43.52 44.6942L42.3396 44.0117C42.0124 44.3748 41.7488 44.7905 41.5598 45.2415C41.5342 45.3036 41.5085 45.3658 41.4856 45.4253C41.4627 45.4847 41.4384 45.5509 41.4182 45.6145L41.4087 45.6415C41.3871 45.705 41.3682 45.7685 41.3494 45.832C41.3305 45.8955 41.3143 45.9604 41.2994 46.0239C41.2846 46.0874 41.2792 46.1118 41.2698 46.1591C41.2603 46.2064 41.2522 46.2469 41.2468 46.2942C41.2303 46.3836 41.2186 46.4738 41.2118 46.5645C41.205 46.6131 41.201 46.6631 41.1983 46.7118C41.1956 46.7604 41.1915 46.8375 41.1915 46.8983C41.1915 46.9591 41.1915 46.9793 41.1915 47.0185C41.1915 47.0577 41.1915 47.0929 41.1996 47.1266C41.1996 47.1848 41.1996 47.2388 41.2091 47.2915C41.2162 47.4138 41.2302 47.5356 41.2509 47.6564C41.2509 47.705 41.2657 47.7523 41.2752 47.7915C41.318 47.994 41.3739 48.1936 41.4424 48.3888C41.5247 48.6065 41.5805 48.8334 41.6084 49.0645V49.0902V49.1105V49.1389C41.6165 49.2389 41.6205 49.3375 41.6205 49.4402C41.6205 50.1064 41.6205 50.474 40.2067 51.2916L37.8755 52.6565Z" fill="white"/>
</mask>
<g mask="url(#mask2_1096_50744)">
<path d="M44.4299 48.5727L41.5685 46.8916C41.4566 46.8254 41.4215 46.6403 41.4215 46.2403C41.422 45.9106 41.4614 45.5822 41.5389 45.2619C41.4526 45.4609 41.3796 45.6654 41.3203 45.874C41.5901 44.8808 42.2201 43.9362 42.9392 43.5172C43.4127 43.247 43.8579 43.2321 44.1938 43.4861C44.5298 43.7402 44.7146 44.2254 44.7146 44.8605C44.7146 44.9213 44.7146 44.9808 44.7078 45.0348V45.0646C44.7078 45.0794 44.7078 45.0943 44.7078 45.1092C44.7078 45.2443 44.6917 45.3794 44.6768 45.5213C44.6754 45.544 44.6727 45.5666 44.6687 45.5889V45.6092C44.6566 45.7051 44.6444 45.7984 44.6296 45.8916C44.6188 45.947 44.608 46.0024 44.5986 46.0565C44.5891 46.1105 44.577 46.1659 44.5662 46.22C44.5365 46.3551 44.5028 46.5024 44.4677 46.6497C44.3507 47.0627 44.2885 47.4894 44.2829 47.9187C44.2815 48.3214 44.3099 48.5065 44.4299 48.5727Z" fill="#2286FE"/>
<path d="M37.8755 52.6576L35.002 50.9981L35.0127 39.2127C35.0222 38.7437 35.1341 38.2824 35.3406 37.8613L38.2087 39.5195C37.9977 39.9465 37.883 40.4148 37.8728 40.8911L37.8755 52.6576Z" fill="#2286FE"/>
<path d="M44.4303 48.5727L41.5689 46.8916C41.457 46.8254 41.4219 46.6403 41.4219 46.2403C41.4224 45.9106 41.4618 45.5822 41.5392 45.2619C41.863 44.5091 42.3716 43.8483 42.945 43.5172C43.4185 43.247 43.8637 43.2321 44.1996 43.4861C44.5355 43.7402 44.715 44.2254 44.715 44.8605C44.715 44.9213 44.715 44.9808 44.7082 45.0348V45.0646C44.7082 45.0794 44.7082 45.0943 44.7082 45.1092C44.7082 45.2443 44.692 45.3794 44.6772 45.5213C44.6758 45.544 44.6731 45.5666 44.6691 45.5889V45.6092C44.657 45.7051 44.6448 45.7984 44.63 45.8916C44.6192 45.947 44.6084 46.0024 44.5989 46.0565C44.5895 46.1105 44.5774 46.1659 44.5666 46.22C44.5369 46.3551 44.5032 46.5024 44.4681 46.6497C44.3511 47.0627 44.2889 47.4894 44.2833 47.9187C44.2819 48.3214 44.3102 48.5065 44.4303 48.5727Z" fill="#263238"/>
<path d="M37.8755 52.6576L35.002 50.9981L35.0127 39.2127C35.0222 38.7437 35.1341 38.2824 35.3406 37.8613L38.2087 39.5195C37.9977 39.9465 37.883 40.4148 37.8728 40.8911L37.8755 52.6576Z" fill="#263238"/>
<path d="M37.876 52.658V40.8902C37.8862 40.4138 38.0009 39.9456 38.2119 39.5185L35.3438 37.8604C35.3518 37.8428 35.3586 37.8266 35.3667 37.8104C35.3785 37.7835 35.3921 37.7573 35.4072 37.732C35.426 37.6955 35.4449 37.6604 35.4652 37.6253C35.4854 37.5901 35.5137 37.5401 35.5407 37.5009L35.5556 37.4726C35.5592 37.4668 35.5632 37.4614 35.5677 37.4563C35.5906 37.4185 35.6176 37.3793 35.6446 37.3415L35.6689 37.3077C35.6826 37.2863 35.698 37.266 35.7147 37.2469C35.7293 37.2262 35.7451 37.2063 35.762 37.1874L35.7755 37.1698C35.7997 37.1388 35.8254 37.1077 35.8524 37.0793L35.8847 37.0455C35.8917 37.0368 35.8993 37.0286 35.9077 37.0212L35.9225 37.0036L35.9508 36.978L36.0007 36.9293C36.0051 36.9245 36.0101 36.9204 36.0156 36.9171C36.0304 36.9036 36.0439 36.8888 36.0574 36.8779L36.0723 36.8658H36.079L36.1154 36.8388C36.1289 36.8266 36.1438 36.8171 36.1572 36.8063C36.1707 36.7955 36.1842 36.7847 36.1977 36.7739C36.2137 36.7617 36.2304 36.7504 36.2476 36.7401C36.277 36.7174 36.3081 36.697 36.3407 36.6793L45.1407 31.6035L48.0116 33.2644V35.8536L48.0534 35.8104C48.2848 35.5387 48.5521 35.3 48.848 35.1009H48.8588C48.8865 35.08 48.9153 35.0606 48.9451 35.0428C49.0256 34.987 49.1203 34.9555 49.2181 34.9519C49.3158 34.9483 49.4126 34.9728 49.4969 35.0225L52.3583 36.6779C52.3738 36.6856 52.3883 36.6952 52.4015 36.7063L52.4258 36.7252C52.5253 36.8183 52.5932 36.9402 52.62 37.0739C52.6281 37.1077 52.6349 37.1442 52.6403 37.1807C52.6481 37.2407 52.6517 37.3012 52.6511 37.3617C52.6438 37.6899 52.5592 38.0117 52.4042 38.301C52.2708 38.5769 52.064 38.8107 51.8065 38.9766C51.772 38.9966 51.7364 39.0146 51.6999 39.0307H51.6932C51.4515 39.1581 51.1838 39.2279 50.9107 39.2348C50.4856 39.2504 50.072 39.3776 49.7114 39.6037C49.5522 39.6947 49.401 39.7992 49.2595 39.9159L49.2433 39.928C49.1772 39.9834 49.1084 40.0402 49.0571 40.0969L49.049 40.1064C48.9172 40.2369 48.7984 40.3799 48.6942 40.5334C48.6497 40.5996 48.6065 40.6686 48.5593 40.7456L48.5391 40.7821V40.7929C48.504 40.8551 48.4716 40.928 48.4406 40.9875V40.997C48.4332 41.0118 48.4269 41.0272 48.4217 41.0429C48.3907 41.1118 48.3623 41.178 48.3354 41.2578L48.3219 41.2929C48.2908 41.3794 48.2625 41.4686 48.2396 41.5524L48.2328 41.5807C48.2126 41.6551 48.1937 41.7321 48.1775 41.8105C48.1775 41.8321 48.1667 41.8564 48.1627 41.8794V41.8983C48.1519 41.9564 48.1424 42.0132 48.1316 42.0727C48.1316 42.1064 48.1195 42.1429 48.1155 42.1781C48.1114 42.2132 48.0993 42.2875 48.0925 42.3443V42.3713C48.0925 42.3983 48.0858 42.4267 48.0844 42.4564C48.0844 42.5132 48.0723 42.5727 48.0682 42.6308V42.6619C48.0682 42.6835 48.0682 42.7051 48.0615 42.7267V42.747L48.0305 43.693V46.8011L47.221 47.2728L46.4561 47.7147L45.7154 48.143C45.2015 48.4417 44.8426 48.5931 44.624 48.6093C44.607 48.6106 44.5898 48.6106 44.5728 48.6093C44.531 48.6088 44.4899 48.5986 44.4527 48.5795C44.338 48.5133 44.3043 48.3282 44.3043 47.9255C44.31 47.4962 44.3721 47.0695 44.4891 46.6565C44.5242 46.5092 44.5579 46.366 44.5876 46.2268C44.5984 46.1727 44.6106 46.1187 44.62 46.0633C44.6294 46.0079 44.6402 45.9538 44.651 45.8984C44.6659 45.8052 44.678 45.7119 44.6902 45.616V45.5957C44.6942 45.5734 44.6969 45.5508 44.6982 45.5281C44.7131 45.3862 44.7239 45.2579 44.7293 45.116C44.7293 45.1011 44.7293 45.0862 44.7293 45.0714V45.0376C44.7293 44.9835 44.7374 44.9241 44.736 44.8633C44.736 44.2295 44.5525 43.7416 44.2166 43.4875C43.8807 43.2335 43.4355 43.2429 42.962 43.5186C42.3886 43.8497 41.8827 44.5105 41.5562 45.2633C41.4896 45.4119 41.4319 45.5644 41.3836 45.72C41.3674 45.7714 41.3512 45.8241 41.3377 45.8754C41.3242 45.9268 41.3053 45.9984 41.2905 46.0606C41.2862 46.0709 41.2835 46.0819 41.2824 46.093C41.2689 46.1525 41.2568 46.2133 41.2473 46.2727C41.2241 46.4011 41.2075 46.5305 41.1974 46.6606C41.1947 46.6993 41.1947 46.7381 41.1974 46.7768C41.1974 46.8227 41.1974 46.8687 41.1974 46.9119C41.1974 46.9917 41.1974 47.0755 41.2068 47.1403C41.2199 47.5732 41.3024 48.0012 41.451 48.4079C41.5327 48.6258 41.5884 48.8526 41.617 49.0836V49.1106V49.1187V49.1296C41.6163 49.139 41.6163 49.1485 41.617 49.1579C41.6237 49.2579 41.6291 49.3566 41.6291 49.4593C41.6291 50.1255 41.6291 50.4931 40.2166 51.3107L37.876 52.658Z" fill="#37474F"/>
<path d="M49.5096 34.9931L52.3709 36.6485C52.2832 36.6048 52.1852 36.5859 52.0875 36.5937C51.9899 36.6016 51.8961 36.6359 51.8165 36.6931C51.7922 36.7066 51.7612 36.7282 51.7301 36.7499L51.7207 36.7593H51.7139C51.4178 36.9581 51.1504 37.1968 50.9193 37.4688C50.5756 37.8688 50.1708 38.2118 49.72 38.485L49.6634 38.5161L49.6418 38.5269L49.6256 38.535C49.5824 38.558 49.5406 38.5823 49.5015 38.6012L49.4259 38.6337L49.4003 38.6431L49.3854 38.6512L49.291 38.6864C49.2629 38.6974 49.234 38.7064 49.2047 38.7134H49.1939L49.0981 38.7364C49.0657 38.7445 49.036 38.7458 49.005 38.7512H48.916C48.8876 38.7512 48.8593 38.7512 48.8323 38.7512C48.8053 38.7512 48.7797 38.7418 48.7541 38.7377C48.7283 38.7328 48.703 38.7255 48.6785 38.7161C48.6547 38.708 48.6316 38.6976 48.6097 38.685H48.5976C48.5777 38.6753 48.5583 38.6645 48.5396 38.6526C48.5213 38.6396 48.5042 38.6251 48.4883 38.6094L48.4775 38.6012L48.4667 38.5904C48.4519 38.5783 48.4357 38.5634 48.4209 38.5485C48.4036 38.5282 48.3874 38.507 48.3723 38.485L48.3642 38.4729C48.3343 38.4297 48.3072 38.3845 48.2832 38.3377L48.2752 38.3202C48.2635 38.2997 48.2531 38.2785 48.2441 38.2566C48.2347 38.2337 48.2239 38.2053 48.2144 38.1783V38.1593V38.1431C48.2063 38.1188 48.1969 38.0972 48.1888 38.0702C48.1807 38.0431 48.1699 37.9972 48.1605 37.9593C48.151 37.9215 48.1429 37.8945 48.1375 37.8607C48.1322 37.8269 48.1214 37.7796 48.1146 37.7364C48.1079 37.6931 48.1025 37.6661 48.0971 37.631C48.0917 37.5958 48.0863 37.5404 48.0809 37.4958C48.0755 37.4512 48.0728 37.4215 48.0687 37.3837C48.0647 37.3458 48.0593 37.285 48.0566 37.2323C48.0566 37.2053 48.0566 37.1728 48.0566 37.1418V37.1012C48.0566 37.0539 48.0566 37.0039 48.0485 36.9526V36.9323L48.0391 36.3917V35.8323C48.0512 35.8174 48.066 35.8039 48.0782 35.7904C48.3096 35.5187 48.5769 35.28 48.8728 35.0809H48.8795L48.8903 35.0728C48.9174 35.052 48.9458 35.0331 48.9753 35.016C49.0539 34.9639 49.1451 34.9342 49.2392 34.9302C49.3334 34.9261 49.4268 34.9479 49.5096 34.9931Z" fill="black"/>
<path d="M38.2126 39.5193L35.3418 37.8584C35.3499 37.8409 35.3566 37.826 35.3661 37.8098C35.3779 37.7829 35.3915 37.7567 35.4066 37.7314C35.4254 37.6949 35.4443 37.6598 35.4646 37.6247C35.4848 37.5895 35.5131 37.5395 35.5401 37.5003C35.5478 37.4847 35.5568 37.4698 35.5671 37.4557C35.59 37.4179 35.617 37.3787 35.644 37.3409L35.6683 37.3071C35.682 37.2857 35.6974 37.2654 35.7141 37.2463C35.7329 37.2194 35.7531 37.1937 35.7748 37.1692C35.7991 37.1382 35.8248 37.1071 35.8517 37.0787L35.8841 37.0449C35.8911 37.0362 35.8987 37.028 35.9071 37.0206L35.9502 36.9773L36.0001 36.9287C36.0045 36.9239 36.0095 36.9198 36.015 36.9165C36.0326 36.898 36.0515 36.8809 36.0716 36.8652H36.0784L36.1148 36.8382C36.1411 36.8151 36.1685 36.7934 36.1971 36.7733C36.2131 36.7611 36.2298 36.7498 36.247 36.7395C36.2764 36.7168 36.3075 36.6964 36.3401 36.6787L45.1388 31.6016L48.0096 33.2624L44.1418 35.4989L39.1988 38.3598C39.161 38.3814 39.1246 38.4044 39.0882 38.4287C39.0518 38.4531 39.0207 38.4774 38.9897 38.5044C38.9715 38.5164 38.9543 38.53 38.9384 38.5449C38.9061 38.5706 38.8737 38.6017 38.8426 38.6314C38.8116 38.6612 38.7671 38.7058 38.7307 38.7436C38.6496 38.8323 38.5743 38.9262 38.5054 39.0247C38.4784 39.0625 38.4514 39.1004 38.4258 39.1409C38.3468 39.2624 38.2756 39.3888 38.2126 39.5193Z" fill="#455A64"/>
</g>
<path d="M33.9824 42.4331C34.123 42.4412 34.2617 42.3975 34.3723 42.3101C34.6705 42.079 34.8931 42.0979 35.2128 41.9601C35.4637 41.8506 35.5649 41.7169 35.6175 41.7628C35.6698 41.8209 35.6982 41.8967 35.6969 41.9749C35.6957 42.0532 35.6649 42.128 35.6108 42.1844C35.5143 42.2968 35.4026 42.3951 35.2789 42.4763C35.5754 42.4579 35.8679 42.3979 36.1477 42.298C36.8222 42.0682 37.142 42.1628 36.8357 43.0209C36.6442 43.5615 36.1612 43.8588 34.8377 43.8318C34.3486 43.7988 33.8623 43.7329 33.3821 43.6345C32.0721 43.3764 29.4347 42.9804 28.9747 42.3601C27.6728 40.6033 26.4789 39.1546 26.3143 37.8438C26.1794 36.7438 26.8539 36.1289 27.4785 36.1289C27.8333 36.5032 28.0492 36.9492 28.3757 37.9992C28.3757 37.9992 30.0701 41.0385 30.2414 41.2601C30.6677 41.4939 33.7045 42.3885 33.9824 42.4331Z" fill="#CE7A63"/>
<path d="M58.4502 31.1723C58.6782 31.3074 58.9223 31.3656 59.2259 31.5872C59.4221 31.7559 59.6564 31.8742 59.9085 31.9318C60.2337 32.0115 62.7928 31.1453 63.2664 30.7791C64.231 30.0344 65.0633 28.6331 65.5274 28.102C65.9092 27.6641 66.3369 27.0047 66.8131 27.002C67.5915 27.2371 67.4161 28.3966 66.7645 29.4344C66.2249 30.298 65.2023 31.3885 64.0448 32.1494C63.4836 32.5183 60.8974 33.1872 60.038 33.244C59.7777 33.2602 59.5847 33.3197 59.0937 33.3899C58.8896 33.4314 58.6805 33.4428 58.4731 33.4237C58.2185 33.384 57.9709 33.308 57.7379 33.198C57.442 33.0598 57.1886 32.8447 57.004 32.575C56.9032 32.4268 56.8385 32.2569 56.8151 32.0791C56.7915 31.9 56.8326 31.7183 56.9311 31.5669C56.9496 31.5353 56.9761 31.5092 57.008 31.4912C57.0708 31.4708 57.139 31.4756 57.1982 31.5047C57.5436 31.625 57.8971 31.8061 58.2519 31.8885C58.5514 31.9575 58.7726 31.9656 58.7429 31.9115C58.7132 31.8575 58.5352 31.8277 58.3315 31.6548C58.1277 31.4818 58.0441 31.2088 58.1453 31.1061C58.2465 31.0034 58.2235 31.0318 58.4502 31.1723Z" fill="#CE7A63"/>
<path d="M66.8651 26.7275C67.4398 27.0099 67.6746 27.4397 67.4183 28.3964C67.1889 29.2559 66.3093 30.7222 65.6172 31.4398C65.6172 31.4398 64.4328 30.8776 63.8027 30.1465C64.426 29.1911 64.7269 28.6289 65.3124 27.8194C65.8979 27.0099 66.5144 26.6315 66.8651 26.7275Z" fill="#E0E0E0"/>
</g>
<defs>
<filter id="filter0_d_1096_50744" x="0.5" y="0" width="94" height="94" filterUnits="userSpaceOnUse" color-interpolation-filters="sRGB">
<feFlood flood-opacity="0" result="BackgroundImageFix"/>
<feColorMatrix in="SourceAlpha" type="matrix" values="0 0 0 0 0 0 0 0 0 0 0 0 0 0 0 0 0 0 127 0" result="hardAlpha"/>
<feOffset dy="4"/>
<feGaussianBlur stdDeviation="4"/>
<feComposite in2="hardAlpha" operator="out"/>
<feColorMatrix type="matrix" values="0 0 0 0 0.686275 0 0 0 0 0.796078 0 0 0 0 0.92549 0 0 0 0.4 0"/>
<feBlend mode="normal" in2="BackgroundImageFix" result="effect1_dropShadow_1096_50744"/>
<feBlend mode="normal" in="SourceGraphic" in2="effect1_dropShadow_1096_50744" result="shape"/>
</filter>
</defs>
</svg>
