<svg width="41" height="41" viewBox="0 0 41 41" fill="none" xmlns="http://www.w3.org/2000/svg">
<rect width="41" height="41" rx="20.5" fill="#652D90"/>
<path d="M26 16.5V19.5M26 19.5V22.5M26 19.5H29M26 19.5H23M20.75 15.375C20.75 16.2701 20.3944 17.1285 19.7615 17.7615C19.1285 18.3944 18.2701 18.75 17.375 18.75C16.4799 18.75 15.6214 18.3944 14.9885 17.7615C14.3556 17.1285 14 16.2701 14 15.375C14 14.4799 14.3556 13.6214 14.9885 12.9885C15.6214 12.3556 16.4799 12 17.375 12C18.2701 12 19.1285 12.3556 19.7615 12.9885C20.3944 13.6214 20.75 14.4799 20.75 15.375ZM11 28.235V28.125C11 26.4342 11.6716 24.8127 12.8672 23.6172C14.0627 22.4216 15.6842 21.75 17.375 21.75C19.0658 21.75 20.6873 22.4216 21.8828 23.6172C23.0784 24.8127 23.75 26.4342 23.75 28.125V28.234C21.8255 29.3931 19.6206 30.0038 17.374 30C15.043 30 12.862 29.355 11 28.234V28.235Z" stroke="white" stroke-width="1.5" stroke-linecap="round" stroke-linejoin="round"/>
</svg>
