<svg width="63" height="48" viewBox="0 0 63 48" fill="none" xmlns="http://www.w3.org/2000/svg">
<path d="M31.5449 47.8331C48.5967 47.8331 62.4199 46.8662 62.4199 45.6734C62.4199 44.4806 48.5967 43.5137 31.5449 43.5137C14.4931 43.5137 0.669922 44.4806 0.669922 45.6734C0.669922 46.8662 14.4931 47.8331 31.5449 47.8331Z" fill="#F5F5F5"/>
<path d="M10.0879 12.459H11.6313V13.0581H11.3789V15.7463H10.3403V13.0581H10.0879V12.459Z" fill="#2286FE"/>
<g opacity="0.2">
<path d="M10.082 12.459H11.6254V13.0581H11.373V15.7463H10.3344V13.0581H10.082V12.459Z" fill="black"/>
</g>
<path d="M19.2105 10.543L24.6909 18.8289V26.2639H11.7148V18.8289L19.2105 10.543Z" fill="#2286FE"/>
<path opacity="0.5" d="M19.2105 10.543L24.6909 18.8289V26.2639H11.7148V18.8289L19.2105 10.543Z" fill="white"/>
<path d="M13.1934 10.8803L14.0281 9.62305H19.2116L25.3191 18.8286H20.1337H13.1934V10.8803Z" fill="#2286FE"/>
<path opacity="0.2" d="M13.1934 10.8803L14.0281 9.62305H19.2116L25.3191 18.8286H20.1337H13.1934V10.8803Z" fill="black"/>
<path d="M20.1331 18.8286L14.0275 9.62305L7.91992 18.8286H20.1331Z" fill="#2286FE"/>
<path d="M14.0274 10.543L19.5059 18.8289V26.2639H8.54688V18.8289L14.0274 10.543Z" fill="#2286FE"/>
<path opacity="0.8" d="M14.0274 10.543L19.5059 18.8289V26.2639H8.54688V18.8289L14.0274 10.543Z" fill="white"/>
<path d="M16.4816 15.3125H15.373V18.1991H16.4816V15.3125Z" fill="#2286FE"/>
<path d="M12.6046 15.3125H11.4961V18.1991H12.6046V15.3125Z" fill="#2286FE"/>
<path d="M15.3758 15.1758H12.6055V18.3352H15.3758V15.1758Z" fill="#2286FE"/>
<path opacity="0.4" d="M15.3758 15.1758H12.6055V18.3352H15.3758V15.1758Z" fill="white"/>
<path d="M15.0284 15.5156H12.9492V17.994H15.0284V15.5156Z" fill="#1D3354"/>
<path d="M12.3113 26.2637H15.6621V20.9483H12.3113V26.2637Z" fill="#2286FE"/>
<path opacity="0.3" d="M12.3113 26.2637H15.6621V20.9483H12.3113V26.2637Z" fill="white"/>
<path d="M12.5211 19.8359H15.4564L16.1708 21.1371H11.8066L12.5211 19.8359Z" fill="#2286FE"/>
<path d="M15.0797 21.8516H14.0527V26.2645H15.0797V21.8516Z" fill="#1D3354"/>
<path d="M13.9254 21.8516H12.8984V26.2645H13.9254V21.8516Z" fill="#1D3354"/>
<path d="M22.6027 31.6348H6.99219V44.637H22.6027V31.6348Z" fill="#2286FE"/>
<path opacity="0.6" d="M22.6027 31.6348H6.99219V44.637H22.6027V31.6348Z" fill="white"/>
<path d="M26.2463 31.6348H18.5371V44.637H26.2463V31.6348Z" fill="#2286FE"/>
<path opacity="0.8" d="M26.2463 31.6348H18.5371V44.637H26.2463V31.6348Z" fill="white"/>
<path d="M17.0849 32.9414H14.0137V36.4424H17.0849V32.9414Z" fill="#2286FE"/>
<path opacity="0.3" d="M17.0849 32.9414H14.0137V36.4424H17.0849V32.9414Z" fill="white"/>
<path d="M16.7009 33.3184H14.3984V36.0638H16.7009V33.3184Z" fill="#1D3354"/>
<path d="M20.8226 33.0918H19.5938V36.2913H20.8226V33.0918Z" fill="#2286FE"/>
<path d="M25.1215 33.0918H23.8926V36.2913H25.1215V33.0918Z" fill="#2286FE"/>
<path d="M23.8935 32.9414H20.8223V36.4424H23.8935V32.9414Z" fill="#2286FE"/>
<path opacity="0.3" d="M23.8935 32.9414H20.8223V36.4424H23.8935V32.9414Z" fill="white"/>
<path d="M23.5075 33.3184H21.2051V36.0638H23.5075V33.3184Z" fill="#1D3354"/>
<path d="M14.2435 38.8516H10.5977V44.6344H14.2435V38.8516Z" fill="#2286FE"/>
<path opacity="0.3" d="M14.2435 38.8516H10.5977V44.6344H14.2435V38.8516Z" fill="white"/>
<path d="M14.0209 37.6406H10.8254L10.0488 39.0563H14.7974L14.0209 37.6406Z" fill="#2286FE"/>
<path d="M12.3526 39.834H11.2363V44.6342H12.3526V39.834Z" fill="#1D3354"/>
<path d="M13.6104 39.834H12.4941V44.6342H13.6104V39.834Z" fill="#1D3354"/>
<path d="M24.3395 31.7431L21.2896 26.1797H8.30184L5.25195 31.7431H24.3395Z" fill="#2286FE"/>
<path opacity="0.3" d="M24.3395 31.7431L21.2896 26.1797H8.30184L5.25195 31.7431H24.3395Z" fill="black"/>
<path d="M27.985 31.7431L24.9351 26.1797H19.8487L16.7988 31.7431H27.985Z" fill="#2286FE"/>
<path opacity="0.1" d="M27.985 31.7431L24.9351 26.1797H19.8487L16.7988 31.7431H27.985Z" fill="black"/>
<path d="M11.2129 30.791V26.1797H17.2156L14.6879 30.791H11.2129Z" fill="#2286FE"/>
<path opacity="0.8" d="M11.2129 30.791V26.1797H17.2156L14.6879 30.791H11.2129Z" fill="white"/>
<path d="M11.0318 30.793H14.6777V27.21H11.0318V30.793Z" fill="#2286FE"/>
<path opacity="0.6" d="M11.0318 30.793H14.6777V27.21H11.0318V30.793Z" fill="white"/>
<path d="M13.6246 30.3594H12.087C12.0201 30.3594 11.9559 30.3332 11.9086 30.2867C11.8612 30.2402 11.8346 30.1771 11.8346 30.1114V29.9301H13.877V30.1114C13.877 30.1771 13.8504 30.2402 13.803 30.2867C13.7557 30.3332 13.6915 30.3594 13.6246 30.3594Z" fill="#2286FE"/>
<path d="M12.2158 28.4611C12.211 28.3749 12.2241 28.2886 12.2544 28.2075C12.2847 28.1265 12.3314 28.0523 12.3918 27.9896C12.4523 27.9269 12.525 27.8769 12.6058 27.8428C12.6865 27.8086 12.7734 27.791 12.8613 27.791C12.9492 27.791 13.0362 27.8086 13.1169 27.8428C13.1976 27.8769 13.2704 27.9269 13.3308 27.9896C13.3912 28.0523 13.438 28.1265 13.4682 28.2075C13.4985 28.2886 13.5116 28.3749 13.5068 28.4611V29.8291H12.2158V28.4611Z" fill="#1D3354"/>
<path d="M13.5 27.4122L14.1775 26.1797H17.2119L16.5363 27.4122H13.5Z" fill="#2286FE"/>
<path opacity="0.2" d="M13.5 27.4122L14.1775 26.1797H17.2119L16.5363 27.4122H13.5Z" fill="black"/>
<path d="M14.5535 26.1797L15.231 27.4122H10.4824L11.16 26.1797H14.5535Z" fill="#2286FE"/>
<path d="M11.5869 32.9414H8.51562V36.4424H11.5869V32.9414Z" fill="#2286FE"/>
<path opacity="0.3" d="M11.5869 32.9414H8.51562V36.4424H11.5869V32.9414Z" fill="white"/>
<path d="M11.197 33.3184H8.89453V36.0638H11.197V33.3184Z" fill="#1D3354"/>
<path d="M26.8598 44.5085H55.4231C55.546 44.5103 55.6679 44.4864 55.7807 44.4384C55.8935 44.3904 55.9946 44.3195 56.0774 44.2302C56.1601 44.1409 56.2227 44.0353 56.2608 43.9205C56.299 43.8057 56.3119 43.6842 56.2987 43.5641L52.713 3.30778C52.6869 3.05226 52.5664 2.81502 52.3742 2.64097C52.1821 2.46693 51.9317 2.36816 51.6704 2.36337H23.1013C22.9784 2.36159 22.8565 2.38549 22.7437 2.43348C22.6309 2.48146 22.5298 2.55245 22.447 2.64174C22.3642 2.73102 22.3017 2.83657 22.2636 2.95139C22.2254 3.06621 22.2125 3.18769 22.2257 3.30778L25.8114 43.5641C25.8376 43.8206 25.959 44.0586 26.1523 44.2328C26.3457 44.407 26.5975 44.5051 26.8598 44.5085Z" fill="#1D3354"/>
<path d="M27.2663 44.5086H55.8355C55.9584 44.5107 56.0805 44.487 56.1934 44.4391C56.3064 44.3912 56.4076 44.3202 56.4905 44.2309C56.5733 44.1415 56.6358 44.0358 56.6738 43.9209C56.7119 43.8059 56.7245 43.6843 56.711 43.5642L53.1272 3.30781C53.1007 3.05214 52.9798 2.81487 52.7874 2.64086C52.5949 2.46685 52.3443 2.36815 52.0828 2.36341H23.5156C23.3926 2.36132 23.2706 2.38501 23.1576 2.43289C23.0447 2.48077 22.9434 2.55176 22.8606 2.64111C22.7777 2.73047 22.7152 2.83614 22.6772 2.9511C22.6392 3.06606 22.6265 3.18766 22.64 3.30781L26.2238 43.5642C26.2499 43.8197 26.3704 44.0569 26.5625 44.231C26.7546 44.405 27.005 44.5038 27.2663 44.5086Z" fill="#1D3354"/>
<path opacity="0.5" d="M27.2663 44.5086H55.8355C55.9584 44.5107 56.0805 44.487 56.1934 44.4391C56.3064 44.3912 56.4076 44.3202 56.4905 44.2309C56.5733 44.1415 56.6358 44.0358 56.6738 43.9209C56.7119 43.8059 56.7245 43.6843 56.711 43.5642L53.1272 3.30781C53.1007 3.05214 52.9798 2.81487 52.7874 2.64086C52.5949 2.46685 52.3443 2.36815 52.0828 2.36341H23.5156C23.3926 2.36132 23.2706 2.38501 23.1576 2.43289C23.0447 2.48077 22.9434 2.55176 22.8606 2.64111C22.7777 2.73047 22.7152 2.83614 22.6772 2.9511C22.6392 3.06606 22.6265 3.18766 22.64 3.30781L26.2238 43.5642C26.2499 43.8197 26.3704 44.0569 26.5625 44.231C26.7546 44.405 27.005 44.5038 27.2663 44.5086Z" fill="white"/>
<path opacity="0.2" d="M50.469 4.6875L53.8956 43.0455H28.1453L24.7188 4.6875H50.469Z" fill="black"/>
<path d="M50.6273 4.68945L51.6154 17.0583C51.8743 20.2648 52.2626 23.4573 52.7803 26.6358L55.304 42.1775H29.5479L27.0241 26.5977C26.5064 23.4242 26.1214 20.2355 25.869 17.0316L24.8828 4.68945H50.6273Z" fill="white"/>
<path d="M33.5375 9.60488H43.1919C43.2657 9.60664 43.3389 9.59241 43.4065 9.56321C43.4741 9.53402 43.5342 9.49056 43.5828 9.43593C43.6313 9.3813 43.6671 9.31684 43.6874 9.24712C43.7077 9.1774 43.7122 9.10413 43.7005 9.03252L43.6248 8.41627C43.6032 8.26052 43.5259 8.11741 43.4067 8.01254C43.2876 7.90768 43.1343 7.8479 42.9745 7.8439H33.3181C33.2444 7.84209 33.1712 7.8563 33.1037 7.88551C33.0362 7.91472 32.9761 7.95822 32.9277 8.0129C32.8793 8.06758 32.8438 8.13208 32.8237 8.20181C32.8036 8.27154 32.7994 8.34477 32.8114 8.41627L32.8871 9.03252C32.9087 9.18827 32.986 9.33138 33.1052 9.43624C33.2243 9.54111 33.3776 9.60089 33.5375 9.60488Z" fill="#2286FE"/>
<path d="M29.459 22.3588H50.187C50.2607 22.3606 50.3339 22.3464 50.4014 22.3172C50.4689 22.288 50.529 22.2445 50.5774 22.1898C50.6258 22.1351 50.6613 22.0706 50.6814 22.0009C50.7015 21.9311 50.7057 21.8579 50.6937 21.7864L50.6179 21.1702C50.5963 21.0144 50.519 20.8713 50.3999 20.7664C50.2807 20.6616 50.1275 20.6018 49.9676 20.5978H29.2396C29.1658 20.596 29.0926 20.6103 29.025 20.6395C28.9574 20.6687 28.8973 20.7121 28.8487 20.7668C28.8002 20.8214 28.7644 20.8859 28.7441 20.9556C28.7237 21.0253 28.7193 21.0986 28.731 21.1702L28.8086 21.7864C28.8302 21.9422 28.9075 22.0853 29.0267 22.1901C29.1459 22.295 29.2991 22.3548 29.459 22.3588Z" fill="#2286FE"/>
<path opacity="0.5" d="M29.459 22.3588H50.187C50.2607 22.3606 50.3339 22.3464 50.4014 22.3172C50.4689 22.288 50.529 22.2445 50.5774 22.1898C50.6258 22.1351 50.6613 22.0706 50.6814 22.0009C50.7015 21.9311 50.7057 21.8579 50.6937 21.7864L50.6179 21.1702C50.5963 21.0144 50.519 20.8713 50.3999 20.7664C50.2807 20.6616 50.1275 20.6018 49.9676 20.5978H29.2396C29.1658 20.596 29.0926 20.6103 29.025 20.6395C28.9574 20.6687 28.8973 20.7121 28.8487 20.7668C28.8002 20.8214 28.7644 20.8859 28.7441 20.9556C28.7237 21.0253 28.7193 21.0986 28.731 21.1702L28.8086 21.7864C28.8302 21.9422 28.9075 22.0853 29.0267 22.1901C29.1459 22.295 29.2991 22.3548 29.459 22.3588Z" fill="white"/>
<path d="M42.2338 12.2311H32.5794C32.3853 12.2311 32.3542 11.9277 32.5522 11.9277H42.2067C42.4008 11.9277 42.4338 12.2311 42.2338 12.2311Z" fill="#1D3354"/>
<path d="M28.464 13.0742H42.3487C42.5428 13.0742 42.5758 13.3795 42.3759 13.3795H28.4893C28.2951 13.3795 28.2641 13.0742 28.464 13.0742Z" fill="#1D3354"/>
<path d="M44.3616 13.4292H49.0733C49.1471 13.4309 49.2204 13.4167 49.288 13.3875C49.3555 13.3583 49.4157 13.3148 49.4643 13.2602C49.5128 13.2056 49.5485 13.1411 49.5689 13.0714C49.5892 13.0017 49.5937 12.9284 49.582 12.8568L49.5043 12.2405C49.4831 12.0846 49.4059 11.9413 49.2867 11.8364C49.1674 11.7314 49.014 11.6718 48.854 11.6682H44.1364C44.0626 11.6661 43.9891 11.6801 43.9214 11.7092C43.8537 11.7382 43.7933 11.7817 43.7447 11.8364C43.6961 11.8911 43.6604 11.9557 43.6402 12.0256C43.62 12.0955 43.6157 12.1689 43.6278 12.2405L43.7055 12.8568C43.7272 13.0135 43.8054 13.1574 43.9257 13.2623C44.0461 13.3673 44.2007 13.4265 44.3616 13.4292Z" fill="#1D3354"/>
<path opacity="0.7" d="M44.3616 13.4292H49.0733C49.1471 13.4309 49.2204 13.4167 49.288 13.3875C49.3555 13.3583 49.4157 13.3148 49.4643 13.2602C49.5128 13.2056 49.5485 13.1411 49.5689 13.0714C49.5892 13.0017 49.5937 12.9284 49.582 12.8568L49.5043 12.2405C49.4831 12.0846 49.4059 11.9413 49.2867 11.8364C49.1674 11.7314 49.014 11.6718 48.854 11.6682H44.1364C44.0626 11.6661 43.9891 11.6801 43.9214 11.7092C43.8537 11.7382 43.7933 11.7817 43.7447 11.8364C43.6961 11.8911 43.6604 11.9557 43.6402 12.0256C43.62 12.0955 43.6157 12.1689 43.6278 12.2405L43.7055 12.8568C43.7272 13.0135 43.8054 13.1574 43.9257 13.2623C44.0461 13.3673 44.2007 13.4265 44.3616 13.4292Z" fill="white"/>
<path d="M47.0182 16.9615H49.5128C49.5866 16.9633 49.6599 16.949 49.7274 16.9198C49.795 16.8906 49.8552 16.8472 49.9037 16.7926C49.9523 16.7379 49.988 16.6735 50.0083 16.6037C50.0287 16.534 50.0332 16.4608 50.0214 16.3891L49.9807 16.0667C49.9595 15.9111 49.8826 15.768 49.7638 15.6631C49.6449 15.5582 49.4919 15.4984 49.3323 15.4943H46.8357C46.7618 15.4922 46.6883 15.5062 46.6206 15.5353C46.5529 15.5644 46.4925 15.6079 46.4439 15.6626C46.3953 15.7173 46.3596 15.7819 46.3394 15.8518C46.3192 15.9216 46.315 15.995 46.327 16.0667L46.3678 16.3891C46.3894 16.5449 46.4667 16.688 46.5859 16.7929C46.705 16.8977 46.8583 16.9575 47.0182 16.9615Z" fill="#1D3354"/>
<path d="M39.3916 16.9615H45.1827C45.2564 16.9633 45.3297 16.9491 45.3973 16.9199C45.4648 16.8907 45.525 16.8472 45.5736 16.7926C45.6221 16.7379 45.6578 16.6735 45.6782 16.6038C45.6985 16.534 45.703 16.4608 45.6913 16.3892L45.6505 16.0667C45.6294 15.9111 45.5524 15.7681 45.4336 15.6632C45.3148 15.5583 45.1618 15.4984 45.0021 15.4944H39.2091C39.1353 15.4922 39.0619 15.5062 38.9942 15.5353C38.9265 15.5644 38.8663 15.6079 38.8178 15.6626C38.7694 15.7174 38.7339 15.782 38.7139 15.8519C38.6939 15.9218 38.69 15.9952 38.7024 16.0667L38.7412 16.3892C38.7632 16.5447 38.8406 16.6876 38.9597 16.7924C39.0788 16.8972 39.2318 16.9571 39.3916 16.9615Z" fill="#1D3354"/>
<path d="M33.2037 16.9615H37.5543C37.628 16.9629 37.7011 16.9485 37.7685 16.9192C37.8359 16.8899 37.8959 16.8464 37.9444 16.7919C37.9929 16.7373 38.0286 16.673 38.0491 16.6034C38.0696 16.5338 38.0743 16.4607 38.063 16.3891L38.0222 16.0667C38.001 15.9108 37.9238 15.7675 37.8045 15.6625C37.6853 15.5576 37.5318 15.498 37.3718 15.4943H33.0232C32.9493 15.4922 32.8758 15.5062 32.8081 15.5353C32.7404 15.5644 32.68 15.6079 32.6314 15.6626C32.5828 15.7173 32.5471 15.7819 32.5269 15.8518C32.5067 15.9216 32.5025 15.995 32.5145 16.0667L32.5534 16.3891C32.5757 16.5446 32.6532 16.6873 32.7722 16.792C32.8912 16.8967 33.044 16.9568 33.2037 16.9615Z" fill="#1D3354"/>
<path d="M29.0748 16.9615H31.3656C31.4394 16.9633 31.5127 16.949 31.5802 16.9198C31.6478 16.8906 31.708 16.8472 31.7565 16.7926C31.8051 16.7379 31.8408 16.6735 31.8611 16.6037C31.8815 16.534 31.886 16.4608 31.8743 16.3891L31.8335 16.0667C31.8123 15.9108 31.7351 15.7675 31.6158 15.6625C31.4966 15.5576 31.3431 15.498 31.1831 15.4943H28.8943C28.8204 15.4922 28.7469 15.5062 28.6792 15.5353C28.6115 15.5644 28.5511 15.6079 28.5025 15.6626C28.4539 15.7173 28.4182 15.7819 28.398 15.8518C28.3778 15.9216 28.3736 15.995 28.3856 16.0667L28.4264 16.3891C28.4479 16.5446 28.525 16.6874 28.6437 16.7923C28.7625 16.8971 28.9152 16.9571 29.0748 16.9615Z" fill="#1D3354"/>
<path d="M45.4299 19.0962H49.7786C49.8525 19.0983 49.9259 19.0843 49.9936 19.0552C50.0614 19.0261 50.1217 18.9827 50.1703 18.928C50.2189 18.8733 50.2546 18.8087 50.2748 18.7388C50.2951 18.6689 50.2993 18.5955 50.2872 18.5238L50.2464 18.2014C50.2249 18.046 50.1479 17.9031 50.0291 17.7983C49.9104 17.6935 49.7576 17.6335 49.598 17.6291H45.2474C45.1736 17.6273 45.1004 17.6415 45.0328 17.6707C44.9653 17.6999 44.9051 17.7434 44.8565 17.798C44.808 17.8526 44.7723 17.9171 44.7519 17.9868C44.7316 18.0565 44.7271 18.1298 44.7388 18.2014L44.7796 18.5238C44.8008 18.6798 44.878 18.8231 44.9972 18.928C45.1165 19.033 45.2699 19.0926 45.4299 19.0962Z" fill="#1D3354"/>
<path d="M38.4182 19.0962H43.59C43.6639 19.0983 43.7373 19.0843 43.805 19.0552C43.8728 19.0261 43.9331 18.9827 43.9817 18.928C44.0304 18.8733 44.0661 18.8087 44.0863 18.7388C44.1065 18.6689 44.1107 18.5955 44.0986 18.5238L44.0598 18.2014C44.0374 18.046 43.9599 17.9033 43.8409 17.7986C43.7219 17.6938 43.5691 17.6338 43.4095 17.6291H38.2357C38.1619 17.6273 38.0887 17.6415 38.0211 17.6707C37.9535 17.6999 37.8933 17.7434 37.8448 17.798C37.7963 17.8526 37.7605 17.9171 37.7402 17.9868C37.7198 18.0565 37.7154 18.1298 37.7271 18.2014L37.7678 18.5238C37.7891 18.6798 37.8663 18.8231 37.9855 18.928C38.1047 19.033 38.2582 19.0926 38.4182 19.0962Z" fill="#1D3354"/>
<path d="M34.0842 19.0962H36.5789C36.6527 19.0983 36.7262 19.0843 36.7939 19.0552C36.8616 19.0261 36.922 18.9827 36.9706 18.928C37.0192 18.8733 37.0549 18.8087 37.0751 18.7388C37.0953 18.6689 37.0996 18.5955 37.0875 18.5238L37.0467 18.2014C37.0251 18.0457 36.9478 17.9026 36.8287 17.7977C36.7095 17.6928 36.5563 17.633 36.3964 17.6291H33.9017C33.8279 17.6273 33.7547 17.6415 33.6871 17.6707C33.6196 17.6999 33.5594 17.7434 33.5108 17.798C33.4623 17.8526 33.4266 17.9171 33.4062 17.9868C33.3859 18.0565 33.3814 18.1298 33.3931 18.2014L33.4339 18.5238C33.4551 18.6798 33.5323 18.8231 33.6515 18.928C33.7707 19.033 33.9242 19.0926 34.0842 19.0962Z" fill="#1D3354"/>
<path d="M29.342 19.0962H32.2541C32.328 19.0983 32.4014 19.0843 32.4691 19.0552C32.5369 19.0261 32.5972 18.9827 32.6458 18.928C32.6944 18.8733 32.7301 18.8087 32.7503 18.7388C32.7705 18.6689 32.7748 18.5955 32.7627 18.5238L32.7219 18.2014C32.7003 18.0457 32.623 17.9026 32.5039 17.7977C32.3847 17.6928 32.2315 17.633 32.0716 17.6291H29.1595C29.0858 17.6273 29.0125 17.6415 28.9449 17.6707C28.8774 17.6999 28.8172 17.7434 28.7686 17.798C28.7201 17.8526 28.6844 17.9171 28.664 17.9868C28.6437 18.0565 28.6392 18.1298 28.6509 18.2014L28.6917 18.5238C28.7129 18.6798 28.7901 18.8231 28.9093 18.928C29.0286 19.033 29.182 19.0926 29.342 19.0962Z" fill="#1D3354"/>
<g opacity="0.7">
<path d="M47.0201 16.9615H49.5148C49.5885 16.9633 49.6618 16.949 49.7294 16.9198C49.7969 16.8906 49.8571 16.8472 49.9057 16.7926C49.9542 16.7379 49.9899 16.6735 50.0103 16.6037C50.0306 16.534 50.0351 16.4608 50.0234 16.3891L49.9826 16.0667C49.9615 15.9111 49.8845 15.768 49.7657 15.6631C49.6469 15.5582 49.4939 15.4984 49.3342 15.4943H46.8376C46.7637 15.4922 46.6903 15.5062 46.6226 15.5353C46.5548 15.5644 46.4945 15.6079 46.4459 15.6626C46.3973 15.7173 46.3616 15.7819 46.3414 15.8518C46.3211 15.9216 46.3169 15.995 46.329 16.0667L46.3697 16.3891C46.3914 16.5449 46.4687 16.688 46.5878 16.7929C46.707 16.8977 46.8602 16.9575 47.0201 16.9615Z" fill="white"/>
<path d="M39.3935 16.9615H45.1846C45.2584 16.9633 45.3317 16.9491 45.3992 16.9199C45.4668 16.8907 45.527 16.8472 45.5755 16.7926C45.6241 16.7379 45.6598 16.6735 45.6801 16.6038C45.7005 16.534 45.705 16.4608 45.6933 16.3892L45.6525 16.0667C45.6313 15.9111 45.5544 15.7681 45.4356 15.6632C45.3167 15.5583 45.1638 15.4984 45.0041 15.4944H39.211C39.1372 15.4922 39.0638 15.5062 38.9962 15.5353C38.9285 15.5644 38.8683 15.6079 38.8198 15.6626C38.7713 15.7174 38.7358 15.782 38.7158 15.8519C38.6959 15.9218 38.6919 15.9952 38.7043 16.0667L38.7432 16.3892C38.7651 16.5447 38.8426 16.6876 38.9616 16.7924C39.0807 16.8972 39.2337 16.9571 39.3935 16.9615Z" fill="white"/>
<path d="M33.2076 16.9615H37.5582C37.6319 16.9629 37.705 16.9485 37.7724 16.9192C37.8398 16.8899 37.8998 16.8464 37.9483 16.7919C37.9968 16.7373 38.0325 16.673 38.053 16.6034C38.0735 16.5338 38.0782 16.4607 38.0669 16.3891L38.0261 16.0667C38.0049 15.9108 37.9277 15.7675 37.8084 15.6625C37.6892 15.5576 37.5358 15.498 37.3757 15.4943H33.0271C32.9532 15.4922 32.8798 15.5062 32.812 15.5353C32.7443 15.5644 32.684 15.6079 32.6353 15.6626C32.5867 15.7173 32.551 15.7819 32.5308 15.8518C32.5106 15.9216 32.5064 15.995 32.5184 16.0667L32.5573 16.3891C32.5796 16.5446 32.6571 16.6873 32.7761 16.792C32.8951 16.8967 33.048 16.9568 33.2076 16.9615Z" fill="white"/>
<path d="M29.0787 16.9615H31.3695C31.4433 16.9633 31.5166 16.949 31.5841 16.9198C31.6517 16.8906 31.7119 16.8472 31.7604 16.7926C31.809 16.7379 31.8447 16.6735 31.865 16.6037C31.8854 16.534 31.8899 16.4608 31.8782 16.3891L31.8374 16.0667C31.8162 15.9108 31.739 15.7675 31.6197 15.6625C31.5005 15.5576 31.3471 15.498 31.187 15.4943H28.8982C28.8243 15.4922 28.7508 15.5062 28.6831 15.5353C28.6154 15.5644 28.555 15.6079 28.5064 15.6626C28.4578 15.7173 28.4221 15.7819 28.4019 15.8518C28.3817 15.9216 28.3775 15.995 28.3895 16.0667L28.4303 16.3891C28.4519 16.5446 28.5289 16.6874 28.6476 16.7923C28.7664 16.8971 28.9192 16.9571 29.0787 16.9615Z" fill="white"/>
<path d="M45.4319 19.0962H49.7805C49.8544 19.0983 49.9278 19.0843 49.9956 19.0552C50.0633 19.0261 50.1236 18.9827 50.1723 18.928C50.2209 18.8733 50.2566 18.8087 50.2768 18.7388C50.297 18.6689 50.3012 18.5955 50.2892 18.5238L50.2484 18.2014C50.2268 18.046 50.1498 17.9031 50.0311 17.7983C49.9123 17.6935 49.7595 17.6335 49.6 17.6291H45.2494C45.1756 17.6273 45.1023 17.6415 45.0348 17.6707C44.9672 17.6999 44.907 17.7434 44.8585 17.798C44.8099 17.8526 44.7742 17.9171 44.7539 17.9868C44.7335 18.0565 44.729 18.1298 44.7407 18.2014L44.7815 18.5238C44.8027 18.6798 44.8799 18.8231 44.9992 18.928C45.1184 19.033 45.2718 19.0926 45.4319 19.0962Z" fill="white"/>
<path d="M38.4241 19.0962H43.5959C43.6697 19.0983 43.7432 19.0843 43.8109 19.0552C43.8786 19.0261 43.939 18.9827 43.9876 18.928C44.0362 18.8733 44.0719 18.8087 44.0921 18.7388C44.1123 18.6689 44.1166 18.5955 44.1045 18.5238L44.0657 18.2014C44.0433 18.046 43.9658 17.9033 43.8468 17.7986C43.7278 17.6938 43.575 17.6338 43.4153 17.6291H38.2416C38.1678 17.6273 38.0945 17.6415 38.027 17.6707C37.9594 17.6999 37.8992 17.7434 37.8507 17.798C37.8021 17.8526 37.7664 17.9171 37.746 17.9868C37.7257 18.0565 37.7212 18.1298 37.7329 18.2014L37.7737 18.5238C37.7949 18.6798 37.8721 18.8231 37.9914 18.928C38.1106 19.033 38.264 19.0926 38.4241 19.0962Z" fill="white"/>
<path d="M34.0901 19.0962H36.5847C36.6586 19.0983 36.732 19.0843 36.7998 19.0552C36.8675 19.0261 36.9278 18.9827 36.9765 18.928C37.0251 18.8733 37.0608 18.8087 37.081 18.7388C37.1012 18.6689 37.1054 18.5955 37.0934 18.5238L37.0526 18.2014C37.031 18.0457 36.9537 17.9026 36.8345 17.7977C36.7154 17.6928 36.5621 17.633 36.4022 17.6291H33.9076C33.8338 17.6273 33.7605 17.6415 33.693 17.6707C33.6254 17.6999 33.5652 17.7434 33.5167 17.798C33.4681 17.8526 33.4324 17.9171 33.4121 17.9868C33.3917 18.0565 33.3872 18.1298 33.3989 18.2014L33.4397 18.5238C33.4609 18.6798 33.5381 18.8231 33.6574 18.928C33.7766 19.033 33.9301 19.0926 34.0901 19.0962Z" fill="white"/>
<path d="M29.3459 19.0962H32.258C32.3319 19.0983 32.4053 19.0843 32.473 19.0552C32.5408 19.0261 32.6011 18.9827 32.6497 18.928C32.6983 18.8733 32.734 18.8087 32.7542 18.7388C32.7745 18.6689 32.7787 18.5955 32.7666 18.5238L32.7258 18.2014C32.7042 18.0457 32.6269 17.9026 32.5078 17.7977C32.3886 17.6928 32.2354 17.633 32.0755 17.6291H29.1634C29.0897 17.6273 29.0164 17.6415 28.9488 17.6707C28.8813 17.6999 28.8211 17.7434 28.7725 17.798C28.724 17.8526 28.6883 17.9171 28.6679 17.9868C28.6476 18.0565 28.6431 18.1298 28.6548 18.2014L28.6956 18.5238C28.7168 18.6798 28.794 18.8231 28.9132 18.928C29.0325 19.033 29.1859 19.0926 29.3459 19.0962Z" fill="white"/>
</g>
<path d="M37.6033 40.6237H30.8958C30.7017 40.6237 30.6706 40.3203 30.8687 40.3203H37.5761C37.7702 40.3203 37.8032 40.6237 37.6033 40.6237Z" fill="#1D3354"/>
<path d="M53.0368 40.6237H46.3294C46.1353 40.6237 46.1042 40.3203 46.3022 40.3203H53.0097C53.2038 40.3203 53.2368 40.6237 53.0368 40.6237Z" fill="#1D3354"/>
<path d="M51.8701 31.2897H43.3087C43.1146 31.2897 43.0816 30.9863 43.2815 30.9863H51.843C52.0371 30.9863 52.0682 31.2897 51.8701 31.2897Z" fill="#1D3354"/>
<path d="M43.4261 32.1465H51.9875C52.1816 32.1465 52.2127 32.4498 52.0147 32.4498H43.4532C43.2591 32.4498 43.2261 32.1465 43.4261 32.1465Z" fill="#1D3354"/>
<path d="M43.5745 33.3125H52.1359C52.3301 33.3125 52.3611 33.6159 52.1631 33.6159H43.6017C43.4075 33.6159 43.3745 33.3125 43.5745 33.3125Z" fill="#1D3354"/>
<path d="M43.721 34.4805H52.2921C52.4863 34.4805 52.5173 34.7838 52.3174 34.7838H43.7501C43.556 34.7838 43.523 34.4805 43.7229 34.4805H43.721Z" fill="#1D3354"/>
<path d="M43.8694 35.6484H52.4309C52.625 35.6484 52.6561 35.9537 52.4561 35.9537H43.8966C43.7025 35.9537 43.6695 35.6484 43.8694 35.6484Z" fill="#1D3354"/>
<path d="M39.072 31.2897H32.3646C32.1704 31.2897 32.1394 30.9863 32.3374 30.9863H39.0448C39.239 30.9863 39.272 31.2897 39.072 31.2897Z" fill="#1D3354"/>
<path d="M32.4885 32.1465H39.1959C39.3901 32.1465 39.4231 32.4498 39.2231 32.4498H32.5079C32.3138 32.4498 32.2808 32.1465 32.4808 32.1465H32.4885Z" fill="#1D3354"/>
<path d="M32.6292 33.3125H39.3366C39.5308 33.3125 39.5618 33.6159 39.3638 33.6159H32.6564C32.4622 33.6159 32.4292 33.3125 32.6292 33.3125Z" fill="#1D3354"/>
<path d="M32.7757 34.4805H39.4812C39.6753 34.4805 39.7064 34.7838 39.5083 34.7838H32.8029C32.6087 34.7838 32.5757 34.4805 32.7757 34.4805Z" fill="#1D3354"/>
<path d="M32.9163 35.6484H39.6237C39.8179 35.6484 39.8489 35.9537 39.6509 35.9537H32.9435C32.7493 35.9537 32.7163 35.6484 32.9163 35.6484Z" fill="#1D3354"/>
<path d="M29.1609 25.2675L29.3376 26.6851L29.5143 28.1026L29.6909 29.5183H51.7313L51.5371 27.95L51.3605 26.5324L51.1838 25.1168L51.0071 23.6992H28.9648L29.1609 25.2675ZM33.0941 24.4834L33.1718 25.1168H29.2891L29.1318 23.8499H33.0145L33.0941 24.4834ZM33.4242 25.9009L33.3465 25.2675H40.1044L40.184 25.9009L40.2617 26.5324H33.5038L33.4242 25.9009ZM40.252 25.2675H47.0099L47.0894 25.9009L47.1671 26.5324H40.417L40.3374 25.9009L40.252 25.2675ZM47.3438 27.95H40.5936L40.514 27.3166L40.4364 26.6851H47.1943L47.2739 27.3166L47.3438 27.95ZM40.4306 27.95H33.6804L33.6008 27.3166L33.5212 26.6851H40.2811L40.3587 27.3166L40.4306 27.95ZM39.9996 24.4834L40.0772 25.1168H33.3271L33.2475 24.4834L33.1698 23.8499H39.9277L39.9996 24.4834ZM46.9128 24.4834L46.9904 25.1168H40.2403L40.1607 24.4834L40.0831 23.8499H46.841L46.9128 24.4834ZM51.0207 25.1168H47.138L47.0584 24.4834L46.9807 23.8499H50.8635L51.0207 25.1168ZM51.1974 26.5324H47.3146L47.2351 25.9009L47.1574 25.2675H51.0401L51.1974 26.5324ZM51.374 27.95H47.4913L47.4117 27.3166L47.3341 26.6851H51.2168L51.374 27.95ZM47.5961 28.7341L47.5185 28.1026H51.4012L51.5585 29.3675H47.6757L47.5961 28.7341ZM40.6829 28.7341L40.6033 28.1026H47.3632L47.4408 28.7341L47.5204 29.3675H40.7703L40.6829 28.7341ZM33.7697 28.7341L33.6901 28.1026H40.45L40.5276 28.7341L40.6072 29.3675H33.8571L33.7697 28.7341ZM29.6618 28.1026H33.5445L33.6222 28.7341L33.7018 29.3675H29.819L29.6618 28.1026ZM29.4851 26.6851H33.3679L33.4455 27.3166L33.5251 27.95H29.6424L29.4851 26.6851ZM29.3085 25.2675H33.1912L33.2689 25.9009L33.3485 26.5324H29.4657L29.3085 25.2675Z" fill="#2286FE"/>
<path opacity="0.5" d="M29.1609 25.2675L29.3376 26.6851L29.5143 28.1026L29.6909 29.5183H51.7313L51.5371 27.95L51.3605 26.5324L51.1838 25.1168L51.0071 23.6992H28.9648L29.1609 25.2675ZM33.0941 24.4834L33.1718 25.1168H29.2891L29.1318 23.8499H33.0145L33.0941 24.4834ZM33.4242 25.9009L33.3465 25.2675H40.1044L40.184 25.9009L40.2617 26.5324H33.5038L33.4242 25.9009ZM40.252 25.2675H47.0099L47.0894 25.9009L47.1671 26.5324H40.417L40.3374 25.9009L40.252 25.2675ZM47.3438 27.95H40.5936L40.514 27.3166L40.4364 26.6851H47.1943L47.2739 27.3166L47.3438 27.95ZM40.4306 27.95H33.6804L33.6008 27.3166L33.5212 26.6851H40.2811L40.3587 27.3166L40.4306 27.95ZM39.9996 24.4834L40.0772 25.1168H33.3271L33.2475 24.4834L33.1698 23.8499H39.9277L39.9996 24.4834ZM46.9128 24.4834L46.9904 25.1168H40.2403L40.1607 24.4834L40.0831 23.8499H46.841L46.9128 24.4834ZM51.0207 25.1168H47.138L47.0584 24.4834L46.9807 23.8499H50.8635L51.0207 25.1168ZM51.1974 26.5324H47.3146L47.2351 25.9009L47.1574 25.2675H51.0401L51.1974 26.5324ZM51.374 27.95H47.4913L47.4117 27.3166L47.3341 26.6851H51.2168L51.374 27.95ZM47.5961 28.7341L47.5185 28.1026H51.4012L51.5585 29.3675H47.6757L47.5961 28.7341ZM40.6829 28.7341L40.6033 28.1026H47.3632L47.4408 28.7341L47.5204 29.3675H40.7703L40.6829 28.7341ZM33.7697 28.7341L33.6901 28.1026H40.45L40.5276 28.7341L40.6072 29.3675H33.8571L33.7697 28.7341ZM29.6618 28.1026H33.5445L33.6222 28.7341L33.7018 29.3675H29.819L29.6618 28.1026ZM29.4851 26.6851H33.3679L33.4455 27.3166L33.5251 27.95H29.6424L29.4851 26.6851ZM29.3085 25.2675H33.1912L33.2689 25.9009L33.3485 26.5324H29.4657L29.3085 25.2675Z" fill="white"/>
<path d="M30.4738 32.2427H31.1126C31.14 32.2428 31.1671 32.2373 31.1921 32.2264C31.2172 32.2155 31.2396 32.1996 31.258 32.1796C31.2763 32.1596 31.2901 32.136 31.2985 32.1104C31.3069 32.0847 31.3097 32.0576 31.3067 32.0309L31.229 31.4032C31.2208 31.3456 31.1921 31.2928 31.1481 31.254C31.104 31.2153 31.0474 31.1931 30.9883 31.1914H30.3477C30.3203 31.1912 30.2931 31.1968 30.2681 31.2077C30.243 31.2185 30.2206 31.2345 30.2022 31.2545C30.1839 31.2745 30.1701 31.2981 30.1617 31.3237C30.1533 31.3493 30.1505 31.3764 30.1535 31.4032L30.2312 32.0309C30.2398 32.0886 30.2689 32.1415 30.3133 32.1802C30.3577 32.2189 30.4145 32.241 30.4738 32.2427Z" fill="#2286FE"/>
<path d="M30.6164 33.3872H31.2571C31.2845 33.3874 31.3116 33.3818 31.3367 33.3709C31.3617 33.3601 31.3842 33.3441 31.4025 33.3241C31.4208 33.3041 31.4347 33.2805 31.4431 33.2549C31.4515 33.2293 31.4542 33.2022 31.4512 33.1754L31.3736 32.5477C31.3649 32.49 31.3358 32.4371 31.2915 32.3984C31.2471 32.3597 31.1902 32.3376 31.1309 32.3359H30.4922C30.4648 32.3358 30.4377 32.3413 30.4126 32.3522C30.3875 32.3631 30.3651 32.379 30.3468 32.399C30.3284 32.419 30.3146 32.4426 30.3062 32.4682C30.2978 32.4939 30.295 32.521 30.2981 32.5477L30.3757 33.1754C30.3839 33.233 30.4126 33.2858 30.4567 33.3245C30.5007 33.3633 30.5573 33.3855 30.6164 33.3872Z" fill="#2286FE"/>
<path d="M30.7608 34.5337H31.3995C31.4267 34.5338 31.4536 34.5284 31.4785 34.5176C31.5034 34.5068 31.5258 34.4911 31.5441 34.4713C31.5624 34.4515 31.5763 34.4281 31.5848 34.4027C31.5933 34.3773 31.5963 34.3505 31.5936 34.3238L31.514 33.6942C31.5057 33.6369 31.477 33.5843 31.4329 33.5458C31.3888 33.5074 31.3322 33.4856 31.2733 33.4844H30.6346C30.6073 33.4842 30.5804 33.4897 30.5555 33.5005C30.5306 33.5113 30.5082 33.527 30.4899 33.5468C30.4716 33.5666 30.4578 33.59 30.4492 33.6154C30.4407 33.6408 30.4377 33.6676 30.4404 33.6942L30.52 34.3238C30.5283 34.3812 30.5571 34.4338 30.6012 34.4722C30.6452 34.5107 30.7018 34.5325 30.7608 34.5337Z" fill="#2286FE"/>
<path d="M30.9035 35.6782H31.5422C31.5696 35.6784 31.5968 35.6728 31.6218 35.662C31.6469 35.6511 31.6693 35.6351 31.6877 35.6151C31.706 35.5951 31.7198 35.5715 31.7282 35.5459C31.7366 35.5203 31.7394 35.4932 31.7364 35.4664L31.6587 34.8387C31.6504 34.7809 31.6215 34.7278 31.577 34.689C31.5326 34.6502 31.4755 34.6282 31.4161 34.627H30.7773C30.75 34.6268 30.7228 34.6323 30.6978 34.6432C30.6727 34.6541 30.6503 34.67 30.6319 34.69C30.6136 34.71 30.5998 34.7336 30.5914 34.7593C30.583 34.7849 30.5802 34.812 30.5832 34.8387L30.6609 35.4664C30.6695 35.5241 30.6986 35.577 30.743 35.6157C30.7874 35.6545 30.8442 35.6766 30.9035 35.6782Z" fill="#2286FE"/>
<path opacity="0.5" d="M30.6164 33.3872H31.2571C31.2845 33.3874 31.3116 33.3818 31.3367 33.3709C31.3617 33.3601 31.3842 33.3441 31.4025 33.3241C31.4208 33.3041 31.4347 33.2805 31.4431 33.2549C31.4515 33.2293 31.4542 33.2022 31.4512 33.1754L31.3736 32.5477C31.3649 32.49 31.3358 32.4371 31.2915 32.3984C31.2471 32.3597 31.1902 32.3376 31.1309 32.3359H30.4922C30.4648 32.3358 30.4377 32.3413 30.4126 32.3522C30.3875 32.3631 30.3651 32.379 30.3468 32.399C30.3284 32.419 30.3146 32.4426 30.3062 32.4682C30.2978 32.4939 30.295 32.521 30.2981 32.5477L30.3757 33.1754C30.3839 33.233 30.4126 33.2858 30.4567 33.3245C30.5007 33.3633 30.5573 33.3855 30.6164 33.3872Z" fill="white"/>
<path opacity="0.5" d="M30.9035 35.6782H31.5422C31.5696 35.6784 31.5968 35.6728 31.6218 35.662C31.6469 35.6511 31.6693 35.6351 31.6877 35.6151C31.706 35.5951 31.7198 35.5715 31.7282 35.5459C31.7366 35.5203 31.7394 35.4932 31.7364 35.4664L31.6587 34.8387C31.6504 34.7809 31.6215 34.7278 31.577 34.689C31.5326 34.6502 31.4755 34.6282 31.4161 34.627H30.7773C30.75 34.6268 30.7228 34.6323 30.6978 34.6432C30.6727 34.6541 30.6503 34.67 30.6319 34.69C30.6136 34.71 30.5998 34.7336 30.5914 34.7593C30.583 34.7849 30.5802 34.812 30.5832 34.8387L30.6609 35.4664C30.6695 35.5241 30.6986 35.577 30.743 35.6157C30.7874 35.6545 30.8442 35.6766 30.9035 35.6782Z" fill="white"/>
<path d="M33.7088 1.67134H36.2326L35.8443 0.738381C35.7182 0.444567 35.9841 0.166016 36.3802 0.166016H38.8379C39.2262 0.166016 39.5504 0.45029 39.4766 0.738381L39.2437 1.67134H41.7675C42.143 1.67739 42.5032 1.81864 42.7798 2.06832C43.0564 2.31799 43.2302 2.65873 43.2681 3.02593L43.4623 5.20283C43.4733 5.30238 43.4627 5.4031 43.431 5.4983C43.3994 5.5935 43.3475 5.681 43.2789 5.75498C43.2102 5.82897 43.1263 5.88774 43.0327 5.92741C42.9392 5.96708 42.8381 5.98673 42.7362 5.98506H33.5089C33.2925 5.98101 33.0851 5.89918 32.9259 5.75505C32.7667 5.61092 32.6668 5.41446 32.645 5.20283L32.4508 3.02593C32.4315 2.85344 32.4498 2.67887 32.5045 2.51387C32.5592 2.34887 32.6491 2.19722 32.7681 2.06904C32.8872 1.94086 33.0326 1.83909 33.1948 1.77051C33.3571 1.70193 33.5323 1.66812 33.7088 1.67134Z" fill="#2286FE"/>
<path opacity="0.2" d="M39.244 1.67056H36.229L35.9941 1.12109H39.3818L39.244 1.67056Z" fill="black"/>
<path d="M41.2736 4.67946C41.2855 4.79355 41.3394 4.89942 41.4252 4.97711C41.5111 5.05479 41.6229 5.0989 41.7396 5.1011C41.7942 5.1014 41.8482 5.09037 41.8982 5.06874C41.9482 5.04711 41.993 5.01536 42.0296 4.97557C42.0662 4.93578 42.0939 4.88884 42.1109 4.83781C42.1278 4.78679 42.1336 4.73283 42.1278 4.67946C42.116 4.56537 42.0621 4.45949 41.9762 4.38181C41.8904 4.30413 41.7786 4.26002 41.6619 4.25782C41.6073 4.25752 41.5532 4.26855 41.5033 4.29018C41.4533 4.31181 41.4085 4.34356 41.3719 4.38335C41.3352 4.42314 41.3075 4.47008 41.2906 4.52111C41.2737 4.57213 41.2679 4.62609 41.2736 4.67946Z" fill="#1D3354"/>
<path d="M33.8771 4.67947C33.8894 4.79372 33.9438 4.89963 34.0299 4.97728C34.1161 5.05492 34.2281 5.09896 34.345 5.10112C34.3996 5.10141 34.4537 5.09039 34.5037 5.06875C34.5536 5.04712 34.5984 5.01538 34.6351 4.97558C34.6717 4.93579 34.6994 4.88885 34.7163 4.83783C34.7332 4.78681 34.739 4.73284 34.7333 4.67947C34.7219 4.56523 34.6681 4.45911 34.5821 4.38135C34.4962 4.30359 34.3842 4.25963 34.2674 4.25783C34.2126 4.25727 34.1583 4.26809 34.1081 4.28961C34.0579 4.31112 34.0129 4.34283 33.976 4.38265C33.9392 4.42247 33.9113 4.46951 33.8943 4.52066C33.8772 4.57182 33.8714 4.62594 33.8771 4.67947Z" fill="#1D3354"/>
<path d="M50.2039 39.0829L38.7887 41.277C38.6619 41.3057 38.5304 41.3078 38.4027 41.283C38.2751 41.2581 38.1543 41.207 38.0482 41.1329C37.9422 41.0587 37.8534 40.9634 37.7876 40.8531C37.7218 40.7427 37.6806 40.6199 37.6666 40.4928L37.4725 38.7872C37.4501 38.5173 37.5295 38.2487 37.6956 38.0327C37.8618 37.8167 38.103 37.6682 38.3733 37.6157L49.7885 35.4217C49.9154 35.3929 50.047 35.3908 50.1748 35.4157C50.3025 35.4405 50.4235 35.4916 50.5297 35.5657C50.6359 35.6398 50.7249 35.7351 50.7909 35.8454C50.8569 35.9558 50.8983 36.0786 50.9126 36.2058L51.1067 37.9114C51.129 38.1816 51.0493 38.4504 50.8828 38.6665C50.7163 38.8825 50.4746 39.0308 50.2039 39.0829ZM38.4063 37.9C38.2148 37.9373 38.0439 38.0424 37.9261 38.1955C37.8084 38.3485 37.7519 38.5387 37.7675 38.7299L37.9617 40.4356C37.9717 40.5257 38.001 40.6127 38.0477 40.6909C38.0944 40.7691 38.1574 40.8366 38.2326 40.8891C38.3078 40.9416 38.3935 40.9777 38.484 40.9953C38.5745 41.0128 38.6678 41.0113 38.7576 40.9908L50.1709 38.7986C50.3628 38.7613 50.534 38.6559 50.6518 38.5024C50.7696 38.349 50.8258 38.1583 50.8097 37.9668L50.6155 36.2611C50.6056 36.1713 50.5763 36.0845 50.5297 36.0065C50.4831 35.9286 50.4202 35.8612 50.3452 35.809C50.2701 35.7567 50.1846 35.7206 50.0944 35.7032C50.0041 35.6857 49.9111 35.6873 49.8215 35.7078L38.4063 37.9Z" fill="#2286FE"/>
<path d="M40.0196 39.5193L39.4372 39.63L39.3556 39.9086L39.0625 39.9658L39.4799 38.6608L39.7633 38.6055L40.4545 39.6968L40.1516 39.7559L40.0196 39.5193ZM39.9051 39.3286L39.6566 38.9069L39.511 39.4049L39.9051 39.3286Z" fill="#2286FE"/>
<path d="M41.286 38.3678C41.3661 38.3833 41.4388 38.4244 41.4925 38.4849C41.5463 38.5453 41.5781 38.6215 41.583 38.7017C41.5935 38.7846 41.5793 38.8687 41.5423 38.944C41.5059 39.0223 41.4473 39.0886 41.3734 39.1347C41.2875 39.1881 41.1919 39.2244 41.0919 39.2416L40.8434 39.2893L40.8802 39.6213L40.5929 39.6747L40.457 38.4765L40.9948 38.3735C41.0904 38.3516 41.1896 38.3496 41.286 38.3678ZM41.2413 38.923C41.2619 38.9008 41.277 38.8743 41.2858 38.8456C41.2945 38.8169 41.2966 38.7866 41.2918 38.757C41.2909 38.7283 41.2826 38.7003 41.2676 38.6756C41.2527 38.6509 41.2316 38.6303 41.2064 38.6158C41.1456 38.5883 41.0771 38.5823 41.0123 38.5986L40.7774 38.6444L40.8259 39.0603L41.0589 39.0145C41.1285 39.004 41.1926 38.9711 41.2413 38.9211V38.923Z" fill="#2286FE"/>
<path d="M42.5633 38.1217C42.6419 38.1388 42.7132 38.1794 42.7672 38.2381C42.8218 38.2985 42.8546 38.3749 42.8604 38.4556C42.871 38.5385 42.8568 38.6227 42.8196 38.6979C42.7833 38.7762 42.7246 38.8425 42.6507 38.8886C42.5658 38.9424 42.4707 38.9787 42.3711 38.9955L42.1207 39.0432L42.1576 39.3752L41.8703 39.4305L41.7344 38.2304L42.2721 38.1274C42.3677 38.1055 42.4669 38.1035 42.5633 38.1217ZM42.5187 38.6769C42.5392 38.6547 42.5544 38.6282 42.5631 38.5995C42.5719 38.5708 42.5739 38.5405 42.5692 38.5109C42.5682 38.4822 42.5599 38.4542 42.545 38.4295C42.53 38.4048 42.509 38.3842 42.4837 38.3697C42.4227 38.3431 42.3545 38.3371 42.2896 38.3525L42.0547 38.3983L42.1032 38.8142L42.3362 38.7685C42.4057 38.7588 42.47 38.7266 42.5187 38.6769Z" fill="#2286FE"/>
<path d="M43.9436 39.0282L43.666 38.7401H43.6504L43.402 38.7878L43.4388 39.1217L43.1515 39.177L43.0156 37.9788L43.5534 37.8758C43.6498 37.8539 43.7501 37.8539 43.8465 37.8758C43.9249 37.8924 43.9961 37.9324 44.0504 37.9903C44.1033 38.0515 44.1353 38.1277 44.1416 38.2078C44.1523 38.2914 44.1381 38.3762 44.1008 38.452C44.063 38.5299 44.0039 38.596 43.93 38.6428L44.2503 38.9748L43.9436 39.0282ZM43.765 38.1238C43.7039 38.0972 43.6354 38.0918 43.5709 38.1086L43.3359 38.1525L43.3845 38.5703L43.6175 38.5264C43.6911 38.5177 43.7595 38.4847 43.8116 38.4329C43.8327 38.4111 43.8483 38.3847 43.8571 38.3559C43.8659 38.327 43.8676 38.2966 43.8621 38.2669C43.8601 38.2366 43.8499 38.2072 43.8325 38.1821C43.8151 38.1569 43.7911 38.1368 43.7631 38.1238H43.765Z" fill="#2286FE"/>
<path d="M44.6996 38.8205C44.5937 38.7884 44.5001 38.7257 44.4308 38.6407C44.3616 38.5556 44.32 38.4521 44.3113 38.3435C44.2972 38.2296 44.3153 38.1141 44.3637 38.0097C44.412 37.9034 44.4868 37.8109 44.5811 37.7406C44.6812 37.6664 44.7975 37.616 44.9209 37.5937C45.0386 37.5691 45.1607 37.5737 45.2761 37.6071C45.3808 37.639 45.4738 37.7 45.5441 37.7826C45.6156 37.8684 45.6589 37.9735 45.6683 38.0841C45.6824 38.198 45.6643 38.3135 45.6159 38.4179C45.5669 38.5238 45.4923 38.6161 45.3985 38.6869C45.2989 38.7608 45.1833 38.8111 45.0607 38.8339C44.941 38.8591 44.8169 38.8545 44.6996 38.8205ZM45.2237 38.5095C45.2777 38.4664 45.3198 38.4106 45.346 38.3473C45.3734 38.2815 45.3834 38.21 45.3752 38.1394C45.3686 38.0704 45.3431 38.0044 45.3014 37.9486C45.2624 37.8982 45.209 37.8603 45.148 37.8398C45.0817 37.8179 45.0106 37.8139 44.9422 37.8284C44.8712 37.8415 44.8045 37.8716 44.7481 37.9162C44.6929 37.9586 44.6501 38.0145 44.6238 38.0783C44.5971 38.1443 44.5878 38.2158 44.5967 38.2863C44.6026 38.3551 44.6274 38.421 44.6685 38.4771C44.7082 38.5276 44.7622 38.5655 44.8238 38.5858C44.8864 38.6063 44.9533 38.6102 45.0179 38.5973C45.0932 38.5862 45.1641 38.556 45.2237 38.5095Z" fill="#2286FE"/>
<path d="M46.9645 37.2227L46.5645 38.5238L46.2811 38.5792L45.6094 37.4821L45.92 37.423L46.3937 38.2071L46.6791 37.278L46.9645 37.2227Z" fill="#2286FE"/>
<path d="M48.14 37.9927L48.1652 38.216L47.2043 38.4067L47.0684 37.2067L48.006 37.0273L48.0313 37.2506L47.379 37.3746L47.4081 37.636L47.9905 37.5253L48.0157 37.7409L47.4333 37.8516L47.4644 38.1282L48.14 37.9927Z" fill="#2286FE"/>
<path d="M48.2578 36.9739L48.8208 36.8651C48.9407 36.8366 49.0659 36.8366 49.1858 36.8651C49.2895 36.8917 49.3823 36.949 49.4518 37.0292C49.5211 37.1145 49.563 37.2181 49.5721 37.3268C49.5874 37.4399 49.5699 37.555 49.5216 37.6588C49.4741 37.7618 49.3989 37.8502 49.3042 37.9145C49.2009 37.9875 49.0821 38.0364 48.9567 38.0575L48.3937 38.1663L48.2578 36.9739ZM48.9159 37.8381C49.0273 37.8219 49.1288 37.7663 49.2013 37.6817C49.2342 37.6406 49.2584 37.5934 49.2724 37.5429C49.2864 37.4924 49.2899 37.4397 49.2829 37.3879C49.28 37.3384 49.2657 37.2902 49.2412 37.2469C49.2166 37.2037 49.1824 37.1664 49.1411 37.1379C49.0951 37.1112 49.0441 37.0937 48.9911 37.0865C48.9381 37.0793 48.8842 37.0825 48.8325 37.096L48.5704 37.1456L48.6539 37.8897L48.9159 37.8381Z" fill="#2286FE"/>
</svg>
