<svg width="30" height="30" viewBox="0 0 30 30" fill="none" xmlns="http://www.w3.org/2000/svg">
<path d="M21.0775 5.60906L23.1862 3.49906C23.6258 3.05946 24.2221 2.8125 24.8438 2.8125C25.4654 2.8125 26.0617 3.05946 26.5013 3.49906C26.9408 3.93866 27.1878 4.53488 27.1878 5.15656C27.1878 5.77824 26.9408 6.37446 26.5013 6.81406L13.2275 20.0878C12.5667 20.7483 11.7517 21.2337 10.8563 21.5003L7.5 22.5003L8.5 19.1441C8.7666 18.2486 9.25204 17.4337 9.9125 16.7728L21.0775 5.60906ZM21.0775 5.60906L24.375 8.90656M22.5 17.5003V23.4378C22.5 24.1837 22.2037 24.8991 21.6762 25.4265C21.1488 25.954 20.4334 26.2503 19.6875 26.2503H6.5625C5.81658 26.2503 5.10121 25.954 4.57376 25.4265C4.04632 24.8991 3.75 24.1837 3.75 23.4378V10.3128C3.75 9.56689 4.04632 8.85152 4.57376 8.32407C5.10121 7.79663 5.81658 7.50031 6.5625 7.50031H12.5" stroke="#1D3354" stroke-width="1.5" stroke-linecap="round" stroke-linejoin="round"/>
</svg>
