<svg width="40" height="40" viewBox="0 0 40 40" fill="none" xmlns="http://www.w3.org/2000/svg">
<circle cx="20" cy="20" r="20" fill="#D1DFFF"/>
<path d="M24.0758 11.7957L24.0215 11.8691L24.4714 12.2053L24.5258 12.1318L24.0758 11.7957Z" fill="#407BFF"/>
<path d="M22.5524 10.657L22.498 10.7305L23.6541 11.5941L23.7084 11.5206L22.5524 10.657Z" fill="#407BFF"/>
<path d="M18.562 9.31941L9.33398 17.6298L19.7049 17.152L30.075 16.675L20.1275 9.24442C19.898 9.0736 19.6168 8.98775 19.3315 9.00141C19.0462 9.01508 18.7743 9.12742 18.562 9.31941Z" fill="#407BFF"/>
<path opacity="0.5" d="M18.562 9.31941L9.33398 17.6298L19.7049 17.152L30.075 16.675L20.1275 9.24442C19.898 9.0736 19.6168 8.98775 19.3315 9.00141C19.0462 9.01508 18.7743 9.12742 18.562 9.31941Z" fill="#4179F4"/>
<path d="M30.1861 30.0843L10.4414 30.9963C10.2158 31.0055 9.99578 30.9249 9.82918 30.7718C9.66257 30.6188 9.5629 30.4058 9.55187 30.1793L9.00083 18.0821C8.99091 17.8554 9.07065 17.6338 9.22266 17.4659C9.37466 17.298 9.58659 17.1973 9.81221 17.1858L29.5579 16.2781C29.7831 16.2686 30.003 16.3488 30.1697 16.5013C30.3364 16.6538 30.4365 16.8663 30.4482 17.0925L30.9993 29.1897C31.0087 29.4164 30.9285 29.6377 30.7762 29.8053C30.6238 29.9729 30.4117 30.0732 30.1861 30.0843Z" fill="#407BFF"/>
<path opacity="0.8" d="M30.1861 30.0843L10.4414 30.9963C10.2158 31.0055 9.99578 30.9249 9.82918 30.7718C9.66257 30.6188 9.5629 30.4058 9.55187 30.1793L9.00083 18.0821C8.99091 17.8554 9.07065 17.6338 9.22266 17.4659C9.37466 17.298 9.58659 17.1973 9.81221 17.1858L29.5579 16.2781C29.7831 16.2686 30.003 16.3488 30.1697 16.5013C30.3364 16.6538 30.4365 16.8663 30.4482 17.0925L30.9993 29.1897C31.0087 29.4164 30.9285 29.6377 30.7762 29.8053C30.6238 29.9729 30.4118 30.0732 30.1861 30.0843Z" fill="#8CB0FF"/>
<path opacity="0.2" d="M19.8073 25.4755L10.6253 17.8609C10.5616 17.8084 10.5153 17.7377 10.4925 17.6582C10.4697 17.5787 10.4714 17.4941 10.4974 17.4156C10.5235 17.3371 10.5726 17.2684 10.6384 17.2185C10.7041 17.1686 10.7834 17.14 10.8656 17.1364L19.6824 16.7309L28.4991 16.3246C28.581 16.3211 28.662 16.3424 28.7316 16.386C28.8012 16.4295 28.8561 16.4931 28.8891 16.5685C28.9221 16.6438 28.9317 16.7275 28.9166 16.8084C28.9015 16.8894 28.8625 16.9639 28.8046 17.0221L20.3532 25.4485C20.2818 25.5204 20.1864 25.5631 20.0855 25.568C19.9845 25.573 19.8854 25.5401 19.8073 25.4755Z" fill="#1C5AE2"/>
<path d="M28.0733 14.7176L14.6321 10.3242C14.2064 10.1851 13.7491 10.419 13.6106 10.8467L10.8257 19.4484C10.6872 19.8761 10.9201 20.3357 11.3457 20.4748L24.7869 24.8682C25.2126 25.0073 25.67 24.7734 25.8084 24.3457L28.5933 15.7439C28.7318 15.3162 28.499 14.8567 28.0733 14.7176Z" fill="#FAA6FF"/>
<path d="M27.9756 14.6863L14.5344 10.2929C14.1088 10.1538 13.6514 10.3877 13.5129 10.8155L10.728 19.4172C10.5896 19.8449 10.8224 20.3044 11.2481 20.4435L24.6893 24.8369C25.115 24.9761 25.5723 24.7421 25.7108 24.3144L28.4957 15.7127C28.6341 15.285 28.4013 14.8255 27.9756 14.6863Z" fill="#FAA6FF"/>
<path opacity="0.2" d="M27.9756 14.6863L14.5344 10.2929C14.1088 10.1538 13.6514 10.3877 13.5129 10.8155L10.728 19.4172C10.5896 19.8449 10.8224 20.3044 11.2481 20.4435L24.6893 24.8369C25.115 24.9761 25.5723 24.7421 25.7108 24.3144L28.4957 15.7127C28.6341 15.285 28.4013 14.8255 27.9756 14.6863Z" fill="#FAA6FF"/>
<path opacity="0.2" d="M16.4091 22.13L14.2266 21.4158L21.9464 12.7148L24.1298 13.4281L16.4091 22.13Z" fill="white"/>
<path opacity="0.2" d="M18.397 22.7799L17.123 22.364L24.8438 13.6621L26.1177 14.0789L18.397 22.7799Z" fill="white"/>
<path d="M18.8368 11.6663L18.7402 11.6348L15.4343 21.8459L15.5308 21.8774L18.8368 11.6663Z" fill="white"/>
<path d="M27.1307 20.0775L27.1621 19.9805L12.1018 15.0579L12.0704 15.1549L27.1307 20.0775Z" fill="white"/>
<path d="M17.1337 16.7895C17.1274 16.7893 17.1212 16.7874 17.1159 16.784C17.1106 16.7807 17.1062 16.7759 17.1033 16.7703C16.8907 16.316 16.462 15.6647 16.0081 14.975C15.2332 13.797 14.5017 12.6845 14.7299 12.3932C14.8063 12.2964 14.9694 12.2956 15.2289 12.3932C16.3822 12.817 17.4148 15.145 17.1675 16.7625C17.1663 16.7697 17.1629 16.7763 17.1578 16.7815C17.1527 16.7867 17.146 16.7901 17.1389 16.7912L17.1337 16.7895ZM14.913 12.388C14.8893 12.3853 14.8653 12.3882 14.8429 12.3964C14.8205 12.4045 14.8002 12.4178 14.7837 12.4351C14.585 12.6879 15.3712 13.8825 16.0646 14.9375C16.4872 15.5801 16.8881 16.1896 17.1154 16.6404C17.2977 15.0544 16.3093 12.8606 15.2063 12.4551C15.1129 12.4166 15.0138 12.3939 14.913 12.388Z" fill="#F76BFF"/>
<path d="M12.9877 19.5744C12.9045 19.5756 12.8217 19.5638 12.7421 19.5395C12.4818 19.4523 12.3507 19.223 12.362 18.8507C12.3715 18.5429 12.5599 18.2342 12.9217 17.9325C13.8893 17.1243 15.9399 16.5375 17.1409 16.7214C17.1465 16.722 17.1519 16.7241 17.1565 16.7275C17.1611 16.7309 17.1647 16.7354 17.1669 16.7406C17.1695 16.7458 17.1709 16.7514 17.1709 16.7572C17.1709 16.7629 17.1695 16.7686 17.1669 16.7738C16.4441 17.8567 14.108 19.5744 12.9877 19.5744ZM16.6489 16.7546C15.4548 16.7546 13.8008 17.2864 12.9651 17.984C12.618 18.2735 12.4384 18.5656 12.4297 18.8559C12.4193 19.1942 12.5312 19.4035 12.7629 19.4785C13.6862 19.7758 16.2896 17.916 17.0776 16.7842C16.9355 16.7647 16.7923 16.7548 16.6489 16.7546Z" fill="#F76BFF"/>
<path d="M18.0566 19.8819H18.0349C17.7095 19.8724 17.4561 19.7599 17.2808 19.548C16.8148 18.9856 16.9501 17.8041 17.1133 16.7343C17.1142 16.727 17.1175 16.7202 17.1227 16.7149C17.1279 16.7097 17.1346 16.7064 17.1419 16.7055C17.149 16.7043 17.1563 16.7056 17.1626 16.7091C17.1689 16.7125 17.1738 16.718 17.1766 16.7247C17.3207 17.0325 17.4873 17.3542 17.647 17.6664C18.1347 18.6124 18.5555 19.4303 18.356 19.7485C18.3222 19.7953 18.2767 19.8323 18.2241 19.8557C18.1715 19.8791 18.1137 19.8882 18.0566 19.8819ZM17.1636 16.8537C17.01 17.8765 16.9033 18.983 17.3372 19.5044C17.5012 19.7032 17.732 19.8052 18.0418 19.8139C18.1729 19.8183 18.2579 19.7852 18.3021 19.7128C18.4809 19.4268 18.0488 18.5863 17.5906 17.6969C17.4396 17.417 17.292 17.1301 17.1593 16.852L17.1636 16.8537Z" fill="#F76BFF"/>
<path d="M18.1589 16.8455C17.8168 16.8465 17.4751 16.8217 17.1366 16.7714C17.1317 16.7705 17.1269 16.7685 17.1228 16.7657C17.1186 16.7628 17.115 16.7591 17.1123 16.7548C17.1104 16.7501 17.1094 16.7451 17.1094 16.74C17.1094 16.7349 17.1104 16.7299 17.1123 16.7252C17.2946 16.2578 17.8977 15.807 18.5451 15.6536C19.1074 15.5202 19.6159 15.6274 19.9778 15.9552C20.1609 16.1209 20.1513 16.2569 20.1114 16.3415C19.9526 16.6746 19.0753 16.8455 18.1589 16.8455ZM17.1887 16.7103C18.4331 16.8934 19.8676 16.6964 20.0481 16.3127C20.0923 16.2194 20.0524 16.1166 19.93 16.0049C19.5829 15.6928 19.0978 15.5916 18.5581 15.7198C17.9498 15.8646 17.3831 16.277 17.1887 16.7103Z" fill="#F76BFF"/>
<path d="M16.7008 20.607C16.614 20.607 16.522 20.5312 16.4144 20.376C15.8686 19.5912 16.2461 17.6425 17.1225 16.7234C17.1274 16.7182 17.1339 16.7147 17.1409 16.7134C17.1479 16.7121 17.1552 16.7132 17.1616 16.7165C17.1682 16.7198 17.1735 16.7251 17.1768 16.7317C17.1801 16.7383 17.1811 16.7458 17.1798 16.7531C17.1139 17.1359 17.0974 17.741 17.0791 18.3819C17.0436 19.6714 17.001 20.5225 16.7407 20.6009C16.7277 20.6047 16.7143 20.6067 16.7008 20.607ZM17.1008 16.8525C16.2955 17.7811 15.9588 19.593 16.4743 20.3402C16.5776 20.4884 16.6643 20.5573 16.726 20.5381C16.9585 20.4684 16.9863 19.3602 17.0158 18.3827C17.0279 17.7959 17.0436 17.2405 17.1008 16.8525Z" fill="white"/>
<path d="M20.1491 17.9007C19.1711 17.9007 17.7626 17.3845 17.1257 16.7672C17.1214 16.7633 17.1183 16.7583 17.1166 16.7528C17.115 16.7473 17.1148 16.7414 17.1161 16.7358C17.117 16.7302 17.1194 16.7249 17.1231 16.7206C17.1268 16.7163 17.1316 16.7131 17.137 16.7114C18.1514 16.3155 20.6949 16.2964 21.1809 16.9372C21.3128 17.1116 21.2911 17.32 21.1166 17.5537C20.9726 17.7464 20.714 17.8597 20.3478 17.8894C20.2836 17.8981 20.2176 17.9007 20.1491 17.9007ZM17.2116 16.7585C17.9015 17.388 19.4019 17.9025 20.3426 17.8249C20.6897 17.797 20.9309 17.6932 21.062 17.5162C21.2164 17.3095 21.2355 17.1299 21.127 16.9817C20.6758 16.3835 18.22 16.394 17.2116 16.7585Z" fill="white"/>
<path d="M17.135 16.79C17.1302 16.7912 17.1251 16.7912 17.1203 16.79C17.1138 16.7866 17.1085 16.7812 17.1052 16.7746C17.102 16.768 17.1008 16.7606 17.102 16.7533C17.2365 15.9773 17.6913 14.386 18.4506 13.9178C18.5448 13.8553 18.6517 13.8146 18.7635 13.7987C18.8753 13.7827 18.9892 13.7918 19.0971 13.8254C19.1553 13.8373 19.2092 13.8649 19.2529 13.9053C19.2967 13.9458 19.3286 13.9974 19.3453 14.0547C19.4563 14.5168 18.4775 15.4751 17.6965 16.245C17.4969 16.4412 17.3086 16.626 17.1593 16.783C17.1524 16.7883 17.1437 16.7908 17.135 16.79ZM18.8706 13.855C18.7331 13.8569 18.599 13.8977 18.4835 13.9727C17.8657 14.3547 17.3867 15.6102 17.1879 16.6566C17.3233 16.5179 17.4821 16.361 17.6496 16.197C18.3803 15.4794 19.3808 14.4968 19.2784 14.0721C19.2646 14.0262 19.2384 13.9849 19.2027 13.9529C19.167 13.9209 19.1233 13.8994 19.0762 13.8908C19.0107 13.8688 18.9423 13.8567 18.8732 13.855H18.8706Z" fill="white"/>
<path d="M16.4648 16.958C16.2242 16.9577 15.9858 16.9122 15.7619 16.8237C15.3428 16.6554 15.0677 16.3581 14.9809 15.9857C14.9366 15.7931 15.0052 15.7085 15.0677 15.6719C15.4148 15.4757 16.4908 16.0913 17.1504 16.7312C17.1541 16.7348 17.1571 16.7391 17.1589 16.744C17.1607 16.7488 17.1613 16.754 17.1608 16.7592C17.1603 16.7641 17.1588 16.7689 17.1562 16.7731C17.1537 16.7773 17.1502 16.7809 17.146 16.7836C16.9398 16.905 16.7037 16.9655 16.4648 16.958ZM15.236 15.7024C15.1904 15.7002 15.145 15.7098 15.1041 15.7303C15.0382 15.7678 15.0173 15.8489 15.0468 15.9701C15.1267 16.3188 15.3896 16.6013 15.7871 16.7609C16.2314 16.9396 16.7659 16.9353 17.0801 16.7504C16.47 16.1741 15.6257 15.7024 15.236 15.7024Z" fill="white"/>
<path opacity="0.2" d="M18.9362 22.8456L10.4414 30.999L20.3125 30.5404L30.1862 30.0826L20.9876 22.7436C20.6912 22.5086 20.32 22.3894 19.9429 22.4082C19.5657 22.4269 19.2081 22.5823 18.9362 22.8456Z" fill="#1C5AE2"/>
<path d="M19.2269 23.0838L10.4414 30.9957L20.3125 30.5414L30.1862 30.0836L20.7178 23.0149C20.4994 22.852 20.2318 22.77 19.9601 22.7825C19.6885 22.7951 19.4295 22.9015 19.2269 23.0838Z" fill="#407BFF"/>
<path opacity="0.8" d="M19.2269 23.0838L10.4414 30.9957L20.3125 30.5414L30.1862 30.0836L20.7178 23.0149C20.4994 22.852 20.2318 22.77 19.9601 22.7825C19.6885 22.7951 19.4295 22.9015 19.2269 23.0838Z" fill="#9FBDFF"/>
</svg>
