<svg width="54" height="54" viewBox="0 0 54 54" fill="none" xmlns="http://www.w3.org/2000/svg">
<path d="M45.3294 17.0007H8.66276C7.74229 17.0007 6.99609 17.7469 6.99609 18.6674V25.3341C6.99609 26.2545 7.74229 27.0007 8.66276 27.0007H45.3294C46.2499 27.0007 46.9961 26.2545 46.9961 25.3341V18.6674C46.9961 17.7469 46.2499 17.0007 45.3294 17.0007Z" stroke="#2286FE" stroke-width="2" stroke-linecap="round" stroke-linejoin="round"/>
<path d="M43.6615 27.0007V42.0007C43.6615 42.4428 43.4859 42.8667 43.1733 43.1792C42.8607 43.4918 42.4368 43.6674 41.9948 43.6674H11.9948C11.5528 43.6674 11.1288 43.4918 10.8163 43.1792C10.5037 42.8667 10.3281 42.4428 10.3281 42.0007V27.0007" stroke="#2286FE" stroke-width="2" stroke-linecap="round" stroke-linejoin="round"/>
<path d="M26.9961 17.0007V43.6674" stroke="#2286FE" stroke-width="2" stroke-linecap="round" stroke-linejoin="round"/>
<path d="M36.4336 14.6465C34.0586 17.0007 26.9961 17.0007 26.9961 17.0007C26.9961 17.0007 26.9961 9.9382 29.3503 7.5632C30.2896 6.62389 31.5635 6.09619 32.8919 6.09619C34.2203 6.09619 35.4943 6.62389 36.4336 7.5632C37.3729 8.50251 37.9006 9.77648 37.9006 11.1049C37.9006 12.4332 37.3729 13.7072 36.4336 14.6465Z" stroke="#2286FE" stroke-width="2" stroke-linecap="round" stroke-linejoin="round"/>
<path d="M17.5568 14.6465C19.9318 17.0007 26.9943 17.0007 26.9943 17.0007C26.9943 17.0007 26.9943 9.9382 24.6402 7.5632C23.7009 6.62389 22.4269 6.09619 21.0985 6.09619C19.7701 6.09619 18.4962 6.62389 17.5568 7.5632C16.6175 8.50251 16.0898 9.77648 16.0898 11.1049C16.0898 12.4332 16.6175 13.7072 17.5568 14.6465Z" stroke="#2286FE" stroke-width="2" stroke-linecap="round" stroke-linejoin="round"/>
</svg>
