<svg width="40" height="40" viewBox="0 0 40 40" fill="none" xmlns="http://www.w3.org/2000/svg">
<circle cx="20" cy="20" r="20" fill="#B8E4E1"/>
<path d="M3.60145 20.8546C4.86666 25.0177 8.89321 29.5842 10.0558 30.0686C10.7469 30.3531 11.9993 30.7042 13.0512 29.8795C15.3491 28.0788 17.9726 24.6108 18.7711 23.1666C19.156 22.4716 15.3042 19.4735 14.727 20.0623C13.3752 21.4434 11.0179 24.9079 10.8063 24.8629C10.0269 24.699 7.04109 21.6649 5.01098 19.4609C3.1284 17.4244 3.10114 19.1944 3.60145 20.8546Z" fill="#AD6359"/>
<path d="M15.2148 21.4091C15.2982 20.7663 15.8964 17.2334 16.1545 16.4321C16.6356 14.961 17.4149 13.5511 17.9938 13.6429C18.4572 13.7095 18.4027 14.6441 18.4027 14.6441C18.4027 14.6441 18.9928 13.8284 19.5252 14.1129C20.0576 14.3974 19.599 15.3932 19.599 15.3932C19.599 15.3932 20.258 14.6045 20.7728 14.9304C21.2875 15.2563 20.675 16.1728 20.675 16.1728C20.675 16.1728 21.2474 15.4202 21.5698 15.8883C21.9594 16.4519 20.768 17.7034 20.4473 18.5893C20.4008 18.7226 19.9662 20.9068 19.4643 22.2573C19.2975 22.6769 19.0305 23.0364 18.693 23.2962L15.2148 21.4091Z" fill="#AD6359"/>
<path d="M14.6094 21.4111C14.6094 21.4111 14.1444 19.8013 14.0786 19.0432C14.0129 18.2851 14.6928 15.3609 15.2637 15.4905C16.0013 15.6562 15.9051 17.4316 15.756 18.2959C15.756 18.2959 17.4622 18.6795 17.6386 19.9705C17.8149 21.2616 14.6094 21.4111 14.6094 21.4111Z" fill="#AD6359"/>
<path d="M13.1392 21.4694L18.7709 26.1817C18.7709 26.1817 14.3771 30.7734 13.043 30.9534C11.7088 31.1335 9.50069 30.7554 8.76626 30.3916C8.03183 30.0279 4.9562 25.1085 3.5178 21.2443C2.07941 17.3801 3.96039 17.6934 5.24324 19.2204C6.52609 20.7473 10.6777 24.5737 10.8717 24.5107C11.0658 24.4477 13.1392 21.4694 13.1392 21.4694Z" fill="#1A936F"/>
<path d="M17.2187 27.1717C15.2399 25.0595 12.8795 23.1815 12.4882 22.8213C12.4689 22.8033 12.4465 22.8393 12.4673 22.8555C12.8666 23.1869 15.3537 25.6664 17.1962 27.2113C17.2107 27.2347 17.2379 27.1987 17.2187 27.1717Z" fill="#263238"/>
<path d="M19.3945 12.6643C19.4722 12.0408 19.5792 11.4223 19.7152 10.8115C19.846 10.1982 20.0066 9.59349 20.1963 9C20.1194 9.6237 20.0124 10.2422 19.8756 10.8529C19.7439 11.4658 19.5833 12.0705 19.3945 12.6643Z" fill="#1A936F"/>
<path d="M16.2997 13.2036C15.9615 12.7011 15.6473 12.1788 15.3584 11.6389C15.0649 11.1026 14.7972 10.549 14.5566 9.98047C15.2284 10.9903 15.8131 12.0695 16.3029 13.2036H16.2997Z" fill="#1A936F"/>
<path d="M14.4543 16.0417C13.3433 15.8618 12.25 15.5634 11.1895 15.1504C11.7454 15.2367 12.2968 15.3569 12.8411 15.5105C13.3868 15.6554 13.9253 15.8328 14.4543 16.0417Z" fill="#1A936F"/>
<path d="M14.0801 20.1035C13.4664 20.6622 12.7884 21.1256 12.0645 21.481C12.3672 21.1986 12.6889 20.9427 13.0266 20.7157C13.3635 20.4821 13.7157 20.2774 14.0801 20.1035Z" fill="#1A936F"/>
<path d="M23.4688 18.5059C23.8474 18.5435 24.2228 18.6151 24.5912 18.7201C24.9615 18.8162 25.324 18.9463 25.6753 19.1091C25.2966 19.0713 24.9212 18.9997 24.5528 18.8948C24.183 18.7968 23.8206 18.6668 23.4688 18.5059Z" fill="#1A936F"/>
<path d="M21.9238 14.748C22.8231 13.9937 23.7842 13.3371 24.7942 12.7871C24.3471 13.1675 23.8819 13.5204 23.4007 13.8441C22.9236 14.1756 22.4305 14.4774 21.9238 14.748Z" fill="#1A936F"/>
<path d="M12.9453 14.8027C13.1817 14.8443 13.4127 14.9181 13.6332 15.0224C13.8561 15.1201 14.0668 15.2496 14.2602 15.4078C13.7872 15.319 13.3378 15.1123 12.9453 14.8027Z" fill="#1A936F"/>
<path d="M21.3605 9.2207C21.2402 9.59344 21.1023 9.95897 20.9628 10.3227C20.8233 10.6864 20.6758 11.043 20.5267 11.4031C20.3775 11.7632 20.2204 12.1234 20.0568 12.4673L19.8099 12.9931C19.7217 13.1731 19.6399 13.3406 19.5469 13.5099C19.6062 13.3298 19.6752 13.1497 19.7393 12.9553L19.9446 12.4151C20.0825 12.0549 20.2316 11.6948 20.3823 11.3347C20.5331 10.9745 20.687 10.6144 20.8522 10.2705C21.0173 9.92656 21.1793 9.56103 21.3605 9.2207Z" fill="#1A936F"/>
<path d="M22.959 15.5163C24.0843 15.2544 25.2288 15.1104 26.3778 15.0859C25.8164 15.2212 25.249 15.3228 24.678 15.3902C24.1073 15.4656 23.5335 15.5077 22.959 15.5163Z" fill="#1A936F"/>
<path d="M13.577 19.6426C12.6922 20.1033 11.7652 20.4541 10.8125 20.6888C11.2536 20.455 11.7072 20.2523 12.1707 20.0819C12.6311 19.9035 13.1008 19.7568 13.577 19.6426Z" fill="#1A936F"/>
<path d="M34.8792 28.6026C30.5336 29.9675 27.0378 30.7976 26.0965 30.2718C25.0446 29.6829 20.7085 25.5901 20.2227 25.0409C19.7368 24.4917 23.5212 21.679 24.06 21.1028C24.1834 20.9714 27.142 24.8932 28.0256 25.7431C28.3976 26.1033 30.2401 26.1771 33.7567 26.3715C36.3962 26.5174 36.4651 28.1056 34.8792 28.6026Z" fill="#F7A9A0"/>
<path d="M20.4586 25.2435C19.8582 24.7391 19.2882 24.1905 18.7524 23.6013C18.3483 23.117 16.6838 21.1759 17.1152 20.6231C17.407 20.2467 18.1607 20.9976 18.7043 21.5234C18.9897 21.7953 19.5061 22.0384 19.6664 21.8223C19.9326 21.4442 19.3361 20.8643 18.7652 20.4502C17.662 19.6525 16.2925 19.1483 16.4898 18.1598C16.5652 17.787 17.0558 17.8897 17.6123 18.1364C16.8811 17.6448 16.1995 17.065 16.2685 16.6472C16.307 16.4077 16.4641 16.3069 16.6902 16.2979C16.6107 16.2288 16.5515 16.1347 16.52 16.0275C16.4886 15.9203 16.4864 15.805 16.5138 15.6965C16.6261 15.3363 16.9949 15.2661 17.4487 15.3363C17.4332 15.2897 17.4277 15.2396 17.4327 15.1902C17.4377 15.1407 17.4531 15.0933 17.4776 15.0518C17.9266 14.1677 20.9958 15.5452 21.5683 16.3015C23.2408 18.5163 24.2671 21.3181 24.2671 21.3181C24.0137 22.7226 20.4602 25.2453 20.4586 25.2435Z" fill="#F7A9A0"/>
<path d="M30.3164 30.4772L30.4671 25.502C30.4671 25.502 33.5604 25.6946 35.3179 26.4023C37.0754 27.1099 36.4885 28.1867 34.8 28.9484C33.1114 29.7101 30.3164 30.4772 30.3164 30.4772Z" fill="#1A936F"/>
<path d="M31.4564 25.8487C31.4917 26.6194 31.5318 28.7135 31.3923 30.0784C31.3923 30.0784 31.3618 30.0874 31.3618 30.0784C31.3185 28.9242 31.3859 26.6212 31.4131 25.8487C31.4131 25.8343 31.4564 25.8343 31.4564 25.8487Z" fill="#263238"/>
</svg>
