<svg width="20" height="20" viewBox="0 0 20 20" fill="none" xmlns="http://www.w3.org/2000/svg">
<path d="M9.8672 5.32848C9.45164 4.51563 8.77442 3.86645 7.94474 3.48562C7.11506 3.10478 6.1813 3.0145 5.29402 3.22932C4.40675 3.44414 3.6177 3.95155 3.05411 4.66972C2.49051 5.38788 2.18524 6.27495 2.18751 7.18785C2.18751 12.5004 10 16.8754 10 16.8754C10 16.8754 17.8125 12.5004 17.8125 7.18785C17.8135 6.38367 17.5757 5.5973 17.1294 4.92835C16.683 4.2594 16.0482 3.73797 15.3053 3.43009C14.5624 3.12222 13.7448 3.04176 12.9562 3.19891C12.1675 3.35606 11.4432 3.74374 10.875 4.31285L8.37501 6.81285L10.875 9.31285L9.62501 10.5629" stroke="black" stroke-width="1.5" stroke-linecap="round" stroke-linejoin="round"/>
</svg>
