<svg width="18" height="19" viewBox="0 0 18 19" fill="none" xmlns="http://www.w3.org/2000/svg">
<path d="M17.5127 7.72257L10.0127 0.906945C9.73618 0.653969 9.37498 0.513672 9.0002 0.513672C8.62542 0.513672 8.26422 0.653969 7.9877 0.906945L0.4877 7.72257C0.334142 7.86305 0.211499 8.03396 0.127571 8.22441C0.0436425 8.41486 0.000266168 8.6207 0.000200032 8.82882V17.4632C-0.00589792 17.8414 0.127612 18.2085 0.3752 18.4944C0.51572 18.6542 0.688823 18.7821 0.88287 18.8694C1.07692 18.9567 1.28741 19.0015 1.5002 19.0007H6.0002C6.19911 19.0007 6.38988 18.9217 6.53053 18.781C6.67118 18.6404 6.7502 18.4496 6.7502 18.2507V13.7507C6.7502 13.5518 6.82922 13.361 6.96987 13.2204C7.11052 13.0797 7.30129 13.0007 7.5002 13.0007H10.5002C10.6991 13.0007 10.8899 13.0797 11.0305 13.2204C11.1712 13.361 11.2502 13.5518 11.2502 13.7507V18.2507C11.2502 18.4496 11.3292 18.6404 11.4699 18.781C11.6105 18.9217 11.8013 19.0007 12.0002 19.0007H16.5002C16.749 19.0029 16.9942 18.9416 17.2127 18.8226C17.4504 18.6931 17.649 18.5021 17.7875 18.2695C17.9261 18.0369 17.9995 17.7714 18.0002 17.5007V8.82882C18.0001 8.6207 17.9568 8.41486 17.8728 8.22441C17.7889 8.03396 17.6663 7.86305 17.5127 7.72257Z" fill="#2286FE"/>
</svg>
