<svg width="24" height="24" viewBox="0 0 24 24" fill="none" xmlns="http://www.w3.org/2000/svg">
<path d="M20.5127 9.72257L13.0127 2.90695C12.7362 2.65397 12.375 2.51367 12.0002 2.51367C11.6254 2.51367 11.2642 2.65397 10.9877 2.90695L3.4877 9.72257C3.33414 9.86305 3.2115 10.034 3.12757 10.2244C3.04364 10.4149 3.00027 10.6207 3.0002 10.8288V19.4632C2.9941 19.8414 3.12761 20.2085 3.3752 20.4944C3.51572 20.6542 3.68882 20.7821 3.88287 20.8694C4.07692 20.9567 4.28741 21.0015 4.5002 21.0007H9.0002C9.19911 21.0007 9.38988 20.9217 9.53053 20.781C9.67118 20.6404 9.7502 20.4496 9.7502 20.2507V15.7507C9.7502 15.5518 9.82922 15.361 9.96987 15.2204C10.1105 15.0797 10.3013 15.0007 10.5002 15.0007H13.5002C13.6991 15.0007 13.8899 15.0797 14.0305 15.2204C14.1712 15.361 14.2502 15.5518 14.2502 15.7507V20.2507C14.2502 20.4496 14.3292 20.6404 14.4699 20.781C14.6105 20.9217 14.8013 21.0007 15.0002 21.0007H19.5002C19.749 21.0029 19.9942 20.9416 20.2127 20.8226C20.4504 20.6931 20.649 20.5021 20.7875 20.2695C20.9261 20.0369 20.9995 19.7714 21.0002 19.5007V10.8288C21.0001 10.6207 20.9568 10.4149 20.8728 10.2244C20.7889 10.034 20.6663 9.86305 20.5127 9.72257Z" fill="#2286FE"/>
</svg>
