<svg width="166" height="119" viewBox="0 0 166 119" fill="none" xmlns="http://www.w3.org/2000/svg">
<path d="M17.9915 0C8.27567 0 0.272705 8.00297 0.272705 17.7188V100.406C0.272705 110.122 8.27567 118.125 17.9915 118.125H147.929C157.645 118.125 165.648 110.122 165.648 100.406V17.7188C165.648 8.00297 157.645 0 147.929 0H17.9915ZM17.9915 11.8125H147.929C151.272 11.8125 153.835 14.3758 153.835 17.7188V100.406C153.835 103.749 151.272 106.312 147.929 106.312H17.9915C14.6485 106.312 12.0852 103.749 12.0852 100.406V17.7188C12.0852 14.3758 14.6485 11.8125 17.9915 11.8125ZM53.429 23.625C40.4352 23.625 29.804 34.2562 29.804 47.25C29.804 53.8237 32.6212 59.7535 37.0037 64.0474C32.9834 66.7603 29.6876 70.4151 27.4033 74.6935C25.1189 78.9718 23.9155 83.7438 23.8977 88.5938H35.7102C35.7102 78.7421 43.5773 70.875 53.429 70.875C63.2806 70.875 71.1477 78.7421 71.1477 88.5938H82.9602C82.9424 83.7438 81.739 78.9718 79.4547 74.6935C77.1703 70.4151 73.8745 66.7603 69.8542 64.0474C74.2367 59.7535 77.054 53.8296 77.054 47.25C77.054 34.2562 66.4227 23.625 53.429 23.625ZM94.7727 29.5312V41.3438H142.023V29.5312H94.7727ZM53.429 35.4375C60.0262 35.4375 65.2415 40.6527 65.2415 47.25C65.2415 53.8473 60.0262 59.0625 53.429 59.0625C46.8317 59.0625 41.6165 53.8473 41.6165 47.25C41.6165 40.6527 46.8317 35.4375 53.429 35.4375ZM94.7727 53.1562V64.9688H142.023V53.1562H94.7727ZM94.7727 76.7812V88.5938H124.304V76.7812H94.7727Z" fill="#CBDFF7"/>
</svg>
