<svg width="19" height="16" viewBox="0 0 19 16" fill="none" xmlns="http://www.w3.org/2000/svg">
<path d="M16.8077 0H2.19231C1.61161 0.00263237 1.05539 0.256334 0.644769 0.705852C0.234151 1.15537 0.00240457 1.76429 0 2.4V13.6C0.00240457 14.2357 0.234151 14.8446 0.644769 15.2941C1.05539 15.7437 1.61161 15.9974 2.19231 16H16.8077C17.3884 15.9974 17.9446 15.7437 18.3552 15.2941C18.7658 14.8446 18.9976 14.2357 19 13.6V2.4C18.9976 1.76429 18.7658 1.15537 18.3552 0.705852C17.9446 0.256334 17.3884 0.00263237 16.8077 0ZM11.6466 7.68C11.5443 8.22041 11.2749 8.70567 10.8839 9.05406C10.4929 9.40245 10.0041 9.59266 9.5 9.59266C8.99586 9.59266 8.50712 9.40245 8.11612 9.05406C7.72511 8.70567 7.45574 8.22041 7.35337 7.68C7.28434 7.31913 7.10426 6.99513 6.84322 6.76215C6.58219 6.52917 6.25602 6.40133 5.91923 6.4H1.46154V4.8H17.5385V6.4H13.0808C12.744 6.40133 12.4178 6.52917 12.1568 6.76215C11.8957 6.99513 11.7157 7.31913 11.6466 7.68ZM2.19231 1.6H16.8077C17.0015 1.6 17.1874 1.68429 17.3244 1.83431C17.4615 1.98434 17.5385 2.18783 17.5385 2.4V3.2H1.46154V2.4C1.46154 2.18783 1.53853 1.98434 1.67558 1.83431C1.81262 1.68429 1.9985 1.6 2.19231 1.6Z" fill="#2286FE"/>
</svg>
