<svg width="41" height="41" viewBox="0 0 41 41" fill="none" xmlns="http://www.w3.org/2000/svg">
<rect width="41" height="41" rx="20.5" fill="#9802F9"/>
<path d="M28.5 14.25H13.5C12.6716 14.25 12 14.9216 12 15.75V26.25C12 27.0784 12.6716 27.75 13.5 27.75H28.5C29.3284 27.75 30 27.0784 30 26.25V15.75C30 14.9216 29.3284 14.25 28.5 14.25Z" stroke="white" stroke-width="1.5" stroke-linecap="round" stroke-linejoin="round"/>
<path d="M12 20.25H17.325C17.4977 20.2491 17.6654 20.3085 17.7989 20.4181C17.9324 20.5276 18.0235 20.6804 18.0562 20.85C18.1995 21.5246 18.57 22.1295 19.1059 22.5635C19.6417 22.9975 20.3104 23.2343 21 23.2343C21.6896 23.2343 22.3583 22.9975 22.8941 22.5635C23.43 22.1295 23.8005 21.5246 23.9437 20.85C23.9765 20.6804 24.0676 20.5276 24.2011 20.4181C24.3346 20.3085 24.5023 20.2491 24.675 20.25H30" stroke="white" stroke-width="1.5" stroke-linecap="round" stroke-linejoin="round"/>
<path d="M12 17.25H30" stroke="white" stroke-width="1.5" stroke-linecap="round" stroke-linejoin="round"/>
</svg>
