<svg width="20" height="20" viewBox="0 0 20 20" fill="none" xmlns="http://www.w3.org/2000/svg">
<path d="M10 17.5C14.1421 17.5 17.5 14.1421 17.5 10C17.5 5.85786 14.1421 2.5 10 2.5C5.85786 2.5 2.5 5.85786 2.5 10C2.5 14.1421 5.85786 17.5 10 17.5Z" stroke="#1D3354" stroke-width="1.5" stroke-linecap="round" stroke-linejoin="round"/>
<path d="M11.0469 10.3602C11.4737 10.1275 11.8109 9.75931 12.0052 9.31367C12.1995 8.86804 12.2398 8.37038 12.1198 7.89929C11.9997 7.4282 11.7262 7.01052 11.3423 6.71221C10.9584 6.41389 10.4861 6.25195 10 6.25195C9.51385 6.25195 9.04156 6.41389 8.6577 6.71221C8.27384 7.01052 8.00029 7.4282 7.88024 7.89929C7.7602 8.37038 7.8005 8.86804 7.99478 9.31367C8.18907 9.75931 8.52627 10.1275 8.95313 10.3602L7.875 12.8758C7.83357 12.9707 7.81638 13.0745 7.82498 13.1777C7.83357 13.2809 7.86767 13.3803 7.92422 13.4671C7.98077 13.5539 8.058 13.6252 8.14895 13.6747C8.23991 13.7242 8.34175 13.7504 8.44531 13.7508H11.5547C11.6583 13.7504 11.7601 13.7242 11.851 13.6747C11.942 13.6252 12.0192 13.5539 12.0758 13.4671C12.1323 13.3803 12.1664 13.2809 12.175 13.1777C12.1836 13.0745 12.1664 12.9707 12.125 12.8758L11.0469 10.3602Z" stroke="#1D3354" stroke-width="1.5" stroke-linecap="round" stroke-linejoin="round"/>
</svg>
