<svg width="41" height="41" viewBox="0 0 41 41" fill="none" xmlns="http://www.w3.org/2000/svg">
<rect width="41" height="41" rx="20.5" fill="#F6931C"/>
<path d="M13.5 22.0874V28.4999C13.5 28.6988 13.579 28.8896 13.7197 29.0302C13.8603 29.1709 14.0511 29.2499 14.25 29.2499H27.75C27.9489 29.2499 28.1397 29.1709 28.2803 29.0302C28.421 28.8896 28.5 28.6988 28.5 28.4999V22.0874" stroke="black" stroke-width="1.5" stroke-linecap="round" stroke-linejoin="round"/>
<path d="M13.5 22.0874V28.4999C13.5 28.6988 13.579 28.8896 13.7197 29.0302C13.8603 29.1709 14.0511 29.2499 14.25 29.2499H27.75C27.9489 29.2499 28.1397 29.1709 28.2803 29.0302C28.421 28.8896 28.5 28.6988 28.5 28.4999V22.0874" stroke="white" stroke-width="1.5" stroke-linecap="round" stroke-linejoin="round"/>
<path d="M14.0625 12.75H27.9375C28.1002 12.7513 28.2582 12.8049 28.3881 12.9028C28.5181 13.0007 28.6132 13.1377 28.6594 13.2937L30 18H12L13.3406 13.2937C13.3868 13.1377 13.4819 13.0007 13.6119 12.9028C13.7418 12.8049 13.8998 12.7513 14.0625 12.75Z" stroke="black" stroke-width="1.5" stroke-linecap="round" stroke-linejoin="round"/>
<path d="M14.0625 12.75H27.9375C28.1002 12.7513 28.2582 12.8049 28.3881 12.9028C28.5181 13.0007 28.6132 13.1377 28.6594 13.2937L30 18H12L13.3406 13.2937C13.3868 13.1377 13.4819 13.0007 13.6119 12.9028C13.7418 12.8049 13.8998 12.7513 14.0625 12.75Z" stroke="white" stroke-width="1.5" stroke-linecap="round" stroke-linejoin="round"/>
<path d="M18 18V19.5C18 20.2956 17.6839 21.0587 17.1213 21.6213C16.5587 22.1839 15.7956 22.5 15 22.5C14.2044 22.5 13.4413 22.1839 12.8787 21.6213C12.3161 21.0587 12 20.2956 12 19.5V18" stroke="black" stroke-width="1.5" stroke-linecap="round" stroke-linejoin="round"/>
<path d="M18 18V19.5C18 20.2956 17.6839 21.0587 17.1213 21.6213C16.5587 22.1839 15.7956 22.5 15 22.5C14.2044 22.5 13.4413 22.1839 12.8787 21.6213C12.3161 21.0587 12 20.2956 12 19.5V18" stroke="white" stroke-width="1.5" stroke-linecap="round" stroke-linejoin="round"/>
<path d="M24 18V19.5C24 20.2956 23.6839 21.0587 23.1213 21.6213C22.5587 22.1839 21.7956 22.5 21 22.5C20.2044 22.5 19.4413 22.1839 18.8787 21.6213C18.3161 21.0587 18 20.2956 18 19.5V18" stroke="black" stroke-width="1.5" stroke-linecap="round" stroke-linejoin="round"/>
<path d="M24 18V19.5C24 20.2956 23.6839 21.0587 23.1213 21.6213C22.5587 22.1839 21.7956 22.5 21 22.5C20.2044 22.5 19.4413 22.1839 18.8787 21.6213C18.3161 21.0587 18 20.2956 18 19.5V18" stroke="white" stroke-width="1.5" stroke-linecap="round" stroke-linejoin="round"/>
<path d="M30 18V19.5C30 20.2956 29.6839 21.0587 29.1213 21.6213C28.5587 22.1839 27.7956 22.5 27 22.5C26.2044 22.5 25.4413 22.1839 24.8787 21.6213C24.3161 21.0587 24 20.2956 24 19.5V18" stroke="black" stroke-width="1.5" stroke-linecap="round" stroke-linejoin="round"/>
<path d="M30 18V19.5C30 20.2956 29.6839 21.0587 29.1213 21.6213C28.5587 22.1839 27.7956 22.5 27 22.5C26.2044 22.5 25.4413 22.1839 24.8787 21.6213C24.3161 21.0587 24 20.2956 24 19.5V18" stroke="white" stroke-width="1.5" stroke-linecap="round" stroke-linejoin="round"/>
</svg>
