<svg width="30" height="30" viewBox="0 0 30 30" fill="none" xmlns="http://www.w3.org/2000/svg">
<rect width="30" height="30" rx="2" fill="#EBEDF0"/>
<path d="M19.1667 7.49895C19.3856 7.28008 19.6455 7.10646 19.9314 6.98801C20.2174 6.86956 20.5239 6.80859 20.8334 6.80859C21.1429 6.80859 21.4494 6.86956 21.7354 6.98801C22.0214 7.10646 22.2812 7.28008 22.5001 7.49895C22.719 7.71782 22.8926 7.97766 23.011 8.26362C23.1295 8.54959 23.1904 8.85609 23.1904 9.16562C23.1904 9.47514 23.1295 9.78164 23.011 10.0676C22.8926 10.3536 22.719 10.6134 22.5001 10.8323L11.2501 22.0823L6.66675 23.3323L7.91675 18.7489L19.1667 7.49895Z" stroke="#1D3354" stroke-width="1.5" stroke-linecap="round" stroke-linejoin="round"/>
</svg>
