<svg width="56" height="56" viewBox="0 0 56 56" fill="none" xmlns="http://www.w3.org/2000/svg">
<path d="M26.197 47.6747C26.1024 48.0533 25.8839 48.3894 25.5764 48.6296C25.2688 48.8698 24.8898 49.0003 24.4995 49.0004C24.3521 49.0011 24.2051 48.9834 24.062 48.9479L17.062 47.1979C16.8672 47.1489 16.6822 47.0668 16.5152 46.955L11.2652 43.455C10.8791 43.1975 10.6111 42.797 10.5202 42.3419C10.4294 41.8867 10.523 41.4141 10.7806 41.028C11.0382 40.6419 11.4386 40.374 11.8938 40.2831C12.349 40.1922 12.8216 40.2859 13.2077 40.5435L18.2039 43.8751L24.9108 45.5529C25.1349 45.6072 25.346 45.7053 25.5321 45.8415C25.7181 45.9776 25.8755 46.1493 25.995 46.3464C26.1145 46.5436 26.1939 46.7625 26.2286 46.9904C26.2632 47.2184 26.2525 47.4509 26.197 47.6747ZM55.223 26.5741C55.0794 27.0103 54.8508 27.4136 54.5504 27.7609C54.2501 28.1082 53.8839 28.3926 53.473 28.5976L48.293 31.1876L36.2442 43.2385C36.0304 43.4521 35.7649 43.6067 35.4735 43.6872C35.1822 43.7677 34.8749 43.7714 34.5817 43.6979L20.5817 40.1979C20.3688 40.1444 20.1678 40.0517 19.9889 39.9244L7.84392 31.2532L2.53267 28.5976C1.70259 28.1826 1.07129 27.455 0.777577 26.5747C0.483866 25.6943 0.551791 24.7334 0.966417 23.9032L6.40235 13.0335C6.81731 12.2034 7.54494 11.5721 8.42525 11.2784C9.30556 10.9847 10.2665 11.0526 11.0967 11.4672L15.9224 13.8735L27.5161 10.5616C27.8306 10.4716 28.1641 10.4716 28.4786 10.5616L40.0724 13.8735L44.898 11.4672C45.7282 11.0526 46.6891 10.9847 47.5695 11.2784C48.4498 11.5721 49.1774 12.2034 49.5924 13.0335L55.0283 23.9032C55.2356 24.3134 55.3596 24.7607 55.393 25.2192C55.4264 25.6776 55.3686 26.1381 55.223 26.5741ZM45.1211 29.4047L39.1689 17.5004H32.2083L22.7495 26.6879C25.5189 28.4576 29.8611 28.9454 33.757 25.0188C34.0613 24.7121 34.4683 24.5288 34.8996 24.5042C35.3309 24.4795 35.7561 24.6153 36.0933 24.8854L43.6205 30.9163L45.1211 29.4047ZM4.09673 25.4672L7.96642 27.4032L13.4024 16.5335L9.53267 14.5976L4.09673 25.4672ZM41.1245 33.3947L35.063 28.5407C30.7886 32.0407 25.3614 32.5022 20.8639 29.6344C20.4215 29.353 20.048 28.9758 19.7709 28.5306C19.4939 28.0855 19.3204 27.5838 19.2633 27.0625C19.2062 26.5413 19.2669 26.014 19.4409 25.5194C19.615 25.0248 19.898 24.5756 20.2689 24.2051C20.2742 24.1987 20.28 24.1928 20.2864 24.1876L30.0995 14.6697L27.9995 14.0704L16.9702 17.2226L10.983 29.1947L21.7455 36.8838L34.4636 40.0622L41.1245 33.3947ZM51.8958 25.4672L46.4664 14.5976L42.5967 16.5335L48.0327 27.4032L51.8958 25.4672Z" fill="#2286FE"/>
</svg>
