<svg width="58" height="58" viewBox="0 0 58 58" fill="none" xmlns="http://www.w3.org/2000/svg">
<path d="M29 57C44.464 57 57 44.464 57 29C57 13.536 44.464 1 29 1C13.536 1 1 13.536 1 29C1 44.464 13.536 57 29 57Z" fill="#EBEDF0" stroke="#EBEDF0" stroke-linecap="round" stroke-linejoin="round"/>
<path d="M29.0004 43.6087C28.5005 43.6081 28.0212 43.4092 27.6678 43.0558C27.3143 42.7023 27.1155 42.2231 27.1149 41.7232V31.7261C27.1146 31.5034 27.026 31.2897 26.8685 31.1322C26.711 30.9746 26.4974 30.886 26.2746 30.8857H16.2774C15.7772 30.8857 15.2976 30.687 14.9439 30.3334C14.5903 29.9797 14.3916 29.5001 14.3916 29C14.3916 28.4998 14.5903 28.0201 14.9439 27.6665C15.2976 27.3128 15.7772 27.1142 16.2774 27.1142H26.2746C26.4974 27.114 26.7109 27.0255 26.8685 26.868C27.026 26.7105 27.1146 26.497 27.1149 26.2742V16.2767C27.1149 15.7767 27.3135 15.2971 27.6671 14.9435C28.0207 14.5899 28.5002 14.3913 29.0003 14.3913C29.5003 14.3913 29.9799 14.5899 30.3335 14.9435C30.6871 15.2971 30.8857 15.7767 30.8857 16.2767V26.2742C30.8859 26.4969 30.9746 26.7105 31.1321 26.868C31.2896 27.0255 31.5032 27.114 31.7259 27.1142H41.7232C42.2233 27.1142 42.703 27.3128 43.0566 27.6665C43.4103 28.0201 43.609 28.4998 43.609 28.9999C43.609 29.5001 43.4103 29.9797 43.0566 30.3334C42.703 30.687 42.2233 30.8857 41.7232 30.8857H31.7259C31.5031 30.886 31.2895 30.9746 31.132 31.1322C30.9745 31.2897 30.8859 31.5033 30.8857 31.7261V41.7232C30.8851 42.223 30.6863 42.7022 30.3329 43.0557C29.9795 43.4092 29.5003 43.608 29.0004 43.6087Z" fill="white"/>
</svg>
