<svg width="40" height="40" viewBox="0 0 40 40" fill="none" xmlns="http://www.w3.org/2000/svg">
<circle cx="20" cy="20" r="20" fill="#F55D3E" fill-opacity="0.4"/>
<g opacity="0.5">
<path d="M27.5398 15.3301H12.809C11.2878 15.3301 10.0547 16.6059 10.0547 18.1798V27.1505C10.0547 28.7243 11.2878 30.0002 12.809 30.0002H27.5398C29.061 30.0002 30.2941 28.7243 30.2941 27.1505V18.1798C30.2941 16.6059 29.061 15.3301 27.5398 15.3301Z" fill="white"/>
</g>
<g opacity="0.5">
<path d="M27.5398 15.3301H12.809C11.2878 15.3301 10.0547 16.6059 10.0547 18.1798V27.1505C10.0547 28.7243 11.2878 30.0002 12.809 30.0002H27.5398C29.061 30.0002 30.2941 28.7243 30.2941 27.1505V18.1798C30.2941 16.6059 29.061 15.3301 27.5398 15.3301Z" fill="white"/>
</g>
<path d="M29.5 11H10.4994C9.67131 11 9 11.7803 9 12.743V27.1724C9 28.135 9.67131 28.9154 10.4994 28.9154H29.5C30.3281 28.9154 30.9994 28.135 30.9994 27.1724V12.743C30.9994 11.7803 30.3281 11 29.5 11Z" fill="#F55D3E"/>
<path d="M10.9007 24.9858V25.1683H10.7403V24.9907C10.5996 24.9859 10.4629 24.9405 10.3457 24.8596L10.4323 24.6588C10.5235 24.7245 10.6297 24.7645 10.7403 24.775V24.5011C10.5639 24.458 10.3682 24.3966 10.3682 24.1692C10.3682 23.9949 10.4901 23.8472 10.7403 23.8173V23.6348H10.9007V23.814C11.0139 23.82 11.1239 23.8542 11.2216 23.9136L11.143 24.1144C11.0681 24.0705 10.9859 24.0418 10.9007 24.0298V24.3086C11.0756 24.3518 11.2697 24.4115 11.2697 24.6405C11.2697 24.8065 11.1494 24.9542 10.9007 24.9858ZM10.7403 24.2605V24.0281C10.6569 24.048 10.6232 24.0962 10.6232 24.1493C10.6232 24.2024 10.6713 24.2372 10.7419 24.2572L10.7403 24.2605ZM11.013 24.6555C11.013 24.5991 10.9665 24.5675 10.8991 24.5426V24.7683C10.9793 24.7551 11.0082 24.7086 11.0082 24.6555H11.013Z" fill="white"/>
<path d="M12.652 24.756V24.9734H11.8114V24.8075L12.2398 24.3892C12.3376 24.293 12.3553 24.2349 12.3553 24.1784C12.3553 24.0888 12.2943 24.0357 12.1772 24.0357C12.1328 24.034 12.0888 24.0436 12.0488 24.0636C12.0088 24.0835 11.9741 24.1133 11.9478 24.1502L11.7617 24.0257C11.8124 23.9556 11.879 23.8995 11.9557 23.8624C12.0324 23.8254 12.1167 23.8085 12.2013 23.8133C12.4483 23.8133 12.6135 23.9444 12.6135 24.1452C12.6119 24.2164 12.5942 24.2862 12.5619 24.349C12.5296 24.4118 12.4836 24.4659 12.4274 24.5071L12.1724 24.756H12.652Z" fill="white"/>
<path d="M12.7539 24.3972C12.7539 24.0188 12.956 23.8047 13.2351 23.8047C13.5143 23.8047 13.7164 24.0188 13.7164 24.3972C13.7164 24.7756 13.5159 24.9914 13.2351 24.9914C12.9544 24.9914 12.7539 24.7756 12.7539 24.3972ZM13.4453 24.3972C13.4453 24.1366 13.3571 24.0287 13.2287 24.0287C13.1004 24.0287 13.0138 24.1366 13.0138 24.3972C13.0138 24.6578 13.102 24.7657 13.2287 24.7657C13.3555 24.7657 13.4453 24.6578 13.4453 24.3972Z" fill="white"/>
<path d="M14.1066 24.8241C14.1046 24.8821 14.0898 24.9389 14.0633 24.99L13.9735 25.2257H13.8131L13.8837 24.9651C13.857 24.9541 13.8343 24.9348 13.8188 24.9098C13.8033 24.8848 13.7957 24.8554 13.797 24.8257C13.8072 24.7919 13.8275 24.7623 13.8551 24.7413C13.8827 24.7203 13.916 24.709 13.9502 24.709C13.9845 24.709 14.0178 24.7203 14.0454 24.7413C14.0729 24.7623 14.0933 24.7919 14.1034 24.8257L14.1066 24.8241Z" fill="white"/>
<path d="M15.0684 24.7561V24.9735H14.231V24.8075L14.6577 24.3893C14.7572 24.293 14.7732 24.2349 14.7732 24.1785C14.7732 24.0889 14.7139 24.0357 14.5968 24.0357C14.5524 24.0339 14.5083 24.0434 14.4683 24.0634C14.4283 24.0834 14.3936 24.1132 14.3674 24.1503L14.1797 24.0258C14.2306 23.9555 14.2975 23.8993 14.3745 23.8623C14.4514 23.8252 14.5361 23.8084 14.6208 23.8133C14.8679 23.8133 15.0315 23.9445 15.0315 24.1453C15.0303 24.2163 15.013 24.2861 14.981 24.349C14.9489 24.4118 14.903 24.466 14.847 24.5071L14.592 24.7561H15.0684Z" fill="white"/>
<path d="M15.9936 24.6228C15.9936 24.8154 15.8492 24.9929 15.5332 24.9929C15.384 24.9953 15.2374 24.9527 15.1113 24.8701L15.2108 24.666C15.3041 24.7354 15.4167 24.7715 15.5316 24.7689C15.6599 24.7689 15.7402 24.7158 15.7402 24.6228C15.7402 24.5299 15.6776 24.4818 15.5316 24.4818H15.4145V24.3058L15.6423 24.0386H15.1707V23.8262H15.9471V23.9921L15.6968 24.2876C15.7782 24.2939 15.8543 24.3321 15.9094 24.3944C15.9645 24.4567 15.9947 24.5384 15.9936 24.6228Z" fill="white"/>
<path d="M17.1275 24.7324H16.9446V24.973H16.6944V24.7324H16.0977V24.5531L16.6238 23.8262H16.8917L16.4105 24.5149H16.7088V24.3008H16.9446V24.5149H17.1243L17.1275 24.7324Z" fill="white"/>
<path d="M17.226 24.8257C17.2361 24.7919 17.2565 24.7623 17.284 24.7413C17.3116 24.7203 17.3449 24.709 17.3792 24.709C17.4134 24.709 17.4467 24.7203 17.4743 24.7413C17.5019 24.7623 17.5222 24.7919 17.5324 24.8257C17.5398 24.8506 17.5415 24.8769 17.5374 24.9025C17.5332 24.9282 17.5232 24.9524 17.5083 24.9734C17.4934 24.9943 17.474 25.0113 17.4515 25.0231C17.4291 25.0348 17.4043 25.0409 17.3792 25.0409C17.354 25.0409 17.3292 25.0348 17.3068 25.0231C17.2844 25.0113 17.2649 24.9943 17.25 24.9734C17.2351 24.9524 17.2252 24.9282 17.221 24.9025C17.2168 24.8769 17.2185 24.8506 17.226 24.8257Z" fill="white"/>
<path d="M17.6289 24.3972C17.6289 24.0188 17.8326 23.8047 18.1101 23.8047C18.3877 23.8047 18.5914 24.0188 18.5914 24.3972C18.5914 24.7756 18.3893 24.9914 18.1101 24.9914C17.831 24.9914 17.6289 24.7756 17.6289 24.3972ZM18.3219 24.3972C18.3219 24.1366 18.2337 24.0287 18.1053 24.0287C17.977 24.0287 17.8888 24.1366 17.8888 24.3972C17.8888 24.6578 17.9786 24.7657 18.1053 24.7657C18.2321 24.7657 18.3219 24.6578 18.3219 24.3972Z" fill="white"/>
<path d="M18.709 24.3972C18.709 24.0188 18.9111 23.8047 19.1902 23.8047C19.4693 23.8047 19.6715 24.0188 19.6715 24.3972C19.6715 24.7756 19.471 24.9914 19.1902 24.9914C18.9095 24.9914 18.709 24.7756 18.709 24.3972ZM19.4004 24.3972C19.4004 24.1366 19.3121 24.0287 19.1838 24.0287C19.0555 24.0287 18.9689 24.1366 18.9689 24.3972C18.9689 24.6578 19.0571 24.7657 19.1838 24.7657C19.3105 24.7657 19.3972 24.6578 19.3972 24.3972H19.4004Z" fill="white"/>
<path d="M10.6978 26.2254H10.5535V26.3715H10.5054V26.2254H10.3594V26.1773H10.5054V26.0312H10.5535V26.1773H10.6978V26.2254Z" fill="white"/>
<path d="M10.9961 26.4881V26.581H10.956V26.4898C10.888 26.4889 10.8226 26.463 10.7715 26.4167L10.7939 26.3703C10.8382 26.4114 10.8949 26.4354 10.9544 26.4383V26.2259C10.8693 26.2043 10.7827 26.1777 10.7827 26.0715C10.7827 25.9935 10.8356 25.9271 10.9544 25.9172V25.8242H10.9945V25.9172C11.0515 25.9173 11.1072 25.9346 11.1549 25.967L11.1356 26.0134C11.0939 25.9867 11.0466 25.9707 10.9977 25.967V26.1811C11.0859 26.2026 11.1773 26.2275 11.1773 26.3354C11.1757 26.4151 11.1196 26.4798 10.9961 26.4881ZM10.956 26.1678V25.967C10.8758 25.967 10.8405 26.0167 10.8405 26.0682C10.8405 26.1196 10.8934 26.1512 10.956 26.1678ZM11.1164 26.3337C11.1164 26.2707 11.0586 26.2491 10.9929 26.2325V26.4333C11.0811 26.43 11.1196 26.3885 11.1196 26.3371L11.1164 26.3337Z" fill="white"/>
<path d="M11.3993 25.916V26.4787H11.3432V25.9675H11.2148V25.916H11.3993Z" fill="white"/>
<path d="M11.6112 26.4436C11.6104 26.4597 11.6066 26.4755 11.6 26.49L11.5679 26.6012H11.531L11.5567 26.4851C11.5482 26.4824 11.5409 26.4769 11.536 26.4693C11.531 26.4618 11.5287 26.4527 11.5294 26.4436C11.5292 26.438 11.5301 26.4324 11.532 26.4272C11.5339 26.422 11.5369 26.4172 11.5406 26.4132C11.5443 26.4091 11.5488 26.4059 11.5538 26.4037C11.5588 26.4015 11.5641 26.4004 11.5695 26.4004C11.5751 26.4002 11.5806 26.4011 11.5858 26.4032C11.5909 26.4053 11.5956 26.4085 11.5995 26.4125C11.6035 26.4166 11.6065 26.4214 11.6085 26.4268C11.6105 26.4321 11.6115 26.4378 11.6112 26.4436Z" fill="white"/>
<path d="M12.0756 26.4307V26.4822H11.6938V26.4407L11.92 26.2116C11.9825 26.1486 11.9938 26.1104 11.9938 26.0722C11.9938 26.0075 11.9488 25.9676 11.867 25.9676C11.8392 25.9657 11.8112 25.9703 11.7854 25.9813C11.7595 25.9922 11.7364 26.0091 11.7178 26.0307L11.6777 25.9942C11.7021 25.967 11.732 25.9458 11.7653 25.932C11.7986 25.9182 11.8344 25.9123 11.8702 25.9145C11.9809 25.9145 12.0515 25.9726 12.0515 26.0656C12.0503 26.1002 12.0416 26.1342 12.026 26.1649C12.0105 26.1956 11.9885 26.2224 11.9617 26.2432L11.7772 26.4307H12.0756Z" fill="white"/>
<path d="M12.5274 25.916V25.9558L12.2932 26.482H12.2323L12.4568 25.9708H12.1761V26.082H12.1328V25.916H12.5274Z" fill="white"/>
<path d="M12.7587 25.916V26.4787H12.7026V25.9675H12.5742V25.916H12.7587Z" fill="white"/>
<path d="M12.8907 26.4436C12.8904 26.438 12.8913 26.4324 12.8932 26.4272C12.8952 26.422 12.8981 26.4172 12.9018 26.4132C12.9056 26.4091 12.9101 26.4059 12.915 26.4037C12.92 26.4015 12.9254 26.4004 12.9308 26.4004C12.9364 26.4002 12.942 26.4012 12.9472 26.4032C12.9525 26.4053 12.9573 26.4084 12.9613 26.4125C12.9653 26.4165 12.9686 26.4213 12.9708 26.4267C12.9729 26.432 12.9741 26.4378 12.9741 26.4436C12.9741 26.4495 12.973 26.4553 12.9708 26.4607C12.9686 26.4662 12.9654 26.4711 12.9614 26.4753C12.9574 26.4794 12.9526 26.4827 12.9473 26.485C12.9421 26.4872 12.9364 26.4884 12.9308 26.4884C12.9253 26.4882 12.9199 26.4868 12.9149 26.4845C12.9099 26.4821 12.9055 26.4787 12.9017 26.4746C12.898 26.4704 12.8951 26.4655 12.8932 26.4602C12.8913 26.4549 12.8904 26.4492 12.8907 26.4436Z" fill="white"/>
<path d="M13.4259 26.316C13.4259 26.4123 13.3601 26.482 13.227 26.482C13.1551 26.4843 13.0851 26.4582 13.0312 26.4089L13.0585 26.3641C13.1023 26.4057 13.1595 26.4288 13.2189 26.4289C13.312 26.4289 13.3601 26.3824 13.3601 26.3143C13.3601 26.2463 13.3168 26.1965 13.1788 26.1965H13.0617L13.0954 25.916H13.3938V25.9675H13.1435L13.1259 26.1467H13.1949C13.3633 26.15 13.4259 26.2164 13.4259 26.316Z" fill="white"/>
<path d="M13.6454 25.916V26.4787H13.5893V25.9675H13.4609V25.916H13.6454Z" fill="white"/>
<path d="M14.2322 26.4581C14.2077 26.4784 14.177 26.489 14.1456 26.4879C14.1295 26.4895 14.1133 26.4874 14.0981 26.4816C14.0829 26.4759 14.0691 26.4668 14.0577 26.4548C14.0464 26.4429 14.0377 26.4286 14.0324 26.4127C14.027 26.3969 14.0252 26.3801 14.0269 26.3635V26.1079H13.9531V26.0597H14.0269V25.9668H14.0815V26.0597H14.2066V26.1079H14.0815V26.3601C14.08 26.3703 14.0807 26.3807 14.0837 26.3905C14.0866 26.4003 14.0917 26.4093 14.0985 26.4169C14.1053 26.4244 14.1136 26.4302 14.1229 26.4339C14.1322 26.4376 14.1421 26.439 14.152 26.4382C14.1639 26.4391 14.1759 26.4375 14.1872 26.4335C14.1985 26.4295 14.2089 26.4232 14.2178 26.4149L14.2322 26.4581Z" fill="white"/>
<path d="M14.2755 26.2724C14.2755 26.2297 14.2877 26.188 14.3106 26.1525C14.3336 26.117 14.3661 26.0894 14.4042 26.0731C14.4423 26.0567 14.4843 26.0525 14.5247 26.0608C14.5652 26.0691 14.6023 26.0897 14.6315 26.1198C14.6607 26.15 14.6805 26.1885 14.6886 26.2303C14.6966 26.2722 14.6925 26.3155 14.6767 26.355C14.6609 26.3944 14.6342 26.4281 14.5999 26.4518C14.5656 26.4755 14.5253 26.4882 14.484 26.4882C14.4564 26.4891 14.4289 26.4841 14.4032 26.4736C14.3775 26.4631 14.3541 26.4472 14.3346 26.427C14.315 26.4068 14.2997 26.3826 14.2896 26.3561C14.2794 26.3295 14.2746 26.301 14.2755 26.2724ZM14.6364 26.2724C14.6364 26.2396 14.627 26.2075 14.6094 26.1802C14.5918 26.1529 14.5667 26.1316 14.5374 26.1191C14.5081 26.1065 14.4758 26.1032 14.4447 26.1096C14.4136 26.116 14.385 26.1318 14.3626 26.155C14.3401 26.1783 14.3249 26.2078 14.3187 26.24C14.3125 26.2722 14.3157 26.3056 14.3278 26.3359C14.34 26.3662 14.3605 26.3922 14.3869 26.4104C14.4133 26.4286 14.4443 26.4384 14.476 26.4384C14.4974 26.4398 14.5189 26.4366 14.539 26.4287C14.5591 26.4209 14.5774 26.4087 14.5926 26.393C14.6078 26.3773 14.6195 26.3584 14.6271 26.3376C14.6347 26.3168 14.6378 26.2946 14.6364 26.2724Z" fill="white"/>
<path d="M15.1817 25.8848V26.4823H15.1287V26.3993C15.1119 26.4274 15.0882 26.4503 15.06 26.4658C15.0318 26.4812 15.0002 26.4886 14.9683 26.4872C14.913 26.4872 14.86 26.4645 14.8208 26.424C14.7817 26.3836 14.7598 26.3287 14.7598 26.2715C14.7598 26.2143 14.7817 26.1594 14.8208 26.1189C14.86 26.0784 14.913 26.0557 14.9683 26.0557C14.9997 26.054 15.031 26.0607 15.0591 26.0752C15.0873 26.0898 15.1112 26.1117 15.1287 26.1387V25.8848H15.1817ZM15.1271 26.2715C15.1271 26.2383 15.1174 26.2059 15.0994 26.1785C15.0814 26.151 15.0559 26.1298 15.0261 26.1175C14.9963 26.1052 14.9637 26.1025 14.9323 26.1096C14.901 26.1167 14.8725 26.1333 14.8504 26.1574C14.8283 26.1814 14.8137 26.2118 14.8085 26.2445C14.8032 26.2772 14.8075 26.3108 14.8209 26.341C14.8343 26.3711 14.8561 26.3964 14.8835 26.4136C14.9109 26.4308 14.9427 26.4391 14.9747 26.4374C14.9955 26.4377 15.0161 26.4335 15.0352 26.4252C15.0544 26.4168 15.0716 26.4045 15.086 26.3889C15.1003 26.3733 15.1113 26.3548 15.1184 26.3346C15.1255 26.3144 15.1284 26.2929 15.1271 26.2715Z" fill="white"/>
<path d="M15.6421 26.2207V26.4829H15.5892V26.4148C15.5735 26.4383 15.5523 26.4571 15.5276 26.4696C15.5029 26.4821 15.4755 26.4878 15.448 26.4862C15.355 26.4862 15.2988 26.4364 15.2988 26.3617C15.2988 26.287 15.3389 26.2422 15.4592 26.2422H15.5892V26.2173C15.5892 26.1443 15.5507 26.1045 15.4737 26.1045C15.424 26.1041 15.3758 26.1218 15.3373 26.1543L15.3133 26.1111C15.3592 26.0744 15.4156 26.0546 15.4737 26.0547C15.4959 26.051 15.5187 26.0526 15.5402 26.0595C15.5617 26.0664 15.5814 26.0783 15.5977 26.0944C15.614 26.1105 15.6265 26.1302 15.6342 26.1521C15.6419 26.174 15.6446 26.1975 15.6421 26.2207ZM15.586 26.3567V26.287H15.4576C15.379 26.287 15.3534 26.3186 15.3534 26.3617C15.3534 26.4049 15.3919 26.4414 15.456 26.4414C15.4836 26.4434 15.511 26.4363 15.5344 26.4211C15.5577 26.4058 15.5758 26.3833 15.586 26.3567Z" fill="white"/>
<path d="M16.1267 26.0586L15.9214 26.5333C15.8877 26.6163 15.8444 26.6428 15.7866 26.6428C15.7681 26.6434 15.7496 26.6401 15.7322 26.6333C15.7149 26.6265 15.699 26.6162 15.6855 26.603L15.7128 26.5615C15.7225 26.5716 15.734 26.5796 15.7466 26.585C15.7593 26.5904 15.7729 26.5931 15.7866 26.593C15.8235 26.593 15.8476 26.5748 15.8716 26.5216L15.8893 26.4818L15.7064 26.0586H15.7642L15.9246 26.4187L16.085 26.0586H16.1267Z" fill="white"/>
<path d="M28.7575 27.1524H27.9861C27.8437 27.1524 27.7071 27.0962 27.6065 26.9961C27.5058 26.8961 27.4492 26.7604 27.4492 26.6188V26.0725C27.4492 25.9308 27.5057 25.7949 27.6063 25.6946C27.707 25.5942 27.8435 25.5376 27.9861 25.5371H28.7575C28.9 25.5376 29.0366 25.5942 29.1372 25.6946C29.2378 25.7949 29.2943 25.9308 29.2943 26.0725V26.6188C29.2943 26.7604 29.2378 26.8961 29.1371 26.9961C29.0364 27.0962 28.8999 27.1524 28.7575 27.1524ZM27.9861 25.7174C27.8921 25.7179 27.8022 25.7553 27.7359 25.8215C27.6696 25.8877 27.6324 25.9773 27.6324 26.0707V26.617C27.6324 26.7102 27.6697 26.7996 27.736 26.8656C27.8023 26.9315 27.8923 26.9685 27.9861 26.9685H28.7575C28.804 26.9687 28.8501 26.9598 28.8931 26.9422C28.9361 26.9247 28.9752 26.8988 29.0081 26.8661C29.0409 26.8334 29.067 26.7946 29.0847 26.7518C29.1024 26.7091 29.1113 26.6632 29.1111 26.617V26.0707C29.1113 26.0244 29.1024 25.9785 29.0847 25.9356C29.067 25.8928 29.041 25.8538 29.0082 25.821C28.9753 25.7882 28.9362 25.7621 28.8932 25.7443C28.8502 25.7265 28.8041 25.7174 28.7575 25.7174H27.9861Z" fill="white"/>
<path d="M28.049 26.8033C28.0278 26.8028 28.0076 26.794 27.9927 26.7785C27.9777 26.763 27.9692 26.7422 27.9688 26.7203V26.3369C27.9688 26.3149 27.9772 26.2938 27.9922 26.2782C28.0073 26.2626 28.0277 26.2539 28.049 26.2539C28.0702 26.2539 28.0906 26.2626 28.1057 26.2782C28.1207 26.2938 28.1292 26.3149 28.1292 26.3369V26.7203C28.1292 26.7423 28.1207 26.7634 28.1057 26.779C28.0906 26.7945 28.0702 26.8033 28.049 26.8033Z" fill="white"/>
<path d="M28.3595 26.8047C28.3382 26.8047 28.3178 26.7959 28.3028 26.7804C28.2877 26.7648 28.2793 26.7437 28.2793 26.7217V26.1474C28.2793 26.1254 28.2877 26.1043 28.3028 26.0888C28.3178 26.0732 28.3382 26.0645 28.3595 26.0645C28.3808 26.0645 28.4012 26.0732 28.4162 26.0888C28.4313 26.1043 28.4397 26.1254 28.4397 26.1474V26.7217C28.4393 26.7436 28.4307 26.7644 28.4158 26.7799C28.4008 26.7954 28.3806 26.8043 28.3595 26.8047Z" fill="white"/>
<path d="M28.7247 26.8041C28.7036 26.8037 28.6834 26.7948 28.6685 26.7794C28.6535 26.7639 28.6449 26.743 28.6445 26.7212V25.956C28.6445 25.934 28.653 25.9129 28.668 25.8974C28.6831 25.8818 28.7035 25.873 28.7247 25.873C28.746 25.873 28.7664 25.8818 28.7815 25.8974C28.7965 25.9129 28.8049 25.934 28.8049 25.956V26.7212C28.8049 26.7432 28.7965 26.7643 28.7815 26.7798C28.7664 26.7954 28.746 26.8041 28.7247 26.8041Z" fill="white"/>
<path opacity="0.2" d="M17.7204 29.6496L15.5293 28.7989L28.8087 11L30.9998 11.8525L17.7204 29.6496Z" fill="white"/>
<path d="M10.7012 17.9604L11.161 17.1968L11.8298 20.1925L12.1224 17.5786L12.7076 18.5771L13.1255 14.7004L13.7525 15.8164V17.5786L14.1705 17.9604V17.1968L14.5885 17.5786L15.0483 20.5155L15.4663 18.2835L15.9261 18.5771L16.4695 14.7004L17.4309 18.0779L17.6817 17.3143L17.9743 17.5786L18.3923 20.3099L18.6849 18.0779L18.9357 17.9604L19.2283 18.2835L19.7717 14.5242L20.4405 15.9339L20.6913 18.2835L20.9839 17.3143L21.2347 17.5786L21.5273 20.3099L22.0289 17.6961L22.6977 17.9604L23.0739 14.2305L24.077 19.1939L24.3278 17.6961L25.1638 20.1925L25.4146 17.7842L25.958 17.9604L26.376 14.2305L27.3792 18.5771L27.6718 17.5786L28.2988 20.868L28.6332 17.3143L29.0512 17.7842L29.72 16.4332" stroke="white" stroke-width="0.2"/>
<path d="M11.1637 16.941L10.7012 17.6388V22.1475H29.8311V16.2433L29.1584 17.4778L28.7379 17.0484L28.4016 20.2957L27.7709 17.2899L27.4766 18.2024L26.4676 14.2305L26.0471 17.6388L25.5006 17.4778L25.2483 19.6784L24.4074 17.3973L24.1552 18.766L23.1461 14.2305L22.7677 17.6388L22.095 17.3973L21.5905 19.7858L21.2962 17.2899L21.0439 17.0484L20.7496 17.934L20.4974 15.787L19.8247 14.4988L19.2781 17.934L18.9838 17.6388L18.7315 17.7461L18.4372 19.7858L18.0168 17.2899L17.7225 17.0484L17.4702 17.7461L16.5032 14.6599L15.9566 18.2024L15.4942 17.934L15.0737 19.9736L14.6112 17.2899L14.1908 16.941V17.6388L13.7704 17.2899V15.6797L13.1397 14.6599L12.7193 18.2024L12.1307 17.2899L11.8364 19.6784L11.1637 16.941Z" fill="url(#paint0_linear_1095_44753)"/>
<defs>
<linearGradient id="paint0_linear_1095_44753" x1="20.2661" y1="14.2305" x2="20.2661" y2="22.1475" gradientUnits="userSpaceOnUse">
<stop stop-color="white"/>
<stop offset="1" stop-color="white" stop-opacity="0"/>
</linearGradient>
</defs>
</svg>
