<svg width="41" height="41" viewBox="0 0 41 41" fill="none" xmlns="http://www.w3.org/2000/svg">
<rect width="41" height="41" rx="20.5" fill="#0B6E38"/>
<path d="M29.25 12.75H12.75C12.3522 12.75 11.9706 12.908 11.6893 13.1893C11.408 13.4706 11.25 13.8522 11.25 14.25V27.75C11.25 28.1478 11.408 28.5294 11.6893 28.8107C11.9706 29.092 12.3522 29.25 12.75 29.25H29.25C29.6478 29.25 30.0294 29.092 30.3107 28.8107C30.592 28.5294 30.75 28.1478 30.75 27.75V14.25C30.75 13.8522 30.592 13.4706 30.3107 13.1893C30.0294 12.908 29.6478 12.75 29.25 12.75ZM29.25 14.25V15.75H12.75V14.25H29.25ZM29.25 27.75H12.75V17.25H29.25V27.75ZM25.5 19.5C25.5 20.6935 25.0259 21.8381 24.182 22.682C23.3381 23.5259 22.1935 24 21 24C19.8065 24 18.6619 23.5259 17.818 22.682C16.9741 21.8381 16.5 20.6935 16.5 19.5C16.5 19.3011 16.579 19.1103 16.7197 18.9697C16.8603 18.829 17.0511 18.75 17.25 18.75C17.4489 18.75 17.6397 18.829 17.7803 18.9697C17.921 19.1103 18 19.3011 18 19.5C18 20.2956 18.3161 21.0587 18.8787 21.6213C19.4413 22.1839 20.2044 22.5 21 22.5C21.7956 22.5 22.5587 22.1839 23.1213 21.6213C23.6839 21.0587 24 20.2956 24 19.5C24 19.3011 24.079 19.1103 24.2197 18.9697C24.3603 18.829 24.5511 18.75 24.75 18.75C24.9489 18.75 25.1397 18.829 25.2803 18.9697C25.421 19.1103 25.5 19.3011 25.5 19.5Z" fill="white"/>
</svg>
