<svg width="83" height="93" viewBox="0 0 83 93" fill="none" xmlns="http://www.w3.org/2000/svg">
<rect x="3.5" y="32" width="20" height="32" fill="#D3D3D3"/>
<rect x="31.5" y="16" width="20" height="48" fill="#D3D3D3"/>
<rect x="59.5" width="20" height="64" fill="#D3D3D3"/>
<path d="M6.12598 84.4385H2.86523V82.3818H6.12598C6.62988 82.3818 7.04004 82.2998 7.35645 82.1357C7.67285 81.9658 7.9043 81.7314 8.05078 81.4326C8.19727 81.1338 8.27051 80.7969 8.27051 80.4219C8.27051 80.041 8.19727 79.6865 8.05078 79.3584C7.9043 79.0303 7.67285 78.7666 7.35645 78.5674C7.04004 78.3682 6.62988 78.2686 6.12598 78.2686H3.7793V89H1.14258V76.2031H6.12598C7.12793 76.2031 7.98633 76.3848 8.70117 76.748C9.42188 77.1055 9.97266 77.6006 10.3535 78.2334C10.7344 78.8662 10.9248 79.5898 10.9248 80.4043C10.9248 81.2305 10.7344 81.9453 10.3535 82.5488C9.97266 83.1523 9.42188 83.6182 8.70117 83.9463C7.98633 84.2744 7.12793 84.4385 6.12598 84.4385ZM15.1172 81.5645V89H12.5859V79.4902H14.9678L15.1172 81.5645ZM17.9824 79.4287L17.9385 81.7754C17.8154 81.7578 17.666 81.7432 17.4902 81.7314C17.3203 81.7139 17.165 81.7051 17.0244 81.7051C16.667 81.7051 16.3564 81.752 16.0928 81.8457C15.835 81.9336 15.6182 82.0654 15.4424 82.2412C15.2725 82.417 15.1436 82.6309 15.0557 82.8828C14.9736 83.1348 14.9268 83.4219 14.915 83.7441L14.4053 83.5859C14.4053 82.9707 14.4668 82.4053 14.5898 81.8896C14.7129 81.3682 14.8916 80.9141 15.126 80.5273C15.3662 80.1406 15.6592 79.8418 16.0049 79.6309C16.3506 79.4199 16.7461 79.3145 17.1914 79.3145C17.332 79.3145 17.4756 79.3262 17.6221 79.3496C17.7686 79.3672 17.8887 79.3936 17.9824 79.4287ZM18.5098 84.3418V84.1572C18.5098 83.46 18.6094 82.8184 18.8086 82.2324C19.0078 81.6406 19.2979 81.1279 19.6787 80.6943C20.0596 80.2607 20.5283 79.9238 21.085 79.6836C21.6416 79.4375 22.2803 79.3145 23.001 79.3145C23.7217 79.3145 24.3633 79.4375 24.9258 79.6836C25.4883 79.9238 25.96 80.2607 26.3408 80.6943C26.7275 81.1279 27.0205 81.6406 27.2197 82.2324C27.4189 82.8184 27.5186 83.46 27.5186 84.1572V84.3418C27.5186 85.0332 27.4189 85.6748 27.2197 86.2666C27.0205 86.8525 26.7275 87.3652 26.3408 87.8047C25.96 88.2383 25.4912 88.5752 24.9346 88.8154C24.3779 89.0557 23.7393 89.1758 23.0186 89.1758C22.2979 89.1758 21.6562 89.0557 21.0938 88.8154C20.5371 88.5752 20.0654 88.2383 19.6787 87.8047C19.2979 87.3652 19.0078 86.8525 18.8086 86.2666C18.6094 85.6748 18.5098 85.0332 18.5098 84.3418ZM21.041 84.1572V84.3418C21.041 84.7402 21.0762 85.1123 21.1465 85.458C21.2168 85.8037 21.3281 86.1084 21.4805 86.3721C21.6387 86.6299 21.8438 86.832 22.0957 86.9785C22.3477 87.125 22.6553 87.1982 23.0186 87.1982C23.3701 87.1982 23.6719 87.125 23.9238 86.9785C24.1758 86.832 24.3779 86.6299 24.5303 86.3721C24.6826 86.1084 24.7939 85.8037 24.8643 85.458C24.9404 85.1123 24.9785 84.7402 24.9785 84.3418V84.1572C24.9785 83.7705 24.9404 83.4072 24.8643 83.0674C24.7939 82.7217 24.6797 82.417 24.5215 82.1533C24.3691 81.8838 24.167 81.6729 23.915 81.5205C23.6631 81.3682 23.3584 81.292 23.001 81.292C22.6436 81.292 22.3389 81.3682 22.0869 81.5205C21.8408 81.6729 21.6387 81.8838 21.4805 82.1533C21.3281 82.417 21.2168 82.7217 21.1465 83.0674C21.0762 83.4072 21.041 83.7705 21.041 84.1572ZM31.6055 81.3184V92.6562H29.0742V79.4902H31.4209L31.6055 81.3184ZM37.626 84.1396V84.3242C37.626 85.0156 37.5439 85.6572 37.3799 86.249C37.2217 86.8408 36.9873 87.3564 36.6768 87.7959C36.3662 88.2295 35.9795 88.5693 35.5166 88.8154C35.0596 89.0557 34.5322 89.1758 33.9346 89.1758C33.3545 89.1758 32.8506 89.0586 32.4229 88.8242C31.9951 88.5898 31.6348 88.2617 31.3418 87.8398C31.0547 87.4121 30.8232 86.917 30.6475 86.3545C30.4717 85.792 30.3369 85.1885 30.2432 84.5439V84.0605C30.3369 83.3691 30.4717 82.7363 30.6475 82.1621C30.8232 81.582 31.0547 81.0811 31.3418 80.6592C31.6348 80.2314 31.9922 79.9004 32.4141 79.666C32.8418 79.4316 33.3428 79.3145 33.917 79.3145C34.5205 79.3145 35.0508 79.4287 35.5078 79.6572C35.9707 79.8857 36.3574 80.2139 36.668 80.6416C36.9844 81.0693 37.2217 81.5791 37.3799 82.1709C37.5439 82.7627 37.626 83.4189 37.626 84.1396ZM35.0859 84.3242V84.1396C35.0859 83.7354 35.0508 83.3633 34.9805 83.0234C34.916 82.6777 34.8105 82.376 34.6641 82.1182C34.5234 81.8604 34.3359 81.6611 34.1016 81.5205C33.873 81.374 33.5947 81.3008 33.2666 81.3008C32.9209 81.3008 32.625 81.3564 32.3789 81.4678C32.1387 81.5791 31.9424 81.7402 31.79 81.9512C31.6377 82.1621 31.5234 82.4141 31.4473 82.707C31.3711 83 31.3242 83.3311 31.3066 83.7002V84.9219C31.3359 85.3555 31.418 85.7451 31.5527 86.0908C31.6875 86.4307 31.8955 86.7002 32.1768 86.8994C32.458 87.0986 32.8271 87.1982 33.2842 87.1982C33.6182 87.1982 33.8994 87.125 34.1279 86.9785C34.3564 86.8262 34.541 86.6182 34.6816 86.3545C34.8281 86.0908 34.9307 85.7861 34.9893 85.4404C35.0537 85.0947 35.0859 84.7227 35.0859 84.3242ZM44.3408 86.3721C44.3408 86.1904 44.2881 86.0264 44.1826 85.8799C44.0771 85.7334 43.8809 85.5986 43.5938 85.4756C43.3125 85.3467 42.9053 85.2295 42.3721 85.124C41.8916 85.0186 41.4434 84.8867 41.0273 84.7285C40.6172 84.5645 40.2598 84.3682 39.9551 84.1396C39.6562 83.9111 39.4219 83.6416 39.252 83.3311C39.082 83.0146 38.9971 82.6543 38.9971 82.25C38.9971 81.8516 39.082 81.4766 39.252 81.125C39.4277 80.7734 39.6768 80.4629 39.999 80.1934C40.3271 79.918 40.7256 79.7041 41.1943 79.5518C41.6689 79.3936 42.2021 79.3145 42.7939 79.3145C43.6201 79.3145 44.3291 79.4463 44.9209 79.71C45.5186 79.9736 45.9756 80.3369 46.292 80.7998C46.6143 81.2568 46.7754 81.7783 46.7754 82.3643H44.2441C44.2441 82.1182 44.1914 81.8984 44.0859 81.7051C43.9863 81.5059 43.8281 81.3506 43.6113 81.2393C43.4004 81.1221 43.125 81.0635 42.7852 81.0635C42.5039 81.0635 42.2607 81.1133 42.0557 81.2129C41.8506 81.3066 41.6924 81.4355 41.5811 81.5996C41.4756 81.7578 41.4229 81.9336 41.4229 82.127C41.4229 82.2734 41.4521 82.4053 41.5107 82.5225C41.5752 82.6338 41.6777 82.7363 41.8184 82.8301C41.959 82.9238 42.1406 83.0117 42.3633 83.0938C42.5918 83.1699 42.873 83.2402 43.207 83.3047C43.8926 83.4453 44.5049 83.6299 45.0439 83.8584C45.583 84.0811 46.0107 84.3857 46.3271 84.7725C46.6436 85.1533 46.8018 85.6543 46.8018 86.2754C46.8018 86.6973 46.708 87.084 46.5205 87.4355C46.333 87.7871 46.0635 88.0947 45.7119 88.3584C45.3604 88.6162 44.9385 88.8184 44.4463 88.9648C43.96 89.1055 43.4121 89.1758 42.8027 89.1758C41.918 89.1758 41.168 89.0176 40.5527 88.7012C39.9434 88.3848 39.4805 87.9834 39.1641 87.4971C38.8535 87.0049 38.6982 86.501 38.6982 85.9854H41.0977C41.1094 86.3311 41.1973 86.6094 41.3613 86.8203C41.5312 87.0312 41.7451 87.1836 42.0029 87.2773C42.2666 87.3711 42.5508 87.418 42.8555 87.418C43.1836 87.418 43.4561 87.374 43.6729 87.2861C43.8896 87.1924 44.0537 87.0693 44.165 86.917C44.2822 86.7588 44.3408 86.5771 44.3408 86.3721ZM53.1035 79.4902V81.2832H47.5664V79.4902H53.1035ZM48.9375 77.1436H51.4688V86.1348C51.4688 86.4102 51.5039 86.6211 51.5742 86.7676C51.6504 86.9141 51.7617 87.0166 51.9082 87.0752C52.0547 87.1279 52.2393 87.1543 52.4619 87.1543C52.6201 87.1543 52.7607 87.1484 52.8838 87.1367C53.0127 87.1191 53.1211 87.1016 53.209 87.084L53.2178 88.9473C53.001 89.0176 52.7666 89.0732 52.5146 89.1143C52.2627 89.1553 51.9844 89.1758 51.6797 89.1758C51.123 89.1758 50.6367 89.085 50.2207 88.9033C49.8105 88.7158 49.4941 88.417 49.2715 88.0068C49.0488 87.5967 48.9375 87.0576 48.9375 86.3896V77.1436ZM53.9121 84.3418V84.1572C53.9121 83.46 54.0117 82.8184 54.2109 82.2324C54.4102 81.6406 54.7002 81.1279 55.0811 80.6943C55.4619 80.2607 55.9307 79.9238 56.4873 79.6836C57.0439 79.4375 57.6826 79.3145 58.4033 79.3145C59.124 79.3145 59.7656 79.4375 60.3281 79.6836C60.8906 79.9238 61.3623 80.2607 61.7432 80.6943C62.1299 81.1279 62.4229 81.6406 62.6221 82.2324C62.8213 82.8184 62.9209 83.46 62.9209 84.1572V84.3418C62.9209 85.0332 62.8213 85.6748 62.6221 86.2666C62.4229 86.8525 62.1299 87.3652 61.7432 87.8047C61.3623 88.2383 60.8936 88.5752 60.3369 88.8154C59.7803 89.0557 59.1416 89.1758 58.4209 89.1758C57.7002 89.1758 57.0586 89.0557 56.4961 88.8154C55.9395 88.5752 55.4678 88.2383 55.0811 87.8047C54.7002 87.3652 54.4102 86.8525 54.2109 86.2666C54.0117 85.6748 53.9121 85.0332 53.9121 84.3418ZM56.4434 84.1572V84.3418C56.4434 84.7402 56.4785 85.1123 56.5488 85.458C56.6191 85.8037 56.7305 86.1084 56.8828 86.3721C57.041 86.6299 57.2461 86.832 57.498 86.9785C57.75 87.125 58.0576 87.1982 58.4209 87.1982C58.7725 87.1982 59.0742 87.125 59.3262 86.9785C59.5781 86.832 59.7803 86.6299 59.9326 86.3721C60.085 86.1084 60.1963 85.8037 60.2666 85.458C60.3428 85.1123 60.3809 84.7402 60.3809 84.3418V84.1572C60.3809 83.7705 60.3428 83.4072 60.2666 83.0674C60.1963 82.7217 60.082 82.417 59.9238 82.1533C59.7715 81.8838 59.5693 81.6729 59.3174 81.5205C59.0654 81.3682 58.7607 81.292 58.4033 81.292C58.0459 81.292 57.7412 81.3682 57.4893 81.5205C57.2432 81.6729 57.041 81.8838 56.8828 82.1533C56.7305 82.417 56.6191 82.7217 56.5488 83.0674C56.4785 83.4072 56.4434 83.7705 56.4434 84.1572ZM68.4053 87.1982C68.7158 87.1982 68.9912 87.1396 69.2314 87.0225C69.4717 86.8994 69.6592 86.7295 69.7939 86.5127C69.9346 86.29 70.0078 86.0293 70.0137 85.7305H72.3955C72.3896 86.3984 72.2109 86.9932 71.8594 87.5146C71.5078 88.0303 71.0361 88.4375 70.4443 88.7363C69.8525 89.0293 69.1904 89.1758 68.458 89.1758C67.7197 89.1758 67.0752 89.0527 66.5244 88.8066C65.9795 88.5605 65.5254 88.2207 65.1621 87.7871C64.7988 87.3477 64.5264 86.8379 64.3447 86.2578C64.1631 85.6719 64.0723 85.0449 64.0723 84.377V84.1221C64.0723 83.4482 64.1631 82.8213 64.3447 82.2412C64.5264 81.6553 64.7988 81.1455 65.1621 80.7119C65.5254 80.2725 65.9795 79.9297 66.5244 79.6836C67.0693 79.4375 67.708 79.3145 68.4404 79.3145C69.2197 79.3145 69.9023 79.4639 70.4883 79.7627C71.0801 80.0615 71.543 80.4893 71.877 81.0459C72.2168 81.5967 72.3896 82.25 72.3955 83.0059H70.0137C70.0078 82.6895 69.9404 82.4023 69.8115 82.1445C69.6885 81.8867 69.5068 81.6816 69.2666 81.5293C69.0322 81.3711 68.7422 81.292 68.3965 81.292C68.0273 81.292 67.7256 81.3711 67.4912 81.5293C67.2568 81.6816 67.0752 81.8926 66.9463 82.1621C66.8174 82.4258 66.7266 82.7275 66.6738 83.0674C66.627 83.4014 66.6035 83.7529 66.6035 84.1221V84.377C66.6035 84.7461 66.627 85.1006 66.6738 85.4404C66.7207 85.7803 66.8086 86.082 66.9375 86.3457C67.0723 86.6094 67.2568 86.8174 67.4912 86.9697C67.7256 87.1221 68.0303 87.1982 68.4053 87.1982ZM76.3945 75.4912V89H73.8633V75.4912H76.3945ZM82.3887 79.4902L78.2578 84.2012L76.043 86.4424L75.1201 84.6143L76.8779 82.3818L79.3477 79.4902H82.3887ZM79.7607 89L76.9482 84.6055L78.6973 83.0762L82.6787 89H79.7607Z" fill="#D3D3D3"/>
</svg>
