<svg width="288" height="288" viewBox="0 0 288 288" fill="none" xmlns="http://www.w3.org/2000/svg">
<circle cx="144" cy="144" r="144" fill="#2286FE" fill-opacity="0.05"/>
<g clip-path="url(#clip0_139_68364)">
<path d="M237.931 81.4192H47.0691C46.7856 81.4189 46.5139 81.3063 46.3135 81.106C46.113 80.9058 46.0003 80.6343 46 80.3511V74.0681C46.0003 73.7849 46.113 73.5134 46.3135 73.3132C46.5139 73.1129 46.7856 73.0003 47.0691 73H237.931C238.214 73.0003 238.486 73.1129 238.687 73.3132C238.887 73.5134 239 73.7849 239 74.0681V80.3511C239 80.6343 238.887 80.9058 238.687 81.106C238.486 81.3063 238.214 81.4189 237.931 81.4192Z" fill="#E4E4E4"/>
<path d="M52.2043 78.4197C53.0426 78.4197 53.7222 77.7407 53.7222 76.9032C53.7222 76.0657 53.0426 75.3867 52.2043 75.3867C51.3661 75.3867 50.6865 76.0657 50.6865 76.9032C50.6865 77.7407 51.3661 78.4197 52.2043 78.4197Z" fill="white"/>
<path d="M57.9656 78.4197C58.8038 78.4197 59.4834 77.7407 59.4834 76.9032C59.4834 76.0657 58.8038 75.3867 57.9656 75.3867C57.1273 75.3867 56.4478 76.0657 56.4478 76.9032C56.4478 77.7407 57.1273 78.4197 57.9656 78.4197Z" fill="white"/>
<path d="M63.7268 78.4197C64.5651 78.4197 65.2446 77.7407 65.2446 76.9032C65.2446 76.0657 64.5651 75.3867 63.7268 75.3867C62.8885 75.3867 62.209 76.0657 62.209 76.9032C62.209 77.7407 62.8885 78.4197 63.7268 78.4197Z" fill="white"/>
<path d="M232.286 75.8609H225.652C225.522 75.8606 225.397 75.8087 225.305 75.7167C225.213 75.6246 225.162 75.4999 225.162 75.3699C225.162 75.2399 225.213 75.1151 225.305 75.0231C225.397 74.9311 225.522 74.8792 225.652 74.8789H232.286C232.416 74.8788 232.541 74.9304 232.634 75.0223C232.726 75.1141 232.778 75.2388 232.778 75.369C232.778 75.4991 232.727 75.624 232.635 75.7162C232.543 75.8084 232.418 75.8605 232.288 75.8609H232.286Z" fill="white"/>
<path d="M232.286 77.7007H225.652C225.522 77.7004 225.397 77.6486 225.305 77.5565C225.213 77.4645 225.162 77.3398 225.162 77.2097C225.162 77.0797 225.213 76.955 225.305 76.8629C225.397 76.7709 225.522 76.719 225.652 76.7188H232.286C232.416 76.7187 232.541 76.7702 232.634 76.8621C232.726 76.954 232.778 77.0787 232.778 77.2088C232.778 77.3389 232.727 77.4638 232.635 77.5561C232.543 77.6483 232.418 77.7003 232.288 77.7007H232.286Z" fill="white"/>
<path d="M232.286 79.5406H225.652C225.522 79.5406 225.397 79.4888 225.305 79.3968C225.212 79.3047 225.161 79.1798 225.161 79.0496C225.161 78.9194 225.212 78.7945 225.305 78.7024C225.397 78.6103 225.522 78.5586 225.652 78.5586H232.286C232.417 78.5583 232.542 78.6098 232.634 78.7017C232.726 78.7937 232.778 78.9184 232.779 79.0487C232.779 79.1789 232.727 79.3038 232.635 79.3961C232.543 79.4883 232.418 79.5403 232.288 79.5406H232.286Z" fill="white"/>
<path d="M100.422 197.854C101.124 192.212 104.624 186.653 110.01 184.816C107.886 190.624 107.886 196.995 110.011 202.802C110.839 205.039 111.992 207.44 111.214 209.695C110.73 211.097 109.545 212.17 108.22 212.841C106.896 213.512 105.426 213.832 103.974 214.146L103.688 214.382C101.384 209.183 99.7194 203.497 100.422 197.854Z" fill="#F0F0F0"/>
<path d="M110.063 184.922C106.927 188.433 104.978 192.842 104.492 197.523C104.37 198.529 104.407 199.548 104.602 200.542C104.823 201.505 105.299 202.391 105.979 203.108C106.599 203.789 107.313 204.414 107.757 205.234C107.978 205.657 108.107 206.122 108.135 206.598C108.164 207.075 108.091 207.552 107.922 207.998C107.53 209.121 106.758 210.037 105.971 210.906C105.098 211.871 104.175 212.859 103.804 214.139C103.759 214.294 103.521 214.215 103.566 214.06C104.212 211.834 106.374 210.57 107.406 208.565C107.887 207.63 108.089 206.544 107.638 205.556C107.243 204.693 106.508 204.048 105.873 203.364C105.2 202.674 104.706 201.83 104.434 200.906C104.189 199.924 104.112 198.909 104.208 197.902C104.388 195.632 104.924 193.404 105.796 191.3C106.779 188.894 108.166 186.673 109.898 184.734C110.005 184.614 110.17 184.802 110.063 184.922Z" fill="white"/>
<path d="M104.559 196.009C103.784 195.821 103.101 195.364 102.633 194.719C102.164 194.074 101.939 193.284 102 192.49C102.003 192.457 102.018 192.427 102.042 192.406C102.067 192.385 102.099 192.374 102.131 192.375C102.164 192.377 102.194 192.391 102.217 192.415C102.239 192.438 102.251 192.47 102.25 192.502C102.193 193.242 102.402 193.978 102.84 194.577C103.277 195.177 103.915 195.6 104.638 195.771C104.795 195.808 104.715 196.046 104.559 196.009Z" fill="white"/>
<path d="M105.618 202.805C107.018 201.97 108.052 200.639 108.512 199.076C108.558 198.921 108.796 199 108.751 199.155C108.268 200.78 107.19 202.163 105.731 203.029C105.592 203.111 105.48 202.887 105.618 202.805Z" fill="white"/>
<path d="M107.011 189.13C107.296 189.265 107.609 189.327 107.924 189.311C108.239 189.295 108.545 189.201 108.815 189.038C108.952 188.954 109.064 189.178 108.927 189.262C108.629 189.441 108.291 189.544 107.943 189.563C107.595 189.581 107.248 189.514 106.932 189.368C106.901 189.356 106.876 189.334 106.861 189.304C106.846 189.275 106.843 189.241 106.852 189.209C106.863 189.178 106.886 189.152 106.915 189.137C106.945 189.122 106.979 189.119 107.011 189.13Z" fill="white"/>
<path d="M126.427 194.893C126.342 194.948 126.258 195.003 126.173 195.06C125.039 195.805 123.967 196.641 122.968 197.56C122.89 197.63 122.811 197.702 122.735 197.774C120.353 200.012 118.407 202.674 116.996 205.622C116.436 206.796 115.966 208.011 115.591 209.256C115.072 210.975 114.647 212.881 113.62 214.287C113.515 214.435 113.4 214.576 113.277 214.71H103.999C103.978 214.7 103.957 214.691 103.935 214.681L103.565 214.697C103.58 214.632 103.597 214.564 103.612 214.499C103.62 214.461 103.631 214.423 103.639 214.384C103.645 214.359 103.652 214.334 103.656 214.31C103.658 214.302 103.66 214.294 103.662 214.287C103.667 214.264 103.673 214.243 103.677 214.222C103.77 213.843 103.866 213.464 103.965 213.086C103.965 213.084 103.965 213.084 103.967 213.082C104.692 210.19 105.758 207.394 107.142 204.753C107.185 204.675 107.227 204.594 107.274 204.516C107.915 203.347 108.65 202.232 109.473 201.183C109.926 200.61 110.407 200.06 110.915 199.535C112.23 198.182 113.75 197.045 115.419 196.164C118.747 194.409 122.6 193.736 126.156 194.808C126.247 194.836 126.336 194.863 126.427 194.893Z" fill="#F0F0F0"/>
<path d="M126.406 195.01C121.786 195.927 117.572 198.275 114.364 201.721C113.66 202.45 113.075 203.286 112.632 204.197C112.229 205.099 112.075 206.092 112.185 207.074C112.27 207.991 112.464 208.919 112.324 209.841C112.246 210.312 112.068 210.76 111.804 211.158C111.54 211.556 111.194 211.893 110.79 212.148C109.801 212.809 108.632 213.075 107.48 213.296C106.201 213.541 104.869 213.775 103.802 214.573C103.672 214.67 103.53 214.464 103.659 214.367C105.516 212.979 108.004 213.27 110.036 212.29C110.984 211.832 111.8 211.087 112.034 210.027C112.24 209.1 112.041 208.143 111.947 207.215C111.825 206.259 111.939 205.288 112.279 204.386C112.674 203.455 113.226 202.598 113.909 201.852C115.42 200.148 117.191 198.692 119.155 197.537C121.39 196.206 123.835 195.267 126.387 194.761C126.545 194.729 126.563 194.979 126.406 195.01Z" fill="white"/>
<path d="M115.332 200.552C114.826 199.936 114.556 199.16 114.57 198.363C114.584 197.567 114.882 196.801 115.409 196.203C115.516 196.082 115.708 196.243 115.601 196.364C115.109 196.92 114.833 197.633 114.821 198.375C114.809 199.117 115.064 199.838 115.538 200.41C115.641 200.534 115.434 200.676 115.332 200.552Z" fill="white"/>
<path d="M112.081 206.613C113.702 206.788 115.329 206.347 116.639 205.377C116.769 205.28 116.911 205.486 116.782 205.583C115.417 206.59 113.723 207.046 112.036 206.86C111.875 206.842 111.921 206.595 112.081 206.613Z" fill="white"/>
<path d="M121.432 196.534C121.578 196.813 121.791 197.052 122.052 197.229C122.313 197.405 122.614 197.514 122.927 197.546C123.088 197.562 123.042 197.808 122.882 197.793C122.536 197.756 122.204 197.635 121.915 197.441C121.627 197.246 121.39 196.984 121.226 196.677C121.208 196.649 121.201 196.616 121.207 196.583C121.213 196.551 121.231 196.522 121.258 196.503C121.285 196.484 121.319 196.477 121.351 196.482C121.384 196.488 121.413 196.507 121.432 196.534Z" fill="white"/>
<path d="M108.557 116.806H77.8601C76.9115 116.805 76.0021 116.428 75.3313 115.758C74.6606 115.088 74.2833 114.179 74.2822 113.232V96.5277C74.2833 95.58 74.6606 94.6714 75.3314 94.0012C76.0021 93.3311 76.9115 92.9542 77.8601 92.9531H108.557C109.505 92.9542 110.415 93.3311 111.086 94.0012C111.756 94.6714 112.134 95.58 112.135 96.5277V113.232C112.134 114.179 111.756 115.088 111.086 115.758C110.415 116.428 109.505 116.805 108.557 116.806Z" fill="#99C7FF"/>
<path d="M155.422 116.806H124.725C123.777 116.805 122.867 116.428 122.197 115.758C121.526 115.088 121.149 114.179 121.147 113.232V96.5277C121.149 95.58 121.526 94.6714 122.197 94.0012C122.867 93.3311 123.777 92.9542 124.725 92.9531H155.422C156.371 92.9542 157.28 93.3311 157.951 94.0012C158.622 94.6714 158.999 95.58 159 96.5277V113.232C158.999 114.179 158.622 115.088 157.951 115.758C157.28 116.428 156.371 116.805 155.422 116.806Z" fill="#2286FE"/>
<path d="M202.287 116.806H171.59C170.641 116.805 169.732 116.428 169.061 115.758C168.391 115.088 168.013 114.179 168.012 113.232V96.5277C168.013 95.58 168.391 94.6714 169.061 94.0012C169.732 93.3311 170.642 92.9542 171.59 92.9531H202.287C203.235 92.9542 204.145 93.3311 204.816 94.0012C205.486 94.6714 205.864 95.58 205.865 96.5277V113.232C205.864 114.179 205.486 115.088 204.816 115.758C204.145 116.428 203.235 116.805 202.287 116.806Z" fill="#99C7FF"/>
<path d="M108.557 154.025H77.8601C76.9115 154.024 76.0021 153.647 75.3313 152.977C74.6606 152.307 74.2833 151.398 74.2822 150.45V133.746C74.2833 132.799 74.6606 131.89 75.3314 131.22C76.0021 130.55 76.9115 130.173 77.8601 130.172H108.557C109.505 130.173 110.415 130.55 111.086 131.22C111.756 131.89 112.134 132.799 112.135 133.746V150.45C112.134 151.398 111.756 152.307 111.086 152.977C110.415 153.647 109.505 154.024 108.557 154.025Z" fill="#F2F2F2"/>
<path d="M155.422 154.025H124.725C123.777 154.024 122.867 153.647 122.197 152.977C121.526 152.307 121.149 151.398 121.147 150.45V133.746C121.149 132.799 121.526 131.89 122.197 131.22C122.867 130.55 123.777 130.173 124.725 130.172H155.422C156.371 130.173 157.28 130.55 157.951 131.22C158.622 131.89 158.999 132.799 159 133.746V150.45C158.999 151.398 158.622 152.307 157.951 152.977C157.28 153.647 156.371 154.024 155.422 154.025Z" fill="#99C7FF"/>
<path d="M157.589 157.1C160.617 157.1 163.072 154.647 163.072 151.622C163.072 148.597 160.617 146.145 157.589 146.145C154.562 146.145 152.107 148.597 152.107 151.622C152.107 154.647 154.562 157.1 157.589 157.1Z" fill="#2286FE"/>
<path d="M159.866 151.164H158.002V149.302C158.002 149.244 157.991 149.187 157.969 149.134C157.947 149.081 157.914 149.032 157.874 148.992C157.833 148.951 157.785 148.919 157.731 148.897C157.678 148.875 157.621 148.863 157.564 148.863C157.506 148.863 157.449 148.875 157.396 148.897C157.342 148.919 157.294 148.951 157.253 148.992C157.213 149.032 157.18 149.081 157.158 149.134C157.136 149.187 157.125 149.244 157.125 149.302V151.164H155.261C155.203 151.164 155.146 151.175 155.093 151.197C155.04 151.219 154.991 151.252 154.951 151.292C154.91 151.333 154.878 151.381 154.856 151.434C154.834 151.488 154.822 151.545 154.822 151.602C154.822 151.66 154.834 151.717 154.856 151.77C154.878 151.823 154.91 151.871 154.951 151.912C154.991 151.953 155.04 151.985 155.093 152.007C155.146 152.029 155.203 152.04 155.261 152.04H157.125V153.903C157.125 153.96 157.136 154.017 157.158 154.07C157.18 154.124 157.213 154.172 157.253 154.213C157.294 154.253 157.342 154.286 157.396 154.308C157.449 154.33 157.506 154.341 157.564 154.341C157.68 154.341 157.791 154.295 157.874 154.213C157.956 154.13 158.002 154.019 158.002 153.903V152.04H159.866C159.924 152.04 159.981 152.029 160.034 152.007C160.087 151.985 160.136 151.953 160.176 151.912C160.217 151.871 160.249 151.823 160.271 151.77C160.294 151.717 160.305 151.66 160.305 151.602C160.305 151.545 160.294 151.488 160.271 151.434C160.249 151.381 160.217 151.333 160.176 151.292C160.136 151.252 160.087 151.219 160.034 151.197C159.981 151.175 159.924 151.164 159.866 151.164Z" fill="white"/>
<path d="M205.175 120.842C208.203 120.842 210.658 118.39 210.658 115.364C210.658 112.339 208.203 109.887 205.175 109.887C202.147 109.887 199.693 112.339 199.693 115.364C199.693 118.39 202.147 120.842 205.175 120.842Z" fill="#2286FE"/>
<path d="M207.452 114.906H205.588V113.044C205.588 112.986 205.577 112.929 205.555 112.876C205.533 112.823 205.5 112.775 205.46 112.734C205.419 112.693 205.371 112.661 205.317 112.639C205.264 112.617 205.207 112.605 205.15 112.605C205.092 112.605 205.035 112.617 204.982 112.639C204.928 112.661 204.88 112.693 204.839 112.734C204.799 112.775 204.766 112.823 204.744 112.876C204.722 112.929 204.711 112.986 204.711 113.044V114.906H202.847C202.789 114.906 202.732 114.917 202.679 114.939C202.626 114.961 202.577 114.994 202.537 115.034C202.496 115.075 202.464 115.123 202.442 115.177C202.42 115.23 202.408 115.287 202.408 115.344C202.408 115.402 202.42 115.459 202.442 115.512C202.464 115.565 202.496 115.614 202.537 115.654C202.577 115.695 202.626 115.727 202.679 115.749C202.732 115.771 202.789 115.783 202.847 115.783H204.711V117.645C204.711 117.703 204.722 117.76 204.744 117.813C204.766 117.866 204.799 117.914 204.839 117.955C204.88 117.996 204.928 118.028 204.982 118.05C205.035 118.072 205.092 118.083 205.15 118.083C205.266 118.083 205.377 118.037 205.46 117.955C205.542 117.873 205.588 117.761 205.588 117.645V115.783H207.452C207.51 115.783 207.567 115.771 207.62 115.749C207.673 115.727 207.722 115.695 207.762 115.654C207.803 115.614 207.835 115.565 207.857 115.512C207.879 115.459 207.891 115.402 207.891 115.344C207.891 115.287 207.879 115.23 207.857 115.177C207.835 115.123 207.803 115.075 207.762 115.034C207.722 114.994 207.673 114.961 207.62 114.939C207.567 114.917 207.51 114.906 207.452 114.906Z" fill="white"/>
<path d="M110.724 120.362C113.752 120.362 116.207 117.909 116.207 114.884C116.207 111.859 113.752 109.406 110.724 109.406C107.696 109.406 105.242 111.859 105.242 114.884C105.242 117.909 107.696 120.362 110.724 120.362Z" fill="#2286FE"/>
<path d="M113.001 114.426H111.137V112.563C111.137 112.506 111.126 112.449 111.104 112.396C111.082 112.342 111.049 112.294 111.009 112.253C110.968 112.213 110.919 112.18 110.866 112.158C110.813 112.136 110.756 112.125 110.698 112.125C110.641 112.125 110.584 112.136 110.53 112.158C110.477 112.18 110.429 112.213 110.388 112.253C110.347 112.294 110.315 112.342 110.293 112.396C110.271 112.449 110.26 112.506 110.26 112.563V114.426H108.396C108.338 114.426 108.281 114.437 108.228 114.459C108.175 114.481 108.126 114.513 108.086 114.554C108.045 114.595 108.012 114.643 107.99 114.696C107.968 114.749 107.957 114.806 107.957 114.864C107.957 114.98 108.003 115.092 108.086 115.174C108.168 115.256 108.279 115.302 108.396 115.302H110.26V117.165C110.26 117.222 110.271 117.279 110.293 117.332C110.315 117.385 110.347 117.434 110.388 117.474C110.429 117.515 110.477 117.547 110.53 117.569C110.584 117.591 110.641 117.603 110.698 117.603C110.756 117.603 110.813 117.591 110.866 117.569C110.919 117.547 110.968 117.515 111.009 117.474C111.049 117.434 111.082 117.385 111.104 117.332C111.126 117.279 111.137 117.222 111.137 117.165V115.302H113.001C113.059 115.302 113.116 115.291 113.169 115.269C113.222 115.247 113.27 115.214 113.311 115.174C113.352 115.133 113.384 115.085 113.406 115.032C113.428 114.978 113.44 114.921 113.44 114.864C113.44 114.748 113.393 114.636 113.311 114.554C113.229 114.472 113.117 114.426 113.001 114.426Z" fill="white"/>
<path d="M151.771 107.317C151.871 107.619 151.903 107.939 151.866 108.255C151.829 108.572 151.722 108.876 151.555 109.147C151.387 109.417 151.162 109.648 150.895 109.822C150.629 109.997 150.327 110.11 150.011 110.156L147.476 127.444L143.318 125.415L147.501 108.158C147.46 107.623 147.616 107.092 147.941 106.666C148.265 106.239 148.735 105.946 149.262 105.842C149.788 105.738 150.334 105.831 150.797 106.103C151.259 106.375 151.606 106.806 151.771 107.317Z" fill="#9E616A"/>
<path d="M121.492 162.689C121.678 162.429 121.804 162.133 121.862 161.82C121.92 161.507 121.908 161.185 121.828 160.877C121.748 160.568 121.601 160.282 121.398 160.036C121.195 159.791 120.941 159.593 120.653 159.456L122.363 141.066L118.781 142.901L117.663 160.622C117.465 161.12 117.457 161.674 117.641 162.177C117.825 162.681 118.187 163.1 118.659 163.355C119.131 163.609 119.68 163.682 120.202 163.56C120.724 163.437 121.184 163.127 121.492 162.689Z" fill="#9E616A"/>
<path d="M123.939 153.387L139.311 152.797L140.198 136.848H122.461L123.939 153.387Z" fill="#9E616A"/>
<path d="M121.086 209.713L123.713 209.713L124.963 199.59H121.086L121.086 209.713Z" fill="#9E616A"/>
<path d="M120.435 208.419L124.587 208.172V209.949L128.535 212.673C128.73 212.808 128.877 213.001 128.954 213.225C129.031 213.449 129.035 213.691 128.964 213.918C128.894 214.144 128.753 214.341 128.562 214.481C128.371 214.622 128.14 214.697 127.903 214.697H122.96L122.108 212.939L121.775 214.697H119.911L120.435 208.419Z" fill="#2F2E41"/>
<path d="M132.77 209.713L135.397 209.713L136.646 199.59H132.77L132.77 209.713Z" fill="#9E616A"/>
<path d="M123.726 149.644C123.726 149.644 119.127 153.354 121.62 166.604C121.241 166.649 121.671 167.396 121.671 167.396L122.03 178.192L122.308 179.429L121.384 181.426L121.765 183.595L120.59 203.283L124.93 203.843L129.083 183.399L129.874 181.1L130.667 179.086L130.239 176.937L130.59 173.602L132.984 162.358L133.571 181.86L132.753 183.722L133.208 185.765L132.194 186.85L131.793 205.097L136.421 205.313L140.249 186.919L139.953 184.572L140.462 182.837V178.783L141.334 176.869L143.236 166.437C143.236 166.437 143.81 158.283 139.624 148.688L123.726 149.644Z" fill="#2F2E41"/>
<path d="M125.601 123.594C125.601 123.594 119.791 124.742 118.79 129.691C117.789 134.641 117.146 145.843 117.146 145.843L117.365 147.402L122.984 148.704L126.571 133.009L125.601 123.594Z" fill="#3F3D56"/>
<path d="M138.858 125.263C138.858 125.263 139.447 124.439 142.745 124.312C142.881 124.307 142.713 124.037 142.713 124.037L144.298 116.293L149.583 119.216L148.691 127.336L140.007 137.205L138.858 125.263Z" fill="#3F3D56"/>
<path d="M135.564 148.352C133.076 148.352 129.331 148.078 123.692 147.242C123.329 147.187 122.993 147.018 122.733 146.759C122.473 146.499 122.303 146.164 122.247 145.801C122.063 145.607 121.943 145.361 121.904 145.096C121.865 144.832 121.908 144.561 122.028 144.322L122.033 144.312L121.906 144.161C121.708 143.93 121.592 143.639 121.575 143.335C121.558 143.031 121.642 142.73 121.813 142.478L120.067 129.998C119.889 128.758 120.161 127.497 120.831 126.439C121.502 125.382 122.529 124.598 123.726 124.23L124.371 124.029L126.808 120.844L126.857 120.844L134.682 120.948L137.221 124.17L141.327 125.137L141.337 125.2L142.29 130.702C142.786 133.564 141.649 134.689 140.198 137.206L140.624 144.274L140.817 144.624C140.924 144.819 140.96 145.044 140.919 145.262C140.877 145.48 140.761 145.676 140.589 145.817C140.719 146.187 140.728 146.588 140.615 146.963L140.514 147.295C140.514 147.304 140.488 147.439 140.271 147.603C139.88 147.9 138.758 148.352 135.564 148.352Z" fill="#3F3D56"/>
<path d="M132.118 208.419L136.271 208.172V209.949L140.219 212.673C140.414 212.808 140.56 213.001 140.638 213.225C140.715 213.449 140.719 213.691 140.648 213.918C140.578 214.144 140.437 214.341 140.246 214.481C140.055 214.622 139.824 214.697 139.587 214.697H134.643L133.791 212.939L133.459 214.697H131.595L132.118 208.419Z" fill="#2F2E41"/>
<path d="M136.48 113.902C137.022 110.56 134.751 107.412 131.407 106.87C128.062 106.327 124.911 108.597 124.368 111.938C123.826 115.279 126.097 118.428 129.441 118.97C132.786 119.512 135.937 117.243 136.48 113.902Z" fill="#9E616A"/>
<path d="M134.012 106.93C131.763 105.385 129.783 105.15 128.156 105.588C127.946 105.262 127.65 105 127.301 104.829C126.033 101.636 122.172 99.7179 118.859 100.65C115.524 101.589 113.224 105.279 113.851 108.683C114.24 110.793 115.569 112.62 116.104 114.698C117.138 118.72 114.614 123.328 110.665 124.624C114.404 125.374 118.52 123.092 119.861 119.526C120.513 117.793 120.552 115.902 120.635 114.053C120.657 112.777 120.813 111.506 121.102 110.263C121.245 109.705 121.447 109.164 121.705 108.649C122.267 107.517 123.201 106.612 124.35 106.085C124.247 106.403 124.222 106.741 124.275 107.071C124.329 107.401 124.46 107.714 124.658 107.983C123.782 109.08 123.304 110.267 123.304 110.978C121.483 114.304 124.088 117.161 127.417 118.981C128.745 119.711 130.278 119.978 131.775 119.74L131.914 119.146L132.103 119.681L132.733 121.475C133.459 121.827 134.18 122.212 134.894 122.63C134.623 121.357 134.403 120.087 134.252 118.845C134.043 117.154 134.772 114.636 135.298 113.105C135.624 112.162 135.791 111.171 135.793 110.173V110.129L136.305 111.772L138.169 110.978C137.822 108.991 138.169 106.735 134.012 106.93Z" fill="#2F2E41"/>
<path d="M210.67 215.001H74.3301C74.2545 215.001 74.1821 214.971 74.1287 214.917C74.0754 214.864 74.0454 214.791 74.0454 214.716C74.0454 214.64 74.0754 214.568 74.1287 214.514C74.1821 214.46 74.2545 214.43 74.3301 214.43H210.67C210.745 214.43 210.818 214.46 210.871 214.514C210.924 214.568 210.954 214.64 210.954 214.716C210.954 214.791 210.924 214.864 210.871 214.917C210.818 214.971 210.745 215.001 210.67 215.001Z" fill="#B9C0CA"/>
<path d="M110.098 157.819C113.126 157.819 115.58 155.366 115.58 152.341C115.58 149.316 113.126 146.863 110.098 146.863C107.07 146.863 104.615 149.316 104.615 152.341C104.615 155.366 107.07 157.819 110.098 157.819Z" fill="#99C7FF"/>
<path d="M192.588 149.193H173.359C172.764 149.192 172.195 148.956 171.774 148.536C171.354 148.116 171.118 147.547 171.117 146.953V136.489C171.118 135.896 171.354 135.326 171.774 134.907C172.195 134.487 172.764 134.251 173.359 134.25H192.588C193.182 134.251 193.752 134.487 194.172 134.907C194.593 135.326 194.829 135.896 194.83 136.489V146.953C194.829 147.547 194.593 148.116 194.172 148.536C193.752 148.956 193.183 149.192 192.588 149.193Z" fill="#F2F2F2"/>
<path d="M192.872 144.943C194.48 144.943 195.783 143.64 195.783 142.034C195.783 140.427 194.48 139.125 192.872 139.125C191.264 139.125 189.96 140.427 189.96 142.034C189.96 143.64 191.264 144.943 192.872 144.943Z" fill="#2286FE"/>
<path d="M194.081 141.788H193.091V140.799C193.091 140.769 193.085 140.738 193.073 140.71C193.062 140.682 193.044 140.656 193.023 140.635C193.001 140.613 192.976 140.596 192.947 140.584C192.919 140.572 192.889 140.566 192.858 140.566C192.796 140.566 192.737 140.591 192.693 140.635C192.65 140.678 192.625 140.737 192.625 140.799V141.788H191.635C191.574 141.788 191.514 141.813 191.471 141.856C191.427 141.9 191.402 141.959 191.402 142.021C191.402 142.051 191.408 142.082 191.42 142.11C191.432 142.138 191.449 142.164 191.471 142.185C191.492 142.207 191.518 142.224 191.546 142.236C191.574 142.248 191.605 142.254 191.635 142.254H192.625V143.243C192.625 143.273 192.631 143.303 192.643 143.332C192.655 143.36 192.672 143.386 192.693 143.407C192.715 143.429 192.741 143.446 192.769 143.458C192.797 143.469 192.828 143.475 192.858 143.475C192.92 143.475 192.979 143.451 193.023 143.407C193.067 143.364 193.091 143.304 193.091 143.243V142.254H194.081C194.143 142.254 194.202 142.229 194.246 142.185C194.289 142.142 194.314 142.083 194.314 142.021C194.314 141.99 194.308 141.96 194.296 141.932C194.285 141.904 194.267 141.878 194.246 141.856C194.224 141.835 194.198 141.818 194.17 141.806C194.142 141.794 194.112 141.788 194.081 141.788Z" fill="white"/>
<path d="M200.423 146.225H184.576C183.903 146.224 183.258 145.957 182.782 145.482C182.307 145.007 182.039 144.362 182.039 143.69V134.239C182.039 134.116 182.088 133.997 182.176 133.91C182.263 133.822 182.382 133.773 182.506 133.773C182.63 133.773 182.748 133.822 182.836 133.91C182.924 133.997 182.973 134.116 182.973 134.239V136.77L201.381 138.442C201.748 138.449 202.099 138.599 202.357 138.861C202.614 139.123 202.759 139.476 202.76 139.843C202.76 139.872 202.757 139.901 202.752 139.929L201.824 144.872C201.811 145.235 201.658 145.579 201.397 145.831C201.135 146.083 200.786 146.225 200.423 146.225ZM182.973 137.708V143.69C182.974 144.115 183.143 144.522 183.443 144.822C183.744 145.122 184.151 145.291 184.576 145.291H200.423C200.547 145.291 200.665 145.242 200.753 145.154C200.841 145.067 200.89 144.948 200.89 144.824C200.89 144.795 200.893 144.766 200.898 144.738L201.823 139.807C201.814 139.69 201.761 139.58 201.675 139.5C201.588 139.421 201.475 139.376 201.357 139.376C201.343 139.376 201.329 139.375 201.315 139.374L182.973 137.708Z" fill="#2286FE"/>
<path d="M180.365 150.584C180.795 150.584 181.144 150.235 181.144 149.806C181.144 149.376 180.795 149.027 180.365 149.027C179.935 149.027 179.586 149.376 179.586 149.806C179.586 150.235 179.935 150.584 180.365 150.584Z" fill="#2286FE"/>
<path d="M199.799 150.584C200.23 150.584 200.578 150.235 200.578 149.806C200.578 149.376 200.23 149.027 199.799 149.027C199.369 149.027 199.021 149.376 199.021 149.806C199.021 150.235 199.369 150.584 199.799 150.584Z" fill="#2286FE"/>
<path d="M200.579 149.028H179.742C179.618 149.028 179.499 148.978 179.411 148.891C179.324 148.803 179.274 148.685 179.274 148.561C179.274 148.437 179.324 148.318 179.411 148.231C179.499 148.143 179.618 148.094 179.742 148.094H200.579C200.703 148.094 200.822 148.143 200.909 148.231C200.997 148.318 201.046 148.437 201.046 148.561C201.046 148.685 200.997 148.803 200.909 148.891C200.822 148.978 200.703 149.028 200.579 149.028Z" fill="#2286FE"/>
<path d="M183.752 134.551H179.702C179.578 134.551 179.459 134.502 179.372 134.414C179.284 134.326 179.235 134.208 179.235 134.084C179.235 133.96 179.284 133.842 179.372 133.754C179.459 133.667 179.578 133.617 179.702 133.617H183.752C183.876 133.617 183.995 133.667 184.082 133.754C184.17 133.842 184.219 133.96 184.219 134.084C184.219 134.208 184.17 134.326 184.082 134.414C183.995 134.502 183.876 134.551 183.752 134.551Z" fill="#2286FE"/>
<path d="M187.002 148.787C186.89 148.787 186.782 148.747 186.698 148.674L183.625 146.037C183.579 145.997 183.54 145.948 183.513 145.893C183.485 145.838 183.468 145.779 183.463 145.718C183.459 145.656 183.466 145.595 183.485 145.536C183.504 145.478 183.535 145.424 183.575 145.377C183.615 145.331 183.664 145.293 183.719 145.265C183.773 145.237 183.833 145.221 183.895 145.216C183.956 145.212 184.017 145.219 184.076 145.238C184.134 145.258 184.188 145.288 184.235 145.328L187.307 147.966C187.379 148.028 187.431 148.111 187.455 148.203C187.479 148.296 187.474 148.393 187.44 148.482C187.407 148.572 187.347 148.649 187.269 148.703C187.191 148.758 187.097 148.787 187.002 148.787Z" fill="#2286FE"/>
<path d="M187.65 145.938C187.588 145.938 187.527 145.926 187.471 145.902C187.414 145.879 187.362 145.844 187.319 145.801C187.276 145.758 187.241 145.706 187.218 145.65C187.194 145.593 187.182 145.532 187.182 145.471V137.975C187.182 137.851 187.231 137.732 187.319 137.645C187.407 137.557 187.526 137.508 187.65 137.508C187.773 137.508 187.892 137.557 187.98 137.645C188.068 137.732 188.117 137.851 188.117 137.975V145.471C188.117 145.532 188.105 145.593 188.081 145.65C188.058 145.706 188.023 145.758 187.98 145.801C187.937 145.844 187.885 145.879 187.828 145.902C187.772 145.926 187.711 145.938 187.65 145.938Z" fill="#2286FE"/>
<path d="M197.523 145.939C197.461 145.939 197.4 145.927 197.344 145.904C197.287 145.88 197.235 145.846 197.192 145.802C197.149 145.759 197.114 145.708 197.091 145.651C197.067 145.594 197.055 145.533 197.055 145.472V138.599C197.055 138.475 197.105 138.357 197.192 138.269C197.28 138.182 197.399 138.133 197.523 138.133C197.646 138.133 197.765 138.182 197.853 138.269C197.94 138.357 197.99 138.475 197.99 138.599V145.472C197.99 145.533 197.978 145.594 197.954 145.651C197.931 145.707 197.896 145.759 197.853 145.802C197.81 145.846 197.758 145.88 197.701 145.904C197.645 145.927 197.584 145.939 197.523 145.939Z" fill="#2286FE"/>
</g>
<defs>
<clipPath id="clip0_139_68364">
<rect width="193" height="142" fill="white" transform="translate(46 73)"/>
</clipPath>
</defs>
</svg>
