<svg width="105" height="104" viewBox="0 0 105 104" fill="none" xmlns="http://www.w3.org/2000/svg">
<path d="M26.0093 33.7321C26.0093 27.7032 28.3794 21.9212 32.5981 17.6581C36.8168 13.395 42.5385 11 48.5047 11C54.4708 11 60.1926 13.395 64.4113 17.6581C68.63 21.9212 71 27.7032 71 33.7321C71 34.536 70.684 35.3069 70.1215 35.8753C69.559 36.4437 68.7961 36.763 68.0006 36.763C67.2051 36.763 66.4422 36.4437 65.8797 35.8753C65.3172 35.3069 65.0012 34.536 65.0012 33.7321C65.0012 29.3109 63.2632 25.0708 60.1695 21.9445C57.0758 18.8182 52.8798 17.0619 48.5047 17.0619C44.1295 17.0619 39.9335 18.8182 36.8398 21.9445C33.7461 25.0708 32.0081 29.3109 32.0081 33.7321C32.0081 34.536 31.6921 35.3069 31.1296 35.8753C30.5671 36.4437 29.8042 36.763 29.0087 36.763C28.2132 36.763 27.4503 36.4437 26.8878 35.8753C26.3253 35.3069 26.0093 34.536 26.0093 33.7321ZM78.4984 50.4023C76.7488 50.4004 75.0266 50.842 73.4895 51.6867C73.0302 50.2504 72.2728 48.9297 71.2681 47.8128C70.2633 46.6959 69.0342 45.8085 67.6629 45.21C66.2917 44.6115 64.8098 44.3155 63.3163 44.342C61.8229 44.3684 60.3522 44.7166 59.0025 45.3634V33.7321C59.0025 30.9186 57.8965 28.2203 55.9277 26.2309C53.959 24.2414 51.2889 23.1238 48.5047 23.1238C45.7205 23.1238 43.0503 24.2414 41.0816 26.2309C39.1129 28.2203 38.0068 30.9186 38.0068 33.7321V64.0416L36.5746 61.7191C35.1741 59.2869 32.8748 57.5166 30.1826 56.7976C27.4903 56.0785 24.6257 56.4697 22.2189 57.885C19.812 59.3002 18.0601 61.6237 17.3486 64.3443C16.637 67.0649 17.0241 69.9596 18.4247 72.3918L29.4174 91.3352C29.6017 91.7042 29.8588 92.0311 30.1728 92.296C30.4868 92.5608 30.8511 92.758 31.2433 92.8753C31.6355 92.9926 32.0473 93.0277 32.4534 92.9782C32.8595 92.9288 33.2513 92.796 33.6047 92.5879C33.9581 92.3799 34.2656 92.101 34.5085 91.7683C34.7513 91.4357 34.9242 91.0565 35.0166 90.6538C35.109 90.2512 35.1189 89.8337 35.0458 89.4271C34.9727 89.0204 34.818 88.6332 34.5913 88.2891L23.6098 69.3457C23.3015 68.8282 23.0984 68.2539 23.0122 67.6562C22.926 67.0585 22.9586 66.4494 23.1079 65.8645C23.2573 65.2797 23.5205 64.7308 23.8822 64.2498C24.2438 63.7689 24.6967 63.3657 25.2143 63.0636C25.732 62.7615 26.3039 62.5667 26.8969 62.4906C27.4899 62.4144 28.0919 62.4584 28.6679 62.62C29.2438 62.7816 29.7821 63.0575 30.2513 63.4317C30.7206 63.8059 31.1113 64.2708 31.4007 64.7993L31.4532 64.8864L38.4567 76.2525C38.8006 76.8132 39.3161 77.2452 39.925 77.483C40.5338 77.7208 41.2029 77.7514 41.8305 77.5701C42.4581 77.3888 43.0101 77.0056 43.4026 76.4786C43.7952 75.9516 44.0069 75.3095 44.0056 74.6499V33.7321C44.0056 32.5263 44.4796 31.3699 45.3233 30.5173C46.1671 29.6647 47.3114 29.1857 48.5047 29.1857C49.6979 29.1857 50.8422 29.6647 51.686 30.5173C52.5297 31.3699 53.0037 32.5263 53.0037 33.7321V59.4951C53.0037 60.299 53.3197 61.0699 53.8822 61.6384C54.4447 62.2068 55.2076 62.5261 56.0031 62.5261C56.7986 62.5261 57.5615 62.2068 58.124 61.6384C58.6865 61.0699 59.0025 60.299 59.0025 59.4951V54.9487C59.0025 53.7429 59.4765 52.5865 60.3202 51.7339C61.164 50.8813 62.3083 50.4023 63.5016 50.4023C64.6948 50.4023 65.8391 50.8813 66.6829 51.7339C67.5266 52.5865 68.0006 53.7429 68.0006 54.9487V62.5261C68.0006 63.3299 68.3166 64.1009 68.8791 64.6693C69.4416 65.2377 70.2045 65.557 71 65.557C71.7955 65.557 72.5584 65.2377 73.1209 64.6693C73.6834 64.1009 73.9994 63.3299 73.9994 62.5261V61.0106C73.9994 59.8048 74.4734 58.6484 75.3171 57.7958C76.1609 56.9432 77.3052 56.4642 78.4984 56.4642C79.6917 56.4642 80.836 56.9432 81.6798 57.7958C82.5235 58.6484 82.9975 59.8048 82.9975 61.0106V74.6499C82.9975 82.8372 80.3356 88.4028 80.3131 88.4483C79.9577 89.1672 79.8995 89.9994 80.1512 90.7617C80.4029 91.5241 80.9439 92.1542 81.6553 92.5135C82.0714 92.7261 82.5312 92.8365 82.9975 92.8356C83.5547 92.836 84.101 92.6795 84.5752 92.3837C85.0493 92.0879 85.4326 91.6645 85.6819 91.161C85.8207 90.8844 89 84.3413 89 74.6499V61.0106C89 59.6172 88.7283 58.2374 88.2005 56.9501C87.6727 55.6628 86.8991 54.4932 85.9239 53.5081C84.9487 52.5229 83.791 51.7416 82.5169 51.2087C81.2428 50.6758 79.8773 50.4018 78.4984 50.4023Z" fill="#8E99AA" fill-opacity="0.5"/>
</svg>
