<svg width="19" height="18" viewBox="0 0 19 18" fill="none" xmlns="http://www.w3.org/2000/svg">
<path d="M17.625 12.125H4.48908C4.69689 11.7156 4.90548 11.2945 5.11408 10.8664C6.28048 10.9953 7.66251 10.1789 9.23439 8.42734C9.28126 8.55703 9.33361 8.69062 9.39064 8.82578C9.89923 10.0172 10.5555 10.6961 11.3438 10.8453C12.1516 11.0016 12.9516 10.593 13.7719 9.60938C14.3047 10.2398 15.3985 10.875 17.625 10.875C17.7908 10.875 17.9497 10.8092 18.067 10.6919C18.1842 10.5747 18.25 10.4158 18.25 10.25C18.25 10.0842 18.1842 9.92527 18.067 9.80806C17.9497 9.69085 17.7908 9.625 17.625 9.625C15.232 9.625 14.5352 8.79766 14.5 8.35781C14.4962 8.21242 14.4418 8.07291 14.3462 7.96331C14.2506 7.85371 14.1198 7.78089 13.9762 7.75738C13.8327 7.73388 13.6855 7.76116 13.5599 7.83454C13.4343 7.90792 13.3383 8.02279 13.2883 8.15937C12.3375 9.58516 11.7742 9.65469 11.5695 9.61719C10.9188 9.49453 10.3133 7.98203 10.1094 6.99922C10.0827 6.8751 10.0189 6.76204 9.92633 6.6751C9.83381 6.58816 9.71701 6.53146 9.59147 6.51255C9.46593 6.49363 9.3376 6.5134 9.22357 6.56921C9.10954 6.62503 9.01521 6.71425 8.95314 6.825C7.40626 8.74844 6.36876 9.40312 5.71798 9.57031C6.38126 8.09531 6.87658 6.80078 7.19376 5.71094C7.72658 3.87969 7.76564 2.59922 7.31173 1.79687C7.07736 1.37812 6.58595 0.878906 5.60001 0.875H5.58048C4.33048 0.883594 3.34611 2.07031 2.87579 4.13281C2.59533 5.36016 2.54923 6.72578 2.74845 7.88281C2.94767 9.03984 3.36251 9.87578 3.96329 10.3742C3.67267 10.9781 3.37501 11.568 3.08595 12.1266H1.37501C1.20925 12.1266 1.05028 12.1924 0.933071 12.3096C0.815861 12.4268 0.750013 12.5858 0.750013 12.7516C0.750013 12.9173 0.815861 13.0763 0.933071 13.1935C1.05028 13.3107 1.20925 13.3766 1.37501 13.3766H2.42267C1.53829 15.0172 0.850794 16.1609 0.839856 16.1797C0.795298 16.2501 0.765258 16.3286 0.751502 16.4108C0.737745 16.493 0.74055 16.577 0.759752 16.6581C0.778953 16.7391 0.814164 16.8155 0.863314 16.8828C0.912464 16.95 0.974562 17.0068 1.04596 17.0497C1.11735 17.0926 1.19661 17.1208 1.27906 17.1327C1.36151 17.1445 1.4455 17.1397 1.52609 17.1187C1.60668 17.0976 1.68224 17.0606 1.74833 17.0099C1.81442 16.9592 1.86971 16.8958 1.91095 16.8234C1.92267 16.8031 2.79142 15.3555 3.84064 13.3766H17.625C17.7908 13.3766 17.9497 13.3107 18.067 13.1935C18.1842 13.0763 18.25 12.9173 18.25 12.7516C18.25 12.5858 18.1842 12.4268 18.067 12.3096C17.9497 12.1924 17.7908 12.1266 17.625 12.1266V12.125ZM14.5 8.375V8.35859C14.5005 8.36405 14.5005 8.36954 14.5 8.375ZM4.09298 4.41094C4.4047 3.04531 5.00626 2.125 5.59376 2.125C6.00392 2.125 6.14064 2.27031 6.21876 2.41172C6.45314 2.82812 6.72814 4.30156 4.52736 9.15937C3.88751 8.27734 3.66954 6.26562 4.09298 4.41094Z" fill="#1D3354"/>
</svg>
