<svg width="25" height="24" viewBox="0 0 25 24" fill="none" xmlns="http://www.w3.org/2000/svg">
<path d="M22.25 8.98125V8.94375C22.246 8.92832 22.2428 8.91267 22.2406 8.89688V8.86875C22.2312 8.85 22.2312 8.83125 22.2219 8.8125V8.79375L20.8812 4.0875C20.7889 3.77548 20.5987 3.50138 20.3388 3.30559C20.0788 3.1098 19.7629 3.00268 19.4375 3H5.5625C5.2371 3.00268 4.92116 3.1098 4.66123 3.30559C4.40131 3.50138 4.21114 3.77548 4.11875 4.0875L2.77812 8.79375V8.8125C2.76875 8.83125 2.76875 8.85 2.75938 8.86875V8.89688C2.75718 8.91267 2.75405 8.92832 2.75 8.94375V10.5C2.75 11.0822 2.88554 11.6563 3.1459 12.1771C3.40625 12.6978 3.78426 13.1507 4.25 13.5V19.5C4.25 19.8978 4.40804 20.2794 4.68934 20.5607C4.97064 20.842 5.35218 21 5.75 21H19.25C19.6478 21 20.0294 20.842 20.3107 20.5607C20.592 20.2794 20.75 19.8978 20.75 19.5V13.5C21.2157 13.1507 21.5937 12.6978 21.8541 12.1771C22.1145 11.6563 22.25 11.0822 22.25 10.5V8.98125ZM4.25 9.75H8.75V10.5C8.75034 10.887 8.65087 11.2675 8.46121 11.6048C8.27154 11.9421 7.99809 12.2248 7.66727 12.4255C7.33645 12.6263 6.95945 12.7383 6.57268 12.7508C6.18592 12.7633 5.80247 12.6758 5.45938 12.4969C5.40752 12.4558 5.35085 12.4212 5.29062 12.3937C4.97158 12.1914 4.70888 11.9117 4.52694 11.5806C4.345 11.2495 4.24974 10.8778 4.25 10.5V9.75ZM14.75 10.5C14.75 11.0967 14.5129 11.669 14.091 12.091C13.669 12.5129 13.0967 12.75 12.5 12.75C11.9033 12.75 11.331 12.5129 10.909 12.091C10.4871 11.669 10.25 11.0967 10.25 10.5V9.75H14.75V10.5ZM19.7094 12.3937C19.6491 12.4212 19.5925 12.4558 19.5406 12.4969C19.1975 12.6758 18.8141 12.7633 18.4273 12.7508C18.0406 12.7383 17.6635 12.6263 17.3327 12.4255C17.0019 12.2248 16.7285 11.9421 16.5388 11.6048C16.3491 11.2675 16.2497 10.887 16.25 10.5V9.75H20.75V10.5C20.7503 10.8778 20.655 11.2495 20.4731 11.5806C20.2911 11.9117 20.0284 12.1914 19.7094 12.3937Z" fill="#2286FE"/>
</svg>
