<svg width="25" height="24" viewBox="0 0 25 24" fill="none" xmlns="http://www.w3.org/2000/svg">
<path d="M5 13.0879V19.5004C5 19.6993 5.07902 19.8901 5.21967 20.0307C5.36032 20.1714 5.55109 20.2504 5.75 20.2504H19.25C19.4489 20.2504 19.6397 20.1714 19.7803 20.0307C19.921 19.8901 20 19.6993 20 19.5004V13.0879" stroke="black" stroke-width="1.5" stroke-linecap="round" stroke-linejoin="round"/>
<path d="M5 13.0879V19.5004C5 19.6993 5.07902 19.8901 5.21967 20.0307C5.36032 20.1714 5.55109 20.2504 5.75 20.2504H19.25C19.4489 20.2504 19.6397 20.1714 19.7803 20.0307C19.921 19.8901 20 19.6993 20 19.5004V13.0879" stroke="#8E99AA" stroke-width="1.5" stroke-linecap="round" stroke-linejoin="round"/>
<path d="M5.5625 3.75H19.4375C19.6002 3.75134 19.7582 3.8049 19.8881 3.9028C20.0181 4.00069 20.1132 4.13774 20.1594 4.29375L21.5 9H3.5L4.84062 4.29375C4.88682 4.13774 4.9819 4.00069 5.11187 3.9028C5.24183 3.8049 5.3998 3.75134 5.5625 3.75Z" stroke="black" stroke-width="1.5" stroke-linecap="round" stroke-linejoin="round"/>
<path d="M5.5625 3.75H19.4375C19.6002 3.75134 19.7582 3.8049 19.8881 3.9028C20.0181 4.00069 20.1132 4.13774 20.1594 4.29375L21.5 9H3.5L4.84062 4.29375C4.88682 4.13774 4.9819 4.00069 5.11187 3.9028C5.24183 3.8049 5.3998 3.75134 5.5625 3.75Z" stroke="#8E99AA" stroke-width="1.5" stroke-linecap="round" stroke-linejoin="round"/>
<path d="M9.5 9V10.5C9.5 11.2956 9.18393 12.0587 8.62132 12.6213C8.05871 13.1839 7.29565 13.5 6.5 13.5C5.70435 13.5 4.94129 13.1839 4.37868 12.6213C3.81607 12.0587 3.5 11.2956 3.5 10.5V9" stroke="black" stroke-width="1.5" stroke-linecap="round" stroke-linejoin="round"/>
<path d="M9.5 9V10.5C9.5 11.2956 9.18393 12.0587 8.62132 12.6213C8.05871 13.1839 7.29565 13.5 6.5 13.5C5.70435 13.5 4.94129 13.1839 4.37868 12.6213C3.81607 12.0587 3.5 11.2956 3.5 10.5V9" stroke="#8E99AA" stroke-width="1.5" stroke-linecap="round" stroke-linejoin="round"/>
<path d="M15.5 9V10.5C15.5 11.2956 15.1839 12.0587 14.6213 12.6213C14.0587 13.1839 13.2956 13.5 12.5 13.5C11.7044 13.5 10.9413 13.1839 10.3787 12.6213C9.81607 12.0587 9.5 11.2956 9.5 10.5V9" stroke="black" stroke-width="1.5" stroke-linecap="round" stroke-linejoin="round"/>
<path d="M15.5 9V10.5C15.5 11.2956 15.1839 12.0587 14.6213 12.6213C14.0587 13.1839 13.2956 13.5 12.5 13.5C11.7044 13.5 10.9413 13.1839 10.3787 12.6213C9.81607 12.0587 9.5 11.2956 9.5 10.5V9" stroke="#8E99AA" stroke-width="1.5" stroke-linecap="round" stroke-linejoin="round"/>
<path d="M21.5 9V10.5C21.5 11.2956 21.1839 12.0587 20.6213 12.6213C20.0587 13.1839 19.2956 13.5 18.5 13.5C17.7044 13.5 16.9413 13.1839 16.3787 12.6213C15.8161 12.0587 15.5 11.2956 15.5 10.5V9" stroke="black" stroke-width="1.5" stroke-linecap="round" stroke-linejoin="round"/>
<path d="M21.5 9V10.5C21.5 11.2956 21.1839 12.0587 20.6213 12.6213C20.0587 13.1839 19.2956 13.5 18.5 13.5C17.7044 13.5 16.9413 13.1839 16.3787 12.6213C15.8161 12.0587 15.5 11.2956 15.5 10.5V9" stroke="#8E99AA" stroke-width="1.5" stroke-linecap="round" stroke-linejoin="round"/>
</svg>
