<svg width="183" height="140" viewBox="0 0 183 140" fill="none" xmlns="http://www.w3.org/2000/svg">
<path d="M155.178 98.9883H27.3691V136.818H155.178V98.9883Z" fill="#F0F0F0"/>
<path d="M98.7249 106.809H83.8223V136.821H98.7249V106.809Z" fill="#CACACA"/>
<path d="M147.728 54.3477H34.8213V89.1514H147.728V54.3477Z" fill="#F0F0F0"/>
<path d="M159.173 56.493H23.3729C23.1462 56.493 22.9247 56.4253 22.7368 56.2987C22.5489 56.172 22.4033 55.9921 22.3186 55.7821C22.2339 55.5721 22.2141 55.3416 22.2616 55.1203C22.3091 54.8989 22.4218 54.6968 22.5853 54.54L59.6995 18.92V3.40472C59.6998 3.10383 59.8197 2.81536 60.0328 2.60259C60.2459 2.38983 60.5348 2.27015 60.8361 2.26981H68.1611C68.4625 2.27014 68.7514 2.38982 68.9645 2.60258C69.1776 2.81535 69.2975 3.10382 69.2978 3.40472V9.70827L72.1011 7.0178C76.6884 2.61509 82.7747 0.109112 89.1367 0.00347999C95.4987 -0.102152 101.665 2.20039 106.396 6.44837L159.933 54.5141C160.104 54.6676 160.224 54.8693 160.278 55.0925C160.332 55.3158 160.316 55.55 160.234 55.7644C160.152 55.9788 160.006 56.1632 159.817 56.2933C159.627 56.4234 159.403 56.493 159.173 56.493Z" fill="#CACACA"/>
<path d="M64.6265 63.1758C65.5718 63.1758 66.5079 63.3617 67.3813 63.7229C68.2547 64.0841 69.0483 64.6136 69.7167 65.281C70.3852 65.9485 70.9154 66.7408 71.2772 67.6129C71.639 68.4849 71.8252 69.4196 71.8252 70.3635V80.0733H57.4277V70.3635C57.4277 69.4196 57.6139 68.4849 57.9757 67.6129C58.3375 66.7408 58.8677 65.9485 59.5362 65.281C60.2047 64.6136 60.9982 64.0841 61.8716 63.7229C62.745 63.3617 63.6811 63.1758 64.6265 63.1758Z" fill="white"/>
<path d="M91.2739 63.3047C93.1831 63.3047 95.0141 64.062 96.3641 65.4099C97.7141 66.7579 98.4726 68.5861 98.4726 70.4924V80.2022H84.0751V70.4924C84.0751 68.5861 84.8336 66.7579 86.1836 65.4099C87.5336 64.062 89.3646 63.3047 91.2739 63.3047Z" fill="white"/>
<path d="M117.921 63.4297C119.831 63.4297 121.662 64.187 123.012 65.5349C124.362 66.8829 125.12 68.7111 125.12 70.6174V80.3272H110.723V70.6174C110.723 68.7111 111.481 66.8829 112.831 65.5349C114.181 64.187 116.012 63.4297 117.921 63.4297Z" fill="white"/>
<path d="M128.53 106.43C130.439 106.43 132.27 107.187 133.62 108.535C134.97 109.883 135.729 111.711 135.729 113.617V123.327H121.331V113.617C121.331 111.711 122.089 109.883 123.44 108.535C124.79 107.187 126.621 106.43 128.53 106.43Z" fill="white"/>
<path d="M57.3014 106.43C59.2106 106.43 61.0416 107.187 62.3917 108.535C63.7417 109.883 64.5001 111.711 64.5001 113.617V123.327H50.1027V113.617C50.1027 112.674 50.2889 111.739 50.6506 110.867C51.0124 109.995 51.5427 109.202 52.2111 108.535C52.8796 107.867 53.6732 107.338 54.5466 106.977C55.42 106.616 56.356 106.43 57.3014 106.43Z" fill="white"/>
<path d="M173.851 99.581L149.876 88.9886C149.747 88.9317 149.608 88.9023 149.467 88.9023H35.2034C35.073 88.9023 34.9438 88.9275 34.8229 88.9766L8.72556 99.569C8.50849 99.6572 8.32884 99.8179 8.21737 100.024C8.10589 100.229 8.06952 100.468 8.11447 100.697C8.15943 100.927 8.28292 101.134 8.4638 101.282C8.64469 101.431 8.87172 101.512 9.10604 101.512H15.8771V136.316H15.1193V139.847H167.429V136.316H166.166V101.512H173.442C173.674 101.512 173.899 101.433 174.079 101.287C174.259 101.141 174.383 100.939 174.431 100.712C174.479 100.486 174.447 100.25 174.342 100.044C174.236 99.8381 174.063 99.6746 173.851 99.581ZM164.146 136.316H17.8978V101.512H164.146V136.316Z" fill="#CACACA"/>
<path d="M73.5922 78.6875H55.1533V81.7139H73.5922V78.6875Z" fill="#CACACA"/>
<path d="M100.619 78.6875H82.1806V81.7139H100.619V78.6875Z" fill="#CACACA"/>
<path d="M127.647 78.6875H109.208V81.7139H127.647V78.6875Z" fill="#CACACA"/>
<path d="M137.751 122.316H119.312V125.343H137.751V122.316Z" fill="#CACACA"/>
<path d="M66.2669 122.316H47.8281V125.343H66.2669V122.316Z" fill="#CACACA"/>
<path d="M132.936 53.8303C132.936 54.0282 132.933 54.229 132.93 54.4268C132.926 54.6648 132.92 54.8997 132.911 55.1376C132.902 55.3447 132.892 55.5487 132.88 55.7526C132.843 56.4357 132.784 57.1156 132.704 57.7986C132.685 57.9716 132.663 58.1416 132.639 58.3147C132.62 58.4476 132.601 58.5836 132.58 58.7195C132.558 58.871 132.536 59.0224 132.512 59.1738C132.462 59.4953 132.406 59.8167 132.344 60.1381C132.314 60.2988 132.283 60.4595 132.249 60.6202C132.184 60.9385 132.112 61.2599 132.038 61.5783C132.032 61.603 132.026 61.6308 132.02 61.6555C131.982 61.8131 131.945 61.9677 131.905 62.1253C131.893 62.1716 131.883 62.2149 131.868 62.2613C131.84 62.3787 131.809 62.4961 131.778 62.6136C131.735 62.7774 131.691 62.9381 131.645 63.1019C131.571 63.3553 131.496 63.6057 131.419 63.8591C131.409 63.8854 131.401 63.9122 131.394 63.9394C131.246 64.4184 131.088 64.8913 130.915 65.361C130.825 65.6083 130.729 65.8586 130.633 66.1058C130.537 66.3531 130.438 66.6003 130.336 66.8445C130.237 67.0825 130.135 67.3204 130.032 67.5553C130.008 67.6109 129.983 67.6666 129.955 67.7222C129.847 67.9663 129.735 68.2043 129.621 68.4423C129.618 68.4454 129.618 68.4515 129.615 68.4546C129.525 68.6462 129.429 68.8379 129.333 69.0264C129.333 69.0321 129.331 69.0376 129.327 69.0418C129.234 69.2273 129.138 69.4127 129.039 69.595L128.881 69.8948L128.862 69.9288C128.664 70.2966 128.46 70.6613 128.243 71.0229C128.197 71.1032 128.151 71.1835 128.104 71.2608C128.058 71.3411 128.008 71.4215 127.959 71.4988C127.928 71.5544 127.894 71.61 127.856 71.6657C127.791 71.7707 127.726 71.8789 127.658 71.9839C127.646 72.0056 127.63 72.0273 127.618 72.0489C127.5 72.2312 127.383 72.4105 127.265 72.5928C127.12 72.8122 126.971 73.0286 126.82 73.2449L123.458 78.6162L123.313 78.4957L123.272 78.4586H123.269L123.136 78.3473L122.771 78.0383C122.66 78.1464 122.551 78.2546 122.44 78.3597C122.396 78.4029 122.35 78.4431 122.307 78.4864C122.273 78.5173 122.242 78.5482 122.208 78.5791C116.396 84.2455 108.666 87.5268 100.547 87.7733H100.538C94.3918 87.9419 88.3078 86.5081 82.8857 83.6135C82.765 83.5517 82.6474 83.4899 82.5297 83.4188C81.8241 83.0356 81.1339 82.6307 80.4559 82.198C80.4528 82.1949 80.4497 82.1949 80.4466 82.1918C79.6604 81.6355 78.8928 81.0422 78.1438 80.4117C74.1253 77.0297 70.9461 72.7642 68.8555 67.9496C66.7649 63.1351 65.8197 57.9025 66.0941 52.6621C66.1034 52.455 66.1158 52.251 66.1312 52.0439C66.1807 51.296 66.2571 50.5512 66.3602 49.8095C66.3881 49.6024 66.4191 49.3954 66.45 49.1914H132.62C132.75 50.1371 132.84 51.088 132.889 52.0439C132.92 52.6405 132.936 53.2339 132.936 53.8303Z" fill="#F0F0F0"/>
<path d="M132.62 49.1921C131.428 41.2821 127.434 34.0614 121.363 28.8428C115.291 23.6241 107.546 20.7539 99.5347 20.7539C91.5235 20.7539 83.7782 23.6241 77.7068 28.8428C71.6354 34.0614 67.641 41.2821 66.4497 49.1921C66.4188 49.3961 66.3878 49.6031 66.3599 49.8102C66.2578 50.5519 66.1815 51.2967 66.1309 52.0446H132.889C132.839 51.0897 132.75 50.1388 132.62 49.1921Z" fill="#2286FE"/>
<path d="M101.701 83.6144H82.5301V68.3021C82.8838 61.3042 88.874 60.7392 94.5026 61.1147C95.4479 61.1146 96.384 61.3005 97.2574 61.6617C98.1308 62.0228 98.9244 62.5522 99.5929 63.2197C100.261 63.8871 100.792 64.6794 101.153 65.5515C101.515 66.4235 101.701 67.3582 101.701 68.3021V83.6144Z" fill="#2286FE"/>
<path d="M82.5289 72.7273V72.7303C82.5289 72.7334 82.532 72.7334 82.5351 72.7334L82.5289 72.7273ZM74.8187 49.193C74.8064 49.2703 74.7908 49.3475 74.7785 49.4248C74.7908 49.3475 74.8063 49.2703 74.8218 49.193H74.8187ZM74.4349 52.0456C74.4256 52.163 74.4163 52.2804 74.4101 52.3979C74.4163 52.2804 74.4256 52.163 74.438 52.0456C74.4375 52.0239 74.4385 52.0022 74.4411 51.9807C74.438 52.0023 74.438 52.0239 74.4349 52.0456ZM82.5289 72.7303C82.5289 72.7334 82.532 72.7334 82.5351 72.7334L82.5289 72.7273V72.7303ZM74.8187 49.193C74.8064 49.2703 74.7908 49.3475 74.7785 49.4248C74.7908 49.3475 74.8063 49.2703 74.8218 49.193H74.8187ZM74.4101 52.3979C74.4163 52.2804 74.4256 52.163 74.438 52.0456C74.4375 52.0239 74.4385 52.0022 74.4411 51.9807C74.438 52.0023 74.438 52.0239 74.4349 52.0456C74.4256 52.163 74.4163 52.2804 74.4101 52.3979ZM170.034 109.251C169.974 109.187 169.91 109.127 169.843 109.072L169.839 109.068L154.512 96.1533L154.116 95.8195L152.608 94.5493L152.231 94.231L150.083 92.4199L149.494 91.9254L148.278 90.8994L147.656 90.374L141.787 85.4323L138.423 82.5983L137.971 82.2182L128.057 73.8645C128.208 73.6482 128.357 73.4319 128.503 73.2125C128.62 73.0301 128.738 72.8509 128.855 72.6685C128.868 72.6469 128.883 72.6252 128.896 72.6036C128.964 72.4985 129.029 72.3904 129.094 72.2853C129.131 72.2297 129.165 72.174 129.196 72.1184C129.245 72.0411 129.295 71.9608 129.341 71.8804C129.388 71.8032 129.434 71.7229 129.481 71.6425C129.697 71.2809 129.902 70.9162 130.1 70.5485L130.118 70.5144L130.276 70.2147C130.375 70.0323 130.471 69.8469 130.564 69.6615C130.568 69.6573 130.57 69.6518 130.57 69.646C130.666 69.4575 130.762 69.2659 130.852 69.0743C130.855 69.0712 130.855 69.065 130.858 69.0619C130.973 68.8239 131.084 68.586 131.192 68.3418C131.22 68.2862 131.245 68.2306 131.27 68.1749C131.372 67.9401 131.474 67.7021 131.573 67.4641C131.675 67.22 131.774 66.9727 131.87 66.7255C131.966 66.4783 132.062 66.2279 132.152 65.9807C132.322 65.5078 132.482 65.034 132.632 64.5591C132.638 64.5319 132.647 64.505 132.656 64.4787C132.734 64.2253 132.808 63.9749 132.882 63.7215C132.929 63.5577 132.972 63.397 133.015 63.2332C133.046 63.1158 133.077 62.9983 133.105 62.8809C133.121 62.8346 133.13 62.7913 133.142 62.7449C133.183 62.5873 133.22 62.4328 133.257 62.2752C133.263 62.2504 133.269 62.2226 133.275 62.1979C133.35 61.8796 133.421 61.5582 133.486 61.2398C133.52 61.0792 133.551 60.9184 133.582 60.7577C133.641 60.4363 133.699 60.1149 133.749 59.7935C133.774 59.6421 133.795 59.4906 133.817 59.3392C133.839 59.2032 133.857 59.0672 133.876 58.9343C133.901 58.7613 133.922 58.5913 133.941 58.4182C134.021 57.7352 134.08 57.0553 134.117 56.3723C134.13 56.1683 134.139 55.9643 134.148 55.7573C134.158 55.5193 134.164 55.2844 134.167 55.0465C134.17 54.8487 134.173 54.6478 134.173 54.45C134.173 53.8535 134.158 53.2601 134.127 52.6637C134.077 51.7087 133.987 50.7579 133.857 49.8111C132.748 41.7185 128.76 34.2947 122.62 28.8965C116.481 23.4984 108.601 20.4866 100.421 20.4116C92.2406 20.3366 84.3066 23.2034 78.069 28.488C71.8314 33.7727 67.7068 41.1221 66.4492 49.193C66.4183 49.397 66.3873 49.6041 66.3594 49.8111C66.2573 50.5529 66.181 51.2977 66.1304 52.0456C66.115 52.2526 66.1026 52.4566 66.0933 52.6637C65.8189 57.9041 66.7641 63.1367 68.8547 67.9513C70.9453 72.7658 74.1245 77.0313 78.143 80.4133C78.892 81.0438 79.6597 81.6372 80.4459 82.1935C80.4489 82.1966 80.452 82.1966 80.4551 82.1997C80.7183 82.3851 80.9813 82.5674 81.2475 82.7467C81.6715 83.0248 82.0987 83.2968 82.5289 83.5564C82.563 83.5749 82.5971 83.5966 82.6311 83.6151C83.0025 83.8376 83.3771 84.0509 83.7516 84.2579H83.7546C85.1489 85.0233 86.596 85.6884 88.0849 86.2482C92.4537 87.8894 97.113 88.6193 101.775 88.393H101.784C107.226 88.1302 112.524 86.5646 117.233 83.8284C117.917 83.4328 118.592 83.0094 119.251 82.5582C119.415 82.4469 119.582 82.3325 119.743 82.2182C119.941 82.0791 120.139 81.9339 120.337 81.7886C120.34 81.7886 120.34 81.7855 120.344 81.7855C120.358 81.7732 120.374 81.7618 120.39 81.7515C120.523 81.6495 120.659 81.5476 120.789 81.4487C120.823 81.4239 120.857 81.3992 120.891 81.3714C120.9 81.3651 120.909 81.3579 120.916 81.3497C120.993 81.2941 121.068 81.2323 121.145 81.1736C121.223 81.1149 121.297 81.0531 121.374 80.9913C121.387 80.983 121.4 80.9737 121.411 80.9634C121.498 80.8923 121.585 80.8244 121.671 80.7533C121.761 80.6822 121.848 80.608 121.931 80.5369C122.018 80.4659 122.102 80.3948 122.188 80.3206C122.263 80.2588 122.34 80.1939 122.414 80.1259C122.439 80.1073 122.461 80.0857 122.485 80.0641C122.495 80.0549 122.505 80.0467 122.516 80.0393C122.618 79.9528 122.718 79.8632 122.817 79.7736C122.841 79.7519 122.863 79.7303 122.888 79.7086C123.039 79.5727 123.191 79.4367 123.34 79.2946C123.374 79.2636 123.411 79.2296 123.445 79.1987C123.479 79.1678 123.51 79.1369 123.544 79.106C123.587 79.0628 123.634 79.0226 123.677 78.9793C123.788 78.8742 123.897 78.7661 124.008 78.6579L124.373 78.967L124.507 79.0782H124.51L124.55 79.1153L124.695 79.2358L126.856 81.0592L126.902 81.0994L126.939 81.1272L127.184 81.3343L127.673 81.7484L128.162 82.1595L128.233 82.2182L130.508 84.1343L130.824 84.4001L133.019 86.2482L144.378 95.8196L144.774 96.1533L160.322 109.251L164.308 112.61L165.791 113.859C166.106 114.125 166.47 114.326 166.862 114.451C167.255 114.577 167.669 114.623 168.079 114.589C168.49 114.555 168.89 114.44 169.256 114.251C169.623 114.062 169.948 113.803 170.214 113.488C170.437 113.227 170.613 112.93 170.737 112.61C170.962 112.043 171.015 111.423 170.89 110.825C170.765 110.228 170.468 109.681 170.034 109.251ZM80.3747 37.6098C83.4799 33.9356 87.5628 31.2136 92.1517 29.7581C96.7406 28.3025 101.648 28.173 106.308 29.3843C110.967 30.5957 115.189 33.0985 118.484 36.6037C121.779 40.1088 124.014 44.4734 124.931 49.193C124.971 49.4001 125.008 49.6041 125.042 49.8111C125.169 50.5498 125.262 51.2977 125.318 52.0456C125.333 52.2526 125.348 52.4566 125.358 52.6637C125.386 53.1272 125.398 53.5939 125.398 54.0575C125.4 56.8695 124.933 59.6623 124.018 62.3215V62.3246C122.994 65.3062 121.423 68.0711 119.384 70.4774C119.341 70.5268 119.297 70.5794 119.251 70.6288C118.842 71.1109 118.412 71.5745 117.969 72.0165C117.966 72.0196 117.963 72.0257 117.96 72.0288C117.808 72.1803 117.654 72.3348 117.499 72.4769C117.183 72.7829 116.861 73.0734 116.533 73.3516C116.041 73.7811 115.537 74.1839 115.02 74.5599C114.846 74.6866 114.673 74.8103 114.497 74.9339C114.323 75.0575 114.147 75.175 113.97 75.2924C113.617 75.5273 113.258 75.7529 112.896 75.9661C112.717 76.0743 112.531 76.1794 112.348 76.2814C112.166 76.3864 111.98 76.4853 111.794 76.5811C111.609 76.68 111.423 76.7758 111.234 76.8685C110.86 77.0571 110.482 77.2332 110.098 77.397C109.906 77.4835 109.714 77.5639 109.522 77.6381C109.402 77.6875 109.284 77.737 109.163 77.7802C109.116 77.802 109.068 77.8206 109.018 77.8359C108.953 77.8637 108.888 77.8884 108.823 77.9101C108.802 77.9196 108.78 77.9279 108.758 77.9348C108.625 77.9873 108.495 78.0337 108.359 78.08C108.164 78.1511 107.969 78.216 107.771 78.2778C107.573 78.3427 107.377 78.4045 107.179 78.4602C106.981 78.522 106.78 78.5776 106.582 78.6301C106.381 78.6858 106.183 78.7383 105.982 78.7847C105.768 78.8403 105.554 78.8898 105.338 78.9361C105.149 78.9794 104.963 79.0164 104.774 79.0505C104.598 79.0875 104.419 79.1185 104.242 79.1494C103.994 79.1926 103.747 79.2328 103.496 79.2668C103.36 79.2885 103.227 79.307 103.091 79.3193C103.032 79.3286 102.976 79.3348 102.92 79.341C102.747 79.3657 102.574 79.3842 102.403 79.3997C102.357 79.4028 102.314 79.409 102.27 79.412C102.082 79.4306 101.89 79.4461 101.701 79.4615C101.295 79.4893 100.893 79.5079 100.488 79.5171C100.283 79.5202 100.076 79.5233 99.8715 79.5233C99.6673 79.5233 99.4629 79.5202 99.2587 79.514C99.2587 79.514 99.2587 79.5171 99.2556 79.514C99.2525 79.5171 99.2525 79.5171 99.2494 79.514L99.248 79.515L99.2463 79.5154L99.2446 79.515L99.2432 79.514C99.2331 79.5171 99.2224 79.5171 99.2123 79.514C99.0668 79.514 98.9213 79.5079 98.7789 79.4986C98.6737 79.4955 98.5654 79.4924 98.457 79.4831C98.3116 79.4769 98.1662 79.4677 98.0206 79.4553C97.9742 79.4553 97.9278 79.4492 97.8814 79.4461C97.8596 79.4455 97.8378 79.4435 97.8163 79.4399C97.6678 79.4275 97.5161 79.4151 97.3675 79.3997C97.2933 79.3935 97.2159 79.3873 97.1415 79.3781C96.9156 79.3533 96.6896 79.3255 96.4668 79.2946C96.213 79.2637 95.9592 79.2266 95.7085 79.1803C95.5909 79.1648 95.4763 79.1432 95.3618 79.1216C95.2102 79.0968 95.0585 79.069 94.9068 79.0381C94.7489 79.0072 94.5911 78.9763 94.4332 78.9392C94.3063 78.9114 94.1763 78.8836 94.0494 78.8527C93.9875 78.8403 93.9256 78.8249 93.8668 78.8094C93.5418 78.7322 93.2199 78.6487 92.9011 78.556C92.6999 78.5004 92.4987 78.4417 92.3006 78.3798C92.0282 78.2964 91.7589 78.2068 91.4897 78.111C91.3844 78.077 91.2822 78.0399 91.177 77.9997C91.0718 77.9657 90.9696 77.9255 90.8644 77.8854C90.7685 77.8513 90.6725 77.8143 90.5796 77.7772C90.4249 77.7185 90.2732 77.6567 90.1215 77.5949C89.8089 77.4681 89.5025 77.3352 89.196 77.1931C89.0227 77.1097 88.8494 77.0293 88.6792 76.9459C88.0075 76.6213 87.3462 76.2608 86.6951 75.8642C86.5341 75.7684 86.3732 75.6664 86.2123 75.5644C86.011 75.4408 85.8161 75.311 85.6211 75.1812C85.5127 75.107 85.4075 75.0359 85.3022 74.9618C85.1072 74.8258 84.9153 74.6867 84.7265 74.5476C84.6275 74.4765 84.5284 74.4023 84.4325 74.3282C84.0889 74.0685 83.7515 73.7966 83.4204 73.5185C83.2625 73.3856 83.1046 73.2496 82.9499 73.1105C82.8849 73.0549 82.8198 72.9961 82.7548 72.9374C82.6806 72.8695 82.6063 72.8045 82.5351 72.7334L82.5289 72.7273C82.4207 72.6314 82.3122 72.5295 82.207 72.4275C82.043 72.273 81.882 72.1154 81.7273 71.9547C81.5663 71.7971 81.4116 71.6333 81.2599 71.4726C81.1051 71.3119 80.9566 71.148 80.8111 70.9811C80.6625 70.8174 80.517 70.6505 80.3746 70.4805C80.2353 70.3198 80.0992 70.1529 79.9691 69.9891C79.6534 69.5997 79.3521 69.2031 79.0653 68.7993C78.9323 68.6138 78.8054 68.4284 78.6815 68.2399C78.5485 68.0482 78.4215 67.8536 78.3008 67.6588C78.1739 67.4642 78.0532 67.2663 77.9356 67.0655C77.9326 67.0586 77.9284 67.0523 77.9232 67.0469C77.6911 66.6544 77.4682 66.2589 77.2608 65.8571C77.0472 65.4491 76.846 65.0371 76.6572 64.6209C76.5613 64.4138 76.4685 64.2037 76.3818 63.9935C76.2022 63.5701 76.0351 63.1467 75.8803 62.7171C75.8029 62.5101 75.7317 62.303 75.6606 62.0928C75.6583 62.0789 75.6541 62.0654 75.6482 62.0527C75.5058 61.6261 75.3758 61.1966 75.2613 60.7639C75.2582 60.7578 75.2582 60.7516 75.2551 60.7454C75.1963 60.5322 75.1406 60.3189 75.0911 60.1026C75.0415 59.914 74.9982 59.7255 74.9579 59.5339C74.9115 59.3206 74.8651 59.1074 74.8249 58.8911C74.8032 58.7798 74.7816 58.6686 74.763 58.5573C74.7444 58.4646 74.7289 58.3688 74.7134 58.2761C74.698 58.1834 74.6825 58.0875 74.667 57.9917C74.636 57.8032 74.6082 57.6147 74.5834 57.4262C74.5525 57.2037 74.5277 56.9811 74.503 56.7555C74.4751 56.4867 74.4504 56.2178 74.4287 55.9458C74.4132 55.7635 74.4039 55.5781 74.3947 55.3926C74.3853 55.2227 74.3761 55.0527 74.373 54.8827C74.3699 54.8737 74.3699 54.8639 74.373 54.8549L74.372 54.8535L74.3717 54.8518L74.372 54.8501L74.373 54.8487C74.3699 54.8456 74.3699 54.8456 74.373 54.8425L74.372 54.8411L74.3717 54.8394L74.372 54.8378L74.373 54.8363C74.3699 54.7684 74.3668 54.7004 74.3668 54.6324C74.3606 54.4315 74.3575 54.2306 74.3575 54.0298C74.3575 53.8474 74.3606 53.6681 74.3637 53.4858C74.3699 53.2324 74.3791 52.979 74.3915 52.7255C74.3915 52.6699 74.3977 52.6174 74.4009 52.5617C74.4039 52.5061 74.407 52.4535 74.4101 52.3979C74.4163 52.2804 74.4256 52.163 74.438 52.0456C74.4375 52.0239 74.4385 52.0022 74.4411 51.9807C74.4504 51.8478 74.4627 51.7149 74.4751 51.582C74.4999 51.3163 74.5308 51.0474 74.5648 50.7816C74.5834 50.6487 74.5989 50.5158 74.6206 50.3829C74.633 50.2902 74.6484 50.1944 74.6639 50.0986C74.6763 50.0028 74.6918 49.907 74.7104 49.8112C74.732 49.6845 74.7537 49.5546 74.7785 49.4248C74.7908 49.3475 74.8063 49.2703 74.8218 49.193C74.8806 48.884 74.9455 48.575 75.0167 48.2659C75.0879 47.9538 75.1685 47.6447 75.2551 47.3357C75.3386 47.0235 75.4315 46.7114 75.5306 46.3993C75.577 46.2416 75.6265 46.0871 75.6822 45.9326C75.7843 45.6205 75.8927 45.3114 76.0135 45.0054C76.0691 44.854 76.1279 44.6995 76.1929 44.548C76.3168 44.2421 76.4468 43.9361 76.5798 43.6363C76.6479 43.4849 76.7161 43.3335 76.7903 43.182C76.9296 42.8823 77.0751 42.5825 77.233 42.2889C77.3846 41.9891 77.5487 41.6955 77.7158 41.405C77.883 41.1145 78.0563 40.824 78.2389 40.5366C78.3225 40.3944 78.4153 40.2492 78.5113 40.1101C78.697 39.8258 78.892 39.5414 79.0901 39.2633C79.4895 38.7007 79.9197 38.1475 80.3747 37.6098ZM74.4349 52.0456C74.4256 52.163 74.4163 52.2804 74.4101 52.3979C74.4163 52.2804 74.4256 52.163 74.438 52.0456C74.4375 52.0239 74.4385 52.0022 74.4411 51.9807C74.438 52.0023 74.438 52.0239 74.4349 52.0456ZM74.8187 49.193C74.8064 49.2703 74.7908 49.3475 74.7785 49.4248C74.7908 49.3475 74.8063 49.2703 74.8218 49.193H74.8187ZM82.5289 72.7273V72.7303C82.5289 72.7334 82.532 72.7334 82.5351 72.7334L82.5289 72.7273Z" fill="#011936"/>
<path opacity="0.3" d="M83.4197 73.517C78.5239 69.3918 75.3609 63.5792 74.5586 57.2333C73.7563 50.8873 75.3736 44.4722 79.0892 39.2617C78.6012 39.7524 78.1295 40.2662 77.674 40.8033C75.5127 43.3608 73.8771 46.3182 72.8606 49.5068C71.844 52.6954 71.4664 56.0527 71.7493 59.3871C72.0322 62.7214 72.9701 65.9674 74.5094 68.9398C76.0487 71.9122 78.1593 74.5528 80.7207 76.7108C85.8936 81.069 92.5886 83.1969 99.3329 82.6264C106.077 82.0559 112.318 78.8337 116.683 73.6687C117.138 73.131 117.566 72.5802 117.967 72.0165C113.448 76.5501 107.387 79.2211 100.987 79.4991C94.5866 79.777 88.3159 77.6417 83.4197 73.517Z" fill="black"/>
</svg>
