<svg width="19" height="14" viewBox="0 0 19 14" fill="none" xmlns="http://www.w3.org/2000/svg">
<path d="M1.375 10.125L5.67417 5.82583C5.84828 5.65172 6.05498 5.51361 6.28246 5.41938C6.50995 5.32515 6.75377 5.27665 7 5.27665C7.24623 5.27665 7.49005 5.32515 7.71754 5.41938C7.94502 5.51361 8.15172 5.65172 8.32583 5.82583L12.625 10.125M11.375 8.875L12.5492 7.70083C12.7233 7.52672 12.93 7.38861 13.1575 7.29438C13.385 7.20015 13.6288 7.15165 13.875 7.15165C14.1212 7.15165 14.365 7.20015 14.5925 7.29438C14.82 7.38861 15.0267 7.52672 15.2008 7.70083L17.625 10.125M2.625 13.25H16.375C16.7065 13.25 17.0245 13.1183 17.2589 12.8839C17.4933 12.6495 17.625 12.3315 17.625 12V2C17.625 1.66848 17.4933 1.35054 17.2589 1.11612C17.0245 0.881696 16.7065 0.75 16.375 0.75H2.625C2.29348 0.75 1.97554 0.881696 1.74112 1.11612C1.5067 1.35054 1.375 1.66848 1.375 2V12C1.375 12.3315 1.5067 12.6495 1.74112 12.8839C1.97554 13.1183 2.29348 13.25 2.625 13.25ZM11.375 3.875H11.3817V3.88167H11.375V3.875ZM11.6875 3.875C11.6875 3.95788 11.6546 4.03737 11.596 4.09597C11.5374 4.15458 11.4579 4.1875 11.375 4.1875C11.2921 4.1875 11.2126 4.15458 11.154 4.09597C11.0954 4.03737 11.0625 3.95788 11.0625 3.875C11.0625 3.79212 11.0954 3.71263 11.154 3.65403C11.2126 3.59542 11.2921 3.5625 11.375 3.5625C11.4579 3.5625 11.5374 3.59542 11.596 3.65403C11.6546 3.71263 11.6875 3.79212 11.6875 3.875Z" stroke="#1A2E4C" stroke-width="1.5" stroke-linecap="round" stroke-linejoin="round"/>
</svg>
