<svg width="380" height="128" viewBox="0 0 380 128" fill="none" xmlns="http://www.w3.org/2000/svg">
<rect x="0.5" y="0.5" width="379" height="127" rx="7.5" fill="#2286FE" fill-opacity="0.05"/>
<rect x="0.5" y="0.5" width="379" height="127" rx="7.5" stroke="#2286FE" stroke-dasharray="2 2"/>
<path d="M185 50.9811C181.644 50.7257 179 47.9216 179 44.5C179 42.1716 180.224 40.1291 182.064 38.9812C182.565 35.044 185.927 32 190 32C194.073 32 197.435 35.044 197.936 38.9812C199.776 40.1291 201 42.1716 201 44.5C201 47.9216 198.356 50.7257 195 50.9811V51H185V50.9811ZM191 43H194L190 38L186 43H189V47H191V43Z" fill="#2286FE"/>
<path d="M161.862 64.2727H163.443V69.9744C163.443 70.5994 163.295 71.1491 163 71.6236C162.707 72.098 162.295 72.4687 161.764 72.7358C161.233 73 160.612 73.1321 159.902 73.1321C159.189 73.1321 158.567 73 158.036 72.7358C157.504 72.4687 157.092 72.098 156.8 71.6236C156.507 71.1491 156.361 70.5994 156.361 69.9744V64.2727H157.942V69.8423C157.942 70.206 158.021 70.5298 158.18 70.8139C158.342 71.098 158.57 71.321 158.862 71.483C159.155 71.642 159.501 71.7216 159.902 71.7216C160.303 71.7216 160.649 71.642 160.942 71.483C161.237 71.321 161.464 71.098 161.624 70.8139C161.783 70.5298 161.862 70.206 161.862 69.8423V64.2727ZM165.093 75.4545V66.4545H166.61V67.5369H166.7C166.779 67.3778 166.892 67.2088 167.037 67.0298C167.181 66.848 167.377 66.6932 167.625 66.5653C167.872 66.4347 168.187 66.3693 168.571 66.3693C169.076 66.3693 169.532 66.4986 169.939 66.7571C170.348 67.0128 170.672 67.392 170.91 67.8949C171.152 68.3949 171.272 69.0085 171.272 69.7358C171.272 70.4545 171.154 71.0653 170.919 71.5682C170.683 72.071 170.362 72.4545 169.956 72.7188C169.549 72.983 169.089 73.1151 168.575 73.1151C168.2 73.1151 167.889 73.0526 167.642 72.9276C167.395 72.8026 167.196 72.652 167.045 72.4759C166.897 72.2969 166.782 72.1278 166.7 71.9688H166.636V75.4545H165.093ZM166.606 69.7273C166.606 70.1506 166.666 70.5213 166.785 70.8395C166.907 71.1577 167.082 71.4062 167.309 71.5852C167.539 71.7614 167.818 71.8494 168.145 71.8494C168.485 71.8494 168.771 71.7585 169.001 71.5767C169.231 71.392 169.404 71.1406 169.521 70.8224C169.64 70.5014 169.7 70.1364 169.7 69.7273C169.7 69.321 169.642 68.9602 169.525 68.6449C169.409 68.3295 169.235 68.0824 169.005 67.9034C168.775 67.7244 168.488 67.6349 168.145 67.6349C167.815 67.6349 167.535 67.7216 167.305 67.8949C167.075 68.0682 166.9 68.3111 166.781 68.6236C166.664 68.9361 166.606 69.304 166.606 69.7273ZM174.136 64.2727V73H172.593V64.2727H174.136ZM178.577 73.1278C177.938 73.1278 177.384 72.9872 176.915 72.706C176.447 72.4247 176.083 72.0312 175.825 71.5256C175.569 71.0199 175.441 70.429 175.441 69.7528C175.441 69.0767 175.569 68.4844 175.825 67.9759C176.083 67.4673 176.447 67.0724 176.915 66.7912C177.384 66.5099 177.938 66.3693 178.577 66.3693C179.217 66.3693 179.771 66.5099 180.239 66.7912C180.708 67.0724 181.07 67.4673 181.326 67.9759C181.585 68.4844 181.714 69.0767 181.714 69.7528C181.714 70.429 181.585 71.0199 181.326 71.5256C181.07 72.0312 180.708 72.4247 180.239 72.706C179.771 72.9872 179.217 73.1278 178.577 73.1278ZM178.586 71.892C178.933 71.892 179.222 71.7969 179.455 71.6065C179.688 71.4134 179.862 71.1548 179.975 70.831C180.092 70.5071 180.15 70.1463 180.15 69.7486C180.15 69.348 180.092 68.9858 179.975 68.6619C179.862 68.3352 179.688 68.0753 179.455 67.8821C179.222 67.6889 178.933 67.5923 178.586 67.5923C178.231 67.5923 177.935 67.6889 177.7 67.8821C177.467 68.0753 177.292 68.3352 177.175 68.6619C177.062 68.9858 177.005 69.348 177.005 69.7486C177.005 70.1463 177.062 70.5071 177.175 70.831C177.292 71.1548 177.467 71.4134 177.7 71.6065C177.935 71.7969 178.231 71.892 178.586 71.892ZM184.907 73.1321C184.492 73.1321 184.118 73.0582 183.786 72.9105C183.456 72.7599 183.195 72.5384 183.002 72.2457C182.811 71.9531 182.716 71.5923 182.716 71.1634C182.716 70.794 182.784 70.4886 182.921 70.2472C183.057 70.0057 183.243 69.8125 183.479 69.6676C183.715 69.5227 183.98 69.4134 184.276 69.3395C184.574 69.2628 184.882 69.2074 185.201 69.1733C185.584 69.1335 185.895 69.098 186.134 69.0668C186.373 69.0327 186.546 68.9815 186.654 68.9134C186.765 68.8423 186.82 68.733 186.82 68.5852V68.5597C186.82 68.2386 186.725 67.9901 186.534 67.8139C186.344 67.6378 186.07 67.5497 185.712 67.5497C185.334 67.5497 185.034 67.6321 184.813 67.7969C184.594 67.9616 184.446 68.1562 184.37 68.3807L182.929 68.1761C183.043 67.7784 183.23 67.446 183.492 67.179C183.753 66.9091 184.073 66.7074 184.451 66.5739C184.828 66.4375 185.246 66.3693 185.703 66.3693C186.019 66.3693 186.333 66.4062 186.645 66.4801C186.958 66.554 187.243 66.6761 187.502 66.8466C187.76 67.0142 187.968 67.2429 188.124 67.5327C188.283 67.8224 188.363 68.1847 188.363 68.6193V73H186.88V72.1009H186.828C186.735 72.2827 186.603 72.4531 186.432 72.6122C186.265 72.7685 186.053 72.8949 185.797 72.9915C185.544 73.0852 185.248 73.1321 184.907 73.1321ZM185.307 71.9986C185.617 71.9986 185.885 71.9375 186.113 71.8153C186.34 71.6903 186.515 71.5256 186.637 71.321C186.762 71.1165 186.824 70.8935 186.824 70.652V69.8807C186.776 69.9205 186.694 69.9574 186.577 69.9915C186.463 70.0256 186.336 70.0554 186.194 70.081C186.051 70.1065 185.911 70.1293 185.772 70.1491C185.632 70.169 185.512 70.1861 185.409 70.2003C185.179 70.2315 184.973 70.2827 184.792 70.3537C184.61 70.4247 184.466 70.5241 184.361 70.652C184.256 70.777 184.203 70.9389 184.203 71.1378C184.203 71.4219 184.307 71.6364 184.515 71.7812C184.722 71.9261 184.986 71.9986 185.307 71.9986ZM192.343 73.1151C191.828 73.1151 191.368 72.983 190.962 72.7188C190.556 72.4545 190.235 72.071 189.999 71.5682C189.763 71.0653 189.645 70.4545 189.645 69.7358C189.645 69.0085 189.765 68.3949 190.003 67.8949C190.245 67.392 190.57 67.0128 190.979 66.7571C191.388 66.4986 191.844 66.3693 192.347 66.3693C192.73 66.3693 193.046 66.4347 193.293 66.5653C193.54 66.6932 193.736 66.848 193.881 67.0298C194.026 67.2088 194.138 67.3778 194.218 67.5369H194.282V64.2727H195.828V73H194.311V71.9688H194.218C194.138 72.1278 194.023 72.2969 193.873 72.4759C193.722 72.652 193.523 72.8026 193.276 72.9276C193.029 73.0526 192.718 73.1151 192.343 73.1151ZM192.773 71.8494C193.1 71.8494 193.378 71.7614 193.608 71.5852C193.838 71.4062 194.013 71.1577 194.132 70.8395C194.252 70.5213 194.311 70.1506 194.311 69.7273C194.311 69.304 194.252 68.9361 194.132 68.6236C194.016 68.3111 193.843 68.0682 193.613 67.8949C193.385 67.7216 193.105 67.6349 192.773 67.6349C192.429 67.6349 192.142 67.7244 191.912 67.9034C191.682 68.0824 191.509 68.3295 191.392 68.6449C191.276 68.9602 191.218 69.321 191.218 69.7273C191.218 70.1364 191.276 70.5014 191.392 70.8224C191.512 71.1406 191.686 71.392 191.917 71.5767C192.15 71.7585 192.435 71.8494 192.773 71.8494ZM203.764 66.4545V67.6477H199.895V66.4545H203.764ZM200.862 73V65.8366C200.862 65.3963 200.953 65.0298 201.135 64.7372C201.32 64.4446 201.567 64.2259 201.876 64.081C202.186 63.9361 202.53 63.8636 202.908 63.8636C203.175 63.8636 203.412 63.8849 203.619 63.9276C203.827 63.9702 203.98 64.0085 204.08 64.0426L203.773 65.2358C203.707 65.2159 203.625 65.196 203.526 65.1761C203.426 65.1534 203.315 65.142 203.193 65.142C202.906 65.142 202.703 65.2116 202.584 65.3509C202.467 65.4872 202.409 65.6832 202.409 65.9389V73H200.862ZM204.972 73V66.4545H206.515V73H204.972ZM205.748 65.5256C205.504 65.5256 205.293 65.4446 205.117 65.2827C204.941 65.1179 204.853 64.9205 204.853 64.6903C204.853 64.4574 204.941 64.2599 205.117 64.098C205.293 63.9332 205.504 63.8509 205.748 63.8509C205.995 63.8509 206.205 63.9332 206.379 64.098C206.555 64.2599 206.643 64.4574 206.643 64.6903C206.643 64.9205 206.555 65.1179 206.379 65.2827C206.205 65.4446 205.995 65.5256 205.748 65.5256ZM209.644 64.2727V73H208.101V64.2727H209.644ZM214.128 73.1278C213.472 73.1278 212.905 72.9915 212.428 72.7188C211.953 72.4432 211.588 72.054 211.332 71.5511C211.077 71.0455 210.949 70.4503 210.949 69.7656C210.949 69.0923 211.077 68.5014 211.332 67.9929C211.591 67.4815 211.952 67.0838 212.415 66.7997C212.878 66.5128 213.422 66.3693 214.047 66.3693C214.45 66.3693 214.831 66.4347 215.189 66.5653C215.55 66.6932 215.868 66.892 216.143 67.1619C216.422 67.4318 216.641 67.7756 216.8 68.1932C216.959 68.608 217.038 69.1023 217.038 69.6761V70.1491H211.673V69.1094H215.56C215.557 68.8139 215.493 68.5511 215.368 68.321C215.243 68.0881 215.068 67.9048 214.844 67.7713C214.622 67.6378 214.364 67.571 214.068 67.571C213.753 67.571 213.476 67.6477 213.237 67.8011C212.999 67.9517 212.813 68.1506 212.679 68.3977C212.548 68.642 212.482 68.9105 212.479 69.2031V70.1108C212.479 70.4915 212.548 70.8182 212.688 71.0909C212.827 71.3608 213.021 71.5682 213.271 71.7131C213.521 71.8551 213.814 71.9261 214.149 71.9261C214.374 71.9261 214.577 71.8949 214.759 71.8324C214.94 71.767 215.098 71.6719 215.232 71.5469C215.365 71.4219 215.466 71.267 215.534 71.0824L216.974 71.2443C216.884 71.625 216.71 71.9574 216.455 72.2415C216.202 72.5227 215.878 72.7415 215.483 72.8977C215.088 73.0511 214.636 73.1278 214.128 73.1278ZM223.517 68.1847L222.11 68.3381C222.071 68.196 222.001 68.0625 221.902 67.9375C221.805 67.8125 221.674 67.7116 221.51 67.6349C221.345 67.5582 221.143 67.5199 220.904 67.5199C220.583 67.5199 220.314 67.5895 220.095 67.7287C219.879 67.8679 219.772 68.0483 219.775 68.2699C219.772 68.4602 219.842 68.6151 219.984 68.7344C220.129 68.8537 220.368 68.9517 220.7 69.0284L221.816 69.267C222.436 69.4006 222.896 69.6122 223.197 69.902C223.501 70.1918 223.654 70.571 223.657 71.0398C223.654 71.4517 223.534 71.8153 223.295 72.1307C223.059 72.4432 222.731 72.6875 222.311 72.8636C221.89 73.0398 221.407 73.1278 220.862 73.1278C220.061 73.1278 219.416 72.9602 218.927 72.625C218.439 72.2869 218.147 71.8168 218.054 71.2145L219.558 71.0696C219.626 71.3651 219.771 71.5881 219.993 71.7386C220.214 71.8892 220.502 71.9645 220.858 71.9645C221.224 71.9645 221.518 71.8892 221.74 71.7386C221.964 71.5881 222.076 71.402 222.076 71.1804C222.076 70.9929 222.004 70.8381 221.859 70.7159C221.717 70.5937 221.495 70.5 221.194 70.4347L220.078 70.2003C219.45 70.0696 218.985 69.8494 218.684 69.5398C218.383 69.2273 218.234 68.8324 218.237 68.3551C218.234 67.9517 218.343 67.6023 218.565 67.3068C218.789 67.0085 219.1 66.7784 219.498 66.6165C219.899 66.4517 220.36 66.3693 220.883 66.3693C221.65 66.3693 222.254 66.5327 222.694 66.8594C223.137 67.1861 223.412 67.6278 223.517 68.1847Z" fill="#2286FE"/>
<path d="M101.088 86.4545H101.881V90.7884C101.881 91.2358 101.775 91.6353 101.564 91.9869C101.355 92.3363 101.06 92.6122 100.679 92.8146C100.298 93.0149 99.8501 93.1151 99.3366 93.1151C98.8232 93.1151 98.3757 93.0149 97.9943 92.8146C97.6129 92.6122 97.3168 92.3363 97.1058 91.9869C96.897 91.6353 96.7926 91.2358 96.7926 90.7884V86.4545H97.5852V90.7244C97.5852 91.044 97.6555 91.3285 97.7962 91.5778C97.9368 91.8249 98.1371 92.0199 98.397 92.1626C98.6591 92.3033 98.9723 92.3736 99.3366 92.3736C99.701 92.3736 100.014 92.3033 100.276 92.1626C100.538 92.0199 100.739 91.8249 100.877 91.5778C101.018 91.3285 101.088 91.044 101.088 90.7244V86.4545ZM103.361 94.8409V88.0909H104.09V88.8707H104.179C104.235 88.7855 104.312 88.6768 104.41 88.5447C104.51 88.4105 104.652 88.2912 104.838 88.1868C105.025 88.0803 105.279 88.027 105.598 88.027C106.012 88.027 106.376 88.1303 106.691 88.337C107.007 88.5437 107.253 88.8366 107.43 89.2159C107.607 89.5952 107.695 90.0426 107.695 90.5582C107.695 91.0781 107.607 91.5288 107.43 91.9102C107.253 92.2894 107.008 92.5835 106.695 92.7923C106.381 92.9989 106.02 93.1023 105.611 93.1023C105.296 93.1023 105.043 93.0501 104.854 92.9457C104.664 92.8391 104.518 92.7187 104.416 92.5845C104.314 92.4482 104.235 92.3352 104.179 92.2457H104.116V94.8409H103.361ZM104.103 90.5455C104.103 90.9162 104.157 91.2433 104.266 91.5266C104.374 91.8079 104.533 92.0284 104.742 92.1882C104.951 92.3459 105.206 92.4247 105.509 92.4247C105.824 92.4247 106.087 92.3416 106.298 92.1754C106.511 92.0071 106.671 91.7812 106.778 91.4979C106.886 91.2124 106.941 90.8949 106.941 90.5455C106.941 90.2003 106.888 89.8892 106.781 89.6122C106.677 89.3331 106.518 89.1126 106.305 88.9506C106.094 88.7866 105.829 88.7045 105.509 88.7045C105.202 88.7045 104.944 88.7823 104.736 88.9379C104.527 89.0913 104.369 89.3065 104.263 89.5835C104.156 89.8583 104.103 90.179 104.103 90.5455ZM109.6 86.4545V93H108.846V86.4545H109.6ZM112.976 93.1023C112.532 93.1023 112.144 92.9968 111.809 92.7859C111.477 92.5749 111.217 92.2798 111.029 91.9006C110.844 91.5213 110.751 91.0781 110.751 90.571C110.751 90.0597 110.844 89.6133 111.029 89.2319C111.217 88.8505 111.477 88.5543 111.809 88.3434C112.144 88.1325 112.532 88.027 112.976 88.027C113.419 88.027 113.807 88.1325 114.139 88.3434C114.474 88.5543 114.733 88.8505 114.919 89.2319C115.106 89.6133 115.2 90.0597 115.2 90.571C115.2 91.0781 115.106 91.5213 114.919 91.9006C114.733 92.2798 114.474 92.5749 114.139 92.7859C113.807 92.9968 113.419 93.1023 112.976 93.1023ZM112.976 92.4247C113.312 92.4247 113.589 92.3384 113.807 92.1658C114.024 91.9933 114.185 91.7663 114.289 91.4851C114.394 91.2038 114.446 90.8991 114.446 90.571C114.446 90.2429 114.394 89.9371 114.289 89.6538C114.185 89.3704 114.024 89.1413 113.807 88.9666C113.589 88.7919 113.312 88.7045 112.976 88.7045C112.639 88.7045 112.362 88.7919 112.145 88.9666C111.927 89.1413 111.767 89.3704 111.662 89.6538C111.558 89.9371 111.506 90.2429 111.506 90.571C111.506 90.8991 111.558 91.2038 111.662 91.4851C111.767 91.7663 111.927 91.9933 112.145 92.1658C112.362 92.3384 112.639 92.4247 112.976 92.4247ZM117.796 93.1151C117.485 93.1151 117.203 93.0565 116.949 92.9393C116.696 92.82 116.494 92.6484 116.345 92.4247C116.196 92.1989 116.121 91.9261 116.121 91.6065C116.121 91.3253 116.177 91.0973 116.288 90.9226C116.398 90.7457 116.546 90.6072 116.732 90.5071C116.917 90.407 117.122 90.3324 117.345 90.2834C117.571 90.2322 117.798 90.1918 118.026 90.1619C118.324 90.1236 118.566 90.0948 118.752 90.0756C118.939 90.0543 119.076 90.0192 119.161 89.9702C119.248 89.9212 119.292 89.8359 119.292 89.7145V89.6889C119.292 89.3736 119.206 89.1286 119.033 88.9538C118.862 88.7791 118.604 88.6918 118.256 88.6918C117.896 88.6918 117.614 88.7706 117.409 88.9283C117.205 89.0859 117.061 89.2543 116.978 89.4332L116.262 89.1776C116.39 88.8793 116.56 88.647 116.773 88.4808C116.989 88.3125 117.223 88.1953 117.476 88.1293C117.732 88.0611 117.984 88.027 118.231 88.027C118.388 88.027 118.57 88.0462 118.774 88.0845C118.981 88.1207 119.18 88.1964 119.372 88.3114C119.566 88.4265 119.726 88.6001 119.854 88.8324C119.982 89.0646 120.046 89.3757 120.046 89.7656V93H119.292V92.3352H119.253C119.202 92.4418 119.117 92.5558 118.998 92.6772C118.878 92.7987 118.72 92.902 118.522 92.9872C118.323 93.0724 118.082 93.1151 117.796 93.1151ZM117.911 92.4375C118.209 92.4375 118.461 92.3789 118.665 92.2617C118.872 92.1445 119.028 91.9933 119.132 91.8079C119.239 91.6225 119.292 91.4276 119.292 91.223V90.5327C119.26 90.571 119.19 90.6062 119.081 90.6381C118.974 90.668 118.851 90.6946 118.71 90.718C118.572 90.7393 118.436 90.7585 118.304 90.7756C118.174 90.7905 118.069 90.8033 117.988 90.8139C117.792 90.8395 117.609 90.881 117.438 90.9386C117.27 90.994 117.133 91.0781 117.029 91.1911C116.927 91.3018 116.876 91.4531 116.876 91.6449C116.876 91.907 116.973 92.1051 117.166 92.2393C117.362 92.3714 117.611 92.4375 117.911 92.4375ZM123.276 93.1023C122.867 93.1023 122.506 92.9989 122.193 92.7923C121.88 92.5835 121.635 92.2894 121.458 91.9102C121.281 91.5288 121.193 91.0781 121.193 90.5582C121.193 90.0426 121.281 89.5952 121.458 89.2159C121.635 88.8366 121.881 88.5437 122.196 88.337C122.512 88.1303 122.876 88.027 123.289 88.027C123.609 88.027 123.861 88.0803 124.047 88.1868C124.234 88.2912 124.377 88.4105 124.475 88.5447C124.575 88.6768 124.653 88.7855 124.708 88.8707H124.772V86.4545H125.526V93H124.798V92.2457H124.708C124.653 92.3352 124.574 92.4482 124.472 92.5845C124.369 92.7187 124.224 92.8391 124.034 92.9457C123.844 93.0501 123.592 93.1023 123.276 93.1023ZM123.379 92.4247C123.681 92.4247 123.937 92.3459 124.146 92.1882C124.355 92.0284 124.513 91.8079 124.622 91.5266C124.731 91.2433 124.785 90.9162 124.785 90.5455C124.785 90.179 124.732 89.8583 124.625 89.5835C124.519 89.3065 124.361 89.0913 124.152 88.9379C123.943 88.7823 123.686 88.7045 123.379 88.7045C123.059 88.7045 122.793 88.7866 122.58 88.9506C122.369 89.1126 122.21 89.3331 122.104 89.6122C121.999 89.8892 121.947 90.2003 121.947 90.5455C121.947 90.8949 122 91.2124 122.107 91.4979C122.215 91.7812 122.375 92.0071 122.586 92.1754C122.799 92.3416 123.063 92.4247 123.379 92.4247ZM129.544 93V88.0909H130.273V88.8324H130.324C130.413 88.5895 130.575 88.3924 130.809 88.2411C131.044 88.0898 131.308 88.0142 131.602 88.0142C131.657 88.0142 131.727 88.0153 131.81 88.0174C131.893 88.0195 131.956 88.0227 131.998 88.027V88.794C131.973 88.7876 131.914 88.7781 131.823 88.7653C131.733 88.7504 131.638 88.7429 131.538 88.7429C131.3 88.7429 131.086 88.793 130.899 88.8931C130.714 88.9911 130.567 89.1275 130.458 89.3022C130.351 89.4748 130.298 89.6719 130.298 89.8935V93H129.544ZM134.801 93.1023C134.328 93.1023 133.92 92.9979 133.577 92.7891C133.236 92.5781 132.973 92.2841 132.788 91.907C132.605 91.5277 132.513 91.0866 132.513 90.5838C132.513 90.081 132.605 89.6378 132.788 89.2543C132.973 88.8686 133.231 88.5682 133.561 88.353C133.894 88.1357 134.281 88.027 134.725 88.027C134.98 88.027 135.233 88.0696 135.482 88.1548C135.731 88.2401 135.958 88.3786 136.163 88.5703C136.367 88.7599 136.53 89.0114 136.652 89.3246C136.773 89.6378 136.834 90.0234 136.834 90.4815V90.8011H133.05V90.1491H136.067C136.067 89.8722 136.012 89.625 135.901 89.4077C135.792 89.1903 135.637 89.0188 135.434 88.8931C135.234 88.7674 134.997 88.7045 134.725 88.7045C134.424 88.7045 134.164 88.7791 133.945 88.9283C133.727 89.0753 133.56 89.267 133.443 89.5036C133.326 89.7401 133.267 89.9936 133.267 90.2642V90.6989C133.267 91.0696 133.331 91.3839 133.459 91.6417C133.589 91.8974 133.769 92.0923 133.999 92.2266C134.229 92.3587 134.497 92.4247 134.801 92.4247C134.999 92.4247 135.178 92.397 135.338 92.3416C135.5 92.2841 135.64 92.1989 135.757 92.0859C135.874 91.9709 135.965 91.8281 136.029 91.6577L136.757 91.8622C136.681 92.1094 136.552 92.3267 136.371 92.5142C136.189 92.6996 135.966 92.8445 135.699 92.9489C135.433 93.0511 135.134 93.1023 134.801 93.1023ZM141.331 94.8409V92.2457H141.267C141.211 92.3352 141.133 92.4482 141.03 92.5845C140.928 92.7187 140.782 92.8391 140.593 92.9457C140.403 93.0501 140.15 93.1023 139.835 93.1023C139.426 93.1023 139.065 92.9989 138.752 92.7923C138.438 92.5835 138.193 92.2894 138.017 91.9102C137.84 91.5288 137.751 91.0781 137.751 90.5582C137.751 90.0426 137.84 89.5952 138.017 89.2159C138.193 88.8366 138.439 88.5437 138.755 88.337C139.07 88.1303 139.434 88.027 139.848 88.027C140.167 88.027 140.42 88.0803 140.605 88.1868C140.793 88.2912 140.936 88.4105 141.034 88.5447C141.134 88.6768 141.211 88.7855 141.267 88.8707H141.356V88.0909H142.085V94.8409H141.331ZM139.937 92.4247C140.24 92.4247 140.496 92.3459 140.704 92.1882C140.913 92.0284 141.072 91.8079 141.181 91.5266C141.289 91.2433 141.344 90.9162 141.344 90.5455C141.344 90.179 141.29 89.8583 141.184 89.5835C141.077 89.3065 140.92 89.0913 140.711 88.9379C140.502 88.7823 140.244 88.7045 139.937 88.7045C139.618 88.7045 139.351 88.7866 139.138 88.9506C138.927 89.1126 138.769 89.3331 138.662 89.6122C138.558 89.8892 138.506 90.2003 138.506 90.5455C138.506 90.8949 138.559 91.2124 138.665 91.4979C138.774 91.7812 138.934 92.0071 139.145 92.1754C139.358 92.3416 139.622 92.4247 139.937 92.4247ZM146.559 90.9929V88.0909H147.314V93H146.559V92.169H146.508C146.393 92.4183 146.214 92.6303 145.971 92.805C145.729 92.9776 145.422 93.0639 145.051 93.0639C144.744 93.0639 144.471 92.9968 144.233 92.8626C143.994 92.7262 143.807 92.5217 143.67 92.2489C143.534 91.9741 143.466 91.6278 143.466 91.2102V88.0909H144.22V91.1591C144.22 91.517 144.32 91.8026 144.52 92.0156C144.723 92.2287 144.981 92.3352 145.294 92.3352C145.481 92.3352 145.672 92.2873 145.866 92.1914C146.062 92.0955 146.226 91.9485 146.358 91.7504C146.492 91.5522 146.559 91.2997 146.559 90.9929ZM148.695 93V88.0909H149.449V93H148.695ZM149.079 87.2727C148.932 87.2727 148.805 87.2227 148.698 87.1225C148.594 87.0224 148.542 86.902 148.542 86.7614C148.542 86.6207 148.594 86.5004 148.698 86.4002C148.805 86.3001 148.932 86.25 149.079 86.25C149.226 86.25 149.351 86.3001 149.456 86.4002C149.562 86.5004 149.616 86.6207 149.616 86.7614C149.616 86.902 149.562 87.0224 149.456 87.1225C149.351 87.2227 149.226 87.2727 149.079 87.2727ZM150.831 93V88.0909H151.56V88.8324H151.611C151.7 88.5895 151.862 88.3924 152.097 88.2411C152.331 88.0898 152.595 88.0142 152.889 88.0142C152.945 88.0142 153.014 88.0153 153.097 88.0174C153.18 88.0195 153.243 88.0227 153.286 88.027V88.794C153.26 88.7876 153.201 88.7781 153.11 88.7653C153.02 88.7504 152.925 88.7429 152.825 88.7429C152.587 88.7429 152.374 88.793 152.186 88.8931C152.001 88.9911 151.854 89.1275 151.745 89.3022C151.638 89.4748 151.585 89.6719 151.585 89.8935V93H150.831ZM156.088 93.1023C155.615 93.1023 155.207 92.9979 154.864 92.7891C154.523 92.5781 154.26 92.2841 154.075 91.907C153.892 91.5277 153.8 91.0866 153.8 90.5838C153.8 90.081 153.892 89.6378 154.075 89.2543C154.26 88.8686 154.518 88.5682 154.848 88.353C155.181 88.1357 155.569 88.027 156.012 88.027C156.267 88.027 156.52 88.0696 156.769 88.1548C157.018 88.2401 157.245 88.3786 157.45 88.5703C157.654 88.7599 157.817 89.0114 157.939 89.3246C158.06 89.6378 158.121 90.0234 158.121 90.4815V90.8011H154.337V90.1491H157.354C157.354 89.8722 157.299 89.625 157.188 89.4077C157.079 89.1903 156.924 89.0188 156.721 88.8931C156.521 88.7674 156.284 88.7045 156.012 88.7045C155.711 88.7045 155.451 88.7791 155.232 88.9283C155.015 89.0753 154.847 89.267 154.73 89.5036C154.613 89.7401 154.554 89.9936 154.554 90.2642V90.6989C154.554 91.0696 154.618 91.3839 154.746 91.6417C154.876 91.8974 155.056 92.0923 155.286 92.2266C155.516 92.3587 155.784 92.4247 156.088 92.4247C156.287 92.4247 156.466 92.397 156.625 92.3416C156.787 92.2841 156.927 92.1989 157.044 92.0859C157.161 91.9709 157.252 91.8281 157.316 91.6577L158.044 91.8622C157.968 92.1094 157.839 92.3267 157.658 92.5142C157.477 92.6996 157.253 92.8445 156.987 92.9489C156.72 93.0511 156.421 93.1023 156.088 93.1023ZM161.122 93.1023C160.713 93.1023 160.352 92.9989 160.039 92.7923C159.725 92.5835 159.48 92.2894 159.304 91.9102C159.127 91.5288 159.038 91.0781 159.038 90.5582C159.038 90.0426 159.127 89.5952 159.304 89.2159C159.48 88.8366 159.727 88.5437 160.042 88.337C160.357 88.1303 160.722 88.027 161.135 88.027C161.455 88.027 161.707 88.0803 161.892 88.1868C162.08 88.2912 162.223 88.4105 162.321 88.5447C162.421 88.6768 162.499 88.7855 162.554 88.8707H162.618V86.4545H163.372V93H162.643V92.2457H162.554C162.499 92.3352 162.42 92.4482 162.317 92.5845C162.215 92.7187 162.069 92.8391 161.88 92.9457C161.69 93.0501 161.438 93.1023 161.122 93.1023ZM161.224 92.4247C161.527 92.4247 161.783 92.3459 161.991 92.1882C162.2 92.0284 162.359 91.8079 162.468 91.5266C162.576 91.2433 162.631 90.9162 162.631 90.5455C162.631 90.179 162.577 89.8583 162.471 89.5835C162.364 89.3065 162.207 89.0913 161.998 88.9379C161.789 88.7823 161.531 88.7045 161.224 88.7045C160.905 88.7045 160.638 88.7866 160.425 88.9506C160.214 89.1126 160.056 89.3331 159.949 89.6122C159.845 89.8892 159.793 90.2003 159.793 90.5455C159.793 90.8949 159.846 91.2124 159.952 91.4979C160.061 91.7812 160.221 92.0071 160.432 92.1754C160.645 92.3416 160.909 92.4247 161.224 92.4247ZM169.243 93.1023C168.834 93.1023 168.473 92.9989 168.16 92.7923C167.847 92.5835 167.602 92.2894 167.425 91.9102C167.248 91.5288 167.159 91.0781 167.159 90.5582C167.159 90.0426 167.248 89.5952 167.425 89.2159C167.602 88.8366 167.848 88.5437 168.163 88.337C168.478 88.1303 168.843 88.027 169.256 88.027C169.576 88.027 169.828 88.0803 170.013 88.1868C170.201 88.2912 170.344 88.4105 170.442 88.5447C170.542 88.6768 170.62 88.7855 170.675 88.8707H170.739V86.4545H171.493V93H170.765V92.2457H170.675C170.62 92.3352 170.541 92.4482 170.439 92.5845C170.336 92.7187 170.19 92.8391 170.001 92.9457C169.811 93.0501 169.559 93.1023 169.243 93.1023ZM169.346 92.4247C169.648 92.4247 169.904 92.3459 170.113 92.1882C170.321 92.0284 170.48 91.8079 170.589 91.5266C170.697 91.2433 170.752 90.9162 170.752 90.5455C170.752 90.179 170.699 89.8583 170.592 89.5835C170.485 89.3065 170.328 89.0913 170.119 88.9379C169.91 88.7823 169.652 88.7045 169.346 88.7045C169.026 88.7045 168.76 88.7866 168.547 88.9506C168.336 89.1126 168.177 89.3331 168.07 89.6122C167.966 89.8892 167.914 90.2003 167.914 90.5455C167.914 90.8949 167.967 91.2124 168.074 91.4979C168.182 91.7812 168.342 92.0071 168.553 92.1754C168.766 92.3416 169.03 92.4247 169.346 92.4247ZM174.974 93.1023C174.531 93.1023 174.142 92.9968 173.807 92.7859C173.475 92.5749 173.215 92.2798 173.027 91.9006C172.842 91.5213 172.749 91.0781 172.749 90.571C172.749 90.0597 172.842 89.6133 173.027 89.2319C173.215 88.8505 173.475 88.5543 173.807 88.3434C174.142 88.1325 174.531 88.027 174.974 88.027C175.417 88.027 175.805 88.1325 176.137 88.3434C176.472 88.5543 176.732 88.8505 176.917 89.2319C177.104 89.6133 177.198 90.0597 177.198 90.571C177.198 91.0781 177.104 91.5213 176.917 91.9006C176.732 92.2798 176.472 92.5749 176.137 92.7859C175.805 92.9968 175.417 93.1023 174.974 93.1023ZM174.974 92.4247C175.31 92.4247 175.587 92.3384 175.805 92.1658C176.022 91.9933 176.183 91.7663 176.287 91.4851C176.392 91.2038 176.444 90.8991 176.444 90.571C176.444 90.2429 176.392 89.9371 176.287 89.6538C176.183 89.3704 176.022 89.1413 175.805 88.9666C175.587 88.7919 175.31 88.7045 174.974 88.7045C174.637 88.7045 174.36 88.7919 174.143 88.9666C173.925 89.1413 173.765 89.3704 173.66 89.6538C173.556 89.9371 173.504 90.2429 173.504 90.571C173.504 90.8991 173.556 91.2038 173.66 91.4851C173.765 91.7663 173.925 91.9933 174.143 92.1658C174.36 92.3384 174.637 92.4247 174.974 92.4247ZM180.344 93.1023C179.884 93.1023 179.487 92.9936 179.155 92.7763C178.823 92.5589 178.567 92.2596 178.388 91.8782C178.209 91.4968 178.119 91.0611 178.119 90.571C178.119 90.0724 178.211 89.6325 178.394 89.2511C178.58 88.8675 178.837 88.5682 179.168 88.353C179.5 88.1357 179.888 88.027 180.331 88.027C180.676 88.027 180.987 88.0909 181.264 88.2188C181.541 88.3466 181.768 88.5256 181.945 88.7557C182.122 88.9858 182.232 89.2543 182.274 89.5611H181.52C181.462 89.3374 181.335 89.1392 181.136 88.9666C180.94 88.7919 180.676 88.7045 180.344 88.7045C180.05 88.7045 179.792 88.7812 179.57 88.9347C179.351 89.0859 179.179 89.3001 179.056 89.5771C178.934 89.8519 178.874 90.1747 178.874 90.5455C178.874 90.9247 178.933 91.255 179.053 91.5362C179.174 91.8175 179.345 92.0359 179.564 92.1914C179.786 92.3469 180.046 92.4247 180.344 92.4247C180.54 92.4247 180.718 92.3906 180.878 92.3224C181.037 92.2543 181.173 92.1562 181.283 92.0284C181.394 91.9006 181.473 91.7472 181.52 91.5682H182.274C182.232 91.858 182.126 92.119 181.958 92.3512C181.792 92.5813 181.571 92.7646 181.296 92.9009C181.024 93.0352 180.706 93.1023 180.344 93.1023ZM186.471 90.9929V88.0909H187.225V93H186.471V92.169H186.419C186.304 92.4183 186.125 92.6303 185.883 92.805C185.64 92.9776 185.333 93.0639 184.962 93.0639C184.655 93.0639 184.383 92.9968 184.144 92.8626C183.905 92.7262 183.718 92.5217 183.581 92.2489C183.445 91.9741 183.377 91.6278 183.377 91.2102V88.0909H184.131V91.1591C184.131 91.517 184.231 91.8026 184.432 92.0156C184.634 92.2287 184.892 92.3352 185.205 92.3352C185.392 92.3352 185.583 92.2873 185.777 92.1914C185.973 92.0955 186.137 91.9485 186.269 91.7504C186.403 91.5522 186.471 91.2997 186.471 90.9929ZM188.606 93V88.0909H189.335V88.858H189.399C189.501 88.5959 189.666 88.3924 189.894 88.2475C190.122 88.1005 190.396 88.027 190.716 88.027C191.04 88.027 191.309 88.1005 191.524 88.2475C191.742 88.3924 191.911 88.5959 192.032 88.858H192.084C192.209 88.6044 192.398 88.4031 192.649 88.2539C192.901 88.1026 193.202 88.027 193.554 88.027C193.993 88.027 194.352 88.1644 194.631 88.4393C194.91 88.712 195.05 89.1371 195.05 89.7145V93H194.295V89.7145C194.295 89.3523 194.196 89.0934 193.998 88.9379C193.8 88.7823 193.567 88.7045 193.298 88.7045C192.953 88.7045 192.686 88.8089 192.496 89.0178C192.306 89.2244 192.211 89.4865 192.211 89.804V93H191.444V89.6378C191.444 89.3587 191.354 89.1339 191.173 88.9634C190.992 88.7908 190.758 88.7045 190.473 88.7045C190.277 88.7045 190.094 88.7567 189.923 88.8612C189.755 88.9656 189.618 89.1104 189.514 89.2958C189.412 89.479 189.361 89.6911 189.361 89.9318V93H188.606ZM198.487 93.1023C198.014 93.1023 197.606 92.9979 197.263 92.7891C196.922 92.5781 196.659 92.2841 196.473 91.907C196.29 91.5277 196.199 91.0866 196.199 90.5838C196.199 90.081 196.29 89.6378 196.473 89.2543C196.659 88.8686 196.917 88.5682 197.247 88.353C197.579 88.1357 197.967 88.027 198.41 88.027C198.666 88.027 198.918 88.0696 199.168 88.1548C199.417 88.2401 199.644 88.3786 199.848 88.5703C200.053 88.7599 200.216 89.0114 200.337 89.3246C200.459 89.6378 200.52 90.0234 200.52 90.4815V90.8011H196.735V90.1491H199.752C199.752 89.8722 199.697 89.625 199.586 89.4077C199.478 89.1903 199.322 89.0188 199.12 88.8931C198.919 88.7674 198.683 88.7045 198.41 88.7045C198.11 88.7045 197.85 88.7791 197.63 88.9283C197.413 89.0753 197.246 89.267 197.129 89.5036C197.011 89.7401 196.953 89.9936 196.953 90.2642V90.6989C196.953 91.0696 197.017 91.3839 197.145 91.6417C197.275 91.8974 197.455 92.0923 197.685 92.2266C197.915 92.3587 198.182 92.4247 198.487 92.4247C198.685 92.4247 198.864 92.397 199.024 92.3416C199.186 92.2841 199.325 92.1989 199.442 92.0859C199.56 91.9709 199.65 91.8281 199.714 91.6577L200.443 91.8622C200.366 92.1094 200.237 92.3267 200.056 92.5142C199.875 92.6996 199.651 92.8445 199.385 92.9489C199.119 93.0511 198.819 93.1023 198.487 93.1023ZM202.421 90.0469V93H201.667V88.0909H202.396V88.858H202.46C202.575 88.6087 202.749 88.4084 202.984 88.2571C203.218 88.1037 203.521 88.027 203.891 88.027C204.224 88.027 204.515 88.0952 204.764 88.2315C205.013 88.3658 205.207 88.5703 205.346 88.8452C205.484 89.1179 205.553 89.4631 205.553 89.8807V93H204.799V89.9318C204.799 89.5462 204.699 89.2457 204.499 89.0305C204.298 88.8132 204.023 88.7045 203.674 88.7045C203.433 88.7045 203.218 88.7567 203.028 88.8612C202.841 88.9656 202.693 89.1179 202.584 89.3182C202.475 89.5185 202.421 89.7614 202.421 90.0469ZM209.066 88.0909V88.7301H206.522V88.0909H209.066ZM207.264 86.9148H208.018V91.5938C208.018 91.8068 208.049 91.9666 208.111 92.0732C208.175 92.1776 208.256 92.2479 208.354 92.2841C208.454 92.3182 208.559 92.3352 208.67 92.3352C208.753 92.3352 208.821 92.331 208.875 92.3224C208.928 92.3118 208.971 92.3033 209.003 92.2969L209.156 92.9744C209.105 92.9936 209.033 93.0128 208.942 93.032C208.85 93.0533 208.734 93.0639 208.593 93.0639C208.38 93.0639 208.172 93.0181 207.967 92.9265C207.765 92.8349 207.596 92.6953 207.462 92.5078C207.33 92.3203 207.264 92.0838 207.264 91.7983V86.9148ZM213.59 89.1903L212.913 89.3821C212.87 89.2692 212.807 89.1594 212.724 89.0529C212.643 88.9442 212.533 88.8548 212.392 88.7844C212.251 88.7141 212.071 88.679 211.852 88.679C211.551 88.679 211.301 88.7482 211.101 88.8867C210.903 89.0231 210.804 89.1967 210.804 89.4077C210.804 89.5952 210.872 89.7433 211.008 89.8519C211.144 89.9606 211.358 90.0511 211.647 90.1236L212.376 90.3026C212.815 90.4091 213.142 90.5721 213.357 90.7915C213.572 91.0089 213.68 91.2891 213.68 91.6321C213.68 91.9134 213.599 92.1648 213.437 92.3864C213.277 92.608 213.054 92.7827 212.766 92.9105C212.478 93.0384 212.144 93.1023 211.762 93.1023C211.262 93.1023 210.847 92.9936 210.519 92.7763C210.191 92.5589 209.983 92.2415 209.896 91.8239L210.612 91.6449C210.68 91.9091 210.809 92.1072 210.998 92.2393C211.19 92.3714 211.441 92.4375 211.75 92.4375C212.101 92.4375 212.38 92.3629 212.587 92.2138C212.796 92.0625 212.9 91.8814 212.9 91.6705C212.9 91.5 212.84 91.3572 212.721 91.2422C212.602 91.125 212.419 91.0376 212.171 90.9801L211.353 90.7884C210.904 90.6818 210.573 90.5167 210.362 90.293C210.154 90.0671 210.049 89.7848 210.049 89.446C210.049 89.169 210.127 88.924 210.283 88.7109C210.44 88.4979 210.654 88.3306 210.925 88.2092C211.198 88.0877 211.507 88.027 211.852 88.027C212.338 88.027 212.719 88.1335 212.996 88.3466C213.275 88.5597 213.473 88.8409 213.59 89.1903ZM217.615 90.2386C217.615 89.4332 217.719 88.6928 217.928 88.0174C218.139 87.3398 218.44 86.7166 218.83 86.1477H219.494C219.341 86.3587 219.197 86.6186 219.063 86.9276C218.931 87.2344 218.815 87.5721 218.714 87.9407C218.614 88.3072 218.536 88.6864 218.478 89.0785C218.423 89.4705 218.395 89.8572 218.395 90.2386C218.395 90.7457 218.444 91.2603 218.542 91.7823C218.64 92.3043 218.772 92.7891 218.938 93.2365C219.104 93.6839 219.29 94.0483 219.494 94.3295H218.83C218.44 93.7607 218.139 93.1385 217.928 92.4631C217.719 91.7855 217.615 91.044 217.615 90.2386ZM220.607 94.8409V88.0909H221.336V88.8707H221.426C221.481 88.7855 221.558 88.6768 221.656 88.5447C221.756 88.4105 221.899 88.2912 222.084 88.1868C222.271 88.0803 222.525 88.027 222.845 88.027C223.258 88.027 223.622 88.1303 223.938 88.337C224.253 88.5437 224.499 88.8366 224.676 89.2159C224.853 89.5952 224.941 90.0426 224.941 90.5582C224.941 91.0781 224.853 91.5288 224.676 91.9102C224.499 92.2894 224.254 92.5835 223.941 92.7923C223.628 92.9989 223.266 93.1023 222.857 93.1023C222.542 93.1023 222.29 93.0501 222.1 92.9457C221.91 92.8391 221.764 92.7187 221.662 92.5845C221.56 92.4482 221.481 92.3352 221.426 92.2457H221.362V94.8409H220.607ZM221.349 90.5455C221.349 90.9162 221.403 91.2433 221.512 91.5266C221.62 91.8079 221.779 92.0284 221.988 92.1882C222.197 92.3459 222.453 92.4247 222.755 92.4247C223.07 92.4247 223.334 92.3416 223.544 92.1754C223.758 92.0071 223.917 91.7812 224.024 91.4979C224.133 91.2124 224.187 90.8949 224.187 90.5455C224.187 90.2003 224.134 89.8892 224.027 89.6122C223.923 89.3331 223.764 89.1126 223.551 88.9506C223.34 88.7866 223.075 88.7045 222.755 88.7045C222.448 88.7045 222.19 88.7823 221.982 88.9379C221.773 89.0913 221.615 89.3065 221.509 89.5835C221.402 89.8583 221.349 90.179 221.349 90.5455ZM227.945 93.1023C227.536 93.1023 227.175 92.9989 226.862 92.7923C226.549 92.5835 226.304 92.2894 226.127 91.9102C225.95 91.5288 225.862 91.0781 225.862 90.5582C225.862 90.0426 225.95 89.5952 226.127 89.2159C226.304 88.8366 226.55 88.5437 226.865 88.337C227.18 88.1303 227.545 88.027 227.958 88.027C228.278 88.027 228.53 88.0803 228.716 88.1868C228.903 88.2912 229.046 88.4105 229.144 88.5447C229.244 88.6768 229.322 88.7855 229.377 88.8707H229.441V86.4545H230.195V93H229.467V92.2457H229.377C229.322 92.3352 229.243 92.4482 229.141 92.5845C229.038 92.7187 228.892 92.8391 228.703 92.9457C228.513 93.0501 228.261 93.1023 227.945 93.1023ZM228.048 92.4247C228.35 92.4247 228.606 92.3459 228.815 92.1882C229.024 92.0284 229.182 91.8079 229.291 91.5266C229.4 91.2433 229.454 90.9162 229.454 90.5455C229.454 90.179 229.401 89.8583 229.294 89.5835C229.188 89.3065 229.03 89.0913 228.821 88.9379C228.612 88.7823 228.354 88.7045 228.048 88.7045C227.728 88.7045 227.462 88.7866 227.249 88.9506C227.038 89.1126 226.879 89.3331 226.772 89.6122C226.668 89.8892 226.616 90.2003 226.616 90.5455C226.616 90.8949 226.669 91.2124 226.776 91.4979C226.884 91.7812 227.044 92.0071 227.255 92.1754C227.468 92.3416 227.732 92.4247 228.048 92.4247ZM233.868 88.0909V88.7301H231.221V88.0909H233.868ZM232.014 93V87.4134C232.014 87.1321 232.08 86.8977 232.212 86.7102C232.344 86.5227 232.516 86.3821 232.727 86.2884C232.938 86.1946 233.16 86.1477 233.395 86.1477C233.58 86.1477 233.731 86.1626 233.848 86.1925C233.966 86.2223 234.053 86.25 234.111 86.2756L233.893 86.9276C233.855 86.9148 233.802 86.8988 233.733 86.8796C233.667 86.8604 233.58 86.8509 233.471 86.8509C233.222 86.8509 233.042 86.9137 232.931 87.0394C232.823 87.1651 232.768 87.3494 232.768 87.5923V93H232.014ZM235.54 92.1051L235.489 92.4503C235.453 92.6932 235.397 92.9531 235.323 93.2301C235.25 93.5071 235.175 93.7681 235.096 94.0131C235.017 94.2582 234.952 94.4531 234.901 94.598H234.325C234.353 94.4616 234.389 94.2816 234.434 94.0579C234.479 93.8342 234.524 93.5838 234.568 93.3068C234.615 93.032 234.654 92.7507 234.683 92.4631L234.722 92.1051H235.54ZM241.322 93.1023C240.913 93.1023 240.552 92.9989 240.239 92.7923C239.926 92.5835 239.681 92.2894 239.504 91.9102C239.327 91.5288 239.239 91.0781 239.239 90.5582C239.239 90.0426 239.327 89.5952 239.504 89.2159C239.681 88.8366 239.927 88.5437 240.242 88.337C240.557 88.1303 240.922 88.027 241.335 88.027C241.655 88.027 241.907 88.0803 242.093 88.1868C242.28 88.2912 242.423 88.4105 242.521 88.5447C242.621 88.6768 242.699 88.7855 242.754 88.8707H242.818V86.4545H243.572V93H242.844V92.2457H242.754C242.699 92.3352 242.62 92.4482 242.518 92.5845C242.415 92.7187 242.269 92.8391 242.08 92.9457C241.89 93.0501 241.638 93.1023 241.322 93.1023ZM241.425 92.4247C241.727 92.4247 241.983 92.3459 242.192 92.1882C242.4 92.0284 242.559 91.8079 242.668 91.5266C242.777 91.2433 242.831 90.9162 242.831 90.5455C242.831 90.179 242.778 89.8583 242.671 89.5835C242.565 89.3065 242.407 89.0913 242.198 88.9379C241.989 88.7823 241.731 88.7045 241.425 88.7045C241.105 88.7045 240.839 88.7866 240.626 88.9506C240.415 89.1126 240.256 89.3331 240.149 89.6122C240.045 89.8892 239.993 90.2003 239.993 90.5455C239.993 90.8949 240.046 91.2124 240.153 91.4979C240.261 91.7812 240.421 92.0071 240.632 92.1754C240.845 92.3416 241.109 92.4247 241.425 92.4247ZM247.053 93.1023C246.61 93.1023 246.221 92.9968 245.886 92.7859C245.554 92.5749 245.294 92.2798 245.106 91.9006C244.921 91.5213 244.828 91.0781 244.828 90.571C244.828 90.0597 244.921 89.6133 245.106 89.2319C245.294 88.8505 245.554 88.5543 245.886 88.3434C246.221 88.1325 246.61 88.027 247.053 88.027C247.496 88.027 247.884 88.1325 248.216 88.3434C248.551 88.5543 248.811 88.8505 248.996 89.2319C249.184 89.6133 249.277 90.0597 249.277 90.571C249.277 91.0781 249.184 91.5213 248.996 91.9006C248.811 92.2798 248.551 92.5749 248.216 92.7859C247.884 92.9968 247.496 93.1023 247.053 93.1023ZM247.053 92.4247C247.389 92.4247 247.666 92.3384 247.884 92.1658C248.101 91.9933 248.262 91.7663 248.366 91.4851C248.471 91.2038 248.523 90.8991 248.523 90.571C248.523 90.2429 248.471 89.9371 248.366 89.6538C248.262 89.3704 248.101 89.1413 247.884 88.9666C247.666 88.7919 247.389 88.7045 247.053 88.7045C246.716 88.7045 246.439 88.7919 246.222 88.9666C246.005 89.1413 245.844 89.3704 245.739 89.6538C245.635 89.9371 245.583 90.2429 245.583 90.571C245.583 90.8991 245.635 91.2038 245.739 91.4851C245.844 91.7663 246.005 91.9933 246.222 92.1658C246.439 92.3384 246.716 92.4247 247.053 92.4247ZM252.423 93.1023C251.963 93.1023 251.566 92.9936 251.234 92.7763C250.902 92.5589 250.646 92.2596 250.467 91.8782C250.288 91.4968 250.199 91.0611 250.199 90.571C250.199 90.0724 250.29 89.6325 250.473 89.2511C250.659 88.8675 250.917 88.5682 251.247 88.353C251.579 88.1357 251.967 88.027 252.41 88.027C252.755 88.027 253.066 88.0909 253.343 88.2188C253.62 88.3466 253.847 88.5256 254.024 88.7557C254.201 88.9858 254.311 89.2543 254.353 89.5611H253.599C253.542 89.3374 253.414 89.1392 253.216 88.9666C253.02 88.7919 252.755 88.7045 252.423 88.7045C252.129 88.7045 251.871 88.7812 251.65 88.9347C251.43 89.0859 251.259 89.3001 251.135 89.5771C251.013 89.8519 250.953 90.1747 250.953 90.5455C250.953 90.9247 251.012 91.255 251.132 91.5362C251.253 91.8175 251.424 92.0359 251.643 92.1914C251.865 92.3469 252.125 92.4247 252.423 92.4247C252.619 92.4247 252.797 92.3906 252.957 92.3224C253.116 92.2543 253.252 92.1562 253.363 92.0284C253.473 91.9006 253.552 91.7472 253.599 91.5682H254.353C254.311 91.858 254.205 92.119 254.037 92.3512C253.871 92.5813 253.65 92.7646 253.375 92.9009C253.103 93.0352 252.785 93.1023 252.423 93.1023ZM255.966 88.0909L257.142 90.098L258.318 88.0909H259.187L257.602 90.5455L259.187 93H258.318L257.142 91.0952L255.966 93H255.096L256.656 90.5455L255.096 88.0909H255.966ZM261.389 92.1051L261.337 92.4503C261.301 92.6932 261.246 92.9531 261.171 93.2301C261.099 93.5071 261.023 93.7681 260.944 94.0131C260.866 94.2582 260.801 94.4531 260.749 94.598H260.174C260.202 94.4616 260.238 94.2816 260.283 94.0579C260.328 93.8342 260.372 93.5838 260.417 93.3068C260.464 93.032 260.502 92.7507 260.532 92.4631L260.57 92.1051H261.389ZM267.171 93.1023C266.762 93.1023 266.401 92.9989 266.088 92.7923C265.774 92.5835 265.529 92.2894 265.352 91.9102C265.176 91.5288 265.087 91.0781 265.087 90.5582C265.087 90.0426 265.176 89.5952 265.352 89.2159C265.529 88.8366 265.775 88.5437 266.091 88.337C266.406 88.1303 266.77 88.027 267.184 88.027C267.503 88.027 267.756 88.0803 267.941 88.1868C268.129 88.2912 268.271 88.4105 268.369 88.5447C268.47 88.6768 268.547 88.7855 268.603 88.8707H268.667V86.4545H269.421V93H268.692V92.2457H268.603C268.547 92.3352 268.469 92.4482 268.366 92.5845C268.264 92.7187 268.118 92.8391 267.928 92.9457C267.739 93.0501 267.486 93.1023 267.171 93.1023ZM267.273 92.4247C267.576 92.4247 267.831 92.3459 268.04 92.1882C268.249 92.0284 268.408 91.8079 268.517 91.5266C268.625 91.2433 268.68 90.9162 268.68 90.5455C268.68 90.179 268.626 89.8583 268.52 89.5835C268.413 89.3065 268.256 89.0913 268.047 88.9379C267.838 88.7823 267.58 88.7045 267.273 88.7045C266.954 88.7045 266.687 88.7866 266.474 88.9506C266.263 89.1126 266.105 89.3331 265.998 89.6122C265.894 89.8892 265.841 90.2003 265.841 90.5455C265.841 90.8949 265.895 91.2124 266.001 91.4979C266.11 91.7812 266.27 92.0071 266.481 92.1754C266.694 92.3416 266.958 92.4247 267.273 92.4247ZM272.901 93.1023C272.458 93.1023 272.069 92.9968 271.735 92.7859C271.403 92.5749 271.143 92.2798 270.955 91.9006C270.77 91.5213 270.677 91.0781 270.677 90.571C270.677 90.0597 270.77 89.6133 270.955 89.2319C271.143 88.8505 271.403 88.5543 271.735 88.3434C272.069 88.1325 272.458 88.027 272.901 88.027C273.345 88.027 273.732 88.1325 274.065 88.3434C274.399 88.5543 274.659 88.8505 274.845 89.2319C275.032 89.6133 275.126 90.0597 275.126 90.571C275.126 91.0781 275.032 91.5213 274.845 91.9006C274.659 92.2798 274.399 92.5749 274.065 92.7859C273.732 92.9968 273.345 93.1023 272.901 93.1023ZM272.901 92.4247C273.238 92.4247 273.515 92.3384 273.732 92.1658C273.95 91.9933 274.111 91.7663 274.215 91.4851C274.319 91.2038 274.372 90.8991 274.372 90.571C274.372 90.2429 274.319 89.9371 274.215 89.6538C274.111 89.3704 273.95 89.1413 273.732 88.9666C273.515 88.7919 273.238 88.7045 272.901 88.7045C272.565 88.7045 272.288 88.7919 272.07 88.9666C271.853 89.1413 271.692 89.3704 271.588 89.6538C271.483 89.9371 271.431 90.2429 271.431 90.571C271.431 90.8991 271.483 91.2038 271.588 91.4851C271.692 91.7663 271.853 91.9933 272.07 92.1658C272.288 92.3384 272.565 92.4247 272.901 92.4247ZM278.272 93.1023C277.811 93.1023 277.415 92.9936 277.083 92.7763C276.75 92.5589 276.495 92.2596 276.316 91.8782C276.137 91.4968 276.047 91.0611 276.047 90.571C276.047 90.0724 276.139 89.6325 276.322 89.2511C276.507 88.8675 276.765 88.5682 277.095 88.353C277.428 88.1357 277.816 88.027 278.259 88.027C278.604 88.027 278.915 88.0909 279.192 88.2188C279.469 88.3466 279.696 88.5256 279.873 88.7557C280.05 88.9858 280.159 89.2543 280.202 89.5611H279.448C279.39 89.3374 279.262 89.1392 279.064 88.9666C278.868 88.7919 278.604 88.7045 278.272 88.7045C277.978 88.7045 277.72 88.7812 277.498 88.9347C277.279 89.0859 277.107 89.3001 276.984 89.5771C276.862 89.8519 276.801 90.1747 276.801 90.5455C276.801 90.9247 276.861 91.255 276.98 91.5362C277.102 91.8175 277.272 92.0359 277.492 92.1914C277.713 92.3469 277.973 92.4247 278.272 92.4247C278.468 92.4247 278.646 92.3906 278.805 92.3224C278.965 92.2543 279.1 92.1562 279.211 92.0284C279.322 91.9006 279.401 91.7472 279.448 91.5682H280.202C280.159 91.858 280.054 92.119 279.886 92.3512C279.719 92.5813 279.499 92.7646 279.224 92.9009C278.951 93.0352 278.634 93.1023 278.272 93.1023ZM282.915 90.2386C282.915 91.044 282.81 91.7855 282.599 92.4631C282.39 93.1385 282.091 93.7607 281.701 94.3295H281.036C281.19 94.1186 281.332 93.8587 281.464 93.5497C281.599 93.2429 281.716 92.9062 281.816 92.5398C281.916 92.1712 281.994 91.7908 282.049 91.3988C282.107 91.0046 282.136 90.6179 282.136 90.2386C282.136 89.7315 282.087 89.217 281.989 88.695C281.891 88.1729 281.758 87.6882 281.592 87.2408C281.426 86.7933 281.241 86.429 281.036 86.1477H281.701C282.091 86.7166 282.39 87.3398 282.599 88.0174C282.81 88.6928 282.915 89.4332 282.915 90.2386Z" fill="#5E6D85"/>
</svg>
