<svg width="20" height="18" viewBox="0 0 20 18" fill="none" xmlns="http://www.w3.org/2000/svg">
<path d="M17.75 3.75H2.75C2.55109 3.75 2.36032 3.67098 2.21967 3.53033C2.07902 3.38968 2 3.19891 2 3C2 2.80109 2.07902 2.61032 2.21967 2.46967C2.36032 2.32902 2.55109 2.25 2.75 2.25H15.5C15.6989 2.25 15.8897 2.17098 16.0303 2.03033C16.171 1.88968 16.25 1.69891 16.25 1.5C16.25 1.30109 16.171 1.11032 16.0303 0.96967C15.8897 0.829018 15.6989 0.75 15.5 0.75H2.75C2.15402 0.752468 1.58316 0.990313 1.16174 1.41174C0.740313 1.83316 0.502468 2.40402 0.5 3V15C0.502468 15.596 0.740313 16.1668 1.16174 16.5883C1.58316 17.0097 2.15402 17.2475 2.75 17.25H17.75C18.1478 17.25 18.5294 17.092 18.8107 16.8107C19.092 16.5294 19.25 16.1478 19.25 15.75V5.25C19.25 4.85218 19.092 4.47064 18.8107 4.18934C18.5294 3.90804 18.1478 3.75 17.75 3.75ZM14.375 11.625C14.1525 11.625 13.935 11.559 13.75 11.4354C13.565 11.3118 13.4208 11.1361 13.3356 10.9305C13.2505 10.725 13.2282 10.4988 13.2716 10.2805C13.315 10.0623 13.4222 9.86184 13.5795 9.70451C13.7368 9.54717 13.9373 9.44002 14.1555 9.39662C14.3738 9.35321 14.6 9.37549 14.8055 9.46064C15.0111 9.54578 15.1868 9.68998 15.3104 9.87498C15.434 10.06 15.5 10.2775 15.5 10.5C15.5 10.7984 15.3815 11.0845 15.1705 11.2955C14.9595 11.5065 14.6734 11.625 14.375 11.625Z" fill="#2286FE"/>
</svg>
