<svg width="96" height="96" viewBox="0 0 96 96" fill="none" xmlns="http://www.w3.org/2000/svg">
<path d="M48 39V54" stroke="#EB5757" stroke-width="8" stroke-linecap="round" stroke-linejoin="round"/>
<path d="M42.8273 15.0009L9.82731 72.0009C9.30158 72.9115 9.02437 73.9442 9.02344 74.9957C9.02251 76.0471 9.29789 77.0803 9.822 77.9918C10.3461 78.9033 11.1005 79.6611 12.0097 80.1892C12.9189 80.7173 13.9509 80.9972 15.0023 81.0009H81.0023C82.0537 80.9972 83.0857 80.7173 83.9949 80.1892C84.9041 79.6611 85.6585 78.9033 86.1826 77.9918C86.7067 77.0803 86.9821 76.0471 86.9812 74.9957C86.9802 73.9442 86.703 72.9115 86.1773 72.0009L53.1773 15.0009C52.6555 14.0892 51.9021 13.3315 50.9934 12.8045C50.0846 12.2775 49.0528 12 48.0023 12C46.9518 12 45.92 12.2775 45.0112 12.8045C44.1025 13.3315 43.3491 14.0892 42.8273 15.0009Z" stroke="#EB5757" stroke-width="8" stroke-linecap="round" stroke-linejoin="round"/>
<path d="M48 72C50.4853 72 52.5 69.9853 52.5 67.5C52.5 65.0147 50.4853 63 48 63C45.5147 63 43.5 65.0147 43.5 67.5C43.5 69.9853 45.5147 72 48 72Z" fill="#EB5757"/>
</svg>
