<svg width="49" height="48" viewBox="0 0 49 48" fill="none" xmlns="http://www.w3.org/2000/svg">
<circle cx="24.5" cy="24" r="23.5" stroke="#2286FE"/>
<path d="M21.21 27.5713C22.095 26.7222 23.2741 26.248 24.5006 26.248C25.7271 26.248 26.9062 26.7222 27.7912 27.5713" stroke="#2286FE" stroke-width="2" stroke-linecap="round" stroke-linejoin="round"/>
<path d="M18.0312 24.385C19.7613 22.6969 22.0828 21.752 24.5 21.752C26.9172 21.752 29.2387 22.6969 30.9688 24.385" stroke="#2286FE" stroke-width="2" stroke-linecap="round" stroke-linejoin="round"/>
<path d="M14.8525 21.2065C17.424 18.6725 20.8892 17.252 24.4994 17.252C28.1096 17.252 31.5749 18.6725 34.1463 21.2065" stroke="#2286FE" stroke-width="2" stroke-linecap="round" stroke-linejoin="round"/>
<path d="M25.5625 30.75C25.5625 31.3368 25.0868 31.8125 24.5 31.8125C23.9132 31.8125 23.4375 31.3368 23.4375 30.75C23.4375 30.1632 23.9132 29.6875 24.5 29.6875C25.0868 29.6875 25.5625 30.1632 25.5625 30.75Z" fill="#2286FE" stroke="#2286FE" stroke-width="0.125"/>
</svg>
